%FSLAX34Y34*%
%MOMM*%
%LNSILK_TOP*%
G71*
G01*
%ADD10C, 0.00*%
%ADD11C, 1.80*%
%ADD12C, 1.20*%
%ADD13C, 0.50*%
%ADD14C, 2.00*%
%ADD15C, 1.40*%
%ADD16C, 0.25*%
%ADD17C, 0.40*%
%LPD*%
G54D10*
X0Y0D02*
X1600000Y0D01*
X1600000Y-1000000D01*
X0Y-1000000D01*
X0Y0D01*
X194865Y-131366D02*
G54D11*
D03*
X67865Y-131366D02*
G54D11*
D03*
X231923Y-118230D02*
G54D12*
D03*
X244623Y-130930D02*
G54D12*
D03*
X231923Y-143630D02*
G54D12*
D03*
G54D13*
X194865Y-131366D02*
X244187Y-131366D01*
X244623Y-130930D01*
G54D13*
X235098Y-143630D02*
X243642Y-143630D01*
X259159Y-159147D01*
X259159Y-187722D01*
X252016Y-194866D01*
X235137Y-194866D01*
X233510Y-193239D01*
X172162Y-110413D02*
G54D14*
D03*
G54D13*
X172162Y-110413D02*
X224106Y-110413D01*
X231923Y-118230D01*
X49925Y-130654D02*
G54D14*
D03*
X194468Y-180975D02*
G54D11*
D03*
X67468Y-180975D02*
G54D11*
D03*
X231526Y-167839D02*
G54D12*
D03*
X244226Y-180539D02*
G54D12*
D03*
X231526Y-193239D02*
G54D12*
D03*
G54D13*
X194468Y-180975D02*
X243790Y-180975D01*
X244226Y-180539D01*
G54D13*
X231526Y-193239D02*
X240070Y-193239D01*
X255588Y-208756D01*
X255588Y-237331D01*
X248444Y-244475D01*
X231565Y-244475D01*
X229938Y-242848D01*
X171766Y-160022D02*
G54D14*
D03*
G54D13*
X171766Y-160022D02*
X223709Y-160022D01*
X231526Y-167839D01*
X49528Y-180263D02*
G54D14*
D03*
X194865Y-230584D02*
G54D11*
D03*
X67865Y-230584D02*
G54D11*
D03*
X231923Y-217448D02*
G54D12*
D03*
X244623Y-230148D02*
G54D12*
D03*
X231923Y-242848D02*
G54D12*
D03*
G54D13*
X194865Y-230584D02*
X244187Y-230584D01*
X244623Y-230148D01*
G54D13*
X231923Y-242848D02*
X240467Y-242848D01*
X255984Y-258366D01*
X255984Y-286941D01*
X248841Y-294084D01*
X231962Y-294084D01*
X230335Y-292458D01*
X172162Y-209632D02*
G54D14*
D03*
G54D13*
X172162Y-209632D02*
X224106Y-209632D01*
X231923Y-217448D01*
X49925Y-229872D02*
G54D14*
D03*
X195262Y-280194D02*
G54D11*
D03*
X68262Y-280194D02*
G54D11*
D03*
X232320Y-267058D02*
G54D12*
D03*
X245020Y-279758D02*
G54D12*
D03*
X232320Y-292458D02*
G54D12*
D03*
G54D13*
X195262Y-280194D02*
X244584Y-280194D01*
X245020Y-279758D01*
G54D13*
X232320Y-292458D02*
X240864Y-292458D01*
X256381Y-307975D01*
X256381Y-336550D01*
X249238Y-343694D01*
X232359Y-343694D01*
X230732Y-342067D01*
X172559Y-259241D02*
G54D14*
D03*
G54D13*
X172559Y-259241D02*
X224503Y-259241D01*
X232320Y-267058D01*
X50322Y-279482D02*
G54D14*
D03*
X195262Y-329406D02*
G54D11*
D03*
X68262Y-329406D02*
G54D11*
D03*
X232320Y-316270D02*
G54D12*
D03*
X245020Y-328970D02*
G54D12*
D03*
X232320Y-341670D02*
G54D12*
D03*
G54D13*
X195262Y-329406D02*
X244584Y-329406D01*
X245020Y-328970D01*
G54D13*
X232320Y-341670D02*
X240864Y-341670D01*
X256381Y-357188D01*
X256381Y-385762D01*
X249238Y-392906D01*
X232359Y-392906D01*
X230732Y-391280D01*
X172559Y-308454D02*
G54D14*
D03*
G54D13*
X172559Y-308454D02*
X224503Y-308454D01*
X232320Y-316270D01*
X50322Y-328694D02*
G54D14*
D03*
X195262Y-378619D02*
G54D11*
D03*
X68262Y-378619D02*
G54D11*
D03*
X232320Y-365483D02*
G54D12*
D03*
X245020Y-378183D02*
G54D12*
D03*
X232320Y-390883D02*
G54D12*
D03*
G54D13*
X195262Y-378619D02*
X244584Y-378619D01*
X245020Y-378183D01*
X172559Y-357666D02*
G54D14*
D03*
G54D13*
X172559Y-357666D02*
X224503Y-357666D01*
X232320Y-365483D01*
X50322Y-377907D02*
G54D14*
D03*
X227374Y-419636D02*
G54D14*
D03*
G54D13*
X227374Y-419636D02*
X227374Y-395829D01*
X232320Y-390883D01*
X1158875Y-127000D02*
G54D14*
D03*
X1158875Y-152400D02*
G54D14*
D03*
X1158875Y-177800D02*
G54D14*
D03*
X1158875Y-203200D02*
G54D14*
D03*
X1158875Y-228600D02*
G54D14*
D03*
X1158875Y-254000D02*
G54D14*
D03*
X1158875Y-279400D02*
G54D14*
D03*
G54D13*
G75*
G01X71000Y-50000D02*
G03X71000Y-50000I-21000J0D01*
G01*
G54D13*
G75*
G01X1571000Y-50000D02*
G03X1571000Y-50000I-21000J0D01*
G01*
G54D13*
G75*
G01X1571000Y-950000D02*
G03X1571000Y-950000I-21000J0D01*
G01*
G54D13*
G75*
G01X72400Y-942062D02*
G03X72400Y-942062I-21000J0D01*
G01*
G36*
X1032844Y-169248D02*
X1046844Y-169248D01*
X1046844Y-183248D01*
X1032844Y-183248D01*
X1032844Y-169248D01*
G37*
X1065244Y-176247D02*
G54D15*
D03*
X1090644Y-176247D02*
G54D15*
D03*
X1116044Y-176247D02*
G54D15*
D03*
X1116044Y-124654D02*
G54D15*
D03*
X1090644Y-124654D02*
G54D15*
D03*
X1065244Y-124654D02*
G54D15*
D03*
X1039844Y-124653D02*
G54D15*
D03*
X1016723Y-125283D02*
G54D15*
D03*
X1016724Y-176083D02*
G54D15*
D03*
G54D16*
X1039844Y-176260D02*
X1016825Y-176260D01*
G54D17*
X1042123Y-125283D02*
X1016723Y-125283D01*
G54D13*
X1065212Y-125412D02*
X1076325Y-107950D01*
X1150938Y-107950D01*
X1158875Y-127000D01*
G54D13*
X1116044Y-124654D02*
X1131128Y-124654D01*
X1158875Y-152400D01*
G54D13*
X1066800Y-177800D02*
X1066800Y-152400D01*
X1130300Y-152400D01*
X1155700Y-177800D01*
G54D13*
X1116044Y-176247D02*
X1131922Y-176247D01*
X1158875Y-203200D01*
G54D13*
X1092200Y-127000D02*
X1079500Y-139700D01*
X927100Y-139700D01*
X927100Y-177800D01*
G54D13*
X1092200Y-177800D02*
X1092200Y-177800D01*
X1079500Y-190500D01*
X977900Y-190500D01*
X977900Y-177800D01*
G36*
X893144Y-220048D02*
X907144Y-220048D01*
X907144Y-234048D01*
X893144Y-234048D01*
X893144Y-220048D01*
G37*
X925544Y-227047D02*
G54D15*
D03*
X950944Y-227047D02*
G54D15*
D03*
X976344Y-227047D02*
G54D15*
D03*
X976344Y-175454D02*
G54D15*
D03*
X950944Y-175454D02*
G54D15*
D03*
X925544Y-175454D02*
G54D15*
D03*
X900144Y-175453D02*
G54D15*
D03*
X877023Y-176083D02*
G54D15*
D03*
X877024Y-226883D02*
G54D15*
D03*
G54D16*
X900144Y-227060D02*
X877125Y-227060D01*
G54D17*
X902423Y-176083D02*
X877023Y-176083D01*
G54D13*
X1158875Y-228600D02*
X1130300Y-228600D01*
X1104900Y-203200D01*
X949391Y-203200D01*
X925544Y-227047D01*
G54D13*
X976344Y-227047D02*
X1103347Y-227047D01*
X1130300Y-254000D01*
X1158875Y-254000D01*
X1158875Y-304800D02*
G54D14*
D03*
X1158875Y-330200D02*
G54D14*
D03*
X1158875Y-355600D02*
G54D14*
D03*
G36*
X755000Y-270244D02*
X769000Y-270244D01*
X769000Y-284244D01*
X755000Y-284244D01*
X755000Y-270244D01*
G37*
X787400Y-277244D02*
G54D15*
D03*
X812800Y-277244D02*
G54D15*
D03*
X838200Y-277244D02*
G54D15*
D03*
X838200Y-225650D02*
G54D15*
D03*
X812800Y-225650D02*
G54D15*
D03*
X787400Y-225650D02*
G54D15*
D03*
X762000Y-225650D02*
G54D15*
D03*
X738879Y-226279D02*
G54D15*
D03*
X738879Y-277079D02*
G54D15*
D03*
G54D16*
X762000Y-277256D02*
X738981Y-277256D01*
G54D17*
X764279Y-226279D02*
X738879Y-226279D01*
G54D13*
X952500Y-228600D02*
X952500Y-228600D01*
X939800Y-241300D01*
X838200Y-241300D01*
X838200Y-228600D01*
G54D13*
X950944Y-175454D02*
X938244Y-188154D01*
X785844Y-188154D01*
X785844Y-226254D01*
G54D13*
X787400Y-277244D02*
X789556Y-277244D01*
X812800Y-254000D01*
X1104900Y-254000D01*
X1130300Y-279400D01*
X1158875Y-279400D01*
G54D13*
X1158875Y-304800D02*
X1130300Y-304800D01*
X1104900Y-279400D01*
X840356Y-279400D01*
X838200Y-277244D01*
G54D13*
X812800Y-225650D02*
X800100Y-238350D01*
X647700Y-238350D01*
X647700Y-276450D01*
X1158875Y-381000D02*
G54D14*
D03*
G36*
X615300Y-321044D02*
X629300Y-321044D01*
X629300Y-335044D01*
X615300Y-335044D01*
X615300Y-321044D01*
G37*
X647700Y-328044D02*
G54D15*
D03*
X673100Y-328044D02*
G54D15*
D03*
X698500Y-328044D02*
G54D15*
D03*
X698500Y-276450D02*
G54D15*
D03*
X673100Y-276450D02*
G54D15*
D03*
X647700Y-276450D02*
G54D15*
D03*
X622300Y-276450D02*
G54D15*
D03*
X599179Y-277079D02*
G54D15*
D03*
X599179Y-327879D02*
G54D15*
D03*
G54D16*
X622300Y-328056D02*
X599281Y-328056D01*
G54D17*
X624579Y-277079D02*
X599179Y-277079D01*
G54D13*
X812800Y-276450D02*
X812800Y-276450D01*
X800100Y-289150D01*
X698500Y-289150D01*
X698500Y-276450D01*
G54D13*
X673100Y-276450D02*
X660400Y-289150D01*
X508000Y-289150D01*
X508000Y-327250D01*
G36*
X475600Y-371844D02*
X489600Y-371844D01*
X489600Y-385844D01*
X475600Y-385844D01*
X475600Y-371844D01*
G37*
X508000Y-378844D02*
G54D15*
D03*
X533400Y-378844D02*
G54D15*
D03*
X558800Y-378844D02*
G54D15*
D03*
X558800Y-327250D02*
G54D15*
D03*
X533400Y-327250D02*
G54D15*
D03*
X508000Y-327250D02*
G54D15*
D03*
X482600Y-327250D02*
G54D15*
D03*
X459479Y-327879D02*
G54D15*
D03*
X459479Y-378679D02*
G54D15*
D03*
G54D16*
X482600Y-378856D02*
X459581Y-378856D01*
G54D17*
X484879Y-327879D02*
X459479Y-327879D01*
G54D13*
X673100Y-327250D02*
X673100Y-327250D01*
X660400Y-339950D01*
X558800Y-339950D01*
X558800Y-327250D01*
G36*
X335900Y-422644D02*
X349900Y-422644D01*
X349900Y-436644D01*
X335900Y-436644D01*
X335900Y-422644D01*
G37*
X368300Y-429644D02*
G54D15*
D03*
X393700Y-429644D02*
G54D15*
D03*
X419100Y-429644D02*
G54D15*
D03*
X419100Y-378050D02*
G54D15*
D03*
X393700Y-378050D02*
G54D15*
D03*
X368300Y-378050D02*
G54D15*
D03*
X342900Y-378050D02*
G54D15*
D03*
X319779Y-378679D02*
G54D15*
D03*
X319779Y-429479D02*
G54D15*
D03*
G54D16*
X342900Y-429656D02*
X319881Y-429656D01*
G54D17*
X345179Y-378679D02*
X319779Y-378679D01*
G54D13*
X533400Y-327250D02*
X520700Y-339950D01*
X368300Y-339950D01*
X368300Y-378050D01*
G54D13*
X571500Y-381000D02*
X571500Y-390750D01*
X419100Y-390750D01*
X419100Y-378050D01*
G54D13*
X647700Y-328044D02*
X649856Y-328044D01*
X673100Y-304800D01*
X1104900Y-304800D01*
X1130300Y-330200D01*
X1158875Y-330200D01*
G54D13*
X1158875Y-355600D02*
X1130300Y-355600D01*
X1104900Y-330200D01*
X700656Y-330200D01*
X698500Y-328044D01*
G54D13*
X393700Y-378050D02*
X393700Y-406400D01*
X292100Y-406400D01*
G54D13*
X571500Y-381000D02*
X571500Y-355600D01*
X1104900Y-355600D01*
X1130300Y-381000D01*
X1155700Y-381000D01*
X292100Y-406400D02*
G54D14*
D03*
X1000125Y-169862D02*
G54D14*
D03*
X860425Y-220662D02*
G54D14*
D03*
X720725Y-271462D02*
G54D14*
D03*
X581025Y-322262D02*
G54D14*
D03*
X441325Y-373062D02*
G54D14*
D03*
X441325Y-411162D02*
G54D14*
D03*
X581025Y-411162D02*
G54D14*
D03*
X720725Y-373062D02*
G54D14*
D03*
X860425Y-373062D02*
G54D14*
D03*
X1000125Y-373062D02*
G54D14*
D03*
G54D13*
X1000125Y-373062D02*
X720725Y-373062D01*
X619125Y-373062D01*
X581025Y-411162D01*
X441325Y-411162D01*
X441325Y-436562D02*
G54D14*
D03*
G54D13*
X172162Y-110413D02*
X172162Y-94538D01*
X177800Y-88900D01*
X254000Y-88900D01*
X279400Y-114300D01*
X279400Y-338300D01*
X319779Y-378679D01*
G54D13*
X171766Y-160022D02*
X160022Y-160022D01*
X152400Y-152400D01*
X152400Y-101600D01*
X177800Y-76200D01*
X266700Y-76200D01*
X292100Y-101600D01*
X292100Y-330200D01*
X457158Y-330200D01*
X459479Y-327879D01*
G54D13*
X172162Y-209632D02*
X171532Y-209632D01*
X139700Y-177800D01*
X139700Y-101600D01*
X177800Y-63500D01*
X279400Y-63500D01*
X304800Y-88900D01*
X304800Y-304800D01*
X457200Y-304800D01*
X482600Y-279400D01*
X596858Y-279400D01*
X599179Y-277079D01*
G54D13*
X172559Y-259241D02*
X170341Y-259241D01*
X127000Y-215900D01*
X127000Y-101600D01*
X177800Y-50800D01*
X292100Y-50800D01*
X317500Y-76200D01*
X317500Y-292100D01*
X444500Y-292100D01*
X469900Y-266700D01*
X584200Y-266700D01*
X622300Y-228600D01*
X736558Y-228600D01*
X738879Y-226279D01*
G54D13*
X172559Y-308454D02*
X168754Y-308454D01*
X114300Y-254000D01*
X114300Y-101600D01*
X177800Y-38100D01*
X304800Y-38100D01*
X330200Y-63500D01*
X330200Y-279400D01*
X431800Y-279400D01*
X457200Y-254000D01*
X571500Y-254000D01*
X609600Y-215900D01*
X723900Y-215900D01*
X762000Y-177800D01*
X875306Y-177800D01*
X877023Y-176083D01*
G54D13*
X172559Y-357666D02*
X172559Y-350359D01*
X101600Y-279400D01*
X101600Y-101600D01*
X177800Y-25400D01*
X304800Y-25400D01*
X342900Y-63500D01*
X342900Y-266700D01*
X419100Y-266700D01*
X444500Y-241300D01*
X558800Y-241300D01*
X596900Y-203200D01*
X711200Y-203200D01*
X749300Y-165100D01*
X876300Y-165100D01*
X914400Y-127000D01*
X1015006Y-127000D01*
X1016723Y-125283D01*
G54D13*
X441325Y-411162D02*
X441325Y-436562D01*
G54D13*
X860425Y-220662D02*
X870803Y-220662D01*
X877024Y-226883D01*
G54D13*
X1000125Y-169862D02*
X1010503Y-169862D01*
X1016724Y-176083D01*
G54D13*
X720725Y-271462D02*
X733263Y-271462D01*
X738879Y-277079D01*
G54D13*
X581025Y-322262D02*
X593563Y-322262D01*
X599179Y-327879D01*
X194865Y-537766D02*
G54D11*
D03*
X67865Y-537766D02*
G54D11*
D03*
X231923Y-524630D02*
G54D12*
D03*
X244623Y-537330D02*
G54D12*
D03*
X231923Y-550030D02*
G54D12*
D03*
G54D13*
X194865Y-537766D02*
X244187Y-537766D01*
X244623Y-537330D01*
G54D13*
X235098Y-550030D02*
X243642Y-550030D01*
X259159Y-565547D01*
X259159Y-594122D01*
X252016Y-601266D01*
X235137Y-601266D01*
X233510Y-599639D01*
X172162Y-516813D02*
G54D14*
D03*
G54D13*
X172162Y-516813D02*
X224106Y-516813D01*
X231923Y-524630D01*
X49925Y-537054D02*
G54D14*
D03*
X194468Y-587375D02*
G54D11*
D03*
X67468Y-587375D02*
G54D11*
D03*
X231526Y-574239D02*
G54D12*
D03*
X244226Y-586939D02*
G54D12*
D03*
X231526Y-599639D02*
G54D12*
D03*
G54D13*
X194468Y-587375D02*
X243790Y-587375D01*
X244226Y-586939D01*
G54D13*
X231526Y-599639D02*
X240070Y-599639D01*
X255588Y-615156D01*
X255588Y-643731D01*
X248444Y-650875D01*
X231565Y-650875D01*
X229938Y-649248D01*
X171766Y-566422D02*
G54D14*
D03*
G54D13*
X171766Y-566422D02*
X223709Y-566422D01*
X231526Y-574239D01*
X49528Y-586663D02*
G54D14*
D03*
X194865Y-636984D02*
G54D11*
D03*
X67865Y-636984D02*
G54D11*
D03*
X231923Y-623848D02*
G54D12*
D03*
X244623Y-636548D02*
G54D12*
D03*
X231923Y-649248D02*
G54D12*
D03*
G54D13*
X194865Y-636984D02*
X244187Y-636984D01*
X244623Y-636548D01*
X172162Y-616032D02*
G54D14*
D03*
G54D13*
X172162Y-616032D02*
X224106Y-616032D01*
X231923Y-623848D01*
X49925Y-636272D02*
G54D14*
D03*
X727075Y-469900D02*
G54D14*
D03*
X727075Y-495300D02*
G54D14*
D03*
X727075Y-520700D02*
G54D14*
D03*
X727075Y-546100D02*
G54D14*
D03*
X727075Y-571500D02*
G54D14*
D03*
X727075Y-596900D02*
G54D14*
D03*
G36*
X601044Y-512148D02*
X615044Y-512148D01*
X615044Y-526148D01*
X601044Y-526148D01*
X601044Y-512148D01*
G37*
X633444Y-519147D02*
G54D15*
D03*
X658844Y-519147D02*
G54D15*
D03*
X684244Y-519147D02*
G54D15*
D03*
X684244Y-467554D02*
G54D15*
D03*
X658844Y-467554D02*
G54D15*
D03*
X633444Y-467554D02*
G54D15*
D03*
X608044Y-467553D02*
G54D15*
D03*
X584923Y-468183D02*
G54D15*
D03*
X584923Y-518983D02*
G54D15*
D03*
G54D16*
X608044Y-519160D02*
X585025Y-519160D01*
G54D17*
X610323Y-468183D02*
X584923Y-468183D01*
G54D13*
X633412Y-468312D02*
X644525Y-450850D01*
X719138Y-450850D01*
X727075Y-469900D01*
G54D13*
X684244Y-467554D02*
X699328Y-467554D01*
X727075Y-495300D01*
G54D13*
X635000Y-520700D02*
X635000Y-495300D01*
X698500Y-495300D01*
X723900Y-520700D01*
G54D13*
X684244Y-519147D02*
X700122Y-519147D01*
X727075Y-546100D01*
G54D13*
X660400Y-469900D02*
X647700Y-482600D01*
X495300Y-482600D01*
X495300Y-520700D01*
G54D13*
X660400Y-520700D02*
X660400Y-520700D01*
X647700Y-533400D01*
X546100Y-533400D01*
X546100Y-520700D01*
G36*
X461344Y-562948D02*
X475344Y-562948D01*
X475344Y-576948D01*
X461344Y-576948D01*
X461344Y-562948D01*
G37*
X493744Y-569947D02*
G54D15*
D03*
X519144Y-569947D02*
G54D15*
D03*
X544544Y-569947D02*
G54D15*
D03*
X544544Y-518354D02*
G54D15*
D03*
X519144Y-518354D02*
G54D15*
D03*
X493744Y-518354D02*
G54D15*
D03*
X468344Y-518353D02*
G54D15*
D03*
X445223Y-518983D02*
G54D15*
D03*
X445224Y-569783D02*
G54D15*
D03*
G54D16*
X468344Y-569960D02*
X445325Y-569960D01*
G54D17*
X470623Y-518983D02*
X445223Y-518983D01*
G54D13*
X727075Y-571500D02*
X698500Y-571500D01*
X673100Y-546100D01*
X517591Y-546100D01*
X493744Y-569947D01*
G54D13*
X544544Y-569947D02*
X671547Y-569947D01*
X698500Y-596900D01*
X727075Y-596900D01*
G36*
X323200Y-613144D02*
X337200Y-613144D01*
X337200Y-627144D01*
X323200Y-627144D01*
X323200Y-613144D01*
G37*
X355600Y-620144D02*
G54D15*
D03*
X381000Y-620144D02*
G54D15*
D03*
X406400Y-620144D02*
G54D15*
D03*
X406400Y-568550D02*
G54D15*
D03*
X381000Y-568550D02*
G54D15*
D03*
X355600Y-568550D02*
G54D15*
D03*
X330200Y-568550D02*
G54D15*
D03*
X307079Y-569179D02*
G54D15*
D03*
X307079Y-619979D02*
G54D15*
D03*
G54D16*
X330200Y-620156D02*
X307181Y-620156D01*
G54D17*
X332479Y-569179D02*
X307079Y-569179D01*
G54D13*
X520700Y-571500D02*
X520700Y-571500D01*
X508000Y-584200D01*
X406400Y-584200D01*
X406400Y-571500D01*
G54D13*
X519144Y-518354D02*
X506444Y-531054D01*
X354044Y-531054D01*
X354044Y-569154D01*
G54D13*
X381000Y-568550D02*
X368300Y-581250D01*
X279400Y-581250D01*
X279400Y-581250D02*
G54D14*
D03*
X568325Y-512762D02*
G54D14*
D03*
X428625Y-563562D02*
G54D14*
D03*
X441325Y-614362D02*
G54D14*
D03*
X428625Y-639762D02*
G54D14*
D03*
X568325Y-588962D02*
G54D14*
D03*
G54D13*
X428625Y-563562D02*
X439003Y-563562D01*
X445224Y-569783D01*
G54D13*
X568325Y-512762D02*
X578703Y-512762D01*
X584923Y-518983D01*
G54D13*
X428625Y-639762D02*
X296862Y-639762D01*
X292100Y-635000D01*
X292100Y-630238D01*
X307079Y-619979D01*
G54D13*
X568325Y-588962D02*
X528638Y-588962D01*
X520700Y-596900D01*
X431800Y-596900D01*
X431800Y-636588D01*
X428625Y-639762D01*
G54D13*
X172162Y-516813D02*
X172162Y-513638D01*
X190500Y-495300D01*
X233200Y-495300D01*
X307079Y-569179D01*
G54D13*
X171766Y-566422D02*
X169522Y-566422D01*
X150365Y-547266D01*
X150365Y-497335D01*
X165100Y-482600D01*
X241300Y-482600D01*
X304800Y-546100D01*
X330200Y-546100D01*
X342900Y-533400D01*
X342900Y-520700D01*
X443506Y-520700D01*
X445223Y-518983D01*
G54D13*
X177800Y-622300D02*
X139700Y-584200D01*
X139700Y-482600D01*
X152400Y-469900D01*
X254000Y-469900D01*
X279400Y-495300D01*
X482600Y-495300D01*
X482600Y-469900D01*
X584200Y-469900D01*
X982265Y-537766D02*
G54D11*
D03*
X855265Y-537766D02*
G54D11*
D03*
X1019323Y-524630D02*
G54D12*
D03*
X1032023Y-537330D02*
G54D12*
D03*
X1019323Y-550030D02*
G54D12*
D03*
G54D13*
X982265Y-537766D02*
X1031587Y-537766D01*
X1032023Y-537330D01*
G54D13*
X1022498Y-550030D02*
X1031042Y-550030D01*
X1046559Y-565547D01*
X1046559Y-594122D01*
X1039416Y-601266D01*
X1022537Y-601266D01*
X1020910Y-599639D01*
X959562Y-516813D02*
G54D14*
D03*
G54D13*
X959562Y-516813D02*
X1011506Y-516813D01*
X1019323Y-524630D01*
X837325Y-537054D02*
G54D14*
D03*
X981868Y-587375D02*
G54D11*
D03*
X854868Y-587375D02*
G54D11*
D03*
X1018926Y-574239D02*
G54D12*
D03*
X1031626Y-586939D02*
G54D12*
D03*
X1018926Y-599639D02*
G54D12*
D03*
G54D13*
X981868Y-587375D02*
X1031190Y-587375D01*
X1031626Y-586939D01*
G54D13*
X1018926Y-599639D02*
X1027470Y-599639D01*
X1042988Y-615156D01*
X1042988Y-643731D01*
X1035844Y-650875D01*
X1018965Y-650875D01*
X1017338Y-649248D01*
X959166Y-566422D02*
G54D14*
D03*
G54D13*
X959166Y-566422D02*
X1011109Y-566422D01*
X1018926Y-574239D01*
X836928Y-586663D02*
G54D14*
D03*
X982265Y-636984D02*
G54D11*
D03*
X855265Y-636984D02*
G54D11*
D03*
X1019323Y-623848D02*
G54D12*
D03*
X1032023Y-636548D02*
G54D12*
D03*
X1019323Y-649248D02*
G54D12*
D03*
G54D13*
X982265Y-636984D02*
X1031587Y-636984D01*
X1032023Y-636548D01*
X959562Y-616032D02*
G54D14*
D03*
G54D13*
X959562Y-616032D02*
X1011506Y-616032D01*
X1019323Y-623848D01*
X837325Y-636272D02*
G54D14*
D03*
X1514475Y-469900D02*
G54D14*
D03*
X1514475Y-495300D02*
G54D14*
D03*
X1514475Y-520700D02*
G54D14*
D03*
X1514475Y-546100D02*
G54D14*
D03*
X1514475Y-571500D02*
G54D14*
D03*
X1514475Y-596900D02*
G54D14*
D03*
G36*
X1388444Y-512148D02*
X1402444Y-512148D01*
X1402444Y-526148D01*
X1388444Y-526148D01*
X1388444Y-512148D01*
G37*
X1420844Y-519147D02*
G54D15*
D03*
X1446244Y-519147D02*
G54D15*
D03*
X1471644Y-519147D02*
G54D15*
D03*
X1471644Y-467554D02*
G54D15*
D03*
X1446244Y-467554D02*
G54D15*
D03*
X1420844Y-467554D02*
G54D15*
D03*
X1395444Y-467553D02*
G54D15*
D03*
X1372323Y-468183D02*
G54D15*
D03*
X1372323Y-518983D02*
G54D15*
D03*
G54D16*
X1395444Y-519160D02*
X1372425Y-519160D01*
G54D17*
X1397723Y-468183D02*
X1372323Y-468183D01*
G54D13*
X1420812Y-468312D02*
X1431925Y-450850D01*
X1506538Y-450850D01*
X1514475Y-469900D01*
G54D13*
X1471644Y-467554D02*
X1486728Y-467554D01*
X1514475Y-495300D01*
G54D13*
X1422400Y-520700D02*
X1422400Y-495300D01*
X1485900Y-495300D01*
X1511300Y-520700D01*
G54D13*
X1471644Y-519147D02*
X1487522Y-519147D01*
X1514475Y-546100D01*
G54D13*
X1447800Y-469900D02*
X1435100Y-482600D01*
X1282700Y-482600D01*
X1282700Y-520700D01*
G54D13*
X1447800Y-520700D02*
X1447800Y-520700D01*
X1435100Y-533400D01*
X1333500Y-533400D01*
X1333500Y-520700D01*
G36*
X1248744Y-562948D02*
X1262744Y-562948D01*
X1262744Y-576948D01*
X1248744Y-576948D01*
X1248744Y-562948D01*
G37*
X1281144Y-569947D02*
G54D15*
D03*
X1306544Y-569947D02*
G54D15*
D03*
X1331944Y-569947D02*
G54D15*
D03*
X1331944Y-518354D02*
G54D15*
D03*
X1306544Y-518354D02*
G54D15*
D03*
X1281144Y-518354D02*
G54D15*
D03*
X1255744Y-518353D02*
G54D15*
D03*
X1232623Y-518983D02*
G54D15*
D03*
X1232624Y-569783D02*
G54D15*
D03*
G54D16*
X1255744Y-569960D02*
X1232725Y-569960D01*
G54D17*
X1258023Y-518983D02*
X1232623Y-518983D01*
G54D13*
X1514475Y-571500D02*
X1485900Y-571500D01*
X1460500Y-546100D01*
X1304991Y-546100D01*
X1281144Y-569947D01*
G54D13*
X1331944Y-569947D02*
X1458947Y-569947D01*
X1485900Y-596900D01*
X1514475Y-596900D01*
G36*
X1110600Y-613144D02*
X1124600Y-613144D01*
X1124600Y-627144D01*
X1110600Y-627144D01*
X1110600Y-613144D01*
G37*
X1143000Y-620144D02*
G54D15*
D03*
X1168400Y-620144D02*
G54D15*
D03*
X1193800Y-620144D02*
G54D15*
D03*
X1193800Y-568550D02*
G54D15*
D03*
X1168400Y-568550D02*
G54D15*
D03*
X1143000Y-568550D02*
G54D15*
D03*
X1117600Y-568550D02*
G54D15*
D03*
X1094479Y-569179D02*
G54D15*
D03*
X1094479Y-619979D02*
G54D15*
D03*
G54D16*
X1117600Y-620156D02*
X1094581Y-620156D01*
G54D17*
X1119879Y-569179D02*
X1094479Y-569179D01*
G54D13*
X1308100Y-571500D02*
X1308100Y-571500D01*
X1295400Y-584200D01*
X1193800Y-584200D01*
X1193800Y-571500D01*
G54D13*
X1306544Y-518354D02*
X1293844Y-531054D01*
X1141444Y-531054D01*
X1141444Y-569154D01*
G54D13*
X1168400Y-568550D02*
X1155700Y-581250D01*
X1066800Y-581250D01*
X1066800Y-581250D02*
G54D14*
D03*
X1355725Y-512762D02*
G54D14*
D03*
X1216025Y-563562D02*
G54D14*
D03*
X1228725Y-614363D02*
G54D14*
D03*
X1216025Y-639762D02*
G54D14*
D03*
X1355725Y-588962D02*
G54D14*
D03*
G54D13*
X1216025Y-563562D02*
X1226403Y-563562D01*
X1232624Y-569783D01*
G54D13*
X1355725Y-512762D02*
X1366103Y-512762D01*
X1372323Y-518983D01*
G54D13*
X1216025Y-639762D02*
X1084262Y-639762D01*
X1079500Y-635000D01*
X1079500Y-630238D01*
X1094479Y-619979D01*
G54D13*
X1355725Y-588962D02*
X1316038Y-588962D01*
X1308100Y-596900D01*
X1219200Y-596900D01*
X1219200Y-636588D01*
X1216025Y-639762D01*
G54D13*
X959562Y-516813D02*
X959562Y-513638D01*
X977900Y-495300D01*
X1020600Y-495300D01*
X1094479Y-569179D01*
G54D13*
X959166Y-566422D02*
X956922Y-566422D01*
X937765Y-547266D01*
X937765Y-497335D01*
X952500Y-482600D01*
X1028700Y-482600D01*
X1092200Y-546100D01*
X1117600Y-546100D01*
X1130300Y-533400D01*
X1130300Y-520700D01*
X1230906Y-520700D01*
X1232623Y-518983D01*
G54D13*
X965200Y-622300D02*
X927100Y-584200D01*
X927100Y-482600D01*
X939800Y-469900D01*
X1041400Y-469900D01*
X1066800Y-495300D01*
X1270000Y-495300D01*
X1270000Y-469900D01*
X1371600Y-469900D01*
X194865Y-766366D02*
G54D11*
D03*
X67865Y-766366D02*
G54D11*
D03*
X231923Y-753230D02*
G54D12*
D03*
X244623Y-765930D02*
G54D12*
D03*
X231923Y-778630D02*
G54D12*
D03*
G54D13*
X194865Y-766366D02*
X244187Y-766366D01*
X244623Y-765930D01*
G54D13*
X235098Y-778630D02*
X243642Y-778630D01*
X259159Y-794147D01*
X259159Y-822722D01*
X252016Y-829866D01*
X235137Y-829866D01*
X233510Y-828239D01*
X172162Y-745413D02*
G54D14*
D03*
G54D13*
X172162Y-745413D02*
X224106Y-745413D01*
X231923Y-753230D01*
X49925Y-765654D02*
G54D14*
D03*
X194468Y-815975D02*
G54D11*
D03*
X67468Y-815975D02*
G54D11*
D03*
X231526Y-802839D02*
G54D12*
D03*
X244226Y-815539D02*
G54D12*
D03*
X231526Y-828239D02*
G54D12*
D03*
G54D13*
X194468Y-815975D02*
X243790Y-815975D01*
X244226Y-815539D01*
G54D13*
X231526Y-828239D02*
X240070Y-828239D01*
X255587Y-843756D01*
X255587Y-872331D01*
X248444Y-879475D01*
X231565Y-879475D01*
X229938Y-877848D01*
X171766Y-795022D02*
G54D14*
D03*
G54D13*
X171766Y-795022D02*
X223709Y-795022D01*
X231526Y-802839D01*
X49528Y-815263D02*
G54D14*
D03*
X194865Y-865584D02*
G54D11*
D03*
X67865Y-865584D02*
G54D11*
D03*
X231923Y-852448D02*
G54D12*
D03*
X244623Y-865148D02*
G54D12*
D03*
X231923Y-877848D02*
G54D12*
D03*
G54D13*
X194865Y-865584D02*
X244187Y-865584D01*
X244623Y-865148D01*
X172162Y-844632D02*
G54D14*
D03*
G54D13*
X172162Y-844632D02*
X224106Y-844632D01*
X231923Y-852448D01*
X49925Y-864872D02*
G54D14*
D03*
X727075Y-698500D02*
G54D14*
D03*
X727075Y-723900D02*
G54D14*
D03*
X727075Y-749300D02*
G54D14*
D03*
X727075Y-774700D02*
G54D14*
D03*
X727075Y-800100D02*
G54D14*
D03*
X727075Y-825500D02*
G54D14*
D03*
G36*
X601044Y-740748D02*
X615044Y-740748D01*
X615044Y-754748D01*
X601044Y-754748D01*
X601044Y-740748D01*
G37*
X633444Y-747747D02*
G54D15*
D03*
X658844Y-747747D02*
G54D15*
D03*
X684244Y-747747D02*
G54D15*
D03*
X684244Y-696154D02*
G54D15*
D03*
X658844Y-696154D02*
G54D15*
D03*
X633444Y-696154D02*
G54D15*
D03*
X608044Y-696153D02*
G54D15*
D03*
X584923Y-696783D02*
G54D15*
D03*
X584923Y-747583D02*
G54D15*
D03*
G54D16*
X608044Y-747760D02*
X585025Y-747760D01*
G54D17*
X610323Y-696783D02*
X584923Y-696783D01*
G54D13*
X633412Y-696912D02*
X644525Y-679450D01*
X719138Y-679450D01*
X727075Y-698500D01*
G54D13*
X684244Y-696154D02*
X699328Y-696154D01*
X727075Y-723900D01*
G54D13*
X635000Y-749300D02*
X635000Y-723900D01*
X698500Y-723900D01*
X723900Y-749300D01*
G54D13*
X684244Y-747747D02*
X700122Y-747747D01*
X727075Y-774700D01*
G54D13*
X660400Y-698500D02*
X647700Y-711200D01*
X495300Y-711200D01*
X495300Y-749300D01*
G54D13*
X660400Y-749300D02*
X660400Y-749300D01*
X647700Y-762000D01*
X546100Y-762000D01*
X546100Y-749300D01*
G36*
X461344Y-791548D02*
X475344Y-791548D01*
X475344Y-805548D01*
X461344Y-805548D01*
X461344Y-791548D01*
G37*
X493744Y-798547D02*
G54D15*
D03*
X519144Y-798547D02*
G54D15*
D03*
X544544Y-798547D02*
G54D15*
D03*
X544544Y-746954D02*
G54D15*
D03*
X519144Y-746954D02*
G54D15*
D03*
X493744Y-746954D02*
G54D15*
D03*
X468344Y-746953D02*
G54D15*
D03*
X445223Y-747583D02*
G54D15*
D03*
X445224Y-798383D02*
G54D15*
D03*
G54D16*
X468344Y-798560D02*
X445325Y-798560D01*
G54D17*
X470623Y-747583D02*
X445223Y-747583D01*
G54D13*
X727075Y-800100D02*
X698500Y-800100D01*
X673100Y-774700D01*
X517591Y-774700D01*
X493744Y-798547D01*
G54D13*
X544544Y-798547D02*
X671547Y-798547D01*
X698500Y-825500D01*
X727075Y-825500D01*
G36*
X323200Y-841744D02*
X337200Y-841744D01*
X337200Y-855744D01*
X323200Y-855744D01*
X323200Y-841744D01*
G37*
X355600Y-848744D02*
G54D15*
D03*
X381000Y-848744D02*
G54D15*
D03*
X406400Y-848744D02*
G54D15*
D03*
X406400Y-797150D02*
G54D15*
D03*
X381000Y-797150D02*
G54D15*
D03*
X355600Y-797150D02*
G54D15*
D03*
X330200Y-797150D02*
G54D15*
D03*
X307079Y-797779D02*
G54D15*
D03*
X307079Y-848579D02*
G54D15*
D03*
G54D16*
X330200Y-848756D02*
X307181Y-848756D01*
G54D17*
X332479Y-797779D02*
X307079Y-797779D01*
G54D13*
X520700Y-800100D02*
X520700Y-800100D01*
X508000Y-812800D01*
X406400Y-812800D01*
X406400Y-800100D01*
G54D13*
X519144Y-746954D02*
X506444Y-759654D01*
X354044Y-759654D01*
X354044Y-797754D01*
G54D13*
X381000Y-797150D02*
X368300Y-809850D01*
X279400Y-809850D01*
X279400Y-809850D02*
G54D14*
D03*
X568325Y-741362D02*
G54D14*
D03*
X428625Y-792162D02*
G54D14*
D03*
X441325Y-842963D02*
G54D14*
D03*
X428625Y-868362D02*
G54D14*
D03*
X568325Y-817562D02*
G54D14*
D03*
G54D13*
X428625Y-792162D02*
X439003Y-792162D01*
X445224Y-798383D01*
G54D13*
X568325Y-741362D02*
X578703Y-741362D01*
X584923Y-747583D01*
G54D13*
X428625Y-868362D02*
X296862Y-868362D01*
X292100Y-863600D01*
X292100Y-858838D01*
X307079Y-848579D01*
G54D13*
X568325Y-817562D02*
X528638Y-817562D01*
X520700Y-825500D01*
X431800Y-825500D01*
X431800Y-865188D01*
X428625Y-868362D01*
G54D13*
X172162Y-745413D02*
X172162Y-742238D01*
X190500Y-723900D01*
X233200Y-723900D01*
X307079Y-797779D01*
G54D13*
X171766Y-795022D02*
X169522Y-795022D01*
X150365Y-775866D01*
X150365Y-725935D01*
X165100Y-711200D01*
X241300Y-711200D01*
X304800Y-774700D01*
X330200Y-774700D01*
X342900Y-762000D01*
X342900Y-749300D01*
X443506Y-749300D01*
X445223Y-747583D01*
G54D13*
X177800Y-850900D02*
X139700Y-812800D01*
X139700Y-711200D01*
X152400Y-698500D01*
X254000Y-698500D01*
X279400Y-723900D01*
X482600Y-723900D01*
X482600Y-698500D01*
X584200Y-698500D01*
X265474Y-660936D02*
G54D14*
D03*
X265474Y-889536D02*
G54D14*
D03*
X1052874Y-660936D02*
G54D14*
D03*
G54D13*
X1019323Y-649248D02*
X1041186Y-649248D01*
X1052874Y-660936D01*
G54D13*
X231923Y-649248D02*
X253786Y-649248D01*
X265474Y-660936D01*
G54D13*
X231923Y-877848D02*
X253786Y-877848D01*
X265474Y-889536D01*
G54D13*
X67865Y-636984D02*
X78184Y-636984D01*
X88900Y-647700D01*
X88900Y-745331D01*
X67865Y-766366D01*
G54D13*
X67468Y-587375D02*
X79375Y-587375D01*
X101600Y-609600D01*
X101600Y-781844D01*
X67468Y-815975D01*
G54D13*
X67865Y-537766D02*
X93266Y-537766D01*
X114300Y-558800D01*
X114300Y-819150D01*
X67865Y-865584D01*
G54D13*
X227374Y-419636D02*
X13236Y-419636D01*
X12700Y-419100D01*
X12700Y-889000D01*
X264938Y-889000D01*
X265474Y-889536D01*
G54D13*
X127000Y-419100D02*
X127000Y-622300D01*
X165100Y-660400D01*
X264938Y-660400D01*
X265474Y-660936D01*
G54D13*
X266700Y-889000D02*
X812800Y-889000D01*
X812800Y-660400D01*
X1054100Y-660400D01*
X1054100Y-660400D01*
M02*
