G04 EAGLE Gerber RS-274X export*
G75*
%MOMM*%
%FSLAX34Y34*%
%LPD*%
%INSoldermask Top*%
%IPPOS*%
%AMOC8*
5,1,8,0,0,1.08239X$1,22.5*%
G01*
%ADD10C,4.020000*%
%ADD11R,1.020000X1.120000*%
%ADD12R,2.120000X2.120000*%
%ADD13R,1.720000X1.720000*%
%ADD14C,1.620000*%
%ADD15R,3.020000X1.130000*%
%ADD16C,1.720000*%
%ADD17R,2.220000X0.620000*%
%ADD18R,0.620000X2.220000*%
%ADD19R,1.520000X0.620000*%
%ADD20R,1.120000X1.020000*%
%ADD21R,0.620000X1.520000*%
%ADD22C,1.713800*%
%ADD23R,1.544000X0.655000*%
%ADD24R,0.820000X0.820000*%
%ADD25R,2.520000X1.820000*%
%ADD26C,1.520000*%
%ADD27R,1.820000X1.820000*%
%ADD28C,1.820000*%
%ADD29R,5.420000X6.220000*%
%ADD30R,1.020000X1.620000*%
%ADD31R,1.420000X0.320000*%
%ADD32R,1.820000X2.520000*%
%ADD33R,0.440000X0.590000*%
%ADD34C,0.620000*%


D10*
X30000Y30000D03*
X1570000Y30000D03*
X691000Y479000D03*
X1570000Y1040000D03*
X508000Y903000D03*
X410000Y608000D03*
X30000Y484000D03*
D11*
X737000Y805500D03*
X737000Y822500D03*
X638000Y779500D03*
X638000Y762500D03*
D12*
X673100Y941650D03*
D13*
X635000Y903500D03*
D12*
X596900Y948000D03*
D14*
X596900Y1036900D03*
X673100Y986100D03*
D15*
X595450Y733770D03*
X595450Y785560D03*
X595450Y810960D03*
X595450Y836360D03*
X522550Y836360D03*
X522550Y810960D03*
X522550Y785560D03*
X522550Y733770D03*
X98450Y733770D03*
X98450Y785560D03*
X98450Y810960D03*
X98450Y836360D03*
X25550Y836360D03*
X25550Y810960D03*
X25550Y785560D03*
X25550Y733770D03*
D16*
X130000Y948000D03*
D12*
X91900Y897200D03*
D13*
X130000Y897200D03*
D12*
X168100Y897200D03*
D14*
X91900Y1037000D03*
X168100Y986100D03*
D17*
X662000Y805350D03*
X714000Y805350D03*
X662000Y818050D03*
X662000Y792650D03*
X662000Y779950D03*
X714000Y818050D03*
X714000Y792650D03*
X714000Y779950D03*
D12*
X926100Y941650D03*
D13*
X888000Y903500D03*
D12*
X849900Y948000D03*
D14*
X849900Y1036900D03*
X926100Y986100D03*
D16*
X382000Y948000D03*
D12*
X343900Y897200D03*
D13*
X382000Y897200D03*
D12*
X420100Y897200D03*
D14*
X343900Y1037000D03*
X420100Y986100D03*
D15*
X351450Y733770D03*
X351450Y785560D03*
X351450Y810960D03*
X351450Y836360D03*
X278550Y836360D03*
X278550Y810960D03*
X278550Y785560D03*
X278550Y733770D03*
X848450Y733770D03*
X848450Y785560D03*
X848450Y810960D03*
X848450Y836360D03*
X775550Y836360D03*
X775550Y810960D03*
X775550Y785560D03*
X775550Y733770D03*
D17*
X910000Y808350D03*
X962000Y808350D03*
X910000Y821050D03*
X910000Y795650D03*
X910000Y782950D03*
X962000Y821050D03*
X962000Y795650D03*
X962000Y782950D03*
D11*
X985000Y808500D03*
X985000Y825500D03*
X886000Y782500D03*
X886000Y765500D03*
D18*
X433350Y846000D03*
X433350Y794000D03*
X446050Y846000D03*
X420650Y846000D03*
X407950Y846000D03*
X446050Y794000D03*
X420650Y794000D03*
X407950Y794000D03*
D11*
X421000Y769500D03*
X421000Y752500D03*
X387000Y787500D03*
X387000Y804500D03*
D18*
X188350Y844000D03*
X188350Y792000D03*
X201050Y844000D03*
X175650Y844000D03*
X162950Y844000D03*
X201050Y792000D03*
X175650Y792000D03*
X162950Y792000D03*
D11*
X176000Y770500D03*
X176000Y753500D03*
X142000Y785500D03*
X142000Y802500D03*
D19*
X840500Y658650D03*
X785500Y658650D03*
X840500Y645950D03*
X840500Y671350D03*
X840500Y684050D03*
X785500Y645950D03*
X785500Y671350D03*
X785500Y684050D03*
D17*
X911000Y677350D03*
X963000Y677350D03*
X911000Y690050D03*
X911000Y664650D03*
X911000Y651950D03*
X963000Y690050D03*
X963000Y664650D03*
X963000Y651950D03*
X662000Y677350D03*
X714000Y677350D03*
X662000Y690050D03*
X662000Y664650D03*
X662000Y651950D03*
X714000Y690050D03*
X714000Y664650D03*
X714000Y651950D03*
D11*
X888000Y647500D03*
X888000Y664500D03*
X987000Y675500D03*
X987000Y658500D03*
X639000Y647500D03*
X639000Y664500D03*
X737000Y675500D03*
X737000Y658500D03*
D15*
X849450Y490770D03*
X849450Y542560D03*
X849450Y567960D03*
X849450Y593360D03*
X776550Y593360D03*
X776550Y567960D03*
X776550Y542560D03*
X776550Y490770D03*
D17*
X98000Y374650D03*
X46000Y374650D03*
X98000Y361950D03*
X98000Y387350D03*
X98000Y400050D03*
X46000Y361950D03*
X46000Y387350D03*
X46000Y400050D03*
X196000Y374650D03*
X144000Y374650D03*
X196000Y361950D03*
X196000Y387350D03*
X196000Y400050D03*
X144000Y361950D03*
X144000Y387350D03*
X144000Y400050D03*
D20*
X105500Y420000D03*
X88500Y420000D03*
D11*
X121000Y374500D03*
X121000Y357500D03*
D20*
X201500Y420000D03*
X184500Y420000D03*
D11*
X23000Y373500D03*
X23000Y356500D03*
D15*
X98450Y557270D03*
X98450Y609060D03*
X98450Y634460D03*
X98450Y659860D03*
X25550Y659860D03*
X25550Y634460D03*
X25550Y609060D03*
X25550Y557270D03*
X224450Y557270D03*
X224450Y609060D03*
X224450Y634460D03*
X224450Y659860D03*
X151550Y659860D03*
X151550Y634460D03*
X151550Y609060D03*
X151550Y557270D03*
X352450Y557270D03*
X352450Y609060D03*
X352450Y634460D03*
X352450Y659860D03*
X279550Y659860D03*
X279550Y634460D03*
X279550Y609060D03*
X279550Y557270D03*
D21*
X201350Y320500D03*
X201350Y265500D03*
X214050Y320500D03*
X188650Y320500D03*
X175950Y320500D03*
X214050Y265500D03*
X188650Y265500D03*
X175950Y265500D03*
D20*
X769500Y646000D03*
X752500Y646000D03*
X856500Y684000D03*
X873500Y684000D03*
X214500Y247000D03*
X231500Y247000D03*
X159500Y315000D03*
X142500Y315000D03*
D22*
X242000Y62369D02*
X242000Y45431D01*
X192000Y45431D02*
X192000Y62369D01*
X142000Y62369D02*
X142000Y45431D01*
D23*
X1606400Y800550D03*
X1606400Y813250D03*
X1606400Y825950D03*
X1606400Y838650D03*
X1606400Y851350D03*
X1606400Y864050D03*
X1606400Y876750D03*
X1606400Y889450D03*
X1541600Y889450D03*
X1541600Y876750D03*
X1541600Y864050D03*
X1541600Y851350D03*
X1541600Y838650D03*
X1541600Y825950D03*
X1541600Y813250D03*
X1541600Y800550D03*
D24*
X588000Y713000D03*
X604000Y713000D03*
X842000Y710000D03*
X858000Y710000D03*
X842000Y467000D03*
X858000Y467000D03*
X92000Y533500D03*
X108000Y533500D03*
X218000Y533500D03*
X234000Y533500D03*
X346000Y533500D03*
X362000Y533500D03*
D11*
X513500Y711000D03*
X530500Y711000D03*
X767500Y711000D03*
X784500Y711000D03*
X767500Y467000D03*
X784500Y467000D03*
X17500Y533500D03*
X34500Y533500D03*
X142500Y533500D03*
X159500Y533500D03*
X270500Y533500D03*
X287500Y533500D03*
D17*
X581000Y636650D03*
X529000Y636650D03*
X581000Y623950D03*
X581000Y649350D03*
X581000Y662050D03*
X529000Y623950D03*
X529000Y649350D03*
X529000Y662050D03*
X581000Y553650D03*
X529000Y553650D03*
X581000Y540950D03*
X581000Y566350D03*
X581000Y579050D03*
X529000Y540950D03*
X529000Y566350D03*
X529000Y579050D03*
D19*
X527500Y476350D03*
X582500Y476350D03*
X527500Y489050D03*
X527500Y463650D03*
X527500Y450950D03*
X582500Y489050D03*
X582500Y463650D03*
X582500Y450950D03*
D20*
X602500Y487000D03*
X619500Y487000D03*
X509500Y455000D03*
X492500Y455000D03*
X506000Y470500D03*
X506000Y487500D03*
D11*
X487000Y470500D03*
X487000Y487500D03*
D20*
X606000Y454500D03*
X606000Y471500D03*
D11*
X625000Y454500D03*
X625000Y471500D03*
X490500Y662000D03*
X507500Y662000D03*
X490500Y579000D03*
X507500Y579000D03*
X644500Y607000D03*
X627500Y607000D03*
D25*
X703000Y607000D03*
X669000Y607000D03*
D11*
X644500Y551000D03*
X627500Y551000D03*
D25*
X703000Y551000D03*
X669000Y551000D03*
D19*
X241500Y218350D03*
X296500Y218350D03*
X241500Y231050D03*
X241500Y205650D03*
X241500Y192950D03*
X296500Y231050D03*
X296500Y205650D03*
X296500Y192950D03*
D20*
X241500Y178000D03*
X258500Y178000D03*
X297500Y246000D03*
X280500Y246000D03*
X318000Y205500D03*
X318000Y222500D03*
X507500Y598000D03*
X490500Y598000D03*
X508500Y552000D03*
X491500Y552000D03*
X507500Y636000D03*
X490500Y636000D03*
X507500Y681000D03*
X490500Y681000D03*
D26*
X192000Y126500D02*
X192000Y111500D01*
X541500Y340000D02*
X556500Y340000D01*
X514400Y57500D02*
X514400Y42500D01*
X142000Y111500D02*
X142000Y126500D01*
X608500Y571500D02*
X608500Y586500D01*
X608500Y657500D02*
X608500Y672500D01*
D24*
X92000Y710000D03*
X108000Y710000D03*
D11*
X17500Y710000D03*
X34500Y710000D03*
D24*
X345000Y711000D03*
X361000Y711000D03*
D11*
X269500Y711000D03*
X286500Y711000D03*
D27*
X1683500Y58100D03*
D28*
X1658100Y58100D03*
X1683500Y83500D03*
X1658100Y83500D03*
X1683500Y108900D03*
X1658100Y108900D03*
X1683500Y134300D03*
X1658100Y134300D03*
X1683500Y159700D03*
X1658100Y159700D03*
X1683500Y185100D03*
X1658100Y185100D03*
X1683500Y210500D03*
X1658100Y210500D03*
X1683500Y235900D03*
X1658100Y235900D03*
X1683500Y261300D03*
X1658100Y261300D03*
X1683500Y286700D03*
X1658100Y286700D03*
X1683500Y312100D03*
X1658100Y312100D03*
X1683500Y337500D03*
X1658100Y337500D03*
X1683500Y362900D03*
X1658100Y362900D03*
X1683500Y388300D03*
X1658100Y388300D03*
X1683500Y413700D03*
X1658100Y413700D03*
X1683500Y439100D03*
X1658100Y439100D03*
X1683500Y464500D03*
X1658100Y464500D03*
X1683500Y489900D03*
X1658100Y489900D03*
X1683500Y515300D03*
X1658100Y515300D03*
X1683500Y540700D03*
X1658100Y540700D03*
X1683500Y566100D03*
X1658100Y566100D03*
X1683500Y591500D03*
X1658100Y591500D03*
X1683500Y616900D03*
X1658100Y616900D03*
X1683500Y642300D03*
X1658100Y642300D03*
X1683500Y667700D03*
X1658100Y667700D03*
X1683500Y693100D03*
X1658100Y693100D03*
X1683500Y718500D03*
X1658100Y718500D03*
X1683500Y743900D03*
X1658100Y743900D03*
X1683500Y769300D03*
X1658100Y769300D03*
X1683500Y794700D03*
X1658100Y794700D03*
X1683500Y820100D03*
X1658100Y820100D03*
X1683500Y845500D03*
X1658100Y845500D03*
X1683500Y870900D03*
X1658100Y870900D03*
X1683500Y896300D03*
X1658100Y896300D03*
X1683500Y921700D03*
X1658100Y921700D03*
X1683500Y947100D03*
X1658100Y947100D03*
D27*
X1607300Y159700D03*
D28*
X1581900Y159700D03*
X1607300Y185100D03*
X1581900Y185100D03*
X1607300Y210500D03*
X1581900Y210500D03*
X1607300Y235900D03*
X1581900Y235900D03*
X1607300Y261300D03*
X1581900Y261300D03*
X1607300Y286700D03*
X1581900Y286700D03*
X1607300Y312100D03*
X1581900Y312100D03*
X1607300Y337500D03*
X1581900Y337500D03*
D27*
X1607300Y388300D03*
D28*
X1581900Y388300D03*
X1607300Y413700D03*
X1581900Y413700D03*
X1607300Y439100D03*
X1581900Y439100D03*
X1607300Y464500D03*
X1581900Y464500D03*
X1607300Y489900D03*
X1581900Y489900D03*
X1607300Y515300D03*
X1581900Y515300D03*
X1607300Y540700D03*
X1581900Y540700D03*
X1607300Y566100D03*
X1581900Y566100D03*
X1607300Y591500D03*
X1581900Y591500D03*
X1607300Y616900D03*
X1581900Y616900D03*
X1607300Y642300D03*
X1581900Y642300D03*
X1607300Y667700D03*
X1581900Y667700D03*
X1607300Y693100D03*
X1581900Y693100D03*
X1607300Y718500D03*
X1581900Y718500D03*
X1607300Y743900D03*
X1581900Y743900D03*
D27*
X1150100Y70800D03*
D28*
X1124700Y70800D03*
X1150100Y96200D03*
X1124700Y96200D03*
X1150100Y121600D03*
X1124700Y121600D03*
X1150100Y147000D03*
X1124700Y147000D03*
X1150100Y172400D03*
X1124700Y172400D03*
X1150100Y197800D03*
X1124700Y197800D03*
X1150100Y223200D03*
X1124700Y223200D03*
X1150100Y248600D03*
X1124700Y248600D03*
X1150100Y274000D03*
X1124700Y274000D03*
X1150100Y299400D03*
X1124700Y299400D03*
D27*
X1150100Y337500D03*
D28*
X1124700Y337500D03*
X1150100Y362900D03*
X1124700Y362900D03*
X1150100Y388300D03*
X1124700Y388300D03*
X1150100Y413700D03*
X1124700Y413700D03*
X1150100Y439100D03*
X1124700Y439100D03*
X1150100Y464500D03*
X1124700Y464500D03*
X1150100Y489900D03*
X1124700Y489900D03*
X1150100Y515300D03*
X1124700Y515300D03*
X1150100Y540700D03*
X1124700Y540700D03*
X1150100Y566100D03*
X1124700Y566100D03*
X1150100Y591500D03*
X1124700Y591500D03*
X1150100Y616900D03*
X1124700Y616900D03*
X1150100Y642300D03*
X1124700Y642300D03*
X1150100Y667700D03*
X1124700Y667700D03*
X1150100Y693100D03*
X1124700Y693100D03*
X1150100Y718500D03*
X1124700Y718500D03*
X1150100Y743900D03*
X1124700Y743900D03*
D27*
X1073900Y58100D03*
D28*
X1048500Y58100D03*
X1073900Y83500D03*
X1048500Y83500D03*
X1073900Y108900D03*
X1048500Y108900D03*
X1073900Y134300D03*
X1048500Y134300D03*
X1073900Y159700D03*
X1048500Y159700D03*
X1073900Y185100D03*
X1048500Y185100D03*
X1073900Y210500D03*
X1048500Y210500D03*
X1073900Y235900D03*
X1048500Y235900D03*
X1073900Y261300D03*
X1048500Y261300D03*
X1073900Y286700D03*
X1048500Y286700D03*
X1073900Y312100D03*
X1048500Y312100D03*
X1073900Y337500D03*
X1048500Y337500D03*
X1073900Y362900D03*
X1048500Y362900D03*
X1073900Y388300D03*
X1048500Y388300D03*
X1073900Y413700D03*
X1048500Y413700D03*
X1073900Y439100D03*
X1048500Y439100D03*
X1073900Y464500D03*
X1048500Y464500D03*
X1073900Y489900D03*
X1048500Y489900D03*
X1073900Y515300D03*
X1048500Y515300D03*
X1073900Y540700D03*
X1048500Y540700D03*
X1073900Y566100D03*
X1048500Y566100D03*
X1073900Y591500D03*
X1048500Y591500D03*
X1073900Y616900D03*
X1048500Y616900D03*
X1073900Y642300D03*
X1048500Y642300D03*
X1073900Y667700D03*
X1048500Y667700D03*
X1073900Y693100D03*
X1048500Y693100D03*
X1073900Y718500D03*
X1048500Y718500D03*
X1073900Y743900D03*
X1048500Y743900D03*
X1073900Y769300D03*
X1048500Y769300D03*
X1073900Y794700D03*
X1048500Y794700D03*
X1073900Y820100D03*
X1048500Y820100D03*
X1073900Y845500D03*
X1048500Y845500D03*
X1073900Y870900D03*
X1048500Y870900D03*
X1073900Y896300D03*
X1048500Y896300D03*
X1073900Y921700D03*
X1048500Y921700D03*
X1073900Y947100D03*
X1048500Y947100D03*
D29*
X1328000Y99000D03*
D30*
X1305200Y26000D03*
X1350800Y26000D03*
D11*
X620500Y82000D03*
X603500Y82000D03*
D20*
X1286500Y27000D03*
X1269500Y27000D03*
X1369500Y26000D03*
X1386500Y26000D03*
D26*
X539800Y42500D02*
X539800Y57500D01*
D24*
X100000Y78000D03*
X84000Y78000D03*
X52000Y80000D03*
X36000Y80000D03*
D11*
X36500Y108000D03*
X53500Y108000D03*
X83500Y108000D03*
X100500Y108000D03*
D14*
X722100Y395900D03*
X722100Y370500D03*
X722100Y345100D03*
X722100Y319700D03*
X722100Y294300D03*
X722100Y268900D03*
X722100Y243500D03*
X722100Y218100D03*
X747500Y395900D03*
X747500Y370500D03*
X747500Y345100D03*
X747500Y319700D03*
X747500Y294300D03*
X747500Y268900D03*
X747500Y243500D03*
X747500Y218100D03*
X963400Y395900D03*
X963400Y370500D03*
X963400Y345100D03*
X963400Y319700D03*
X963400Y294300D03*
X963400Y268900D03*
X963400Y243500D03*
X963400Y218100D03*
X988800Y395900D03*
X988800Y370500D03*
X988800Y345100D03*
X988800Y319700D03*
X988800Y294300D03*
X988800Y268900D03*
X988800Y243500D03*
X988800Y218100D03*
X963400Y192700D03*
X963400Y167300D03*
X963400Y141900D03*
X963400Y116500D03*
X963400Y91100D03*
X963400Y65700D03*
X963400Y40300D03*
X988800Y192700D03*
X988800Y167300D03*
X988800Y141900D03*
X988800Y116500D03*
X988800Y91100D03*
X988800Y65700D03*
X988800Y40300D03*
D20*
X630500Y851000D03*
X647500Y851000D03*
X722500Y851000D03*
X739500Y851000D03*
X678500Y851000D03*
X695500Y851000D03*
X886500Y851000D03*
X903500Y851000D03*
X969500Y852000D03*
X986500Y852000D03*
X927500Y852000D03*
X944500Y852000D03*
D11*
X957500Y581000D03*
X974500Y581000D03*
X974500Y602000D03*
X957500Y602000D03*
X957500Y539000D03*
X974500Y539000D03*
X974500Y560000D03*
X957500Y560000D03*
X854500Y396000D03*
X837500Y396000D03*
X806500Y396000D03*
X823500Y396000D03*
X854500Y364000D03*
X837500Y364000D03*
X806500Y364000D03*
X823500Y364000D03*
X806500Y328000D03*
X823500Y328000D03*
X854500Y328000D03*
X837500Y328000D03*
X854500Y294000D03*
X837500Y294000D03*
X854500Y259000D03*
X837500Y259000D03*
X854500Y225000D03*
X837500Y225000D03*
X854500Y191000D03*
X837500Y191000D03*
X854500Y155000D03*
X837500Y155000D03*
X806500Y294000D03*
X823500Y294000D03*
X806500Y259000D03*
X823500Y259000D03*
X806500Y225000D03*
X823500Y225000D03*
X806500Y191000D03*
X823500Y191000D03*
X806500Y155000D03*
X823500Y155000D03*
D31*
X553000Y240000D03*
X553000Y235000D03*
X553000Y230000D03*
X553000Y225000D03*
X553000Y220000D03*
X597000Y220000D03*
X597000Y225000D03*
X597000Y230000D03*
X597000Y235000D03*
X597000Y240000D03*
X553000Y132000D03*
X553000Y127000D03*
X553000Y122000D03*
X553000Y117000D03*
X553000Y112000D03*
X597000Y112000D03*
X597000Y117000D03*
X597000Y122000D03*
X597000Y127000D03*
X597000Y132000D03*
D11*
X597000Y254500D03*
X597000Y271500D03*
X624000Y225500D03*
X624000Y208500D03*
X624000Y116500D03*
X624000Y99500D03*
D32*
X555000Y266000D03*
X555000Y300000D03*
X656000Y243000D03*
X656000Y209000D03*
X656000Y134000D03*
X656000Y100000D03*
D17*
X342000Y455650D03*
X290000Y455650D03*
X342000Y442950D03*
X342000Y468350D03*
X342000Y481050D03*
X290000Y442950D03*
X290000Y468350D03*
X290000Y481050D03*
X342000Y374650D03*
X290000Y374650D03*
X342000Y361950D03*
X342000Y387350D03*
X342000Y400050D03*
X290000Y361950D03*
X290000Y387350D03*
X290000Y400050D03*
D19*
X288500Y305350D03*
X343500Y305350D03*
X288500Y318050D03*
X288500Y292650D03*
X288500Y279950D03*
X343500Y318050D03*
X343500Y292650D03*
X343500Y279950D03*
D20*
X359500Y318000D03*
X376500Y318000D03*
X271500Y280000D03*
X254500Y280000D03*
X268000Y295500D03*
X268000Y312500D03*
D11*
X249000Y295500D03*
X249000Y312500D03*
D20*
X363000Y285500D03*
X363000Y302500D03*
D11*
X382000Y285500D03*
X382000Y302500D03*
X252500Y481000D03*
X269500Y481000D03*
X252500Y400000D03*
X269500Y400000D03*
X381500Y443000D03*
X364500Y443000D03*
X380500Y362000D03*
X363500Y362000D03*
D20*
X269500Y419000D03*
X252500Y419000D03*
X269500Y375000D03*
X252500Y375000D03*
X268500Y455000D03*
X251500Y455000D03*
X269500Y500000D03*
X252500Y500000D03*
D11*
X481500Y364000D03*
X498500Y364000D03*
X450500Y343000D03*
X467500Y343000D03*
X450500Y364000D03*
X467500Y364000D03*
X481500Y322000D03*
X498500Y322000D03*
X450500Y301000D03*
X467500Y301000D03*
X450500Y322000D03*
X467500Y322000D03*
X481500Y280000D03*
X498500Y280000D03*
X450500Y259000D03*
X467500Y259000D03*
X450500Y280000D03*
X467500Y280000D03*
X481500Y238000D03*
X498500Y238000D03*
X450500Y217000D03*
X467500Y217000D03*
X450500Y238000D03*
X467500Y238000D03*
D25*
X404000Y239000D03*
X370000Y239000D03*
X404000Y183000D03*
X370000Y183000D03*
D20*
X339000Y222500D03*
X339000Y205500D03*
X218000Y213500D03*
X218000Y230500D03*
X197000Y230500D03*
X197000Y213500D03*
D26*
X382000Y402500D02*
X382000Y417500D01*
X383000Y480500D02*
X383000Y495500D01*
D19*
X356500Y93350D03*
X411500Y93350D03*
X356500Y106050D03*
X356500Y80650D03*
X356500Y67950D03*
X411500Y106050D03*
X411500Y80650D03*
X411500Y67950D03*
D20*
X412500Y122000D03*
X395500Y122000D03*
X356500Y52000D03*
X373500Y52000D03*
X647500Y337000D03*
X664500Y337000D03*
D25*
X632000Y290000D03*
X666000Y290000D03*
D11*
X606500Y357000D03*
X623500Y357000D03*
X623500Y336000D03*
X606500Y336000D03*
X664500Y357000D03*
X647500Y357000D03*
X663500Y400000D03*
X646500Y400000D03*
X646500Y379000D03*
X663500Y379000D03*
D20*
X316000Y105500D03*
X316000Y88500D03*
X453000Y93500D03*
X453000Y76500D03*
X337000Y88500D03*
X337000Y105500D03*
X431000Y76500D03*
X431000Y93500D03*
D11*
X418500Y503000D03*
X401500Y503000D03*
X401500Y482000D03*
X418500Y482000D03*
X418500Y425000D03*
X401500Y425000D03*
X401500Y404000D03*
X418500Y404000D03*
X497500Y196000D03*
X480500Y196000D03*
X450500Y175000D03*
X467500Y175000D03*
X497500Y175000D03*
X480500Y175000D03*
X450500Y196000D03*
X467500Y196000D03*
X595000Y146500D03*
X595000Y163500D03*
D32*
X557000Y158000D03*
X557000Y192000D03*
D33*
X590000Y347750D03*
X590000Y332250D03*
D11*
X518500Y79000D03*
X535500Y79000D03*
D26*
X489000Y57500D02*
X489000Y42500D01*
X242000Y111500D02*
X242000Y126500D01*
X84000Y35500D02*
X84000Y20500D01*
D34*
X153000Y785500D03*
X397000Y787500D03*
X658000Y761000D03*
X910000Y766000D03*
X856000Y670000D03*
X870000Y648000D03*
X639000Y635000D03*
X476000Y579000D03*
X476000Y662000D03*
X514000Y439000D03*
X234000Y481000D03*
X235000Y400000D03*
X184000Y343000D03*
X289000Y269000D03*
X216000Y400000D03*
X117000Y420000D03*
X437000Y364000D03*
X437000Y322000D03*
X437000Y280000D03*
X437000Y238000D03*
X241000Y161000D03*
X343000Y53000D03*
X987000Y561000D03*
X175000Y827000D03*
X142000Y815000D03*
X161000Y753000D03*
X421000Y864000D03*
X386000Y820000D03*
X406000Y752000D03*
X889000Y821000D03*
X993000Y838000D03*
X741370Y836630D03*
X640000Y818000D03*
X638000Y751000D03*
X886000Y750000D03*
X887000Y677350D03*
X751500Y658500D03*
X639000Y689000D03*
X476000Y598000D03*
X476000Y636000D03*
X476000Y681000D03*
X476000Y552000D03*
X553500Y455500D03*
X478000Y455000D03*
X634000Y487000D03*
X235000Y500000D03*
X234000Y455000D03*
X235000Y419000D03*
X235000Y375000D03*
X318050Y279950D03*
X238000Y280000D03*
X43000Y347000D03*
X141000Y345000D03*
X128000Y315000D03*
X79000Y374000D03*
X171000Y420000D03*
X75000Y420000D03*
X244000Y247000D03*
X196000Y350000D03*
X636000Y99500D03*
X637000Y208500D03*
X664500Y320000D03*
X437000Y343000D03*
X437000Y301000D03*
X437000Y259000D03*
X437000Y216000D03*
X370000Y163000D03*
X370000Y222000D03*
X270000Y178000D03*
X269000Y247000D03*
X390000Y319000D03*
X431000Y503000D03*
X382000Y122000D03*
X386000Y52000D03*
X987000Y602000D03*
X987000Y645000D03*
X429487Y425000D03*
X67000Y776000D03*
X592500Y764500D03*
X98000Y766000D03*
X520000Y766000D03*
X56000Y811000D03*
X69000Y811000D03*
X320000Y811000D03*
X304000Y811000D03*
X354000Y796460D03*
X848000Y761000D03*
X315000Y786000D03*
X775000Y771000D03*
X766000Y672000D03*
X681000Y664000D03*
X801000Y543000D03*
X801000Y684000D03*
X824000Y543000D03*
X824000Y683000D03*
X870000Y379000D03*
X869504Y409496D03*
X214050Y343000D03*
X78000Y388000D03*
X900000Y379000D03*
X634410Y441410D03*
X76000Y656000D03*
X46000Y424000D03*
X48000Y650000D03*
X75000Y451000D03*
X885000Y379000D03*
X526000Y501000D03*
X766000Y694000D03*
X679000Y677000D03*
X26000Y749000D03*
X477000Y1036000D03*
X1483000Y801000D03*
X269000Y698000D03*
X467000Y711000D03*
X467000Y954000D03*
X1457254Y813254D03*
X753000Y711000D03*
X782000Y509000D03*
X1431834Y825834D03*
X26000Y571000D03*
X1453460Y839000D03*
X126000Y533000D03*
X1443920Y851000D03*
X239000Y517000D03*
X1473000Y864000D03*
X182000Y230000D03*
X349000Y223000D03*
X1103000Y58000D03*
X545000Y624000D03*
X543000Y477000D03*
X558540Y541000D03*
X564000Y464000D03*
X274000Y219000D03*
X450000Y694000D03*
X942000Y539000D03*
X1625000Y852000D03*
X1636000Y839000D03*
X968000Y626000D03*
X122000Y734000D03*
X380000Y734000D03*
X874000Y734000D03*
X618000Y734000D03*
X122000Y558000D03*
X377000Y557000D03*
X247000Y557000D03*
X996000Y965000D03*
X876000Y467000D03*
X678000Y880000D03*
X926000Y880000D03*
X1187000Y471000D03*
X1631000Y570000D03*
X595000Y180000D03*
X580000Y257500D03*
X763524Y385000D03*
X831000Y380000D03*
X1640000Y681000D03*
X770572Y348000D03*
X831000Y344000D03*
X777620Y313000D03*
X831000Y309000D03*
X783000Y279000D03*
X831000Y275000D03*
X783000Y244000D03*
X831000Y240000D03*
X775000Y210000D03*
X831000Y206000D03*
X767596Y176000D03*
X831000Y172000D03*
X751980Y163542D03*
X831000Y137000D03*
X582000Y244000D03*
X581000Y137000D03*
X573000Y241000D03*
X572000Y224000D03*
X561000Y98000D03*
X574000Y131000D03*
X309000Y440000D03*
X307000Y305000D03*
X320000Y362000D03*
X323000Y293000D03*
X224000Y353000D03*
X98000Y592000D03*
X468000Y378000D03*
X579500Y679500D03*
X491000Y345000D03*
X529000Y597000D03*
X492000Y297000D03*
X369000Y467000D03*
X491000Y259000D03*
X368000Y387000D03*
X342000Y236000D03*
X455000Y608000D03*
X404000Y165000D03*
X481000Y158000D03*
X404000Y223000D03*
X482000Y210000D03*
X269000Y201000D03*
X518000Y393000D03*
X444000Y59000D03*
X338000Y119000D03*
X431000Y482000D03*
X431000Y111000D03*
X429500Y402500D03*
X186000Y581000D03*
X242000Y259000D03*
X398000Y348000D03*
X393540Y293709D03*
M02*
