M48
;GenerationSoftware,Autodesk,EAGLE,9.5.2*%
;CreationDate,2020-01-06T16:07:51Z*%
FMAT,2
ICI,OFF
METRIC,TZ,000.000
T7C0.500
T6C1.000
T5C1.100
T4C1.194
T3C1.200
T2C1.600
T1C4.000
%
G90
M71
T1
X3000Y3000
X157000Y3000
X69100Y47900
X157000Y104000
X50800Y90300
X41000Y60800
X3000Y48400
T2
X59690Y103690
X67310Y98610
X9190Y103700
X16810Y98610
X84990Y103690
X92610Y98610
X34390Y103700
X42010Y98610
X67310Y94165
X42010Y89720
X59690Y94800
X34390Y89720
X9190Y89720
X84990Y94800
X16810Y89720
X92610Y94165
T3
X88800Y90350
X13000Y89720
X38200Y94800
X13000Y94800
X38200Y89720
X63500Y90350
T4
X24200Y5390
X19200Y5390
X14200Y5390
T5
X74750Y26890
X74750Y29430
X74750Y31970
X74750Y34510
X74750Y37050
X74750Y39590
X72210Y21810
X98880Y4030
X72210Y26890
X72210Y29430
X72210Y31970
X72210Y34510
X72210Y37050
X72210Y39590
X74750Y24350
X74750Y21810
X96340Y39590
X96340Y37050
X96340Y34510
X96340Y31970
X96340Y29430
X96340Y26890
X96340Y24350
X96340Y21810
X98880Y39590
X98880Y37050
X98880Y34510
X98880Y31970
X98880Y29430
X98880Y26890
X98880Y24350
X98880Y21810
X96340Y19270
X96340Y16730
X96340Y14190
X96340Y11650
X96340Y9110
X96340Y6570
X96340Y4030
X98880Y19270
X98880Y16730
X98880Y14190
X98880Y11650
X98880Y9110
X98880Y6570
X72210Y24350
T6
X8400Y2800
X165810Y87090
X24200Y11900
X48900Y5000
X38300Y48800
X38200Y41000
X165810Y36290
X53980Y5000
X104850Y94710
X107390Y94710
X104850Y92170
X107390Y92170
X104850Y89630
X107390Y89630
X104850Y87090
X107390Y87090
X104850Y84550
X107390Y84550
X104850Y82010
X107390Y82010
X104850Y79470
X107390Y79470
X104850Y76930
X107390Y76930
X104850Y74390
X107390Y74390
X104850Y71850
X107390Y71850
X104850Y69310
X107390Y69310
X104850Y66770
X107390Y66770
X104850Y64230
X107390Y64230
X104850Y61690
X107390Y61690
X104850Y59150
X107390Y59150
X104850Y56610
X107390Y56610
X104850Y54070
X107390Y54070
X104850Y51530
X107390Y51530
X104850Y48990
X107390Y48990
X104850Y46450
X107390Y46450
X104850Y43910
X107390Y43910
X104850Y41370
X107390Y41370
X104850Y38830
X107390Y38830
X104850Y36290
X107390Y36290
X104850Y33750
X107390Y33750
X104850Y31210
X107390Y31210
X104850Y28670
X107390Y28670
X104850Y26130
X107390Y26130
X104850Y23590
X107390Y23590
X104850Y21050
X107390Y21050
X104850Y18510
X107390Y18510
X104850Y15970
X107390Y15970
X104850Y13430
X107390Y13430
X104850Y10890
X107390Y10890
X104850Y8350
X107390Y8350
X104850Y5810
X107390Y5810
X112470Y74390
X115010Y74390
X112470Y71850
X115010Y71850
X112470Y69310
X115010Y69310
X112470Y66770
X115010Y66770
X112470Y64230
X115010Y64230
X112470Y61690
X115010Y61690
X112470Y59150
X115010Y59150
X112470Y56610
X115010Y56610
X112470Y54070
X115010Y54070
X112470Y51530
X115010Y51530
X112470Y48990
X115010Y48990
X112470Y46450
X115010Y46450
X112470Y43910
X115010Y43910
X112470Y41370
X115010Y41370
X112470Y38830
X115010Y38830
X112470Y36290
X115010Y36290
X112470Y33750
X115010Y33750
X112470Y29940
X115010Y29940
X112470Y27400
X115010Y27400
X112470Y24860
X115010Y24860
X112470Y22320
X115010Y22320
X112470Y19780
X115010Y19780
X112470Y17240
X115010Y17240
X112470Y14700
X115010Y14700
X112470Y12160
X115010Y12160
X112470Y9620
X115010Y9620
X112470Y7080
X115010Y7080
X158190Y74390
X160730Y74390
X158190Y71850
X160730Y71850
X158190Y69310
X160730Y69310
X158190Y66770
X160730Y66770
X158190Y64230
X160730Y64230
X158190Y61690
X160730Y61690
X158190Y59150
X160730Y59150
X158190Y56610
X160730Y56610
X158190Y54070
X160730Y54070
X158190Y51530
X160730Y51530
X158190Y48990
X160730Y48990
X158190Y46450
X160730Y46450
X158190Y43910
X160730Y43910
X158190Y41370
X19200Y11900
X54900Y34000
X51440Y5000
X14200Y11900
X60850Y57900
X60850Y66500
X168350Y5810
X165810Y5810
X168350Y8350
X165810Y8350
X168350Y10890
X165810Y10890
X168350Y13430
X165810Y13430
X168350Y15970
X165810Y15970
X168350Y18510
X165810Y18510
X168350Y21050
X165810Y21050
X168350Y23590
X165810Y23590
X168350Y26130
X165810Y26130
X168350Y28670
X165810Y28670
X168350Y31210
X165810Y31210
X168350Y33750
X165810Y33750
X168350Y36290
X160730Y41370
X168350Y38830
X165810Y38830
X168350Y41370
X165810Y41370
X168350Y43910
X165810Y43910
X168350Y46450
X165810Y46450
X168350Y48990
X165810Y48990
X168350Y51530
X165810Y51530
X168350Y54070
X165810Y54070
X168350Y56610
X165810Y56610
X168350Y59150
X165810Y59150
X168350Y61690
X165810Y61690
X168350Y64230
X165810Y64230
X168350Y66770
X165810Y66770
X168350Y69310
X165810Y69310
X168350Y71850
X165810Y71850
X168350Y74390
X165810Y74390
X168350Y76930
X165810Y76930
X168350Y79470
X165810Y79470
X168350Y82010
X165810Y82010
X168350Y84550
X165810Y84550
X168350Y87090
X158190Y38830
X168350Y89630
X165810Y89630
X168350Y92170
X165810Y92170
X168350Y94710
X165810Y94710
X160730Y15970
X158190Y15970
X160730Y18510
X158190Y18510
X160730Y21050
X158190Y21050
X160730Y23590
X158190Y23590
X160730Y26130
X158190Y26130
X160730Y28670
X158190Y28670
X160730Y31210
X158190Y31210
X160730Y33750
X158190Y33750
X160730Y38830
T7
X9800Y76600
X59250Y76450
X23400Y45500
X23500Y41900
X23500Y37500
X31805Y27995
X23800Y28000
X4300Y34700
X14100Y34500
X12800Y31500
X7900Y37400
X17100Y42000
X7500Y42000
X24400Y24700
X19600Y35000
X63600Y9950
X63700Y20850
X66450Y32000
X43700Y34300
X43700Y30100
X43700Y25900
X43700Y21600
X37000Y16300
X37000Y22200
X27000Y17800
X26900Y24700
X39000Y31900
X43100Y50300
X38200Y12200
X38600Y5200
X98700Y60200
X98700Y64500
X42949Y42500
X6700Y77600
X39354Y29371
X39800Y34800
X24200Y25900
X18600Y58100
X42950Y40250
X43100Y11100
X43100Y48200
X33800Y11900
X44400Y5900
X51800Y39300
X26900Y20100
X48200Y21000
X40400Y22300
X48100Y15800
X40400Y16500
X45500Y60800
X34200Y23600
X36800Y38700
X49100Y25900
X36900Y46700
X49200Y29700
X52900Y59700
X49100Y34500
X57950Y67950
X46800Y37800
X9800Y59200
X22400Y35300
X32300Y29300
X32000Y36200
X30700Y30500
X30900Y44000
X57400Y13100
X56100Y9800
X57200Y22400
X57300Y24100
X58100Y13700
X58200Y24400
X83100Y13700
X75198Y16354
X83100Y17200
X76760Y17600
X83100Y20600
X77500Y21000
X83100Y24000
X78300Y24400
X83100Y27500
X78300Y27900
X83100Y30900
X77762Y31300
X83100Y34400
X77057Y34800
X164000Y68100
X83100Y38000
X76352Y38500
X58000Y25750
X59500Y18000
X163100Y57000
X118700Y47100
X92600Y88000
X67800Y88000
X87600Y46700
X99600Y96500
X24700Y55700
X37700Y55700
X12200Y55800
X61800Y73400
X87400Y73400
X38000Y73400
X12200Y73400
X96800Y62600
X163600Y83900
X162500Y85200
X94200Y53900
X45000Y69400
X27400Y21900
X56400Y46400
X55854Y54100
X54300Y47700
X54500Y62400
X110300Y5800
X34900Y22300
X18200Y23000
X147300Y86400
X23900Y51700
X144392Y85100
X12600Y53300
X145346Y83900
X2600Y57100
X143183Y82583
X78200Y50900
X75300Y71100
X145725Y81325
X46700Y95400
X46700Y71100
X26900Y69800
X148300Y80100
X47700Y103600
X2600Y74900
X67900Y67700
X76600Y69400
X52600Y50100
X88500Y37900
X7500Y45100
X4800Y65000
X4600Y42400
X7600Y65600
X63441Y44141
X90000Y37900
X7800Y38800
X21405Y34300
X86950Y40950
X87000Y37900
X82400Y68300
X82400Y54300
X80100Y68400
X80100Y54300
X68100Y66400
X76600Y67200
X77500Y77100
X31500Y78600
X84800Y76100
X35400Y79646
X23500Y50000
X63400Y48700
X47800Y45500
X55350Y45550
X47600Y55200
X47600Y68100
X47600Y63600
X47600Y59800
X63900Y68900
X75150Y65850
X88700Y67735
X88600Y75000
X63800Y75100
X64000Y81800
X74137Y83663
X99300Y83800
X88900Y82100
X40600Y75200
X38600Y82000
X42100Y86400
X16100Y75300
X14200Y81500
X17500Y82700
X98700Y56100
X34300Y5300
X24100Y16100
X43700Y23800
X43700Y28000
X43700Y32200
X43700Y36400
X11700Y42000
X21600Y40000
X28900Y26900
X18400Y34300
X23500Y40000
X23400Y48100
X51400Y43900
X47600Y66200
X47600Y57900
X63900Y63500
X87000Y64800
X85600Y67000
X91000Y76600
X65800Y76100
X39700Y78750
X30400Y81100
X32000Y81100
X6900Y81100
X5600Y81100
X52000Y76600
X15300Y78550
M30