M48
;GenerationSoftware,Autodesk,EAGLE,9.6.2*%
;CreationDate,2020-08-30T08:58:48Z*%
FMAT,2
ICI,OFF
METRIC,TZ,000.000
T12C0.813
T11C0.900
T10C1.000
T9C1.016
T8C1.194
T7C1.220
T6C1.320
T5C1.499
T4C1.500
T3C1.700
T2C1.753
T1C3.400
%
G90
M71
T1
X109340Y78970
X145340Y78970
T2
X3852Y13400
X3852Y5730
X5079Y69337
X5079Y61667
T3
X127340Y66970
X134340Y55270
X120340Y55270
T4
X148810Y49580
X139310Y49580
X129810Y49580
X120310Y49580
X148810Y8980
X139310Y8980
X129810Y8980
X120310Y8980
X101000Y8230
X52700Y52130
X52700Y36930
X52700Y23430
X52700Y8230
X101000Y52130
X101000Y36930
X101000Y23430
T5
X50256Y81638
X52796Y81638
X3383Y46936
X3383Y44396
X3383Y41856
X47716Y81638
T6
X27040Y81224
X24490Y81224
X21940Y81224
T7
X89790Y63155
X35380Y50545
X35380Y46735
X89790Y74585
X89790Y70775
X89790Y66965
X35380Y42925
X35380Y39115
X102190Y63175
X102190Y66985
X102190Y70795
X102190Y74605
T8
X157500Y67320
X157500Y62320
X157500Y57320
T9
X22306Y3425
X24846Y3425
X27386Y3425
T10
X50550Y67860
X27150Y70100
X27150Y67560
X31240Y61700
X17440Y51400
X14900Y51400
X50550Y70400
X24590Y13450
X24590Y15990
X106200Y58100
X106200Y68000
T11
X70390Y66840
X40840Y67190
X70390Y74340
X15350Y37340
X37540Y58825
X41040Y58825
X19483Y22450
X19483Y25950
X22850Y37340
X25646Y53790
X37340Y67190
X35890Y27200
X25646Y57290
X28390Y27200
T12
X14630Y47400
X19710Y47400
X55980Y71670
X55980Y66590
X31680Y65530
X31680Y70610
X20780Y12450
X20780Y17530
X14630Y55790
X19710Y55790
X45820Y71670
X29670Y12450
X29670Y17530
X45820Y66590
X28930Y51600
X28930Y47000
X31470Y47000
X31570Y42400
X29030Y42400
X31570Y37800
X29030Y37800
X82970Y62600
X80430Y62600
X82870Y67500
X80330Y67500
X82870Y72300
X80330Y72300
X80330Y77100
X82870Y77100
X96670Y62800
X94130Y62800
X96670Y67700
X94130Y67700
X96670Y72600
X94130Y72600
X94130Y77300
X96670Y77300
X22620Y70510
X22620Y65430
X31470Y51600
M30