M48
;GenerationSoftware,Autodesk,EAGLE,9.5.2*%
;CreationDate,2020-02-16T16:10:15Z*%
FMAT,2
ICI,OFF
METRIC,TZ,000.000
T11C0.350
T10C0.400
T9C0.800
T8C0.950
T7C1.000
T6C1.200
T5C1.600
T4C1.753
T3C2.200
T2C3.250
T1C4.000
%
G90
M71
T1
X206000Y4000
X4000Y4000
X50800Y52500
X206000Y66000
T2
X196650Y64750
X183950Y64750
T3
X165800Y60500
X153800Y60500
T4
X190630Y8908
X65830Y6708
X171860Y19308
X179530Y19308
X18860Y7008
X26530Y7008
X46560Y6808
X54230Y6808
X58308Y30940
X58308Y23270
X171860Y8908
X179530Y8908
X194360Y8908
X202030Y8908
X182960Y8908
X58160Y6708
T5
X59690Y66190
X42010Y61110
X34390Y66200
X92610Y61110
X84990Y66190
X16710Y61110
X9090Y66200
X67310Y61110
X67310Y56665
X59690Y57300
X42010Y52220
X34390Y52220
X84990Y57300
X92610Y56665
X16710Y52220
X9090Y52220
T6
X63500Y52850
X12900Y57300
X38200Y52220
X38200Y57300
X88800Y52850
X12900Y52220
T7
X70340Y23000
X95520Y23000
X49080Y22100
X176000Y59200
X155000Y6100
X157540Y6100
X125700Y42400
X125700Y44500
X175900Y46500
X175900Y49040
X175900Y51580
X176000Y54120
X176000Y56660
X49060Y31500
T8
X158550Y55790
X161050Y55790
X161050Y57790
X158550Y57790
T9
X56500Y36800
X62100Y4300
X52800Y2600
X3100Y38100
X52300Y38000
X3100Y68500
X112400Y57400
X54200Y66200
X28300Y37400
X78300Y38100
X175600Y7200
X194700Y3500
X78300Y62700
X28300Y62800
X82000Y20000
X35600Y19600
X23800Y19700
X124500Y66300
X5900Y19700
X5800Y37800
X32100Y37500
X82100Y36800
X114300Y66300
X198800Y6500
X107900Y58900
X11200Y59200
X27900Y20700
X109400Y62400
X7200Y63800
X15100Y20600
X111000Y61000
X4500Y64800
X4500Y19700
X113500Y59900
X76000Y60400
X77600Y20100
X111000Y58600
T10
X29900Y4900
X29900Y11500
X52700Y19800
X50900Y19800
X31800Y6200
X31200Y13000
X9500Y22404
X29000Y2500
X29000Y10300
X18700Y10800
X26300Y11400
T11
X65600Y23100
X61700Y16700
X88300Y15600
X90900Y23000
X63200Y37000
X72600Y34200
X107600Y25800
X113200Y31400
X136200Y48800
X144100Y55000
X51100Y14000
X109300Y51800
X101500Y52200
X38800Y44400
X17500Y36900
X42100Y36900
X14300Y44500
X43000Y29900
X44800Y29900
X41400Y33200
X38900Y25700
X41400Y23700
X38900Y16500
X43200Y20600
X44900Y20600
X46800Y8900
X43000Y11100
X36900Y9800
X34800Y10400
X1200Y8100
X11000Y11200
X13200Y8500
X20800Y8500
X24100Y10700
X25200Y13500
X92500Y19700
X138100Y25600
X148800Y7000
X66900Y19700
X58100Y39900
X12200Y38100
X50100Y41300
X1900Y39300
X74900Y46300
X93000Y42200
X49400Y46400
X67800Y44400
X32900Y42300
X82900Y41200
X25400Y42200
X80300Y42600
X1900Y48000
X22300Y48000
X27100Y48400
X46700Y48400
X67400Y28700
X92700Y30000
X97800Y8900
X101200Y12200
X69400Y7200
X75200Y17600
X107500Y37400
X109900Y47900
X6900Y12500
X19000Y12500
X30900Y11400
X75700Y4000
X75700Y11300
X60200Y19350
X72600Y14400
X6900Y14200
X9300Y30500
X2200Y21600
X2200Y30400
X87100Y4300
X87100Y10100
X87100Y6400
X22500Y29900
X33000Y23600
X67400Y27500
X92800Y27500
X96100Y32700
X16300Y49000
X24500Y48900
X37300Y47600
X37300Y45400
X74000Y9700
X113500Y22800
X108600Y15800
X73000Y25700
X88400Y29500
X138000Y35000
X98300Y25600
X88900Y36900
X97900Y34600
X61700Y41700
X74100Y45000
X87100Y42100
X99700Y45400
X82500Y12700
X78700Y14700
X94100Y19700
X68900Y19800
X63000Y29600
X88900Y44700
X63400Y44600
X103900Y15200
X104000Y23900
X171000Y26800
X102300Y42100
X171000Y28100
X115200Y41900
X67100Y17200
X73700Y15900
X100700Y42100
X167700Y2900
X169200Y27000
X149754Y57388
X153800Y37700
X145200Y31200
X141800Y59900
X145700Y34300
X143400Y60400
X153900Y36700
X147800Y58600
X147600Y35400
X140300Y61100
X148575Y35757
X141795Y63705
X166800Y2900
X168100Y25800
X104100Y36700
X111100Y38500
X152100Y66300
X116500Y42600
X133178Y51215
X104550Y3800
X169700Y13500
X174200Y24400
X159700Y8800
X167800Y8900
X163700Y8900
X179200Y23300
X141600Y43500
X174300Y40900
X173648Y43752
X156900Y39900
X157000Y29900
X111400Y12900
X113400Y15700
X109200Y12500
X109000Y24300
X144200Y35100
X144100Y30200
X42900Y27400
X43000Y12300
X52800Y11215
X41400Y14600
X184900Y5800
X144700Y64100
X109200Y44000
X112800Y13000
X114300Y36700
X102150Y32450
X102100Y39500
X109700Y16200
X110200Y19800
X110100Y28300
X104900Y17900
X102600Y19400
X45000Y12400
X43900Y10654
X152000Y18800
X142600Y5400
X152700Y22300
X138100Y8100
X153300Y21700
X139100Y8200
X137800Y9500
X154200Y25900
X137800Y10200
X154700Y27000
X137800Y10900
X155200Y28300
X149800Y23700
X165800Y36300
X149100Y23700
X166300Y36800
X148400Y23700
X166800Y37300
X147700Y23700
X168200Y38800
X147000Y23700
X168700Y39300
X146300Y23700
X169200Y39800
X145600Y23700
X169700Y40300
X144900Y23700
X170200Y40800
X144200Y23700
X170700Y41300
X135300Y8200
X142000Y41700
X136500Y9300
X143100Y40500
X133800Y9700
X152200Y47100
X142300Y47200
X158200Y47300
X134300Y9200
X157600Y46800
X152200Y46400
X142300Y46300
X134800Y8700
X141500Y42200
X135900Y8700
X142600Y41100
X143500Y36700
X139950Y4221
X162700Y43000
X139300Y4200
X144000Y36200
X141000Y4300
X137900Y4200
X163500Y43000
X193900Y28800
X192600Y11900
X159300Y10700
X158100Y41300
X193900Y27300
X191700Y20400
X193900Y28050
X192300Y22000
X191700Y26000
X191700Y22400
X158400Y11000
X155800Y41000
X165800Y9700
X165500Y42900
X162400Y30700
X162400Y8500
X165000Y8900
X164400Y28600
X151500Y19300
X142100Y6800
X144700Y26700
X144000Y40700
X159900Y10200
X158846Y42854
X160500Y11100
X159500Y43000
X132800Y16100
X138000Y16100
X140500Y11000
X132100Y3900
X116400Y14800
X137200Y22600
X152300Y64000
X170300Y17400
X117200Y5600
X112900Y3800
X132800Y31500
X132700Y41300
X139200Y27100
X175100Y18900
X193900Y31100
X170263Y46592
X193900Y29600
X154000Y34700
X193900Y30350
X149028Y33740
X165500Y53700
X195200Y22000
X175200Y28300
X185000Y27700
X185000Y25200
X187654Y38400
X186746Y38400
X187200Y37500
X186100Y37800
X189525Y32200
X192900Y39200
X190075Y31900
X193550Y39200
X193550Y37200
X187100Y29900
X199700Y53800
X186500Y29300
X184500Y51500
X139300Y37000
X139000Y51100
X185903Y28675
X191000Y19500
X184900Y28700
X183700Y16300
X174400Y28100
X177700Y23300
X164550Y55000
X163300Y55900
X164000Y55800
X136100Y40950
X136100Y31000
X135100Y43100
X134400Y29000
X134300Y38600
X172600Y14300
X172700Y3600
X121300Y5600
X198800Y40800
X202900Y53500
X190300Y28900
X168800Y18700
X177900Y33200
X178200Y26300
X176200Y21100
X169600Y31600
X176300Y16200
X169300Y47400
X128300Y47900
X130975Y34775
X130825Y43625
X132600Y12450
X165300Y13100
X163100Y13100
X159300Y13700
X156800Y13600
X153600Y19800
X160500Y20100
X146100Y28600
X145400Y25700
X146200Y32300
X146000Y38100
X177800Y38300
X182500Y43800
X177900Y44300
X179200Y42200
X154100Y52400
X152100Y51100
X165400Y50700
X161200Y50300
X174200Y61700
X174200Y63800
X167800Y52000
X167800Y58000
X195200Y13100
X183000Y14400
X193400Y22900
X182300Y22300
X182300Y24100
X198100Y31400
X187400Y24400
X193200Y34800
X189100Y38100
X181100Y34800
X61700Y26200
X37900Y30800
X72600Y38800
X11200Y15200
X23200Y15100
X35800Y14000
X39800Y8300
X37500Y22100
X44900Y15900
X44900Y25100
X38800Y40000
X14300Y40100
X109900Y32500
X116400Y51800
X105800Y37400
X97900Y38900
X108400Y22800
X92800Y26200
X63000Y39200
X88500Y39400
X84200Y14900
X65500Y13900
X90800Y14100
X61600Y19700
X87100Y19800
X185700Y34600
X105400Y3800
X123700Y54200
M30