; Drill file
; Format: 2.4 (00.0000)
M48
INCH
T01C0.0157
T02C0.0276
T03C0.0315
T04C0.0394
%
G05
G90
T01
X009130Y-034560
X009630Y-034060
X009130Y-033560
X009120Y-032610
X009620Y-032110
X009120Y-031610
X009130Y-030650
X009630Y-030150
X009130Y-029650
X009130Y-025560
X009630Y-025060
X009130Y-024560
X009120Y-023610
X009620Y-023110
X009120Y-022610
X009130Y-021650
X009630Y-021150
X009130Y-020650
X009150Y-015390
X009650Y-014890
X009150Y-014390
X009150Y-013450
X009650Y-012950
X009150Y-012450
X009150Y-011510
X009650Y-011010
X009150Y-010510
X009130Y-009560
X009630Y-009060
X009130Y-008560
X009120Y-007610
X009620Y-007110
X009120Y-006610
X009130Y-005650
X009630Y-005150
X009130Y-004650
X040130Y-020650
X040630Y-021150
X040130Y-021650
X040120Y-022610
X040620Y-023110
X040120Y-023610
X040130Y-024560
X040630Y-025060
X040130Y-025560
T02
X012090Y-033410
X013000Y-033420
X014000Y-033420
X015000Y-033420
X016000Y-033420
X016000Y-031380
X015000Y-031380
X014000Y-031380
X013000Y-031380
X012090Y-031410
X017530Y-031430
X018440Y-031440
X019440Y-031440
X020440Y-031440
X021440Y-031440
X021440Y-029410
X020440Y-029410
X019440Y-029410
X018440Y-029410
X017530Y-029430
X016000Y-024420
X015000Y-024420
X014000Y-024420
X013000Y-024420
X012090Y-024410
X012090Y-022410
X013000Y-022380
X014000Y-022380
X015000Y-022380
X016000Y-022380
X017530Y-022430
X018440Y-022440
X019440Y-022440
X020440Y-022440
X021440Y-022440
X021440Y-020410
X020440Y-020410
X019440Y-020410
X018440Y-020410
X017530Y-020430
X016500Y-016920
X015500Y-016920
X014500Y-016920
X013500Y-016920
X012590Y-016910
X012590Y-014910
X013500Y-014880
X014500Y-014880
X015500Y-014880
X016500Y-014880
X018090Y-014910
X019000Y-014920
X020000Y-014920
X021000Y-014920
X022000Y-014920
X022000Y-012880
X021000Y-012880
X020000Y-012880
X019000Y-012880
X018090Y-012910
X023590Y-012910
X024500Y-012920
X025500Y-012920
X026500Y-012920
X027500Y-012920
X027500Y-010880
X026500Y-010880
X025500Y-010880
X024500Y-010880
X023590Y-010910
X029090Y-010910
X030000Y-010920
X031000Y-010920
X032000Y-010920
X033000Y-010920
X033000Y-008880
X032000Y-008880
X031000Y-008880
X030000Y-008880
X029090Y-008910
X034530Y-008930
X035440Y-008940
X036440Y-008940
X037440Y-008940
X038440Y-008940
X038440Y-006910
X037440Y-006910
X036440Y-006910
X035440Y-006910
X034530Y-006930
X040030Y-006930
X040940Y-006940
X041940Y-006940
X042940Y-006940
X043940Y-006940
X043940Y-004910
X042940Y-004910
X041940Y-004910
X040940Y-004910
X040030Y-004930
X048530Y-020430
X049440Y-020410
X050440Y-020410
X051440Y-020410
X052440Y-020410
X054030Y-020430
X054940Y-020440
X055940Y-020440
X056940Y-020440
X057940Y-020440
X057940Y-018410
X056940Y-018410
X055940Y-018410
X054940Y-018410
X054030Y-018430
X052440Y-022440
X051440Y-022440
X050440Y-022440
X049440Y-022440
X048530Y-022430
X047000Y-022380
X046000Y-022380
X045000Y-022380
X044000Y-022380
X043090Y-022410
X043090Y-024410
X044000Y-024420
X045000Y-024420
X046000Y-024420
X047000Y-024420
X026940Y-027410
X025940Y-027410
X024940Y-027410
X023940Y-027410
X023030Y-027430
X023030Y-029430
X023940Y-029440
X024940Y-029440
X025940Y-029440
X026940Y-029440
X026940Y-020440
X025940Y-020440
X024940Y-020440
X023940Y-020440
X023030Y-020430
X023030Y-018430
X023940Y-018410
X024940Y-018410
X025940Y-018410
X026940Y-018410
T03
X002670Y-034080
X002660Y-032120
X002670Y-030170
X007670Y-030170
X007660Y-032120
X007670Y-034080
X007670Y-025080
X007660Y-023120
X007670Y-021170
X002670Y-021170
X002660Y-023120
X002670Y-025080
X002690Y-014910
X002690Y-012970
X002690Y-011030
X002670Y-009080
X002660Y-007130
X002670Y-005170
X007670Y-005170
X007660Y-007130
X007670Y-009080
X007690Y-011030
X007690Y-012970
X007690Y-014910
X033670Y-021170
X033660Y-023120
X033670Y-025080
X038670Y-025080
X038660Y-023120
X038670Y-021170
T04
X001970Y-034050
X001950Y-032100
X001970Y-030140
X006780Y-029350
X006760Y-031300
X006780Y-033250
X010450Y-035020
X011000Y-031880
X010450Y-026020
X011000Y-022880
X006760Y-022300
X006780Y-024250
X006780Y-020350
X008950Y-016520
X011500Y-016000
X006790Y-014080
X006790Y-012140
X006790Y-010210
X006780Y-008250
X006760Y-006300
X006780Y-004350
X001970Y-005140
X001950Y-007100
X001970Y-009050
X001980Y-011000
X001980Y-012940
X001980Y-014880
X001970Y-021140
X001950Y-023100
X001970Y-025050
X016880Y-025190
X017380Y-024190
X016880Y-022190
X017380Y-017190
X017380Y-016190
X017380Y-014690
X022880Y-016190
X022880Y-012690
X028370Y-010690
X028370Y-014690
X028620Y-018500
X028620Y-019500
X028620Y-020500
X028620Y-021500
X028620Y-022500
X028620Y-023500
X028620Y-027500
X028620Y-028500
X028620Y-029500
X028620Y-030500
X028620Y-031500
X028620Y-032500
X022370Y-032190
X022370Y-029190
X016880Y-031190
X017380Y-033190
X016880Y-034190
X022370Y-023190
X022370Y-020190
X032970Y-021140
X032950Y-023100
X032970Y-025050
X037780Y-024250
X037760Y-022300
X037780Y-020350
X042000Y-022880
X041450Y-026020
X047870Y-025190
X048380Y-024190
X047870Y-022190
X053380Y-023190
X053380Y-020190
X059630Y-020500
X059630Y-019500
X059630Y-018500
X059630Y-021500
X059630Y-022500
X059630Y-023500
X045620Y-015000
X045620Y-014000
X045620Y-013000
X045620Y-012000
X045620Y-011000
X045620Y-010000
X045620Y-009000
X045620Y-008000
X045620Y-007000
X045620Y-006000
X045620Y-005000
X039380Y-006690
X033880Y-008690
X033880Y-014690
X039380Y-014690
M30
