G04 EAGLE Gerber RS-274X export*
G75*
%MOMM*%
%FSLAX34Y34*%
%LPD*%
%INCopper Layer 2*%
%IPPOS*%
%AMOC8*
5,1,8,0,0,1.08239X$1,22.5*%
G01*
%ADD10C,2.100000*%
%ADD11C,1.700000*%
%ADD12C,1.500000*%
%ADD13C,1.450000*%
%ADD14C,2.700000*%
%ADD15C,2.252600*%
%ADD16C,0.450000*%
%ADD17C,0.960000*%
%ADD18C,0.254000*%
%ADD19C,0.500000*%

G36*
X1186020Y3274D02*
X1186020Y3274D01*
X1186039Y3272D01*
X1186141Y3294D01*
X1186243Y3310D01*
X1186260Y3320D01*
X1186280Y3324D01*
X1186369Y3377D01*
X1186460Y3426D01*
X1186474Y3440D01*
X1186491Y3450D01*
X1186558Y3529D01*
X1186630Y3604D01*
X1186638Y3622D01*
X1186651Y3637D01*
X1186690Y3733D01*
X1186733Y3827D01*
X1186735Y3847D01*
X1186743Y3865D01*
X1186761Y4032D01*
X1186761Y51239D01*
X1199239Y51239D01*
X1199239Y4032D01*
X1199242Y4012D01*
X1199240Y3993D01*
X1199262Y3891D01*
X1199279Y3789D01*
X1199288Y3772D01*
X1199292Y3752D01*
X1199345Y3663D01*
X1199394Y3572D01*
X1199408Y3558D01*
X1199418Y3541D01*
X1199497Y3474D01*
X1199572Y3402D01*
X1199590Y3394D01*
X1199605Y3381D01*
X1199701Y3342D01*
X1199795Y3299D01*
X1199815Y3297D01*
X1199833Y3289D01*
X1200000Y3271D01*
X2095968Y3271D01*
X2095988Y3274D01*
X2096007Y3272D01*
X2096109Y3294D01*
X2096211Y3310D01*
X2096228Y3320D01*
X2096248Y3324D01*
X2096337Y3377D01*
X2096428Y3426D01*
X2096442Y3440D01*
X2096459Y3450D01*
X2096526Y3529D01*
X2096598Y3604D01*
X2096606Y3622D01*
X2096619Y3637D01*
X2096658Y3733D01*
X2096701Y3827D01*
X2096703Y3847D01*
X2096711Y3865D01*
X2096729Y4032D01*
X2096729Y695968D01*
X2096726Y695988D01*
X2096728Y696007D01*
X2096706Y696109D01*
X2096690Y696211D01*
X2096680Y696228D01*
X2096676Y696248D01*
X2096623Y696337D01*
X2096574Y696428D01*
X2096560Y696442D01*
X2096550Y696459D01*
X2096471Y696526D01*
X2096396Y696598D01*
X2096378Y696606D01*
X2096363Y696619D01*
X2096267Y696658D01*
X2096173Y696701D01*
X2096153Y696703D01*
X2096135Y696711D01*
X2095968Y696729D01*
X1200000Y696729D01*
X1199980Y696726D01*
X1199961Y696728D01*
X1199859Y696706D01*
X1199757Y696690D01*
X1199740Y696680D01*
X1199720Y696676D01*
X1199631Y696623D01*
X1199540Y696574D01*
X1199526Y696560D01*
X1199509Y696550D01*
X1199442Y696471D01*
X1199371Y696396D01*
X1199362Y696378D01*
X1199349Y696363D01*
X1199310Y696267D01*
X1199267Y696173D01*
X1199265Y696153D01*
X1199257Y696135D01*
X1199239Y695968D01*
X1199239Y169761D01*
X1186761Y169761D01*
X1186761Y695968D01*
X1186758Y695988D01*
X1186760Y696007D01*
X1186738Y696109D01*
X1186722Y696211D01*
X1186712Y696228D01*
X1186708Y696248D01*
X1186655Y696337D01*
X1186606Y696428D01*
X1186592Y696442D01*
X1186582Y696459D01*
X1186503Y696526D01*
X1186428Y696598D01*
X1186410Y696606D01*
X1186395Y696619D01*
X1186299Y696658D01*
X1186205Y696701D01*
X1186185Y696703D01*
X1186167Y696711D01*
X1186000Y696729D01*
X4032Y696729D01*
X4012Y696726D01*
X3993Y696728D01*
X3891Y696706D01*
X3789Y696690D01*
X3772Y696680D01*
X3752Y696676D01*
X3663Y696623D01*
X3572Y696574D01*
X3558Y696560D01*
X3541Y696550D01*
X3474Y696471D01*
X3402Y696396D01*
X3394Y696378D01*
X3381Y696363D01*
X3342Y696267D01*
X3299Y696173D01*
X3297Y696153D01*
X3289Y696135D01*
X3271Y695968D01*
X3271Y4032D01*
X3274Y4012D01*
X3272Y3993D01*
X3294Y3891D01*
X3310Y3789D01*
X3320Y3772D01*
X3324Y3752D01*
X3377Y3663D01*
X3426Y3572D01*
X3440Y3558D01*
X3450Y3541D01*
X3529Y3474D01*
X3604Y3402D01*
X3622Y3394D01*
X3637Y3381D01*
X3733Y3342D01*
X3827Y3299D01*
X3847Y3297D01*
X3865Y3289D01*
X4032Y3271D01*
X1186000Y3271D01*
X1186020Y3274D01*
G37*
%LPC*%
G36*
X35624Y17999D02*
X35624Y17999D01*
X27538Y21349D01*
X21349Y27538D01*
X17999Y35624D01*
X17999Y44376D01*
X21349Y52462D01*
X27538Y58651D01*
X35624Y62001D01*
X44376Y62001D01*
X52462Y58651D01*
X58651Y52462D01*
X62001Y44376D01*
X62001Y35624D01*
X58651Y27538D01*
X52462Y21349D01*
X44376Y17999D01*
X35624Y17999D01*
G37*
%LPD*%
%LPC*%
G36*
X2055624Y637999D02*
X2055624Y637999D01*
X2047538Y641349D01*
X2041349Y647538D01*
X2037999Y655624D01*
X2037999Y664376D01*
X2041349Y672462D01*
X2047538Y678651D01*
X2055624Y682001D01*
X2064376Y682001D01*
X2072462Y678651D01*
X2078651Y672462D01*
X2082001Y664376D01*
X2082001Y655624D01*
X2078651Y647538D01*
X2072462Y641349D01*
X2064376Y637999D01*
X2055624Y637999D01*
G37*
%LPD*%
%LPC*%
G36*
X2055624Y17999D02*
X2055624Y17999D01*
X2047538Y21349D01*
X2041349Y27538D01*
X2037999Y35624D01*
X2037999Y44376D01*
X2041349Y52462D01*
X2047538Y58651D01*
X2055624Y62001D01*
X2064376Y62001D01*
X2072462Y58651D01*
X2078651Y52462D01*
X2082001Y44376D01*
X2082001Y35624D01*
X2078651Y27538D01*
X2072462Y21349D01*
X2064376Y17999D01*
X2055624Y17999D01*
G37*
%LPD*%
%LPC*%
G36*
X503624Y502999D02*
X503624Y502999D01*
X495538Y506349D01*
X489349Y512538D01*
X485999Y520624D01*
X485999Y529376D01*
X489349Y537462D01*
X495538Y543651D01*
X503624Y547001D01*
X512376Y547001D01*
X520462Y543651D01*
X526651Y537462D01*
X530001Y529376D01*
X530001Y520624D01*
X526651Y512538D01*
X520462Y506349D01*
X512376Y502999D01*
X503624Y502999D01*
G37*
%LPD*%
%LPC*%
G36*
X1962870Y629249D02*
X1962870Y629249D01*
X1956162Y632028D01*
X1951028Y637162D01*
X1948249Y643870D01*
X1948249Y651130D01*
X1951028Y657838D01*
X1956162Y662972D01*
X1962870Y665751D01*
X1970130Y665751D01*
X1976838Y662972D01*
X1981972Y657838D01*
X1984751Y651130D01*
X1984751Y643870D01*
X1981972Y637162D01*
X1976838Y632028D01*
X1970130Y629249D01*
X1962870Y629249D01*
G37*
%LPD*%
%LPC*%
G36*
X1835870Y629249D02*
X1835870Y629249D01*
X1829162Y632028D01*
X1824028Y637162D01*
X1821249Y643870D01*
X1821249Y651130D01*
X1824028Y657838D01*
X1829162Y662972D01*
X1835870Y665751D01*
X1843130Y665751D01*
X1849838Y662972D01*
X1854972Y657838D01*
X1857751Y651130D01*
X1857751Y643870D01*
X1854972Y637162D01*
X1849838Y632028D01*
X1843130Y629249D01*
X1835870Y629249D01*
G37*
%LPD*%
%LPC*%
G36*
X1535116Y590499D02*
X1535116Y590499D01*
X1529786Y592707D01*
X1525707Y596786D01*
X1523499Y602116D01*
X1523499Y607884D01*
X1525707Y613214D01*
X1529786Y617293D01*
X1535116Y619501D01*
X1540884Y619501D01*
X1546214Y617293D01*
X1550293Y613214D01*
X1552501Y607884D01*
X1552501Y602116D01*
X1550293Y596786D01*
X1546214Y592707D01*
X1540884Y590499D01*
X1535116Y590499D01*
G37*
%LPD*%
%LPC*%
G36*
X1655116Y590499D02*
X1655116Y590499D01*
X1649786Y592707D01*
X1645707Y596786D01*
X1643499Y602116D01*
X1643499Y607884D01*
X1645707Y613214D01*
X1649786Y617293D01*
X1655116Y619501D01*
X1660884Y619501D01*
X1666214Y617293D01*
X1670293Y613214D01*
X1672501Y607884D01*
X1672501Y602116D01*
X1670293Y596786D01*
X1666214Y592707D01*
X1660884Y590499D01*
X1655116Y590499D01*
G37*
%LPD*%
%LPC*%
G36*
X655865Y54814D02*
X655865Y54814D01*
X651357Y56681D01*
X647907Y60131D01*
X646040Y64639D01*
X646040Y69517D01*
X647907Y74025D01*
X651357Y77475D01*
X655865Y79342D01*
X660743Y79342D01*
X665251Y77475D01*
X668701Y74025D01*
X670568Y69517D01*
X670568Y64639D01*
X668701Y60131D01*
X665251Y56681D01*
X660743Y54814D01*
X655865Y54814D01*
G37*
%LPD*%
%LPC*%
G36*
X579157Y54814D02*
X579157Y54814D01*
X574649Y56681D01*
X571199Y60131D01*
X569332Y64639D01*
X569332Y69517D01*
X571199Y74025D01*
X574649Y77475D01*
X579157Y79342D01*
X584035Y79342D01*
X588543Y77475D01*
X591993Y74025D01*
X593860Y69517D01*
X593860Y64639D01*
X591993Y60131D01*
X588543Y56681D01*
X584035Y54814D01*
X579157Y54814D01*
G37*
%LPD*%
%LPC*%
G36*
X1792865Y180814D02*
X1792865Y180814D01*
X1788357Y182681D01*
X1784907Y186131D01*
X1783040Y190639D01*
X1783040Y195517D01*
X1784907Y200025D01*
X1788357Y203475D01*
X1792865Y205342D01*
X1797743Y205342D01*
X1802251Y203475D01*
X1805701Y200025D01*
X1807568Y195517D01*
X1807568Y190639D01*
X1805701Y186131D01*
X1802251Y182681D01*
X1797743Y180814D01*
X1792865Y180814D01*
G37*
%LPD*%
%LPC*%
G36*
X463157Y55814D02*
X463157Y55814D01*
X458649Y57681D01*
X455199Y61131D01*
X453332Y65639D01*
X453332Y70517D01*
X455199Y75025D01*
X458649Y78475D01*
X463157Y80342D01*
X468035Y80342D01*
X472543Y78475D01*
X475993Y75025D01*
X477860Y70517D01*
X477860Y65639D01*
X475993Y61131D01*
X472543Y57681D01*
X468035Y55814D01*
X463157Y55814D01*
G37*
%LPD*%
%LPC*%
G36*
X539865Y55814D02*
X539865Y55814D01*
X535357Y57681D01*
X531907Y61131D01*
X530040Y65639D01*
X530040Y70517D01*
X531907Y75025D01*
X535357Y78475D01*
X539865Y80342D01*
X544743Y80342D01*
X549251Y78475D01*
X552701Y75025D01*
X554568Y70517D01*
X554568Y65639D01*
X552701Y61131D01*
X549251Y57681D01*
X544743Y55814D01*
X539865Y55814D01*
G37*
%LPD*%
%LPC*%
G36*
X186157Y57814D02*
X186157Y57814D01*
X181649Y59681D01*
X178199Y63131D01*
X176332Y67639D01*
X176332Y72517D01*
X178199Y77025D01*
X181649Y80475D01*
X186157Y82342D01*
X191035Y82342D01*
X195543Y80475D01*
X198993Y77025D01*
X200860Y72517D01*
X200860Y67639D01*
X198993Y63131D01*
X195543Y59681D01*
X191035Y57814D01*
X186157Y57814D01*
G37*
%LPD*%
%LPC*%
G36*
X262865Y57814D02*
X262865Y57814D01*
X258357Y59681D01*
X254907Y63131D01*
X253040Y67639D01*
X253040Y72517D01*
X254907Y77025D01*
X258357Y80475D01*
X262865Y82342D01*
X267743Y82342D01*
X272251Y80475D01*
X275701Y77025D01*
X277568Y72517D01*
X277568Y67639D01*
X275701Y63131D01*
X272251Y59681D01*
X267743Y57814D01*
X262865Y57814D01*
G37*
%LPD*%
%LPC*%
G36*
X1716157Y76814D02*
X1716157Y76814D01*
X1711649Y78681D01*
X1708199Y82131D01*
X1706332Y86639D01*
X1706332Y91517D01*
X1708199Y96025D01*
X1711649Y99475D01*
X1716157Y101342D01*
X1721035Y101342D01*
X1725543Y99475D01*
X1728993Y96025D01*
X1730860Y91517D01*
X1730860Y86639D01*
X1728993Y82131D01*
X1725543Y78681D01*
X1721035Y76814D01*
X1716157Y76814D01*
G37*
%LPD*%
%LPC*%
G36*
X1792865Y76814D02*
X1792865Y76814D01*
X1788357Y78681D01*
X1784907Y82131D01*
X1783040Y86639D01*
X1783040Y91517D01*
X1784907Y96025D01*
X1788357Y99475D01*
X1792865Y101342D01*
X1797743Y101342D01*
X1802251Y99475D01*
X1805701Y96025D01*
X1807568Y91517D01*
X1807568Y86639D01*
X1805701Y82131D01*
X1802251Y78681D01*
X1797743Y76814D01*
X1792865Y76814D01*
G37*
%LPD*%
%LPC*%
G36*
X1827157Y76814D02*
X1827157Y76814D01*
X1822649Y78681D01*
X1819199Y82131D01*
X1817332Y86639D01*
X1817332Y91517D01*
X1819199Y96025D01*
X1822649Y99475D01*
X1827157Y101342D01*
X1832035Y101342D01*
X1836543Y99475D01*
X1839993Y96025D01*
X1841860Y91517D01*
X1841860Y86639D01*
X1839993Y82131D01*
X1836543Y78681D01*
X1832035Y76814D01*
X1827157Y76814D01*
G37*
%LPD*%
%LPC*%
G36*
X1716157Y180814D02*
X1716157Y180814D01*
X1711649Y182681D01*
X1708199Y186131D01*
X1706332Y190639D01*
X1706332Y195517D01*
X1708199Y200025D01*
X1711649Y203475D01*
X1716157Y205342D01*
X1721035Y205342D01*
X1725543Y203475D01*
X1728993Y200025D01*
X1730860Y195517D01*
X1730860Y190639D01*
X1728993Y186131D01*
X1725543Y182681D01*
X1721035Y180814D01*
X1716157Y180814D01*
G37*
%LPD*%
%LPC*%
G36*
X580639Y297140D02*
X580639Y297140D01*
X576131Y299007D01*
X572681Y302457D01*
X570814Y306965D01*
X570814Y311843D01*
X572681Y316351D01*
X576131Y319801D01*
X580639Y321668D01*
X585517Y321668D01*
X590025Y319801D01*
X593475Y316351D01*
X595342Y311843D01*
X595342Y306965D01*
X593475Y302457D01*
X590025Y299007D01*
X585517Y297140D01*
X580639Y297140D01*
G37*
%LPD*%
%LPC*%
G36*
X580639Y220432D02*
X580639Y220432D01*
X576131Y222299D01*
X572681Y225749D01*
X570814Y230257D01*
X570814Y235135D01*
X572681Y239643D01*
X576131Y243093D01*
X580639Y244960D01*
X585517Y244960D01*
X590025Y243093D01*
X593475Y239643D01*
X595342Y235135D01*
X595342Y230257D01*
X593475Y225749D01*
X590025Y222299D01*
X585517Y220432D01*
X580639Y220432D01*
G37*
%LPD*%
%LPC*%
G36*
X2017865Y76814D02*
X2017865Y76814D01*
X2013357Y78681D01*
X2009907Y82131D01*
X2008040Y86639D01*
X2008040Y91517D01*
X2009907Y96025D01*
X2013357Y99475D01*
X2017865Y101342D01*
X2022743Y101342D01*
X2027251Y99475D01*
X2030701Y96025D01*
X2032568Y91517D01*
X2032568Y86639D01*
X2030701Y82131D01*
X2027251Y78681D01*
X2022743Y76814D01*
X2017865Y76814D01*
G37*
%LPD*%
%LPC*%
G36*
X1941157Y76814D02*
X1941157Y76814D01*
X1936649Y78681D01*
X1933199Y82131D01*
X1931332Y86639D01*
X1931332Y91517D01*
X1933199Y96025D01*
X1936649Y99475D01*
X1941157Y101342D01*
X1946035Y101342D01*
X1950543Y99475D01*
X1953993Y96025D01*
X1955860Y91517D01*
X1955860Y86639D01*
X1953993Y82131D01*
X1950543Y78681D01*
X1946035Y76814D01*
X1941157Y76814D01*
G37*
%LPD*%
%LPC*%
G36*
X1903865Y76814D02*
X1903865Y76814D01*
X1899357Y78681D01*
X1895907Y82131D01*
X1894040Y86639D01*
X1894040Y91517D01*
X1895907Y96025D01*
X1899357Y99475D01*
X1903865Y101342D01*
X1908743Y101342D01*
X1913251Y99475D01*
X1916701Y96025D01*
X1918568Y91517D01*
X1918568Y86639D01*
X1916701Y82131D01*
X1913251Y78681D01*
X1908743Y76814D01*
X1903865Y76814D01*
G37*
%LPD*%
%LPC*%
G36*
X923812Y555149D02*
X923812Y555149D01*
X919585Y556900D01*
X916350Y560135D01*
X914599Y564362D01*
X914599Y568938D01*
X916350Y573165D01*
X919585Y576400D01*
X923812Y578151D01*
X928388Y578151D01*
X932615Y576400D01*
X935850Y573165D01*
X937601Y568938D01*
X937601Y564362D01*
X935850Y560135D01*
X932615Y556900D01*
X928388Y555149D01*
X923812Y555149D01*
G37*
%LPD*%
%LPC*%
G36*
X670812Y555149D02*
X670812Y555149D01*
X666585Y556900D01*
X663350Y560135D01*
X661599Y564362D01*
X661599Y568938D01*
X663350Y573165D01*
X666585Y576400D01*
X670812Y578151D01*
X675388Y578151D01*
X679615Y576400D01*
X682850Y573165D01*
X684601Y568938D01*
X684601Y564362D01*
X682850Y560135D01*
X679615Y556900D01*
X675388Y555149D01*
X670812Y555149D01*
G37*
%LPD*%
%LPC*%
G36*
X88612Y510699D02*
X88612Y510699D01*
X84385Y512450D01*
X81150Y515685D01*
X79399Y519912D01*
X79399Y524488D01*
X81150Y528715D01*
X84385Y531950D01*
X88612Y533701D01*
X93188Y533701D01*
X97415Y531950D01*
X100650Y528715D01*
X102401Y524488D01*
X102401Y519912D01*
X100650Y515685D01*
X97415Y512450D01*
X93188Y510699D01*
X88612Y510699D01*
G37*
%LPD*%
%LPC*%
G36*
X341612Y510699D02*
X341612Y510699D01*
X337385Y512450D01*
X334150Y515685D01*
X332399Y519912D01*
X332399Y524488D01*
X334150Y528715D01*
X337385Y531950D01*
X341612Y533701D01*
X346188Y533701D01*
X350415Y531950D01*
X353650Y528715D01*
X355401Y524488D01*
X355401Y519912D01*
X353650Y515685D01*
X350415Y512450D01*
X346188Y510699D01*
X341612Y510699D01*
G37*
%LPD*%
%LPC*%
G36*
X1440653Y233749D02*
X1440653Y233749D01*
X1438749Y235653D01*
X1438749Y238347D01*
X1440653Y240251D01*
X1443347Y240251D01*
X1444962Y238636D01*
X1444978Y238624D01*
X1444990Y238608D01*
X1445078Y238552D01*
X1445161Y238492D01*
X1445180Y238486D01*
X1445197Y238475D01*
X1445298Y238450D01*
X1445397Y238420D01*
X1445416Y238420D01*
X1445436Y238415D01*
X1445539Y238423D01*
X1445642Y238426D01*
X1445661Y238433D01*
X1445681Y238434D01*
X1445776Y238475D01*
X1445873Y238510D01*
X1445889Y238523D01*
X1445907Y238531D01*
X1446038Y238636D01*
X1447653Y240251D01*
X1450347Y240251D01*
X1451962Y238636D01*
X1451978Y238624D01*
X1451990Y238608D01*
X1452078Y238552D01*
X1452161Y238492D01*
X1452180Y238486D01*
X1452197Y238475D01*
X1452298Y238450D01*
X1452397Y238420D01*
X1452416Y238420D01*
X1452436Y238415D01*
X1452539Y238423D01*
X1452642Y238426D01*
X1452661Y238433D01*
X1452681Y238434D01*
X1452776Y238475D01*
X1452873Y238510D01*
X1452889Y238523D01*
X1452907Y238531D01*
X1453038Y238636D01*
X1454653Y240251D01*
X1457347Y240251D01*
X1458962Y238636D01*
X1458978Y238624D01*
X1458990Y238608D01*
X1459078Y238552D01*
X1459161Y238492D01*
X1459180Y238486D01*
X1459197Y238475D01*
X1459298Y238450D01*
X1459397Y238420D01*
X1459416Y238420D01*
X1459436Y238415D01*
X1459539Y238423D01*
X1459642Y238426D01*
X1459661Y238433D01*
X1459681Y238434D01*
X1459776Y238475D01*
X1459873Y238510D01*
X1459889Y238523D01*
X1459907Y238531D01*
X1460038Y238636D01*
X1461653Y240251D01*
X1464347Y240251D01*
X1465962Y238636D01*
X1465978Y238624D01*
X1465990Y238608D01*
X1466078Y238552D01*
X1466161Y238492D01*
X1466180Y238486D01*
X1466197Y238475D01*
X1466298Y238450D01*
X1466397Y238420D01*
X1466416Y238420D01*
X1466436Y238415D01*
X1466539Y238423D01*
X1466642Y238426D01*
X1466661Y238433D01*
X1466681Y238434D01*
X1466776Y238475D01*
X1466873Y238510D01*
X1466889Y238523D01*
X1466907Y238531D01*
X1467038Y238636D01*
X1468653Y240251D01*
X1471347Y240251D01*
X1472962Y238636D01*
X1472978Y238624D01*
X1472990Y238608D01*
X1473078Y238552D01*
X1473161Y238492D01*
X1473180Y238486D01*
X1473197Y238475D01*
X1473298Y238450D01*
X1473397Y238420D01*
X1473416Y238420D01*
X1473436Y238415D01*
X1473539Y238423D01*
X1473642Y238426D01*
X1473661Y238433D01*
X1473681Y238434D01*
X1473776Y238475D01*
X1473873Y238510D01*
X1473889Y238523D01*
X1473907Y238531D01*
X1474038Y238636D01*
X1475653Y240251D01*
X1478347Y240251D01*
X1479962Y238636D01*
X1479978Y238624D01*
X1479990Y238608D01*
X1480078Y238552D01*
X1480161Y238492D01*
X1480180Y238486D01*
X1480197Y238475D01*
X1480298Y238450D01*
X1480397Y238420D01*
X1480416Y238420D01*
X1480436Y238415D01*
X1480539Y238423D01*
X1480642Y238426D01*
X1480661Y238433D01*
X1480681Y238434D01*
X1480776Y238475D01*
X1480873Y238510D01*
X1480889Y238523D01*
X1480907Y238531D01*
X1481038Y238636D01*
X1482653Y240251D01*
X1485347Y240251D01*
X1486962Y238636D01*
X1486978Y238624D01*
X1486990Y238608D01*
X1487078Y238552D01*
X1487161Y238492D01*
X1487180Y238486D01*
X1487197Y238475D01*
X1487298Y238450D01*
X1487397Y238420D01*
X1487416Y238420D01*
X1487436Y238415D01*
X1487539Y238423D01*
X1487642Y238426D01*
X1487661Y238433D01*
X1487681Y238434D01*
X1487776Y238475D01*
X1487873Y238510D01*
X1487889Y238523D01*
X1487907Y238531D01*
X1488038Y238636D01*
X1489653Y240251D01*
X1492347Y240251D01*
X1493962Y238636D01*
X1493978Y238624D01*
X1493990Y238608D01*
X1494078Y238552D01*
X1494161Y238492D01*
X1494180Y238486D01*
X1494197Y238475D01*
X1494298Y238450D01*
X1494397Y238420D01*
X1494416Y238420D01*
X1494436Y238415D01*
X1494539Y238423D01*
X1494642Y238426D01*
X1494661Y238433D01*
X1494681Y238434D01*
X1494776Y238475D01*
X1494873Y238510D01*
X1494889Y238523D01*
X1494907Y238531D01*
X1495038Y238636D01*
X1496653Y240251D01*
X1499347Y240251D01*
X1501251Y238347D01*
X1501251Y235653D01*
X1499347Y233749D01*
X1496653Y233749D01*
X1495038Y235364D01*
X1495022Y235376D01*
X1495010Y235392D01*
X1494922Y235448D01*
X1494839Y235508D01*
X1494820Y235514D01*
X1494803Y235525D01*
X1494702Y235550D01*
X1494603Y235580D01*
X1494584Y235580D01*
X1494564Y235585D01*
X1494461Y235577D01*
X1494358Y235574D01*
X1494339Y235567D01*
X1494319Y235566D01*
X1494224Y235525D01*
X1494127Y235490D01*
X1494111Y235477D01*
X1494093Y235469D01*
X1493962Y235364D01*
X1492347Y233749D01*
X1489653Y233749D01*
X1488038Y235364D01*
X1488022Y235376D01*
X1488010Y235392D01*
X1487922Y235448D01*
X1487839Y235508D01*
X1487820Y235514D01*
X1487803Y235525D01*
X1487702Y235550D01*
X1487603Y235580D01*
X1487584Y235580D01*
X1487564Y235585D01*
X1487461Y235577D01*
X1487358Y235574D01*
X1487339Y235567D01*
X1487319Y235566D01*
X1487224Y235525D01*
X1487127Y235490D01*
X1487111Y235477D01*
X1487093Y235469D01*
X1486962Y235364D01*
X1485347Y233749D01*
X1482653Y233749D01*
X1481038Y235364D01*
X1481022Y235376D01*
X1481010Y235392D01*
X1480922Y235448D01*
X1480839Y235508D01*
X1480820Y235514D01*
X1480803Y235525D01*
X1480702Y235550D01*
X1480603Y235580D01*
X1480584Y235580D01*
X1480564Y235585D01*
X1480461Y235577D01*
X1480358Y235574D01*
X1480339Y235567D01*
X1480319Y235566D01*
X1480224Y235525D01*
X1480127Y235490D01*
X1480111Y235477D01*
X1480093Y235469D01*
X1479962Y235364D01*
X1478347Y233749D01*
X1475653Y233749D01*
X1474038Y235364D01*
X1474022Y235376D01*
X1474010Y235392D01*
X1473922Y235448D01*
X1473839Y235508D01*
X1473820Y235514D01*
X1473803Y235525D01*
X1473702Y235550D01*
X1473603Y235580D01*
X1473584Y235580D01*
X1473564Y235585D01*
X1473461Y235577D01*
X1473358Y235574D01*
X1473339Y235567D01*
X1473319Y235566D01*
X1473224Y235525D01*
X1473127Y235490D01*
X1473111Y235477D01*
X1473093Y235469D01*
X1472962Y235364D01*
X1471347Y233749D01*
X1468653Y233749D01*
X1467038Y235364D01*
X1467022Y235376D01*
X1467010Y235392D01*
X1466922Y235448D01*
X1466839Y235508D01*
X1466820Y235514D01*
X1466803Y235525D01*
X1466702Y235550D01*
X1466603Y235580D01*
X1466584Y235580D01*
X1466564Y235585D01*
X1466461Y235577D01*
X1466358Y235574D01*
X1466339Y235567D01*
X1466319Y235566D01*
X1466224Y235525D01*
X1466127Y235490D01*
X1466111Y235477D01*
X1466093Y235469D01*
X1465962Y235364D01*
X1464347Y233749D01*
X1461653Y233749D01*
X1460038Y235364D01*
X1460022Y235376D01*
X1460010Y235392D01*
X1459922Y235448D01*
X1459839Y235508D01*
X1459820Y235514D01*
X1459803Y235525D01*
X1459702Y235550D01*
X1459603Y235580D01*
X1459584Y235580D01*
X1459564Y235585D01*
X1459461Y235577D01*
X1459358Y235574D01*
X1459339Y235567D01*
X1459319Y235566D01*
X1459224Y235525D01*
X1459127Y235490D01*
X1459111Y235477D01*
X1459093Y235469D01*
X1458962Y235364D01*
X1457347Y233749D01*
X1454653Y233749D01*
X1453038Y235364D01*
X1453022Y235376D01*
X1453010Y235392D01*
X1452922Y235448D01*
X1452839Y235508D01*
X1452820Y235514D01*
X1452803Y235525D01*
X1452702Y235550D01*
X1452603Y235580D01*
X1452584Y235580D01*
X1452564Y235585D01*
X1452461Y235577D01*
X1452358Y235574D01*
X1452339Y235567D01*
X1452319Y235566D01*
X1452224Y235525D01*
X1452127Y235490D01*
X1452111Y235477D01*
X1452093Y235469D01*
X1451962Y235364D01*
X1450347Y233749D01*
X1447653Y233749D01*
X1446038Y235364D01*
X1446022Y235376D01*
X1446010Y235392D01*
X1445922Y235448D01*
X1445839Y235508D01*
X1445820Y235514D01*
X1445803Y235525D01*
X1445702Y235550D01*
X1445603Y235580D01*
X1445584Y235580D01*
X1445564Y235585D01*
X1445461Y235577D01*
X1445358Y235574D01*
X1445339Y235567D01*
X1445319Y235566D01*
X1445224Y235525D01*
X1445127Y235490D01*
X1445111Y235477D01*
X1445093Y235469D01*
X1444962Y235364D01*
X1443347Y233749D01*
X1440653Y233749D01*
G37*
%LPD*%
%LPC*%
G36*
X165111Y601099D02*
X165111Y601099D01*
X161435Y602622D01*
X158622Y605435D01*
X157099Y609111D01*
X157099Y613089D01*
X158622Y616765D01*
X161435Y619578D01*
X165111Y621101D01*
X169089Y621101D01*
X172765Y619578D01*
X175578Y616765D01*
X177101Y613089D01*
X177101Y609111D01*
X175578Y605435D01*
X172765Y602622D01*
X169089Y601099D01*
X165111Y601099D01*
G37*
%LPD*%
%LPC*%
G36*
X418111Y601099D02*
X418111Y601099D01*
X414435Y602622D01*
X411622Y605435D01*
X410099Y609111D01*
X410099Y613089D01*
X411622Y616765D01*
X414435Y619578D01*
X418111Y621101D01*
X422089Y621101D01*
X425765Y619578D01*
X428578Y616765D01*
X430101Y613089D01*
X430101Y609111D01*
X428578Y605435D01*
X425765Y602622D01*
X422089Y601099D01*
X418111Y601099D01*
G37*
%LPD*%
%LPC*%
G36*
X671111Y601099D02*
X671111Y601099D01*
X667435Y602622D01*
X664622Y605435D01*
X663099Y609111D01*
X663099Y613089D01*
X664622Y616765D01*
X667435Y619578D01*
X671111Y621101D01*
X675089Y621101D01*
X678765Y619578D01*
X681578Y616765D01*
X683101Y613089D01*
X683101Y609111D01*
X681578Y605435D01*
X678765Y602622D01*
X675089Y601099D01*
X671111Y601099D01*
G37*
%LPD*%
%LPC*%
G36*
X341911Y651999D02*
X341911Y651999D01*
X338235Y653522D01*
X335422Y656335D01*
X333899Y660011D01*
X333899Y663989D01*
X335422Y667665D01*
X338235Y670478D01*
X341911Y672001D01*
X345889Y672001D01*
X349565Y670478D01*
X352378Y667665D01*
X353901Y663989D01*
X353901Y660011D01*
X352378Y656335D01*
X349565Y653522D01*
X345889Y651999D01*
X341911Y651999D01*
G37*
%LPD*%
%LPC*%
G36*
X88911Y651999D02*
X88911Y651999D01*
X85235Y653522D01*
X82422Y656335D01*
X80899Y660011D01*
X80899Y663989D01*
X82422Y667665D01*
X85235Y670478D01*
X88911Y672001D01*
X92889Y672001D01*
X96565Y670478D01*
X99378Y667665D01*
X100901Y663989D01*
X100901Y660011D01*
X99378Y656335D01*
X96565Y653522D01*
X92889Y651999D01*
X88911Y651999D01*
G37*
%LPD*%
%LPC*%
G36*
X924111Y601099D02*
X924111Y601099D01*
X920435Y602622D01*
X917622Y605435D01*
X916099Y609111D01*
X916099Y613089D01*
X917622Y616765D01*
X920435Y619578D01*
X924111Y621101D01*
X928089Y621101D01*
X931765Y619578D01*
X934578Y616765D01*
X936101Y613089D01*
X936101Y609111D01*
X934578Y605435D01*
X931765Y602622D01*
X928089Y601099D01*
X924111Y601099D01*
G37*
%LPD*%
%LPC*%
G36*
X594911Y651899D02*
X594911Y651899D01*
X591235Y653422D01*
X588422Y656235D01*
X586899Y659911D01*
X586899Y663889D01*
X588422Y667565D01*
X591235Y670378D01*
X594911Y671901D01*
X598889Y671901D01*
X602565Y670378D01*
X605378Y667565D01*
X606901Y663889D01*
X606901Y659911D01*
X605378Y656235D01*
X602565Y653422D01*
X598889Y651899D01*
X594911Y651899D01*
G37*
%LPD*%
%LPC*%
G36*
X847911Y651899D02*
X847911Y651899D01*
X844235Y653422D01*
X841422Y656235D01*
X839899Y659911D01*
X839899Y663889D01*
X841422Y667565D01*
X844235Y670378D01*
X847911Y671901D01*
X851889Y671901D01*
X855565Y670378D01*
X858378Y667565D01*
X859901Y663889D01*
X859901Y659911D01*
X858378Y656235D01*
X855565Y653422D01*
X851889Y651899D01*
X847911Y651899D01*
G37*
%LPD*%
%LPC*%
G36*
X886110Y518999D02*
X886110Y518999D01*
X882618Y520446D01*
X879946Y523118D01*
X878499Y526610D01*
X878499Y530390D01*
X879946Y533882D01*
X882618Y536554D01*
X886110Y538001D01*
X889890Y538001D01*
X893382Y536554D01*
X896054Y533882D01*
X897501Y530390D01*
X897501Y526610D01*
X896054Y523118D01*
X893382Y520446D01*
X889890Y518999D01*
X886110Y518999D01*
G37*
%LPD*%
%LPC*%
G36*
X633110Y518999D02*
X633110Y518999D01*
X629618Y520446D01*
X626946Y523118D01*
X625499Y526610D01*
X625499Y530390D01*
X626946Y533882D01*
X629618Y536554D01*
X633110Y538001D01*
X636890Y538001D01*
X640382Y536554D01*
X643054Y533882D01*
X644501Y530390D01*
X644501Y526610D01*
X643054Y523118D01*
X640382Y520446D01*
X636890Y518999D01*
X633110Y518999D01*
G37*
%LPD*%
%LPC*%
G36*
X380110Y512699D02*
X380110Y512699D01*
X376618Y514146D01*
X373946Y516818D01*
X372499Y520310D01*
X372499Y524090D01*
X373946Y527582D01*
X376618Y530254D01*
X380110Y531701D01*
X383890Y531701D01*
X387382Y530254D01*
X390054Y527582D01*
X391501Y524090D01*
X391501Y520310D01*
X390054Y516818D01*
X387382Y514146D01*
X383890Y512699D01*
X380110Y512699D01*
G37*
%LPD*%
%LPC*%
G36*
X127110Y512699D02*
X127110Y512699D01*
X123618Y514146D01*
X120946Y516818D01*
X119499Y520310D01*
X119499Y524090D01*
X120946Y527582D01*
X123618Y530254D01*
X127110Y531701D01*
X130890Y531701D01*
X134382Y530254D01*
X137054Y527582D01*
X138501Y524090D01*
X138501Y520310D01*
X137054Y516818D01*
X134382Y514146D01*
X130890Y512699D01*
X127110Y512699D01*
G37*
%LPD*%
%LPC*%
G36*
X127110Y563499D02*
X127110Y563499D01*
X123618Y564946D01*
X120946Y567618D01*
X119499Y571110D01*
X119499Y574890D01*
X120946Y578382D01*
X123618Y581054D01*
X127110Y582501D01*
X130890Y582501D01*
X134382Y581054D01*
X137054Y578382D01*
X138501Y574890D01*
X138501Y571110D01*
X137054Y567618D01*
X134382Y564946D01*
X130890Y563499D01*
X127110Y563499D01*
G37*
%LPD*%
%LPC*%
G36*
X380110Y563499D02*
X380110Y563499D01*
X376618Y564946D01*
X373946Y567618D01*
X372499Y571110D01*
X372499Y574890D01*
X373946Y578382D01*
X376618Y581054D01*
X380110Y582501D01*
X383890Y582501D01*
X387382Y581054D01*
X390054Y578382D01*
X391501Y574890D01*
X391501Y571110D01*
X390054Y567618D01*
X387382Y564946D01*
X383890Y563499D01*
X380110Y563499D01*
G37*
%LPD*%
%LPC*%
G36*
X488909Y306499D02*
X488909Y306499D01*
X485785Y307793D01*
X483393Y310185D01*
X482099Y313309D01*
X482099Y316691D01*
X483393Y319815D01*
X485785Y322207D01*
X488909Y323501D01*
X492291Y323501D01*
X495415Y322207D01*
X497807Y319815D01*
X499101Y316691D01*
X499101Y313309D01*
X497807Y310185D01*
X495415Y307793D01*
X492291Y306499D01*
X488909Y306499D01*
G37*
%LPD*%
%LPC*%
G36*
X1757309Y456499D02*
X1757309Y456499D01*
X1754185Y457793D01*
X1751793Y460185D01*
X1750499Y463309D01*
X1750499Y466691D01*
X1751793Y469815D01*
X1754185Y472207D01*
X1757309Y473501D01*
X1760691Y473501D01*
X1763815Y472207D01*
X1766207Y469815D01*
X1767501Y466691D01*
X1767501Y463309D01*
X1766207Y460185D01*
X1763815Y457793D01*
X1760691Y456499D01*
X1757309Y456499D01*
G37*
%LPD*%
%LPC*%
G36*
X1573709Y52499D02*
X1573709Y52499D01*
X1570585Y53793D01*
X1568193Y56185D01*
X1566899Y59309D01*
X1566899Y62691D01*
X1568193Y65815D01*
X1570585Y68207D01*
X1573709Y69501D01*
X1577091Y69501D01*
X1580215Y68207D01*
X1582607Y65815D01*
X1583901Y62691D01*
X1583901Y59309D01*
X1582607Y56185D01*
X1580215Y53793D01*
X1577091Y52499D01*
X1573709Y52499D01*
G37*
%LPD*%
%LPC*%
G36*
X1758309Y532699D02*
X1758309Y532699D01*
X1755185Y533993D01*
X1752793Y536385D01*
X1751499Y539509D01*
X1751499Y542891D01*
X1752793Y546015D01*
X1755185Y548407D01*
X1758309Y549701D01*
X1761691Y549701D01*
X1764815Y548407D01*
X1767207Y546015D01*
X1768501Y542891D01*
X1768501Y539509D01*
X1767207Y536385D01*
X1764815Y533993D01*
X1761691Y532699D01*
X1758309Y532699D01*
G37*
%LPD*%
%LPC*%
G36*
X1758309Y583499D02*
X1758309Y583499D01*
X1755185Y584793D01*
X1752793Y587185D01*
X1751499Y590309D01*
X1751499Y593691D01*
X1752793Y596815D01*
X1755185Y599207D01*
X1758309Y600501D01*
X1761691Y600501D01*
X1764815Y599207D01*
X1767207Y596815D01*
X1768501Y593691D01*
X1768501Y590309D01*
X1767207Y587185D01*
X1764815Y584793D01*
X1761691Y583499D01*
X1758309Y583499D01*
G37*
%LPD*%
%LPC*%
G36*
X953509Y221499D02*
X953509Y221499D01*
X950385Y222793D01*
X947993Y225185D01*
X946699Y228309D01*
X946699Y231691D01*
X947993Y234815D01*
X950385Y237207D01*
X953509Y238501D01*
X956891Y238501D01*
X960015Y237207D01*
X962407Y234815D01*
X963701Y231691D01*
X963701Y228309D01*
X962407Y225185D01*
X960015Y222793D01*
X956891Y221499D01*
X953509Y221499D01*
G37*
%LPD*%
%LPC*%
G36*
X701709Y221499D02*
X701709Y221499D01*
X698585Y222793D01*
X696193Y225185D01*
X694899Y228309D01*
X694899Y231691D01*
X696193Y234815D01*
X698585Y237207D01*
X701709Y238501D01*
X705091Y238501D01*
X708215Y237207D01*
X710607Y234815D01*
X711901Y231691D01*
X711901Y228309D01*
X710607Y225185D01*
X708215Y222793D01*
X705091Y221499D01*
X701709Y221499D01*
G37*
%LPD*%
%LPC*%
G36*
X1255309Y415499D02*
X1255309Y415499D01*
X1252185Y416793D01*
X1249793Y419185D01*
X1248499Y422309D01*
X1248499Y425691D01*
X1249793Y428815D01*
X1252185Y431207D01*
X1255309Y432501D01*
X1258691Y432501D01*
X1261815Y431207D01*
X1264207Y428815D01*
X1265501Y425691D01*
X1265501Y422309D01*
X1264207Y419185D01*
X1261815Y416793D01*
X1258691Y415499D01*
X1255309Y415499D01*
G37*
%LPD*%
%LPC*%
G36*
X1758309Y558099D02*
X1758309Y558099D01*
X1755185Y559393D01*
X1752793Y561785D01*
X1751499Y564909D01*
X1751499Y568291D01*
X1752793Y571415D01*
X1755185Y573807D01*
X1758309Y575101D01*
X1761691Y575101D01*
X1764815Y573807D01*
X1767207Y571415D01*
X1768501Y568291D01*
X1768501Y564909D01*
X1767207Y561785D01*
X1764815Y559393D01*
X1761691Y558099D01*
X1758309Y558099D01*
G37*
%LPD*%
%LPC*%
G36*
X489109Y212499D02*
X489109Y212499D01*
X485985Y213793D01*
X483593Y216185D01*
X482299Y219309D01*
X482299Y222691D01*
X483593Y225815D01*
X485985Y228207D01*
X489109Y229501D01*
X492491Y229501D01*
X495615Y228207D01*
X498007Y225815D01*
X499301Y222691D01*
X499301Y219309D01*
X498007Y216185D01*
X495615Y213793D01*
X492491Y212499D01*
X489109Y212499D01*
G37*
%LPD*%
%LPC*%
G36*
X1255309Y436499D02*
X1255309Y436499D01*
X1252185Y437793D01*
X1249793Y440185D01*
X1248499Y443309D01*
X1248499Y446691D01*
X1249793Y449815D01*
X1252185Y452207D01*
X1255309Y453501D01*
X1258691Y453501D01*
X1261815Y452207D01*
X1264207Y449815D01*
X1265501Y446691D01*
X1265501Y443309D01*
X1264207Y440185D01*
X1261815Y437793D01*
X1258691Y436499D01*
X1255309Y436499D01*
G37*
%LPD*%
%LPC*%
G36*
X1548309Y52499D02*
X1548309Y52499D01*
X1545185Y53793D01*
X1542793Y56185D01*
X1541499Y59309D01*
X1541499Y62691D01*
X1542793Y65815D01*
X1545185Y68207D01*
X1548309Y69501D01*
X1551691Y69501D01*
X1554815Y68207D01*
X1557207Y65815D01*
X1558501Y62691D01*
X1558501Y59309D01*
X1557207Y56185D01*
X1554815Y53793D01*
X1551691Y52499D01*
X1548309Y52499D01*
G37*
%LPD*%
%LPC*%
G36*
X1757309Y507299D02*
X1757309Y507299D01*
X1754185Y508593D01*
X1751793Y510985D01*
X1750499Y514109D01*
X1750499Y517491D01*
X1751793Y520615D01*
X1754185Y523007D01*
X1757309Y524301D01*
X1760691Y524301D01*
X1763815Y523007D01*
X1766207Y520615D01*
X1767501Y517491D01*
X1767501Y514109D01*
X1766207Y510985D01*
X1763815Y508593D01*
X1760691Y507299D01*
X1757309Y507299D01*
G37*
%LPD*%
%LPC*%
G36*
X1757309Y481899D02*
X1757309Y481899D01*
X1754185Y483193D01*
X1751793Y485585D01*
X1750499Y488709D01*
X1750499Y492091D01*
X1751793Y495215D01*
X1754185Y497607D01*
X1757309Y498901D01*
X1760691Y498901D01*
X1763815Y497607D01*
X1766207Y495215D01*
X1767501Y492091D01*
X1767501Y488709D01*
X1766207Y485585D01*
X1763815Y483193D01*
X1760691Y481899D01*
X1757309Y481899D01*
G37*
%LPD*%
%LPC*%
G36*
X1937653Y269749D02*
X1937653Y269749D01*
X1935749Y271653D01*
X1935749Y274347D01*
X1937614Y276212D01*
X1937626Y276228D01*
X1937642Y276240D01*
X1937698Y276328D01*
X1937758Y276411D01*
X1937764Y276430D01*
X1937775Y276447D01*
X1937800Y276548D01*
X1937830Y276647D01*
X1937830Y276666D01*
X1937835Y276686D01*
X1937827Y276789D01*
X1937824Y276892D01*
X1937817Y276911D01*
X1937816Y276931D01*
X1937775Y277026D01*
X1937740Y277123D01*
X1937727Y277139D01*
X1937719Y277157D01*
X1937614Y277288D01*
X1935749Y279153D01*
X1935749Y281847D01*
X1937614Y283712D01*
X1937626Y283728D01*
X1937642Y283740D01*
X1937698Y283828D01*
X1937758Y283911D01*
X1937764Y283930D01*
X1937775Y283947D01*
X1937800Y284048D01*
X1937830Y284147D01*
X1937830Y284166D01*
X1937835Y284186D01*
X1937827Y284289D01*
X1937824Y284392D01*
X1937817Y284411D01*
X1937816Y284431D01*
X1937775Y284526D01*
X1937740Y284623D01*
X1937727Y284639D01*
X1937719Y284657D01*
X1937614Y284788D01*
X1935749Y286653D01*
X1935749Y289347D01*
X1937864Y291462D01*
X1937876Y291478D01*
X1937892Y291490D01*
X1937948Y291577D01*
X1938008Y291661D01*
X1938014Y291680D01*
X1938025Y291697D01*
X1938050Y291798D01*
X1938080Y291897D01*
X1938080Y291916D01*
X1938085Y291936D01*
X1938077Y292039D01*
X1938074Y292142D01*
X1938067Y292161D01*
X1938066Y292181D01*
X1938025Y292276D01*
X1937990Y292373D01*
X1937977Y292389D01*
X1937969Y292407D01*
X1937864Y292538D01*
X1935749Y294653D01*
X1935749Y297347D01*
X1937614Y299212D01*
X1937626Y299228D01*
X1937642Y299240D01*
X1937698Y299328D01*
X1937758Y299411D01*
X1937764Y299430D01*
X1937775Y299447D01*
X1937800Y299548D01*
X1937830Y299647D01*
X1937830Y299666D01*
X1937835Y299686D01*
X1937827Y299789D01*
X1937824Y299892D01*
X1937817Y299911D01*
X1937816Y299931D01*
X1937775Y300026D01*
X1937740Y300123D01*
X1937727Y300139D01*
X1937719Y300157D01*
X1937614Y300288D01*
X1935749Y302153D01*
X1935749Y304847D01*
X1937614Y306712D01*
X1937626Y306728D01*
X1937642Y306740D01*
X1937698Y306828D01*
X1937758Y306911D01*
X1937764Y306930D01*
X1937775Y306947D01*
X1937800Y307048D01*
X1937830Y307147D01*
X1937830Y307166D01*
X1937835Y307186D01*
X1937827Y307289D01*
X1937824Y307392D01*
X1937817Y307411D01*
X1937816Y307431D01*
X1937775Y307526D01*
X1937740Y307623D01*
X1937727Y307639D01*
X1937719Y307657D01*
X1937614Y307788D01*
X1935749Y309653D01*
X1935749Y312347D01*
X1937653Y314251D01*
X1940347Y314251D01*
X1942251Y312347D01*
X1942251Y309653D01*
X1940386Y307788D01*
X1940374Y307772D01*
X1940358Y307760D01*
X1940302Y307672D01*
X1940242Y307589D01*
X1940236Y307570D01*
X1940225Y307553D01*
X1940200Y307452D01*
X1940170Y307353D01*
X1940170Y307334D01*
X1940165Y307314D01*
X1940173Y307211D01*
X1940176Y307108D01*
X1940183Y307089D01*
X1940184Y307069D01*
X1940225Y306974D01*
X1940260Y306877D01*
X1940273Y306861D01*
X1940281Y306843D01*
X1940386Y306712D01*
X1942251Y304847D01*
X1942251Y302153D01*
X1940386Y300288D01*
X1940374Y300272D01*
X1940358Y300260D01*
X1940302Y300172D01*
X1940242Y300089D01*
X1940236Y300070D01*
X1940225Y300053D01*
X1940200Y299952D01*
X1940170Y299853D01*
X1940170Y299834D01*
X1940165Y299814D01*
X1940173Y299711D01*
X1940176Y299608D01*
X1940183Y299589D01*
X1940184Y299569D01*
X1940225Y299474D01*
X1940260Y299377D01*
X1940273Y299361D01*
X1940281Y299343D01*
X1940386Y299212D01*
X1942251Y297347D01*
X1942251Y294653D01*
X1940136Y292538D01*
X1940124Y292522D01*
X1940108Y292510D01*
X1940052Y292422D01*
X1939992Y292339D01*
X1939986Y292320D01*
X1939975Y292303D01*
X1939950Y292202D01*
X1939920Y292103D01*
X1939920Y292084D01*
X1939915Y292064D01*
X1939923Y291961D01*
X1939926Y291858D01*
X1939933Y291839D01*
X1939934Y291819D01*
X1939975Y291724D01*
X1940010Y291627D01*
X1940023Y291611D01*
X1940031Y291593D01*
X1940136Y291462D01*
X1942251Y289347D01*
X1942251Y286653D01*
X1940386Y284788D01*
X1940374Y284772D01*
X1940358Y284760D01*
X1940302Y284672D01*
X1940242Y284589D01*
X1940236Y284570D01*
X1940225Y284553D01*
X1940200Y284452D01*
X1940170Y284353D01*
X1940170Y284334D01*
X1940165Y284314D01*
X1940173Y284211D01*
X1940176Y284108D01*
X1940183Y284089D01*
X1940184Y284069D01*
X1940225Y283974D01*
X1940260Y283877D01*
X1940273Y283861D01*
X1940281Y283843D01*
X1940386Y283712D01*
X1942251Y281847D01*
X1942251Y279153D01*
X1940386Y277288D01*
X1940374Y277272D01*
X1940358Y277260D01*
X1940302Y277172D01*
X1940242Y277089D01*
X1940236Y277070D01*
X1940225Y277053D01*
X1940200Y276952D01*
X1940170Y276853D01*
X1940170Y276834D01*
X1940165Y276814D01*
X1940173Y276711D01*
X1940176Y276608D01*
X1940183Y276589D01*
X1940184Y276569D01*
X1940225Y276474D01*
X1940260Y276377D01*
X1940273Y276361D01*
X1940281Y276343D01*
X1940386Y276212D01*
X1942251Y274347D01*
X1942251Y271653D01*
X1940347Y269749D01*
X1937653Y269749D01*
G37*
%LPD*%
%LPC*%
G36*
X1680653Y384749D02*
X1680653Y384749D01*
X1678749Y386653D01*
X1678749Y389347D01*
X1680653Y391251D01*
X1682988Y391251D01*
X1683008Y391254D01*
X1683027Y391252D01*
X1683129Y391274D01*
X1683231Y391290D01*
X1683248Y391300D01*
X1683268Y391304D01*
X1683357Y391357D01*
X1683448Y391406D01*
X1683462Y391420D01*
X1683479Y391430D01*
X1683546Y391509D01*
X1683618Y391584D01*
X1683626Y391602D01*
X1683639Y391617D01*
X1683678Y391713D01*
X1683721Y391807D01*
X1683723Y391827D01*
X1683731Y391845D01*
X1683749Y392012D01*
X1683749Y394347D01*
X1685653Y396251D01*
X1687988Y396251D01*
X1688008Y396254D01*
X1688027Y396252D01*
X1688129Y396274D01*
X1688231Y396290D01*
X1688248Y396300D01*
X1688268Y396304D01*
X1688357Y396357D01*
X1688448Y396406D01*
X1688462Y396420D01*
X1688479Y396430D01*
X1688546Y396509D01*
X1688618Y396584D01*
X1688626Y396602D01*
X1688639Y396617D01*
X1688678Y396713D01*
X1688721Y396807D01*
X1688723Y396827D01*
X1688731Y396845D01*
X1688749Y397012D01*
X1688749Y399347D01*
X1690653Y401251D01*
X1692988Y401251D01*
X1693008Y401254D01*
X1693027Y401252D01*
X1693129Y401274D01*
X1693231Y401290D01*
X1693248Y401300D01*
X1693268Y401304D01*
X1693357Y401357D01*
X1693448Y401406D01*
X1693462Y401420D01*
X1693479Y401430D01*
X1693546Y401509D01*
X1693618Y401584D01*
X1693626Y401602D01*
X1693639Y401617D01*
X1693678Y401713D01*
X1693721Y401807D01*
X1693723Y401827D01*
X1693731Y401845D01*
X1693749Y402012D01*
X1693749Y404347D01*
X1695653Y406251D01*
X1697988Y406251D01*
X1698008Y406254D01*
X1698027Y406252D01*
X1698129Y406274D01*
X1698231Y406290D01*
X1698248Y406300D01*
X1698268Y406304D01*
X1698357Y406357D01*
X1698448Y406406D01*
X1698462Y406420D01*
X1698479Y406430D01*
X1698546Y406509D01*
X1698618Y406584D01*
X1698626Y406602D01*
X1698639Y406617D01*
X1698678Y406713D01*
X1698721Y406807D01*
X1698723Y406827D01*
X1698731Y406845D01*
X1698749Y407012D01*
X1698749Y409347D01*
X1700653Y411251D01*
X1702988Y411251D01*
X1703008Y411254D01*
X1703027Y411252D01*
X1703129Y411274D01*
X1703231Y411290D01*
X1703248Y411300D01*
X1703268Y411304D01*
X1703357Y411357D01*
X1703448Y411406D01*
X1703462Y411420D01*
X1703479Y411430D01*
X1703546Y411509D01*
X1703618Y411584D01*
X1703626Y411602D01*
X1703639Y411617D01*
X1703678Y411713D01*
X1703721Y411807D01*
X1703723Y411827D01*
X1703731Y411845D01*
X1703749Y412012D01*
X1703749Y414347D01*
X1705653Y416251D01*
X1708347Y416251D01*
X1710251Y414347D01*
X1710251Y411653D01*
X1708347Y409749D01*
X1706012Y409749D01*
X1705992Y409746D01*
X1705973Y409748D01*
X1705871Y409726D01*
X1705769Y409710D01*
X1705752Y409700D01*
X1705732Y409696D01*
X1705643Y409643D01*
X1705552Y409594D01*
X1705538Y409580D01*
X1705521Y409570D01*
X1705454Y409491D01*
X1705382Y409416D01*
X1705374Y409398D01*
X1705361Y409383D01*
X1705322Y409287D01*
X1705279Y409193D01*
X1705277Y409173D01*
X1705269Y409155D01*
X1705251Y408988D01*
X1705251Y406653D01*
X1703347Y404749D01*
X1701012Y404749D01*
X1700992Y404746D01*
X1700973Y404748D01*
X1700871Y404726D01*
X1700769Y404710D01*
X1700752Y404700D01*
X1700732Y404696D01*
X1700643Y404643D01*
X1700552Y404594D01*
X1700538Y404580D01*
X1700521Y404570D01*
X1700454Y404491D01*
X1700382Y404416D01*
X1700374Y404398D01*
X1700361Y404383D01*
X1700322Y404287D01*
X1700279Y404193D01*
X1700277Y404173D01*
X1700269Y404155D01*
X1700251Y403988D01*
X1700251Y401653D01*
X1698347Y399749D01*
X1696012Y399749D01*
X1695992Y399746D01*
X1695973Y399748D01*
X1695871Y399726D01*
X1695769Y399710D01*
X1695752Y399700D01*
X1695732Y399696D01*
X1695643Y399643D01*
X1695552Y399594D01*
X1695538Y399580D01*
X1695521Y399570D01*
X1695454Y399491D01*
X1695382Y399416D01*
X1695374Y399398D01*
X1695361Y399383D01*
X1695322Y399287D01*
X1695279Y399193D01*
X1695277Y399173D01*
X1695269Y399155D01*
X1695251Y398988D01*
X1695251Y396653D01*
X1693347Y394749D01*
X1691012Y394749D01*
X1690992Y394746D01*
X1690973Y394748D01*
X1690871Y394726D01*
X1690769Y394710D01*
X1690752Y394700D01*
X1690732Y394696D01*
X1690643Y394643D01*
X1690552Y394594D01*
X1690538Y394580D01*
X1690521Y394570D01*
X1690454Y394491D01*
X1690382Y394416D01*
X1690374Y394398D01*
X1690361Y394383D01*
X1690322Y394287D01*
X1690279Y394193D01*
X1690277Y394173D01*
X1690269Y394155D01*
X1690251Y393988D01*
X1690251Y391653D01*
X1688347Y389749D01*
X1686012Y389749D01*
X1685992Y389746D01*
X1685973Y389748D01*
X1685871Y389726D01*
X1685769Y389710D01*
X1685752Y389700D01*
X1685732Y389696D01*
X1685643Y389643D01*
X1685552Y389594D01*
X1685538Y389580D01*
X1685521Y389570D01*
X1685454Y389491D01*
X1685382Y389416D01*
X1685374Y389398D01*
X1685361Y389383D01*
X1685322Y389287D01*
X1685279Y389193D01*
X1685277Y389173D01*
X1685269Y389155D01*
X1685251Y388988D01*
X1685251Y386653D01*
X1683347Y384749D01*
X1680653Y384749D01*
G37*
%LPD*%
%LPC*%
G36*
X1608859Y569649D02*
X1608859Y569649D01*
X1605826Y570905D01*
X1603505Y573226D01*
X1602249Y576259D01*
X1602249Y579541D01*
X1603505Y582574D01*
X1605826Y584895D01*
X1608859Y586151D01*
X1612141Y586151D01*
X1615174Y584895D01*
X1617495Y582574D01*
X1618751Y579541D01*
X1618751Y576259D01*
X1617495Y573226D01*
X1615174Y570905D01*
X1612141Y569649D01*
X1608859Y569649D01*
G37*
%LPD*%
%LPC*%
G36*
X1608859Y549649D02*
X1608859Y549649D01*
X1605826Y550905D01*
X1603505Y553226D01*
X1602249Y556259D01*
X1602249Y559541D01*
X1603505Y562574D01*
X1605826Y564895D01*
X1608859Y566151D01*
X1612141Y566151D01*
X1615174Y564895D01*
X1617495Y562574D01*
X1618751Y559541D01*
X1618751Y556259D01*
X1617495Y553226D01*
X1615174Y550905D01*
X1612141Y549649D01*
X1608859Y549649D01*
G37*
%LPD*%
%LPC*%
G36*
X1583859Y549649D02*
X1583859Y549649D01*
X1580826Y550905D01*
X1578505Y553226D01*
X1577249Y556259D01*
X1577249Y559541D01*
X1578505Y562574D01*
X1580826Y564895D01*
X1583859Y566151D01*
X1587141Y566151D01*
X1590174Y564895D01*
X1592495Y562574D01*
X1593751Y559541D01*
X1593751Y556259D01*
X1592495Y553226D01*
X1590174Y550905D01*
X1587141Y549649D01*
X1583859Y549649D01*
G37*
%LPD*%
%LPC*%
G36*
X1351653Y78749D02*
X1351653Y78749D01*
X1349749Y80653D01*
X1349749Y82988D01*
X1349746Y83008D01*
X1349748Y83027D01*
X1349726Y83129D01*
X1349710Y83231D01*
X1349700Y83248D01*
X1349696Y83268D01*
X1349643Y83357D01*
X1349594Y83448D01*
X1349580Y83462D01*
X1349570Y83479D01*
X1349491Y83546D01*
X1349416Y83618D01*
X1349398Y83626D01*
X1349383Y83639D01*
X1349287Y83678D01*
X1349193Y83721D01*
X1349173Y83723D01*
X1349155Y83731D01*
X1348988Y83749D01*
X1346653Y83749D01*
X1344749Y85653D01*
X1344749Y87988D01*
X1344746Y88008D01*
X1344748Y88027D01*
X1344726Y88129D01*
X1344710Y88231D01*
X1344700Y88248D01*
X1344696Y88268D01*
X1344643Y88357D01*
X1344594Y88448D01*
X1344580Y88462D01*
X1344570Y88479D01*
X1344491Y88546D01*
X1344416Y88618D01*
X1344398Y88626D01*
X1344383Y88639D01*
X1344287Y88678D01*
X1344193Y88721D01*
X1344173Y88723D01*
X1344155Y88731D01*
X1343988Y88749D01*
X1341653Y88749D01*
X1339749Y90653D01*
X1339749Y92988D01*
X1339746Y93008D01*
X1339748Y93027D01*
X1339726Y93129D01*
X1339710Y93231D01*
X1339700Y93248D01*
X1339696Y93268D01*
X1339643Y93357D01*
X1339594Y93448D01*
X1339580Y93462D01*
X1339570Y93479D01*
X1339491Y93546D01*
X1339416Y93618D01*
X1339398Y93626D01*
X1339383Y93639D01*
X1339287Y93678D01*
X1339193Y93721D01*
X1339173Y93723D01*
X1339155Y93731D01*
X1338988Y93749D01*
X1336653Y93749D01*
X1334749Y95653D01*
X1334749Y98347D01*
X1336653Y100251D01*
X1339347Y100251D01*
X1341251Y98347D01*
X1341251Y96012D01*
X1341254Y95992D01*
X1341252Y95973D01*
X1341274Y95871D01*
X1341290Y95769D01*
X1341300Y95752D01*
X1341304Y95732D01*
X1341357Y95643D01*
X1341406Y95552D01*
X1341420Y95538D01*
X1341430Y95521D01*
X1341509Y95454D01*
X1341584Y95382D01*
X1341602Y95374D01*
X1341617Y95361D01*
X1341713Y95322D01*
X1341807Y95279D01*
X1341827Y95277D01*
X1341845Y95269D01*
X1342012Y95251D01*
X1344347Y95251D01*
X1346251Y93347D01*
X1346251Y91012D01*
X1346254Y90992D01*
X1346252Y90973D01*
X1346274Y90871D01*
X1346290Y90769D01*
X1346300Y90752D01*
X1346304Y90732D01*
X1346357Y90643D01*
X1346406Y90552D01*
X1346420Y90538D01*
X1346430Y90521D01*
X1346509Y90454D01*
X1346584Y90382D01*
X1346602Y90374D01*
X1346617Y90361D01*
X1346713Y90322D01*
X1346807Y90279D01*
X1346827Y90277D01*
X1346845Y90269D01*
X1347012Y90251D01*
X1349347Y90251D01*
X1351251Y88347D01*
X1351251Y86012D01*
X1351254Y85992D01*
X1351252Y85973D01*
X1351274Y85871D01*
X1351290Y85769D01*
X1351300Y85752D01*
X1351304Y85732D01*
X1351357Y85643D01*
X1351406Y85552D01*
X1351420Y85538D01*
X1351430Y85521D01*
X1351509Y85454D01*
X1351584Y85382D01*
X1351602Y85374D01*
X1351617Y85361D01*
X1351713Y85322D01*
X1351807Y85279D01*
X1351827Y85277D01*
X1351845Y85269D01*
X1352012Y85251D01*
X1354346Y85251D01*
X1354450Y85148D01*
X1354508Y85106D01*
X1354560Y85056D01*
X1354607Y85034D01*
X1354649Y85004D01*
X1354718Y84983D01*
X1354783Y84953D01*
X1354835Y84947D01*
X1354885Y84932D01*
X1354956Y84933D01*
X1355027Y84926D01*
X1355078Y84937D01*
X1355130Y84938D01*
X1355198Y84963D01*
X1355268Y84978D01*
X1355313Y85005D01*
X1355361Y85022D01*
X1355417Y85067D01*
X1355479Y85104D01*
X1355513Y85144D01*
X1355553Y85176D01*
X1355592Y85236D01*
X1355639Y85291D01*
X1355658Y85339D01*
X1355686Y85383D01*
X1355704Y85452D01*
X1355731Y85519D01*
X1355739Y85590D01*
X1355747Y85622D01*
X1355745Y85645D01*
X1355749Y85686D01*
X1355749Y88347D01*
X1357653Y90251D01*
X1360347Y90251D01*
X1362251Y88347D01*
X1362251Y85653D01*
X1360347Y83749D01*
X1357654Y83749D01*
X1357550Y83852D01*
X1357492Y83894D01*
X1357440Y83944D01*
X1357393Y83966D01*
X1357351Y83996D01*
X1357282Y84017D01*
X1357217Y84047D01*
X1357165Y84053D01*
X1357115Y84068D01*
X1357044Y84067D01*
X1356973Y84074D01*
X1356922Y84063D01*
X1356870Y84062D01*
X1356802Y84037D01*
X1356732Y84022D01*
X1356687Y83995D01*
X1356639Y83978D01*
X1356583Y83933D01*
X1356521Y83896D01*
X1356487Y83856D01*
X1356447Y83824D01*
X1356408Y83764D01*
X1356361Y83709D01*
X1356342Y83661D01*
X1356314Y83617D01*
X1356296Y83548D01*
X1356269Y83481D01*
X1356261Y83410D01*
X1356253Y83378D01*
X1356255Y83355D01*
X1356251Y83314D01*
X1356251Y80653D01*
X1354347Y78749D01*
X1351653Y78749D01*
G37*
%LPD*%
%LPC*%
G36*
X1656653Y359749D02*
X1656653Y359749D01*
X1654749Y361653D01*
X1654749Y364347D01*
X1656653Y366251D01*
X1658988Y366251D01*
X1659008Y366254D01*
X1659027Y366252D01*
X1659129Y366274D01*
X1659231Y366290D01*
X1659248Y366300D01*
X1659268Y366304D01*
X1659357Y366357D01*
X1659448Y366406D01*
X1659462Y366420D01*
X1659479Y366430D01*
X1659546Y366509D01*
X1659618Y366584D01*
X1659626Y366602D01*
X1659639Y366617D01*
X1659678Y366713D01*
X1659721Y366807D01*
X1659723Y366827D01*
X1659731Y366845D01*
X1659749Y367012D01*
X1659749Y369347D01*
X1661653Y371251D01*
X1663988Y371251D01*
X1664008Y371254D01*
X1664027Y371252D01*
X1664129Y371274D01*
X1664231Y371290D01*
X1664248Y371300D01*
X1664268Y371304D01*
X1664357Y371357D01*
X1664448Y371406D01*
X1664462Y371420D01*
X1664479Y371430D01*
X1664546Y371509D01*
X1664618Y371584D01*
X1664626Y371602D01*
X1664639Y371617D01*
X1664678Y371713D01*
X1664721Y371807D01*
X1664723Y371827D01*
X1664731Y371845D01*
X1664749Y372012D01*
X1664749Y374347D01*
X1666653Y376251D01*
X1669347Y376251D01*
X1671251Y374347D01*
X1671251Y371653D01*
X1669347Y369749D01*
X1667012Y369749D01*
X1666992Y369746D01*
X1666973Y369748D01*
X1666871Y369726D01*
X1666769Y369710D01*
X1666752Y369700D01*
X1666732Y369696D01*
X1666643Y369643D01*
X1666552Y369594D01*
X1666538Y369580D01*
X1666521Y369570D01*
X1666454Y369491D01*
X1666382Y369416D01*
X1666374Y369398D01*
X1666361Y369383D01*
X1666322Y369287D01*
X1666279Y369193D01*
X1666277Y369173D01*
X1666269Y369155D01*
X1666251Y368988D01*
X1666251Y366653D01*
X1664347Y364749D01*
X1662012Y364749D01*
X1661992Y364746D01*
X1661973Y364748D01*
X1661871Y364726D01*
X1661769Y364710D01*
X1661752Y364700D01*
X1661732Y364696D01*
X1661643Y364643D01*
X1661552Y364594D01*
X1661538Y364580D01*
X1661521Y364570D01*
X1661454Y364491D01*
X1661382Y364416D01*
X1661374Y364398D01*
X1661361Y364383D01*
X1661322Y364287D01*
X1661279Y364193D01*
X1661277Y364173D01*
X1661269Y364155D01*
X1661251Y363988D01*
X1661251Y361653D01*
X1659347Y359749D01*
X1656653Y359749D01*
G37*
%LPD*%
%LPC*%
G36*
X1376653Y91749D02*
X1376653Y91749D01*
X1374749Y93653D01*
X1374749Y96347D01*
X1376364Y97962D01*
X1376376Y97978D01*
X1376392Y97990D01*
X1376448Y98078D01*
X1376508Y98161D01*
X1376514Y98180D01*
X1376525Y98197D01*
X1376550Y98298D01*
X1376580Y98397D01*
X1376580Y98416D01*
X1376585Y98436D01*
X1376577Y98539D01*
X1376574Y98642D01*
X1376567Y98661D01*
X1376566Y98681D01*
X1376525Y98776D01*
X1376490Y98873D01*
X1376477Y98889D01*
X1376469Y98907D01*
X1376364Y99038D01*
X1374749Y100653D01*
X1374749Y103347D01*
X1376364Y104962D01*
X1376376Y104978D01*
X1376392Y104990D01*
X1376448Y105078D01*
X1376508Y105161D01*
X1376514Y105180D01*
X1376525Y105197D01*
X1376550Y105298D01*
X1376580Y105397D01*
X1376580Y105416D01*
X1376585Y105436D01*
X1376577Y105539D01*
X1376574Y105642D01*
X1376567Y105661D01*
X1376566Y105681D01*
X1376525Y105776D01*
X1376490Y105873D01*
X1376477Y105889D01*
X1376469Y105907D01*
X1376364Y106038D01*
X1374749Y107653D01*
X1374749Y110347D01*
X1376653Y112251D01*
X1379347Y112251D01*
X1381251Y110347D01*
X1381251Y107653D01*
X1379636Y106038D01*
X1379624Y106022D01*
X1379608Y106010D01*
X1379552Y105922D01*
X1379492Y105839D01*
X1379486Y105820D01*
X1379475Y105803D01*
X1379450Y105702D01*
X1379420Y105603D01*
X1379420Y105584D01*
X1379415Y105564D01*
X1379423Y105461D01*
X1379426Y105358D01*
X1379433Y105339D01*
X1379434Y105319D01*
X1379475Y105224D01*
X1379510Y105127D01*
X1379523Y105111D01*
X1379531Y105093D01*
X1379636Y104962D01*
X1381251Y103347D01*
X1381251Y100653D01*
X1379636Y99038D01*
X1379624Y99022D01*
X1379608Y99010D01*
X1379552Y98922D01*
X1379492Y98839D01*
X1379486Y98820D01*
X1379475Y98803D01*
X1379450Y98702D01*
X1379420Y98603D01*
X1379420Y98584D01*
X1379415Y98564D01*
X1379423Y98461D01*
X1379426Y98358D01*
X1379433Y98339D01*
X1379434Y98319D01*
X1379475Y98224D01*
X1379510Y98127D01*
X1379523Y98111D01*
X1379531Y98093D01*
X1379636Y97962D01*
X1381251Y96347D01*
X1381251Y93653D01*
X1379347Y91749D01*
X1376653Y91749D01*
G37*
%LPD*%
%LPC*%
G36*
X1141846Y657199D02*
X1141846Y657199D01*
X1139714Y658082D01*
X1138082Y659714D01*
X1137199Y661846D01*
X1137199Y664154D01*
X1138082Y666286D01*
X1139714Y667918D01*
X1141846Y668801D01*
X1144154Y668801D01*
X1146286Y667918D01*
X1147918Y666286D01*
X1148801Y664154D01*
X1148801Y661846D01*
X1147918Y659714D01*
X1146286Y658082D01*
X1144154Y657199D01*
X1141846Y657199D01*
G37*
%LPD*%
%LPC*%
G36*
X236846Y191199D02*
X236846Y191199D01*
X234714Y192082D01*
X233082Y193714D01*
X232199Y195846D01*
X232199Y198154D01*
X233082Y200286D01*
X234714Y201918D01*
X236846Y202801D01*
X239154Y202801D01*
X241286Y201918D01*
X242918Y200286D01*
X243801Y198154D01*
X243801Y195846D01*
X242918Y193714D01*
X241286Y192082D01*
X239154Y191199D01*
X236846Y191199D01*
G37*
%LPD*%
%LPC*%
G36*
X29846Y679199D02*
X29846Y679199D01*
X27714Y680082D01*
X26082Y681714D01*
X25199Y683846D01*
X25199Y686154D01*
X26082Y688286D01*
X27714Y689918D01*
X29846Y690801D01*
X32154Y690801D01*
X34286Y689918D01*
X35918Y688286D01*
X36801Y686154D01*
X36801Y683846D01*
X35918Y681714D01*
X34286Y680082D01*
X32154Y679199D01*
X29846Y679199D01*
G37*
%LPD*%
%LPC*%
G36*
X29846Y375199D02*
X29846Y375199D01*
X27714Y376082D01*
X26082Y377714D01*
X25199Y379846D01*
X25199Y382154D01*
X26082Y384286D01*
X27714Y385918D01*
X29846Y386801D01*
X32154Y386801D01*
X34286Y385918D01*
X35918Y384286D01*
X36801Y382154D01*
X36801Y379846D01*
X35918Y377714D01*
X34286Y376082D01*
X32154Y375199D01*
X29846Y375199D01*
G37*
%LPD*%
%LPC*%
G36*
X781846Y375199D02*
X781846Y375199D01*
X779714Y376082D01*
X778082Y377714D01*
X777199Y379846D01*
X777199Y382154D01*
X778082Y384286D01*
X779714Y385918D01*
X781846Y386801D01*
X784154Y386801D01*
X786286Y385918D01*
X787918Y384286D01*
X788801Y382154D01*
X788801Y379846D01*
X787918Y377714D01*
X786286Y376082D01*
X784154Y375199D01*
X781846Y375199D01*
G37*
%LPD*%
%LPC*%
G36*
X521846Y374199D02*
X521846Y374199D01*
X519714Y375082D01*
X518082Y376714D01*
X517199Y378846D01*
X517199Y381154D01*
X518082Y383286D01*
X519714Y384918D01*
X521846Y385801D01*
X524154Y385801D01*
X526286Y384918D01*
X527918Y383286D01*
X528801Y381154D01*
X528801Y378846D01*
X527918Y376714D01*
X526286Y375082D01*
X524154Y374199D01*
X521846Y374199D01*
G37*
%LPD*%
%LPC*%
G36*
X56846Y372199D02*
X56846Y372199D01*
X54714Y373082D01*
X53082Y374714D01*
X52199Y376846D01*
X52199Y379154D01*
X53082Y381286D01*
X54714Y382918D01*
X56846Y383801D01*
X59154Y383801D01*
X61286Y382918D01*
X62918Y381286D01*
X63801Y379154D01*
X63801Y376846D01*
X62918Y374714D01*
X61286Y373082D01*
X59154Y372199D01*
X56846Y372199D01*
G37*
%LPD*%
%LPC*%
G36*
X319846Y369199D02*
X319846Y369199D01*
X317714Y370082D01*
X316082Y371714D01*
X315199Y373846D01*
X315199Y376154D01*
X316082Y378286D01*
X317714Y379918D01*
X319846Y380801D01*
X322154Y380801D01*
X324286Y379918D01*
X325918Y378286D01*
X326801Y376154D01*
X326801Y373846D01*
X325918Y371714D01*
X324286Y370082D01*
X322154Y369199D01*
X319846Y369199D01*
G37*
%LPD*%
%LPC*%
G36*
X281846Y368199D02*
X281846Y368199D01*
X279714Y369082D01*
X278082Y370714D01*
X277199Y372846D01*
X277199Y375154D01*
X278082Y377286D01*
X279714Y378918D01*
X281846Y379801D01*
X284154Y379801D01*
X286286Y378918D01*
X287918Y377286D01*
X288801Y375154D01*
X288801Y372846D01*
X287918Y370714D01*
X286286Y369082D01*
X284154Y368199D01*
X281846Y368199D01*
G37*
%LPD*%
%LPC*%
G36*
X1986846Y59199D02*
X1986846Y59199D01*
X1984714Y60082D01*
X1983082Y61714D01*
X1982199Y63846D01*
X1982199Y66154D01*
X1983082Y68286D01*
X1984714Y69918D01*
X1986846Y70801D01*
X1989154Y70801D01*
X1991286Y69918D01*
X1992918Y68286D01*
X1993801Y66154D01*
X1993801Y63846D01*
X1992918Y61714D01*
X1991286Y60082D01*
X1989154Y59199D01*
X1986846Y59199D01*
G37*
%LPD*%
%LPC*%
G36*
X1108846Y580199D02*
X1108846Y580199D01*
X1106714Y581082D01*
X1105082Y582714D01*
X1104199Y584846D01*
X1104199Y587154D01*
X1105082Y589286D01*
X1106714Y590918D01*
X1108846Y591801D01*
X1111154Y591801D01*
X1113286Y590918D01*
X1114918Y589286D01*
X1115801Y587154D01*
X1115801Y584846D01*
X1114918Y582714D01*
X1113286Y581082D01*
X1111154Y580199D01*
X1108846Y580199D01*
G37*
%LPD*%
%LPC*%
G36*
X1077846Y583199D02*
X1077846Y583199D01*
X1075714Y584082D01*
X1074082Y585714D01*
X1073199Y587846D01*
X1073199Y590154D01*
X1074082Y592286D01*
X1075714Y593918D01*
X1077846Y594801D01*
X1080154Y594801D01*
X1082286Y593918D01*
X1083918Y592286D01*
X1084801Y590154D01*
X1084801Y587846D01*
X1083918Y585714D01*
X1082286Y584082D01*
X1080154Y583199D01*
X1077846Y583199D01*
G37*
%LPD*%
%LPC*%
G36*
X1122846Y568199D02*
X1122846Y568199D01*
X1120714Y569082D01*
X1119082Y570714D01*
X1118199Y572846D01*
X1118199Y575154D01*
X1119082Y577286D01*
X1120714Y578918D01*
X1122846Y579801D01*
X1125154Y579801D01*
X1127286Y578918D01*
X1128918Y577286D01*
X1129801Y575154D01*
X1129801Y572846D01*
X1128918Y570714D01*
X1127286Y569082D01*
X1125154Y568199D01*
X1122846Y568199D01*
G37*
%LPD*%
%LPC*%
G36*
X1754846Y66199D02*
X1754846Y66199D01*
X1752714Y67082D01*
X1751082Y68714D01*
X1750199Y70846D01*
X1750199Y73154D01*
X1751082Y75286D01*
X1752714Y76918D01*
X1754846Y77801D01*
X1757154Y77801D01*
X1759286Y76918D01*
X1760918Y75286D01*
X1761801Y73154D01*
X1761801Y70846D01*
X1760918Y68714D01*
X1759286Y67082D01*
X1757154Y66199D01*
X1754846Y66199D01*
G37*
%LPD*%
%LPC*%
G36*
X540846Y656199D02*
X540846Y656199D01*
X538714Y657082D01*
X537082Y658714D01*
X536199Y660846D01*
X536199Y663154D01*
X537082Y665286D01*
X538714Y666918D01*
X540846Y667801D01*
X543154Y667801D01*
X545286Y666918D01*
X546918Y665286D01*
X547801Y663154D01*
X547801Y660846D01*
X546918Y658714D01*
X545286Y657082D01*
X543154Y656199D01*
X540846Y656199D01*
G37*
%LPD*%
%LPC*%
G36*
X43846Y642199D02*
X43846Y642199D01*
X41714Y643082D01*
X40082Y644714D01*
X39199Y646846D01*
X39199Y649154D01*
X40082Y651286D01*
X41714Y652918D01*
X43846Y653801D01*
X46154Y653801D01*
X48286Y652918D01*
X49918Y651286D01*
X50801Y649154D01*
X50801Y646846D01*
X49918Y644714D01*
X48286Y643082D01*
X46154Y642199D01*
X43846Y642199D01*
G37*
%LPD*%
%LPC*%
G36*
X819846Y362199D02*
X819846Y362199D01*
X817714Y363082D01*
X816082Y364714D01*
X815199Y366846D01*
X815199Y369154D01*
X816082Y371286D01*
X817714Y372918D01*
X819846Y373801D01*
X822154Y373801D01*
X824286Y372918D01*
X825918Y371286D01*
X826801Y369154D01*
X826801Y366846D01*
X825918Y364714D01*
X824286Y363082D01*
X822154Y362199D01*
X819846Y362199D01*
G37*
%LPD*%
%LPC*%
G36*
X563846Y362199D02*
X563846Y362199D01*
X561714Y363082D01*
X560082Y364714D01*
X559199Y366846D01*
X559199Y369154D01*
X560082Y371286D01*
X561714Y372918D01*
X563846Y373801D01*
X566154Y373801D01*
X568286Y372918D01*
X569918Y371286D01*
X570801Y369154D01*
X570801Y366846D01*
X569918Y364714D01*
X568286Y363082D01*
X566154Y362199D01*
X563846Y362199D01*
G37*
%LPD*%
%LPC*%
G36*
X110846Y586199D02*
X110846Y586199D01*
X108714Y587082D01*
X107082Y588714D01*
X106199Y590846D01*
X106199Y593154D01*
X107082Y595286D01*
X108714Y596918D01*
X110846Y597801D01*
X113154Y597801D01*
X115286Y596918D01*
X116918Y595286D01*
X117801Y593154D01*
X117801Y590846D01*
X116918Y588714D01*
X115286Y587082D01*
X113154Y586199D01*
X110846Y586199D01*
G37*
%LPD*%
%LPC*%
G36*
X526846Y20199D02*
X526846Y20199D01*
X524714Y21082D01*
X523082Y22714D01*
X522199Y24846D01*
X522199Y27154D01*
X523082Y29286D01*
X524714Y30918D01*
X526846Y31801D01*
X529154Y31801D01*
X531286Y30918D01*
X532918Y29286D01*
X533801Y27154D01*
X533801Y24846D01*
X532918Y22714D01*
X531286Y21082D01*
X529154Y20199D01*
X526846Y20199D01*
G37*
%LPD*%
%LPC*%
G36*
X70846Y632199D02*
X70846Y632199D01*
X68714Y633082D01*
X67082Y634714D01*
X66199Y636846D01*
X66199Y639154D01*
X67082Y641286D01*
X68714Y642918D01*
X70846Y643801D01*
X73154Y643801D01*
X75286Y642918D01*
X76918Y641286D01*
X77801Y639154D01*
X77801Y636846D01*
X76918Y634714D01*
X75286Y633082D01*
X73154Y632199D01*
X70846Y632199D01*
G37*
%LPD*%
%LPC*%
G36*
X1945846Y29199D02*
X1945846Y29199D01*
X1943714Y30082D01*
X1942082Y31714D01*
X1941199Y33846D01*
X1941199Y36154D01*
X1942082Y38286D01*
X1943714Y39918D01*
X1945846Y40801D01*
X1948154Y40801D01*
X1950286Y39918D01*
X1951918Y38286D01*
X1952801Y36154D01*
X1952801Y33846D01*
X1951918Y31714D01*
X1950286Y30082D01*
X1948154Y29199D01*
X1945846Y29199D01*
G37*
%LPD*%
%LPC*%
G36*
X277846Y201199D02*
X277846Y201199D01*
X275714Y202082D01*
X274082Y203714D01*
X273199Y205846D01*
X273199Y208154D01*
X274082Y210286D01*
X275714Y211918D01*
X277846Y212801D01*
X280154Y212801D01*
X282286Y211918D01*
X283918Y210286D01*
X284801Y208154D01*
X284801Y205846D01*
X283918Y203714D01*
X282286Y202082D01*
X280154Y201199D01*
X277846Y201199D01*
G37*
%LPD*%
%LPC*%
G36*
X281846Y622199D02*
X281846Y622199D01*
X279714Y623082D01*
X278082Y624714D01*
X277199Y626846D01*
X277199Y629154D01*
X278082Y631286D01*
X279714Y632918D01*
X281846Y633801D01*
X284154Y633801D01*
X286286Y632918D01*
X287918Y631286D01*
X288801Y629154D01*
X288801Y626846D01*
X287918Y624714D01*
X286286Y623082D01*
X284154Y622199D01*
X281846Y622199D01*
G37*
%LPD*%
%LPC*%
G36*
X781846Y621199D02*
X781846Y621199D01*
X779714Y622082D01*
X778082Y623714D01*
X777199Y625846D01*
X777199Y628154D01*
X778082Y630286D01*
X779714Y631918D01*
X781846Y632801D01*
X784154Y632801D01*
X786286Y631918D01*
X787918Y630286D01*
X788801Y628154D01*
X788801Y625846D01*
X787918Y623714D01*
X786286Y622082D01*
X784154Y621199D01*
X781846Y621199D01*
G37*
%LPD*%
%LPC*%
G36*
X1092846Y618199D02*
X1092846Y618199D01*
X1090714Y619082D01*
X1089082Y620714D01*
X1088199Y622846D01*
X1088199Y625154D01*
X1089082Y627286D01*
X1090714Y628918D01*
X1092846Y629801D01*
X1095154Y629801D01*
X1097286Y628918D01*
X1098918Y627286D01*
X1099801Y625154D01*
X1099801Y622846D01*
X1098918Y620714D01*
X1097286Y619082D01*
X1095154Y618199D01*
X1092846Y618199D01*
G37*
%LPD*%
%LPC*%
G36*
X1108846Y604199D02*
X1108846Y604199D01*
X1106714Y605082D01*
X1105082Y606714D01*
X1104199Y608846D01*
X1104199Y611154D01*
X1105082Y613286D01*
X1106714Y614918D01*
X1108846Y615801D01*
X1111154Y615801D01*
X1113286Y614918D01*
X1114918Y613286D01*
X1115801Y611154D01*
X1115801Y608846D01*
X1114918Y606714D01*
X1113286Y605082D01*
X1111154Y604199D01*
X1108846Y604199D01*
G37*
%LPD*%
%LPC*%
G36*
X758846Y598199D02*
X758846Y598199D01*
X756714Y599082D01*
X755082Y600714D01*
X754199Y602846D01*
X754199Y605154D01*
X755082Y607286D01*
X756714Y608918D01*
X758846Y609801D01*
X761154Y609801D01*
X763286Y608918D01*
X764918Y607286D01*
X765801Y605154D01*
X765801Y602846D01*
X764918Y600714D01*
X763286Y599082D01*
X761154Y598199D01*
X758846Y598199D01*
G37*
%LPD*%
%LPC*%
G36*
X149846Y200199D02*
X149846Y200199D01*
X147714Y201082D01*
X146082Y202714D01*
X145199Y204846D01*
X145199Y207154D01*
X146082Y209286D01*
X147714Y210918D01*
X149846Y211801D01*
X152154Y211801D01*
X154286Y210918D01*
X155918Y209286D01*
X156801Y207154D01*
X156801Y204846D01*
X155918Y202714D01*
X154286Y201082D01*
X152154Y200199D01*
X149846Y200199D01*
G37*
%LPD*%
%LPC*%
G36*
X774846Y195199D02*
X774846Y195199D01*
X772714Y196082D01*
X771082Y197714D01*
X770199Y199846D01*
X770199Y202154D01*
X771082Y204286D01*
X772714Y205918D01*
X774846Y206801D01*
X777154Y206801D01*
X779286Y205918D01*
X780918Y204286D01*
X781801Y202154D01*
X781801Y199846D01*
X780918Y197714D01*
X779286Y196082D01*
X777154Y195199D01*
X774846Y195199D01*
G37*
%LPD*%
%LPC*%
G36*
X619846Y37199D02*
X619846Y37199D01*
X617714Y38082D01*
X616082Y39714D01*
X615199Y41846D01*
X615199Y44154D01*
X616082Y46286D01*
X617714Y47918D01*
X619846Y48801D01*
X622154Y48801D01*
X624286Y47918D01*
X625918Y46286D01*
X626801Y44154D01*
X626801Y41846D01*
X625918Y39714D01*
X624286Y38082D01*
X622154Y37199D01*
X619846Y37199D01*
G37*
%LPD*%
%LPC*%
G36*
X818846Y194199D02*
X818846Y194199D01*
X816714Y195082D01*
X815082Y196714D01*
X814199Y198846D01*
X814199Y201154D01*
X815082Y203286D01*
X816714Y204918D01*
X818846Y205801D01*
X821154Y205801D01*
X823286Y204918D01*
X824918Y203286D01*
X825801Y201154D01*
X825801Y198846D01*
X824918Y196714D01*
X823286Y195082D01*
X821154Y194199D01*
X818846Y194199D01*
G37*
%LPD*%
%LPC*%
G36*
X354846Y190199D02*
X354846Y190199D01*
X352714Y191082D01*
X351082Y192714D01*
X350199Y194846D01*
X350199Y197154D01*
X351082Y199286D01*
X352714Y200918D01*
X354846Y201801D01*
X357154Y201801D01*
X359286Y200918D01*
X360918Y199286D01*
X361801Y197154D01*
X361801Y194846D01*
X360918Y192714D01*
X359286Y191082D01*
X357154Y190199D01*
X354846Y190199D01*
G37*
%LPD*%
%LPC*%
G36*
X1133846Y593199D02*
X1133846Y593199D01*
X1131714Y594082D01*
X1130082Y595714D01*
X1129199Y597846D01*
X1129199Y600154D01*
X1130082Y602286D01*
X1131714Y603918D01*
X1133846Y604801D01*
X1136154Y604801D01*
X1138286Y603918D01*
X1139918Y602286D01*
X1140801Y600154D01*
X1140801Y597846D01*
X1139918Y595714D01*
X1138286Y594082D01*
X1136154Y593199D01*
X1133846Y593199D01*
G37*
%LPD*%
%LPC*%
G36*
X57846Y191199D02*
X57846Y191199D01*
X55714Y192082D01*
X54082Y193714D01*
X53199Y195846D01*
X53199Y198154D01*
X54082Y200286D01*
X55714Y201918D01*
X57846Y202801D01*
X60154Y202801D01*
X62286Y201918D01*
X63918Y200286D01*
X64801Y198154D01*
X64801Y195846D01*
X63918Y193714D01*
X62286Y192082D01*
X60154Y191199D01*
X57846Y191199D01*
G37*
%LPD*%
%LPC*%
G36*
X43846Y191199D02*
X43846Y191199D01*
X41714Y192082D01*
X40082Y193714D01*
X39199Y195846D01*
X39199Y198154D01*
X40082Y200286D01*
X41714Y201918D01*
X43846Y202801D01*
X46154Y202801D01*
X48286Y201918D01*
X49918Y200286D01*
X50801Y198154D01*
X50801Y195846D01*
X49918Y193714D01*
X48286Y192082D01*
X46154Y191199D01*
X43846Y191199D01*
G37*
%LPD*%
%LPC*%
G36*
X598423Y574523D02*
X598423Y574523D01*
X598423Y585962D01*
X599954Y585720D01*
X601906Y585085D01*
X603735Y584153D01*
X605396Y582947D01*
X606847Y581496D01*
X608053Y579835D01*
X608985Y578006D01*
X609620Y576054D01*
X609862Y574523D01*
X598423Y574523D01*
G37*
%LPD*%
%LPC*%
G36*
X168623Y523723D02*
X168623Y523723D01*
X168623Y535162D01*
X170154Y534920D01*
X172106Y534285D01*
X173935Y533353D01*
X175596Y532147D01*
X177047Y530696D01*
X178253Y529035D01*
X179185Y527206D01*
X179820Y525254D01*
X180062Y523723D01*
X168623Y523723D01*
G37*
%LPD*%
%LPC*%
G36*
X421623Y523723D02*
X421623Y523723D01*
X421623Y535162D01*
X423154Y534920D01*
X425106Y534285D01*
X426935Y533353D01*
X428596Y532147D01*
X430047Y530696D01*
X431253Y529035D01*
X432185Y527206D01*
X432820Y525254D01*
X433062Y523723D01*
X421623Y523723D01*
G37*
%LPD*%
%LPC*%
G36*
X851423Y574523D02*
X851423Y574523D01*
X851423Y585962D01*
X852954Y585720D01*
X854906Y585085D01*
X856735Y584153D01*
X858396Y582947D01*
X859847Y581496D01*
X861053Y579835D01*
X861985Y578006D01*
X862620Y576054D01*
X862862Y574523D01*
X851423Y574523D01*
G37*
%LPD*%
%LPC*%
G36*
X583938Y574523D02*
X583938Y574523D01*
X584180Y576054D01*
X584815Y578006D01*
X585747Y579835D01*
X586953Y581496D01*
X588404Y582947D01*
X590065Y584153D01*
X591894Y585085D01*
X593846Y585720D01*
X595377Y585962D01*
X595377Y574523D01*
X583938Y574523D01*
G37*
%LPD*%
%LPC*%
G36*
X836938Y574523D02*
X836938Y574523D01*
X837180Y576054D01*
X837815Y578006D01*
X838747Y579835D01*
X839953Y581496D01*
X841404Y582947D01*
X843065Y584153D01*
X844894Y585085D01*
X846846Y585720D01*
X848377Y585962D01*
X848377Y574523D01*
X836938Y574523D01*
G37*
%LPD*%
%LPC*%
G36*
X154138Y523723D02*
X154138Y523723D01*
X154380Y525254D01*
X155015Y527206D01*
X155947Y529035D01*
X157153Y530696D01*
X158604Y532147D01*
X160265Y533353D01*
X162094Y534285D01*
X164046Y534920D01*
X165577Y535162D01*
X165577Y523723D01*
X154138Y523723D01*
G37*
%LPD*%
%LPC*%
G36*
X598423Y571477D02*
X598423Y571477D01*
X609862Y571477D01*
X609620Y569946D01*
X608985Y567994D01*
X608053Y566165D01*
X606847Y564504D01*
X605396Y563053D01*
X603735Y561847D01*
X601906Y560915D01*
X599954Y560280D01*
X598423Y560038D01*
X598423Y571477D01*
G37*
%LPD*%
%LPC*%
G36*
X851423Y571477D02*
X851423Y571477D01*
X862862Y571477D01*
X862620Y569946D01*
X861985Y567994D01*
X861053Y566165D01*
X859847Y564504D01*
X858396Y563053D01*
X856735Y561847D01*
X854906Y560915D01*
X852954Y560280D01*
X851423Y560038D01*
X851423Y571477D01*
G37*
%LPD*%
%LPC*%
G36*
X407138Y523723D02*
X407138Y523723D01*
X407380Y525254D01*
X408015Y527206D01*
X408947Y529035D01*
X410153Y530696D01*
X411604Y532147D01*
X413265Y533353D01*
X415094Y534285D01*
X417046Y534920D01*
X418577Y535162D01*
X418577Y523723D01*
X407138Y523723D01*
G37*
%LPD*%
%LPC*%
G36*
X421623Y520677D02*
X421623Y520677D01*
X433062Y520677D01*
X432820Y519146D01*
X432185Y517194D01*
X431253Y515365D01*
X430047Y513704D01*
X428596Y512253D01*
X426935Y511047D01*
X425106Y510115D01*
X423154Y509480D01*
X421623Y509238D01*
X421623Y520677D01*
G37*
%LPD*%
%LPC*%
G36*
X168623Y520677D02*
X168623Y520677D01*
X180062Y520677D01*
X179820Y519146D01*
X179185Y517194D01*
X178253Y515365D01*
X177047Y513704D01*
X175596Y512253D01*
X173935Y511047D01*
X172106Y510115D01*
X170154Y509480D01*
X168623Y509238D01*
X168623Y520677D01*
G37*
%LPD*%
%LPC*%
G36*
X846846Y560280D02*
X846846Y560280D01*
X844894Y560915D01*
X843065Y561847D01*
X841404Y563053D01*
X839953Y564504D01*
X838747Y566165D01*
X837815Y567994D01*
X837180Y569946D01*
X836938Y571477D01*
X848377Y571477D01*
X848377Y560038D01*
X846846Y560280D01*
G37*
%LPD*%
%LPC*%
G36*
X417046Y509480D02*
X417046Y509480D01*
X415094Y510115D01*
X413265Y511047D01*
X411604Y512253D01*
X410153Y513704D01*
X408947Y515365D01*
X408015Y517194D01*
X407380Y519146D01*
X407138Y520677D01*
X418577Y520677D01*
X418577Y509238D01*
X417046Y509480D01*
G37*
%LPD*%
%LPC*%
G36*
X593846Y560280D02*
X593846Y560280D01*
X591894Y560915D01*
X590065Y561847D01*
X588404Y563053D01*
X586953Y564504D01*
X585747Y566165D01*
X584815Y567994D01*
X584180Y569946D01*
X583938Y571477D01*
X595377Y571477D01*
X595377Y560038D01*
X593846Y560280D01*
G37*
%LPD*%
%LPC*%
G36*
X164046Y509480D02*
X164046Y509480D01*
X162094Y510115D01*
X160265Y511047D01*
X158604Y512253D01*
X157153Y513704D01*
X155947Y515365D01*
X155015Y517194D01*
X154380Y519146D01*
X154138Y520677D01*
X165577Y520677D01*
X165577Y509238D01*
X164046Y509480D01*
G37*
%LPD*%
%LPC*%
G36*
X1625653Y426749D02*
X1625653Y426749D01*
X1623749Y428653D01*
X1623749Y431347D01*
X1625653Y433251D01*
X1628347Y433251D01*
X1630462Y431136D01*
X1630478Y431124D01*
X1630490Y431108D01*
X1630578Y431052D01*
X1630661Y430992D01*
X1630680Y430986D01*
X1630697Y430975D01*
X1630798Y430950D01*
X1630897Y430920D01*
X1630916Y430920D01*
X1630936Y430915D01*
X1631039Y430923D01*
X1631142Y430926D01*
X1631161Y430933D01*
X1631181Y430934D01*
X1631276Y430975D01*
X1631373Y431010D01*
X1631389Y431023D01*
X1631407Y431031D01*
X1631538Y431136D01*
X1633653Y433251D01*
X1636347Y433251D01*
X1638251Y431347D01*
X1638251Y428653D01*
X1636347Y426749D01*
X1633653Y426749D01*
X1631538Y428864D01*
X1631522Y428876D01*
X1631510Y428892D01*
X1631422Y428948D01*
X1631339Y429008D01*
X1631320Y429014D01*
X1631303Y429025D01*
X1631202Y429050D01*
X1631103Y429080D01*
X1631084Y429080D01*
X1631064Y429085D01*
X1630961Y429077D01*
X1630858Y429074D01*
X1630839Y429067D01*
X1630819Y429066D01*
X1630724Y429025D01*
X1630627Y428990D01*
X1630611Y428977D01*
X1630593Y428969D01*
X1630462Y428864D01*
X1628347Y426749D01*
X1625653Y426749D01*
G37*
%LPD*%
%LPC*%
G36*
X1597653Y98749D02*
X1597653Y98749D01*
X1595749Y100653D01*
X1595749Y103314D01*
X1595738Y103385D01*
X1595736Y103457D01*
X1595718Y103506D01*
X1595710Y103557D01*
X1595676Y103620D01*
X1595651Y103688D01*
X1595619Y103728D01*
X1595594Y103774D01*
X1595543Y103824D01*
X1595498Y103880D01*
X1595454Y103908D01*
X1595416Y103944D01*
X1595351Y103974D01*
X1595291Y104013D01*
X1595240Y104025D01*
X1595193Y104047D01*
X1595122Y104055D01*
X1595052Y104073D01*
X1595000Y104069D01*
X1594949Y104074D01*
X1594878Y104059D01*
X1594807Y104054D01*
X1594759Y104033D01*
X1594708Y104022D01*
X1594647Y103985D01*
X1594581Y103957D01*
X1594525Y103913D01*
X1594497Y103896D01*
X1594482Y103878D01*
X1594450Y103852D01*
X1594346Y103749D01*
X1591653Y103749D01*
X1589749Y105653D01*
X1589749Y108347D01*
X1591653Y110251D01*
X1594347Y110251D01*
X1596251Y108347D01*
X1596251Y105686D01*
X1596262Y105615D01*
X1596264Y105543D01*
X1596282Y105494D01*
X1596290Y105443D01*
X1596324Y105380D01*
X1596349Y105312D01*
X1596381Y105272D01*
X1596406Y105226D01*
X1596457Y105176D01*
X1596502Y105120D01*
X1596546Y105092D01*
X1596584Y105056D01*
X1596649Y105026D01*
X1596709Y104987D01*
X1596760Y104975D01*
X1596807Y104953D01*
X1596878Y104945D01*
X1596948Y104927D01*
X1597000Y104931D01*
X1597051Y104926D01*
X1597122Y104941D01*
X1597193Y104946D01*
X1597241Y104967D01*
X1597292Y104978D01*
X1597353Y105015D01*
X1597419Y105043D01*
X1597475Y105087D01*
X1597503Y105104D01*
X1597518Y105122D01*
X1597550Y105148D01*
X1597654Y105251D01*
X1600347Y105251D01*
X1602251Y103347D01*
X1602251Y100653D01*
X1600347Y98749D01*
X1597653Y98749D01*
G37*
%LPD*%
%LPC*%
G36*
X1574653Y464749D02*
X1574653Y464749D01*
X1572749Y466653D01*
X1572749Y469347D01*
X1574653Y471251D01*
X1577346Y471251D01*
X1577450Y471148D01*
X1577508Y471106D01*
X1577560Y471056D01*
X1577607Y471034D01*
X1577649Y471004D01*
X1577718Y470983D01*
X1577783Y470953D01*
X1577835Y470947D01*
X1577885Y470932D01*
X1577956Y470933D01*
X1578027Y470926D01*
X1578078Y470937D01*
X1578130Y470938D01*
X1578198Y470963D01*
X1578268Y470978D01*
X1578313Y471005D01*
X1578361Y471022D01*
X1578417Y471067D01*
X1578479Y471104D01*
X1578513Y471144D01*
X1578553Y471176D01*
X1578592Y471236D01*
X1578639Y471291D01*
X1578658Y471339D01*
X1578686Y471383D01*
X1578704Y471452D01*
X1578731Y471519D01*
X1578739Y471590D01*
X1578747Y471622D01*
X1578745Y471645D01*
X1578749Y471686D01*
X1578749Y474347D01*
X1580653Y476251D01*
X1583347Y476251D01*
X1585251Y474347D01*
X1585251Y471653D01*
X1583347Y469749D01*
X1580654Y469749D01*
X1580550Y469852D01*
X1580492Y469894D01*
X1580440Y469944D01*
X1580393Y469966D01*
X1580351Y469996D01*
X1580282Y470017D01*
X1580217Y470047D01*
X1580165Y470053D01*
X1580115Y470068D01*
X1580044Y470067D01*
X1579973Y470074D01*
X1579922Y470063D01*
X1579870Y470062D01*
X1579802Y470037D01*
X1579732Y470022D01*
X1579687Y469995D01*
X1579639Y469978D01*
X1579583Y469933D01*
X1579521Y469896D01*
X1579487Y469856D01*
X1579447Y469824D01*
X1579408Y469764D01*
X1579361Y469709D01*
X1579342Y469661D01*
X1579314Y469617D01*
X1579296Y469548D01*
X1579269Y469481D01*
X1579261Y469410D01*
X1579253Y469378D01*
X1579255Y469355D01*
X1579251Y469314D01*
X1579251Y466653D01*
X1577347Y464749D01*
X1574653Y464749D01*
G37*
%LPD*%
%LPC*%
G36*
X1429653Y401749D02*
X1429653Y401749D01*
X1427749Y403653D01*
X1427749Y406346D01*
X1427852Y406450D01*
X1427894Y406508D01*
X1427944Y406560D01*
X1427966Y406607D01*
X1427996Y406649D01*
X1428017Y406718D01*
X1428047Y406783D01*
X1428053Y406835D01*
X1428068Y406885D01*
X1428067Y406956D01*
X1428074Y407027D01*
X1428063Y407078D01*
X1428062Y407130D01*
X1428037Y407198D01*
X1428022Y407268D01*
X1427995Y407313D01*
X1427978Y407361D01*
X1427933Y407417D01*
X1427896Y407479D01*
X1427856Y407513D01*
X1427824Y407553D01*
X1427764Y407592D01*
X1427709Y407639D01*
X1427661Y407658D01*
X1427617Y407686D01*
X1427548Y407704D01*
X1427481Y407731D01*
X1427410Y407739D01*
X1427378Y407747D01*
X1427355Y407745D01*
X1427314Y407749D01*
X1424653Y407749D01*
X1422749Y409653D01*
X1422749Y412347D01*
X1424653Y414251D01*
X1427347Y414251D01*
X1429251Y412347D01*
X1429251Y409654D01*
X1429148Y409550D01*
X1429106Y409492D01*
X1429056Y409440D01*
X1429034Y409393D01*
X1429004Y409351D01*
X1428983Y409282D01*
X1428953Y409217D01*
X1428947Y409165D01*
X1428932Y409115D01*
X1428933Y409044D01*
X1428926Y408973D01*
X1428937Y408922D01*
X1428938Y408870D01*
X1428963Y408802D01*
X1428978Y408732D01*
X1429005Y408687D01*
X1429022Y408639D01*
X1429067Y408583D01*
X1429104Y408521D01*
X1429144Y408487D01*
X1429176Y408447D01*
X1429236Y408408D01*
X1429291Y408361D01*
X1429339Y408342D01*
X1429383Y408314D01*
X1429452Y408296D01*
X1429519Y408269D01*
X1429590Y408261D01*
X1429622Y408253D01*
X1429645Y408255D01*
X1429686Y408251D01*
X1432347Y408251D01*
X1434251Y406347D01*
X1434251Y403653D01*
X1432347Y401749D01*
X1429653Y401749D01*
G37*
%LPD*%
%LPC*%
G36*
X1638653Y554749D02*
X1638653Y554749D01*
X1636538Y556864D01*
X1636522Y556876D01*
X1636510Y556892D01*
X1636422Y556948D01*
X1636339Y557008D01*
X1636320Y557014D01*
X1636303Y557025D01*
X1636202Y557050D01*
X1636103Y557080D01*
X1636084Y557080D01*
X1636064Y557085D01*
X1635961Y557077D01*
X1635858Y557074D01*
X1635839Y557067D01*
X1635819Y557066D01*
X1635724Y557025D01*
X1635627Y556990D01*
X1635611Y556977D01*
X1635593Y556969D01*
X1635462Y556864D01*
X1634347Y555749D01*
X1631653Y555749D01*
X1629749Y557653D01*
X1629749Y560347D01*
X1631653Y562251D01*
X1634347Y562251D01*
X1636462Y560136D01*
X1636478Y560124D01*
X1636490Y560108D01*
X1636578Y560052D01*
X1636661Y559992D01*
X1636680Y559986D01*
X1636697Y559975D01*
X1636798Y559950D01*
X1636897Y559920D01*
X1636916Y559920D01*
X1636936Y559915D01*
X1637039Y559923D01*
X1637142Y559926D01*
X1637161Y559933D01*
X1637181Y559934D01*
X1637276Y559975D01*
X1637373Y560010D01*
X1637389Y560023D01*
X1637407Y560031D01*
X1637538Y560136D01*
X1638653Y561251D01*
X1641347Y561251D01*
X1643251Y559347D01*
X1643251Y556653D01*
X1641347Y554749D01*
X1638653Y554749D01*
G37*
%LPD*%
%LPC*%
G36*
X1921653Y216749D02*
X1921653Y216749D01*
X1919749Y218653D01*
X1919749Y220314D01*
X1919738Y220385D01*
X1919736Y220457D01*
X1919718Y220506D01*
X1919710Y220557D01*
X1919676Y220620D01*
X1919651Y220688D01*
X1919619Y220728D01*
X1919594Y220774D01*
X1919543Y220824D01*
X1919498Y220880D01*
X1919454Y220908D01*
X1919416Y220944D01*
X1919351Y220974D01*
X1919291Y221013D01*
X1919240Y221025D01*
X1919193Y221047D01*
X1919122Y221055D01*
X1919052Y221073D01*
X1919000Y221069D01*
X1918949Y221074D01*
X1918878Y221059D01*
X1918807Y221054D01*
X1918759Y221033D01*
X1918708Y221022D01*
X1918647Y220985D01*
X1918581Y220957D01*
X1918525Y220913D01*
X1918497Y220896D01*
X1918482Y220878D01*
X1918450Y220852D01*
X1918346Y220749D01*
X1915653Y220749D01*
X1913749Y222653D01*
X1913749Y225347D01*
X1915653Y227251D01*
X1918347Y227251D01*
X1920251Y225347D01*
X1920251Y223686D01*
X1920262Y223615D01*
X1920264Y223543D01*
X1920282Y223494D01*
X1920290Y223443D01*
X1920324Y223380D01*
X1920349Y223312D01*
X1920381Y223272D01*
X1920406Y223226D01*
X1920457Y223176D01*
X1920502Y223120D01*
X1920546Y223092D01*
X1920584Y223056D01*
X1920649Y223026D01*
X1920709Y222987D01*
X1920760Y222975D01*
X1920807Y222953D01*
X1920878Y222945D01*
X1920948Y222927D01*
X1921000Y222931D01*
X1921051Y222926D01*
X1921122Y222941D01*
X1921193Y222946D01*
X1921241Y222967D01*
X1921292Y222978D01*
X1921353Y223015D01*
X1921419Y223043D01*
X1921475Y223087D01*
X1921503Y223104D01*
X1921518Y223122D01*
X1921550Y223148D01*
X1921654Y223251D01*
X1924347Y223251D01*
X1926251Y221347D01*
X1926251Y218653D01*
X1924347Y216749D01*
X1921653Y216749D01*
G37*
%LPD*%
%LPC*%
G36*
X1438653Y358749D02*
X1438653Y358749D01*
X1436749Y360653D01*
X1436749Y362988D01*
X1436746Y363008D01*
X1436748Y363027D01*
X1436726Y363129D01*
X1436710Y363231D01*
X1436700Y363248D01*
X1436696Y363268D01*
X1436643Y363357D01*
X1436594Y363448D01*
X1436580Y363462D01*
X1436570Y363479D01*
X1436491Y363546D01*
X1436416Y363618D01*
X1436398Y363626D01*
X1436383Y363639D01*
X1436287Y363678D01*
X1436193Y363721D01*
X1436173Y363723D01*
X1436155Y363731D01*
X1435988Y363749D01*
X1433653Y363749D01*
X1431749Y365653D01*
X1431749Y368347D01*
X1433653Y370251D01*
X1436347Y370251D01*
X1438251Y368347D01*
X1438251Y366012D01*
X1438254Y365992D01*
X1438252Y365973D01*
X1438274Y365871D01*
X1438290Y365769D01*
X1438300Y365752D01*
X1438304Y365732D01*
X1438357Y365643D01*
X1438406Y365552D01*
X1438420Y365538D01*
X1438430Y365521D01*
X1438509Y365454D01*
X1438584Y365382D01*
X1438602Y365374D01*
X1438617Y365361D01*
X1438713Y365322D01*
X1438807Y365279D01*
X1438827Y365277D01*
X1438845Y365269D01*
X1439012Y365251D01*
X1441347Y365251D01*
X1443251Y363347D01*
X1443251Y360653D01*
X1441347Y358749D01*
X1438653Y358749D01*
G37*
%LPD*%
%LPC*%
G36*
X1518653Y184749D02*
X1518653Y184749D01*
X1516749Y186653D01*
X1516749Y188988D01*
X1516746Y189008D01*
X1516748Y189027D01*
X1516726Y189129D01*
X1516710Y189231D01*
X1516700Y189248D01*
X1516696Y189268D01*
X1516643Y189357D01*
X1516594Y189448D01*
X1516580Y189462D01*
X1516570Y189479D01*
X1516491Y189546D01*
X1516416Y189618D01*
X1516398Y189626D01*
X1516383Y189639D01*
X1516287Y189678D01*
X1516193Y189721D01*
X1516173Y189723D01*
X1516155Y189731D01*
X1515988Y189749D01*
X1513653Y189749D01*
X1511749Y191653D01*
X1511749Y194347D01*
X1513653Y196251D01*
X1516347Y196251D01*
X1518251Y194347D01*
X1518251Y192012D01*
X1518254Y191992D01*
X1518252Y191973D01*
X1518274Y191871D01*
X1518290Y191769D01*
X1518300Y191752D01*
X1518304Y191732D01*
X1518357Y191643D01*
X1518406Y191552D01*
X1518420Y191538D01*
X1518430Y191521D01*
X1518509Y191454D01*
X1518584Y191382D01*
X1518602Y191374D01*
X1518617Y191361D01*
X1518713Y191322D01*
X1518807Y191279D01*
X1518827Y191277D01*
X1518845Y191269D01*
X1519012Y191251D01*
X1521347Y191251D01*
X1523251Y189347D01*
X1523251Y186653D01*
X1521347Y184749D01*
X1518653Y184749D01*
G37*
%LPD*%
%LPC*%
G36*
X1418653Y413749D02*
X1418653Y413749D01*
X1416749Y415653D01*
X1416749Y417988D01*
X1416746Y418008D01*
X1416748Y418027D01*
X1416726Y418129D01*
X1416710Y418231D01*
X1416700Y418248D01*
X1416696Y418268D01*
X1416643Y418357D01*
X1416594Y418448D01*
X1416580Y418462D01*
X1416570Y418479D01*
X1416491Y418546D01*
X1416416Y418618D01*
X1416398Y418626D01*
X1416383Y418639D01*
X1416287Y418678D01*
X1416193Y418721D01*
X1416173Y418723D01*
X1416155Y418731D01*
X1415988Y418749D01*
X1413653Y418749D01*
X1411749Y420653D01*
X1411749Y423347D01*
X1413653Y425251D01*
X1416347Y425251D01*
X1418251Y423347D01*
X1418251Y421012D01*
X1418254Y420992D01*
X1418252Y420973D01*
X1418274Y420871D01*
X1418290Y420769D01*
X1418300Y420752D01*
X1418304Y420732D01*
X1418357Y420643D01*
X1418406Y420552D01*
X1418420Y420538D01*
X1418430Y420521D01*
X1418509Y420454D01*
X1418584Y420382D01*
X1418602Y420374D01*
X1418617Y420361D01*
X1418713Y420322D01*
X1418807Y420279D01*
X1418827Y420277D01*
X1418845Y420269D01*
X1419012Y420251D01*
X1421347Y420251D01*
X1423251Y418347D01*
X1423251Y415653D01*
X1421347Y413749D01*
X1418653Y413749D01*
G37*
%LPD*%
%LPC*%
G36*
X1520653Y460749D02*
X1520653Y460749D01*
X1518749Y462653D01*
X1518749Y465347D01*
X1520364Y466962D01*
X1520376Y466978D01*
X1520392Y466990D01*
X1520448Y467078D01*
X1520508Y467161D01*
X1520514Y467180D01*
X1520525Y467197D01*
X1520550Y467298D01*
X1520580Y467397D01*
X1520580Y467416D01*
X1520585Y467436D01*
X1520577Y467539D01*
X1520574Y467642D01*
X1520567Y467661D01*
X1520566Y467681D01*
X1520525Y467776D01*
X1520490Y467873D01*
X1520477Y467889D01*
X1520469Y467907D01*
X1520364Y468038D01*
X1518749Y469653D01*
X1518749Y472347D01*
X1520653Y474251D01*
X1523347Y474251D01*
X1525251Y472347D01*
X1525251Y469653D01*
X1523636Y468038D01*
X1523624Y468022D01*
X1523608Y468010D01*
X1523552Y467922D01*
X1523492Y467839D01*
X1523486Y467820D01*
X1523475Y467803D01*
X1523450Y467702D01*
X1523420Y467603D01*
X1523420Y467584D01*
X1523415Y467564D01*
X1523423Y467461D01*
X1523426Y467358D01*
X1523433Y467339D01*
X1523434Y467319D01*
X1523475Y467224D01*
X1523510Y467127D01*
X1523523Y467111D01*
X1523531Y467093D01*
X1523636Y466962D01*
X1525251Y465347D01*
X1525251Y462653D01*
X1523347Y460749D01*
X1520653Y460749D01*
G37*
%LPD*%
%LPC*%
G36*
X1587113Y425289D02*
X1587113Y425289D01*
X1585209Y427193D01*
X1585209Y429887D01*
X1587113Y431791D01*
X1589807Y431791D01*
X1590462Y431136D01*
X1590478Y431124D01*
X1590490Y431108D01*
X1590578Y431052D01*
X1590661Y430992D01*
X1590680Y430986D01*
X1590697Y430975D01*
X1590798Y430950D01*
X1590897Y430920D01*
X1590916Y430920D01*
X1590936Y430915D01*
X1591039Y430923D01*
X1591142Y430926D01*
X1591161Y430933D01*
X1591181Y430934D01*
X1591276Y430975D01*
X1591373Y431010D01*
X1591389Y431023D01*
X1591407Y431031D01*
X1591538Y431136D01*
X1593653Y433251D01*
X1596347Y433251D01*
X1598251Y431347D01*
X1598251Y428653D01*
X1596347Y426749D01*
X1593653Y426749D01*
X1592998Y427404D01*
X1592982Y427416D01*
X1592970Y427432D01*
X1592882Y427488D01*
X1592799Y427548D01*
X1592780Y427554D01*
X1592763Y427565D01*
X1592662Y427590D01*
X1592563Y427620D01*
X1592544Y427620D01*
X1592524Y427625D01*
X1592421Y427617D01*
X1592318Y427614D01*
X1592299Y427607D01*
X1592279Y427606D01*
X1592184Y427565D01*
X1592087Y427530D01*
X1592071Y427517D01*
X1592053Y427509D01*
X1591922Y427404D01*
X1589807Y425289D01*
X1587113Y425289D01*
G37*
%LPD*%
%LPC*%
G36*
X1899403Y315749D02*
X1899403Y315749D01*
X1897499Y317653D01*
X1897499Y317988D01*
X1897496Y318008D01*
X1897498Y318027D01*
X1897476Y318129D01*
X1897460Y318231D01*
X1897450Y318248D01*
X1897446Y318268D01*
X1897393Y318357D01*
X1897344Y318448D01*
X1897330Y318462D01*
X1897320Y318479D01*
X1897241Y318546D01*
X1897166Y318618D01*
X1897148Y318626D01*
X1897133Y318639D01*
X1897037Y318678D01*
X1896943Y318721D01*
X1896923Y318723D01*
X1896905Y318731D01*
X1896738Y318749D01*
X1893903Y318749D01*
X1891999Y320653D01*
X1891999Y323347D01*
X1893903Y325251D01*
X1896597Y325251D01*
X1898501Y323347D01*
X1898501Y323012D01*
X1898504Y322992D01*
X1898502Y322973D01*
X1898524Y322871D01*
X1898540Y322769D01*
X1898550Y322752D01*
X1898554Y322732D01*
X1898607Y322643D01*
X1898656Y322552D01*
X1898670Y322538D01*
X1898680Y322521D01*
X1898759Y322454D01*
X1898834Y322382D01*
X1898852Y322374D01*
X1898867Y322361D01*
X1898963Y322322D01*
X1899057Y322279D01*
X1899077Y322277D01*
X1899095Y322269D01*
X1899262Y322251D01*
X1902097Y322251D01*
X1904001Y320347D01*
X1904001Y317653D01*
X1902097Y315749D01*
X1899403Y315749D01*
G37*
%LPD*%
%LPC*%
G36*
X1391653Y38749D02*
X1391653Y38749D01*
X1389749Y40653D01*
X1389749Y43347D01*
X1391653Y45251D01*
X1394347Y45251D01*
X1395607Y43990D01*
X1395623Y43979D01*
X1395636Y43963D01*
X1395723Y43907D01*
X1395807Y43847D01*
X1395826Y43841D01*
X1395842Y43830D01*
X1395943Y43805D01*
X1396042Y43774D01*
X1396062Y43775D01*
X1396081Y43770D01*
X1396184Y43778D01*
X1396288Y43781D01*
X1396306Y43788D01*
X1396326Y43789D01*
X1396421Y43830D01*
X1396519Y43865D01*
X1396534Y43878D01*
X1396553Y43885D01*
X1396683Y43990D01*
X1398153Y45459D01*
X1400846Y45459D01*
X1402750Y43555D01*
X1402750Y40862D01*
X1400846Y38958D01*
X1398153Y38958D01*
X1396892Y40218D01*
X1396876Y40230D01*
X1396864Y40246D01*
X1396776Y40302D01*
X1396692Y40362D01*
X1396673Y40368D01*
X1396657Y40379D01*
X1396556Y40404D01*
X1396457Y40434D01*
X1396437Y40434D01*
X1396418Y40439D01*
X1396315Y40431D01*
X1396212Y40428D01*
X1396193Y40421D01*
X1396173Y40420D01*
X1396078Y40379D01*
X1395980Y40344D01*
X1395965Y40331D01*
X1395947Y40323D01*
X1395816Y40218D01*
X1394347Y38749D01*
X1391653Y38749D01*
G37*
%LPD*%
%LPC*%
G36*
X1927653Y388749D02*
X1927653Y388749D01*
X1925749Y390653D01*
X1925749Y393347D01*
X1927653Y395251D01*
X1930347Y395251D01*
X1931712Y393886D01*
X1931728Y393874D01*
X1931740Y393858D01*
X1931828Y393802D01*
X1931911Y393742D01*
X1931930Y393736D01*
X1931947Y393725D01*
X1932048Y393700D01*
X1932147Y393670D01*
X1932166Y393670D01*
X1932186Y393665D01*
X1932289Y393673D01*
X1932392Y393676D01*
X1932411Y393683D01*
X1932431Y393684D01*
X1932526Y393725D01*
X1932623Y393760D01*
X1932639Y393773D01*
X1932657Y393781D01*
X1932788Y393886D01*
X1934153Y395251D01*
X1936847Y395251D01*
X1938751Y393347D01*
X1938751Y390653D01*
X1936847Y388749D01*
X1934153Y388749D01*
X1932788Y390114D01*
X1932772Y390126D01*
X1932760Y390142D01*
X1932672Y390198D01*
X1932589Y390258D01*
X1932570Y390264D01*
X1932553Y390275D01*
X1932452Y390300D01*
X1932353Y390330D01*
X1932334Y390330D01*
X1932314Y390335D01*
X1932211Y390327D01*
X1932108Y390324D01*
X1932089Y390317D01*
X1932069Y390316D01*
X1931974Y390275D01*
X1931877Y390240D01*
X1931861Y390227D01*
X1931843Y390219D01*
X1931712Y390114D01*
X1930347Y388749D01*
X1927653Y388749D01*
G37*
%LPD*%
%LPC*%
G36*
X1587023Y579423D02*
X1587023Y579423D01*
X1587023Y587572D01*
X1587793Y587450D01*
X1589258Y586973D01*
X1590632Y586274D01*
X1591878Y585368D01*
X1592968Y584278D01*
X1593874Y583032D01*
X1594573Y581658D01*
X1595050Y580193D01*
X1595172Y579423D01*
X1587023Y579423D01*
G37*
%LPD*%
%LPC*%
G36*
X1575828Y579423D02*
X1575828Y579423D01*
X1575950Y580193D01*
X1576427Y581658D01*
X1577126Y583032D01*
X1578032Y584278D01*
X1579122Y585368D01*
X1580368Y586274D01*
X1581742Y586973D01*
X1583207Y587450D01*
X1583977Y587572D01*
X1583977Y579423D01*
X1575828Y579423D01*
G37*
%LPD*%
%LPC*%
G36*
X1587023Y576377D02*
X1587023Y576377D01*
X1595172Y576377D01*
X1595050Y575607D01*
X1594573Y574142D01*
X1593874Y572768D01*
X1592968Y571522D01*
X1591878Y570432D01*
X1590632Y569526D01*
X1589258Y568827D01*
X1587793Y568350D01*
X1587023Y568228D01*
X1587023Y576377D01*
G37*
%LPD*%
%LPC*%
G36*
X1583207Y568350D02*
X1583207Y568350D01*
X1581742Y568827D01*
X1580368Y569526D01*
X1579122Y570432D01*
X1578032Y571522D01*
X1577126Y572768D01*
X1576427Y574142D01*
X1575950Y575607D01*
X1575828Y576377D01*
X1583977Y576377D01*
X1583977Y568228D01*
X1583207Y568350D01*
G37*
%LPD*%
%LPC*%
G36*
X288550Y21499D02*
X288550Y21499D01*
X286499Y23550D01*
X286499Y26450D01*
X288550Y28501D01*
X291450Y28501D01*
X293501Y26450D01*
X293501Y23550D01*
X291450Y21499D01*
X288550Y21499D01*
G37*
%LPD*%
%LPC*%
G36*
X297550Y45499D02*
X297550Y45499D01*
X295499Y47550D01*
X295499Y50450D01*
X297550Y52501D01*
X300450Y52501D01*
X302501Y50450D01*
X302501Y47550D01*
X300450Y45499D01*
X297550Y45499D01*
G37*
%LPD*%
%LPC*%
G36*
X316550Y58499D02*
X316550Y58499D01*
X314499Y60550D01*
X314499Y63450D01*
X316550Y65501D01*
X319450Y65501D01*
X321501Y63450D01*
X321501Y60550D01*
X319450Y58499D01*
X316550Y58499D01*
G37*
%LPD*%
%LPC*%
G36*
X288550Y99499D02*
X288550Y99499D01*
X286499Y101550D01*
X286499Y104450D01*
X288550Y106501D01*
X291450Y106501D01*
X293501Y104450D01*
X293501Y101550D01*
X291450Y99499D01*
X288550Y99499D01*
G37*
%LPD*%
%LPC*%
G36*
X185550Y104499D02*
X185550Y104499D01*
X183499Y106550D01*
X183499Y109450D01*
X185550Y111501D01*
X188450Y111501D01*
X190501Y109450D01*
X190501Y106550D01*
X188450Y104499D01*
X185550Y104499D01*
G37*
%LPD*%
%LPC*%
G36*
X261550Y110499D02*
X261550Y110499D01*
X259499Y112550D01*
X259499Y115450D01*
X261550Y117501D01*
X264450Y117501D01*
X266501Y115450D01*
X266501Y112550D01*
X264450Y110499D01*
X261550Y110499D01*
G37*
%LPD*%
%LPC*%
G36*
X297550Y111499D02*
X297550Y111499D01*
X295499Y113550D01*
X295499Y116450D01*
X297550Y118501D01*
X300450Y118501D01*
X302501Y116450D01*
X302501Y113550D01*
X300450Y111499D01*
X297550Y111499D01*
G37*
%LPD*%
%LPC*%
G36*
X310550Y126499D02*
X310550Y126499D01*
X308499Y128550D01*
X308499Y131450D01*
X310550Y133501D01*
X313450Y133501D01*
X315501Y131450D01*
X315501Y128550D01*
X313450Y126499D01*
X310550Y126499D01*
G37*
%LPD*%
%LPC*%
G36*
X507550Y194499D02*
X507550Y194499D01*
X505499Y196550D01*
X505499Y199450D01*
X507550Y201501D01*
X510450Y201501D01*
X512501Y199450D01*
X512501Y196550D01*
X510450Y194499D01*
X507550Y194499D01*
G37*
%LPD*%
%LPC*%
G36*
X525550Y194499D02*
X525550Y194499D01*
X523499Y196550D01*
X523499Y199450D01*
X525550Y201501D01*
X528450Y201501D01*
X530501Y199450D01*
X530501Y196550D01*
X528450Y194499D01*
X525550Y194499D01*
G37*
%LPD*%
%LPC*%
G36*
X93550Y220539D02*
X93550Y220539D01*
X91499Y222590D01*
X91499Y225490D01*
X93550Y227541D01*
X96450Y227541D01*
X98501Y225490D01*
X98501Y222590D01*
X96450Y220539D01*
X93550Y220539D01*
G37*
%LPD*%
%LPC*%
G36*
X1742653Y277749D02*
X1742653Y277749D01*
X1740749Y279653D01*
X1740749Y282347D01*
X1742653Y284251D01*
X1745347Y284251D01*
X1747450Y282147D01*
X1747508Y282106D01*
X1747560Y282056D01*
X1747607Y282034D01*
X1747649Y282004D01*
X1747683Y281994D01*
X1747639Y281978D01*
X1747583Y281933D01*
X1747521Y281896D01*
X1747487Y281856D01*
X1747447Y281824D01*
X1747408Y281764D01*
X1747361Y281709D01*
X1747342Y281661D01*
X1747314Y281617D01*
X1747296Y281548D01*
X1747269Y281481D01*
X1747261Y281410D01*
X1747253Y281378D01*
X1747255Y281355D01*
X1747251Y281314D01*
X1747251Y279653D01*
X1745347Y277749D01*
X1742653Y277749D01*
G37*
%LPD*%
%LPC*%
G36*
X1750653Y279749D02*
X1750653Y279749D01*
X1748550Y281853D01*
X1748492Y281894D01*
X1748440Y281944D01*
X1748393Y281966D01*
X1748351Y281996D01*
X1748317Y282006D01*
X1748361Y282022D01*
X1748417Y282067D01*
X1748479Y282104D01*
X1748513Y282144D01*
X1748553Y282176D01*
X1748592Y282236D01*
X1748639Y282291D01*
X1748658Y282339D01*
X1748686Y282383D01*
X1748704Y282452D01*
X1748731Y282519D01*
X1748739Y282590D01*
X1748747Y282622D01*
X1748745Y282645D01*
X1748749Y282686D01*
X1748749Y284347D01*
X1750653Y286251D01*
X1753347Y286251D01*
X1755251Y284347D01*
X1755251Y281653D01*
X1753347Y279749D01*
X1750653Y279749D01*
G37*
%LPD*%
%LPC*%
G36*
X1438653Y403749D02*
X1438653Y403749D01*
X1436749Y405653D01*
X1436749Y408347D01*
X1438653Y410251D01*
X1441347Y410251D01*
X1443251Y408347D01*
X1443251Y405653D01*
X1441347Y403749D01*
X1438653Y403749D01*
G37*
%LPD*%
%LPC*%
G36*
X1741653Y405749D02*
X1741653Y405749D01*
X1739749Y407653D01*
X1739749Y410347D01*
X1741653Y412251D01*
X1744347Y412251D01*
X1746251Y410347D01*
X1746251Y407653D01*
X1744347Y405749D01*
X1741653Y405749D01*
G37*
%LPD*%
%LPC*%
G36*
X120653Y377749D02*
X120653Y377749D01*
X118749Y379653D01*
X118749Y382347D01*
X120653Y384251D01*
X123347Y384251D01*
X125251Y382347D01*
X125251Y379653D01*
X123347Y377749D01*
X120653Y377749D01*
G37*
%LPD*%
%LPC*%
G36*
X1359653Y406249D02*
X1359653Y406249D01*
X1357749Y408153D01*
X1357749Y410847D01*
X1359653Y412751D01*
X1362347Y412751D01*
X1364251Y410847D01*
X1364251Y408153D01*
X1362347Y406249D01*
X1359653Y406249D01*
G37*
%LPD*%
%LPC*%
G36*
X1859653Y374749D02*
X1859653Y374749D01*
X1857749Y376653D01*
X1857749Y379347D01*
X1859653Y381251D01*
X1862347Y381251D01*
X1864251Y379347D01*
X1864251Y376653D01*
X1862347Y374749D01*
X1859653Y374749D01*
G37*
%LPD*%
%LPC*%
G36*
X1556653Y406749D02*
X1556653Y406749D01*
X1554749Y408653D01*
X1554749Y411347D01*
X1556653Y413251D01*
X1559347Y413251D01*
X1561251Y411347D01*
X1561251Y408653D01*
X1559347Y406749D01*
X1556653Y406749D01*
G37*
%LPD*%
%LPC*%
G36*
X1536653Y373749D02*
X1536653Y373749D01*
X1534749Y375653D01*
X1534749Y378347D01*
X1536653Y380251D01*
X1539347Y380251D01*
X1541251Y378347D01*
X1541251Y375653D01*
X1539347Y373749D01*
X1536653Y373749D01*
G37*
%LPD*%
%LPC*%
G36*
X827653Y408749D02*
X827653Y408749D01*
X825749Y410653D01*
X825749Y413347D01*
X827653Y415251D01*
X830347Y415251D01*
X832251Y413347D01*
X832251Y410653D01*
X830347Y408749D01*
X827653Y408749D01*
G37*
%LPD*%
%LPC*%
G36*
X1870653Y371749D02*
X1870653Y371749D01*
X1868749Y373653D01*
X1868749Y376347D01*
X1870653Y378251D01*
X1873347Y378251D01*
X1875251Y376347D01*
X1875251Y373653D01*
X1873347Y371749D01*
X1870653Y371749D01*
G37*
%LPD*%
%LPC*%
G36*
X1056653Y370749D02*
X1056653Y370749D01*
X1054749Y372653D01*
X1054749Y375347D01*
X1056653Y377251D01*
X1059347Y377251D01*
X1061251Y375347D01*
X1061251Y372653D01*
X1059347Y370749D01*
X1056653Y370749D01*
G37*
%LPD*%
%LPC*%
G36*
X1325653Y409749D02*
X1325653Y409749D01*
X1323749Y411653D01*
X1323749Y414347D01*
X1325653Y416251D01*
X1328347Y416251D01*
X1330251Y414347D01*
X1330251Y411653D01*
X1328347Y409749D01*
X1325653Y409749D01*
G37*
%LPD*%
%LPC*%
G36*
X1934153Y368749D02*
X1934153Y368749D01*
X1932249Y370653D01*
X1932249Y373347D01*
X1934153Y375251D01*
X1936847Y375251D01*
X1938751Y373347D01*
X1938751Y370653D01*
X1936847Y368749D01*
X1934153Y368749D01*
G37*
%LPD*%
%LPC*%
G36*
X1579653Y409749D02*
X1579653Y409749D01*
X1577749Y411653D01*
X1577749Y414347D01*
X1579653Y416251D01*
X1582347Y416251D01*
X1584251Y414347D01*
X1584251Y411653D01*
X1582347Y409749D01*
X1579653Y409749D01*
G37*
%LPD*%
%LPC*%
G36*
X499653Y409749D02*
X499653Y409749D01*
X497749Y411653D01*
X497749Y414347D01*
X499653Y416251D01*
X502347Y416251D01*
X504251Y414347D01*
X504251Y411653D01*
X502347Y409749D01*
X499653Y409749D01*
G37*
%LPD*%
%LPC*%
G36*
X1391653Y366749D02*
X1391653Y366749D01*
X1389749Y368653D01*
X1389749Y371347D01*
X1391653Y373251D01*
X1394347Y373251D01*
X1396251Y371347D01*
X1396251Y368653D01*
X1394347Y366749D01*
X1391653Y366749D01*
G37*
%LPD*%
%LPC*%
G36*
X1537653Y363749D02*
X1537653Y363749D01*
X1535749Y365653D01*
X1535749Y368347D01*
X1537653Y370251D01*
X1540347Y370251D01*
X1542251Y368347D01*
X1542251Y365653D01*
X1540347Y363749D01*
X1537653Y363749D01*
G37*
%LPD*%
%LPC*%
G36*
X1150653Y415749D02*
X1150653Y415749D01*
X1148749Y417653D01*
X1148749Y420347D01*
X1150653Y422251D01*
X1153347Y422251D01*
X1155251Y420347D01*
X1155251Y417653D01*
X1153347Y415749D01*
X1150653Y415749D01*
G37*
%LPD*%
%LPC*%
G36*
X1141653Y363749D02*
X1141653Y363749D01*
X1139749Y365653D01*
X1139749Y368347D01*
X1141653Y370251D01*
X1144347Y370251D01*
X1146251Y368347D01*
X1146251Y365653D01*
X1144347Y363749D01*
X1141653Y363749D01*
G37*
%LPD*%
%LPC*%
G36*
X1484405Y354316D02*
X1484405Y354316D01*
X1482500Y356220D01*
X1482500Y358913D01*
X1484405Y360817D01*
X1487098Y360817D01*
X1489002Y358913D01*
X1489002Y356220D01*
X1487098Y354316D01*
X1484405Y354316D01*
G37*
%LPD*%
%LPC*%
G36*
X1474653Y350749D02*
X1474653Y350749D01*
X1472749Y352653D01*
X1472749Y355347D01*
X1474653Y357251D01*
X1477347Y357251D01*
X1479251Y355347D01*
X1479251Y352653D01*
X1477347Y350749D01*
X1474653Y350749D01*
G37*
%LPD*%
%LPC*%
G36*
X1440653Y347749D02*
X1440653Y347749D01*
X1438749Y349653D01*
X1438749Y352347D01*
X1440653Y354251D01*
X1443347Y354251D01*
X1445251Y352347D01*
X1445251Y349653D01*
X1443347Y347749D01*
X1440653Y347749D01*
G37*
%LPD*%
%LPC*%
G36*
X1538653Y343749D02*
X1538653Y343749D01*
X1536749Y345653D01*
X1536749Y348347D01*
X1538653Y350251D01*
X1541347Y350251D01*
X1543251Y348347D01*
X1543251Y345653D01*
X1541347Y343749D01*
X1538653Y343749D01*
G37*
%LPD*%
%LPC*%
G36*
X1455653Y339749D02*
X1455653Y339749D01*
X1453749Y341653D01*
X1453749Y344347D01*
X1455653Y346251D01*
X1458347Y346251D01*
X1460251Y344347D01*
X1460251Y341653D01*
X1458347Y339749D01*
X1455653Y339749D01*
G37*
%LPD*%
%LPC*%
G36*
X1488932Y334148D02*
X1488932Y334148D01*
X1487028Y336052D01*
X1487028Y338745D01*
X1488932Y340650D01*
X1491625Y340650D01*
X1493529Y338745D01*
X1493529Y336052D01*
X1491625Y334148D01*
X1488932Y334148D01*
G37*
%LPD*%
%LPC*%
G36*
X959653Y323749D02*
X959653Y323749D01*
X957749Y325653D01*
X957749Y328347D01*
X959653Y330251D01*
X962347Y330251D01*
X964251Y328347D01*
X964251Y325653D01*
X962347Y323749D01*
X959653Y323749D01*
G37*
%LPD*%
%LPC*%
G36*
X1097653Y321749D02*
X1097653Y321749D01*
X1095749Y323653D01*
X1095749Y326347D01*
X1097653Y328251D01*
X1100347Y328251D01*
X1102251Y326347D01*
X1102251Y323653D01*
X1100347Y321749D01*
X1097653Y321749D01*
G37*
%LPD*%
%LPC*%
G36*
X1020153Y321249D02*
X1020153Y321249D01*
X1018249Y323153D01*
X1018249Y325847D01*
X1020153Y327751D01*
X1022847Y327751D01*
X1024751Y325847D01*
X1024751Y323153D01*
X1022847Y321249D01*
X1020153Y321249D01*
G37*
%LPD*%
%LPC*%
G36*
X1021653Y417749D02*
X1021653Y417749D01*
X1019749Y419653D01*
X1019749Y422347D01*
X1021653Y424251D01*
X1024347Y424251D01*
X1026251Y422347D01*
X1026251Y419653D01*
X1024347Y417749D01*
X1021653Y417749D01*
G37*
%LPD*%
%LPC*%
G36*
X1005653Y417749D02*
X1005653Y417749D01*
X1003749Y419653D01*
X1003749Y422347D01*
X1005653Y424251D01*
X1008347Y424251D01*
X1010251Y422347D01*
X1010251Y419653D01*
X1008347Y417749D01*
X1005653Y417749D01*
G37*
%LPD*%
%LPC*%
G36*
X252653Y418749D02*
X252653Y418749D01*
X250749Y420653D01*
X250749Y423347D01*
X252653Y425251D01*
X255347Y425251D01*
X257251Y423347D01*
X257251Y420653D01*
X255347Y418749D01*
X252653Y418749D01*
G37*
%LPD*%
%LPC*%
G36*
X1694653Y312749D02*
X1694653Y312749D01*
X1692749Y314653D01*
X1692749Y317347D01*
X1694653Y319251D01*
X1697347Y319251D01*
X1699251Y317347D01*
X1699251Y314653D01*
X1697347Y312749D01*
X1694653Y312749D01*
G37*
%LPD*%
%LPC*%
G36*
X1326653Y311749D02*
X1326653Y311749D01*
X1324749Y313653D01*
X1324749Y316347D01*
X1326653Y318251D01*
X1329347Y318251D01*
X1331251Y316347D01*
X1331251Y313653D01*
X1329347Y311749D01*
X1326653Y311749D01*
G37*
%LPD*%
%LPC*%
G36*
X1450653Y308749D02*
X1450653Y308749D01*
X1448749Y310653D01*
X1448749Y313347D01*
X1450653Y315251D01*
X1453347Y315251D01*
X1455251Y313347D01*
X1455251Y310653D01*
X1453347Y308749D01*
X1450653Y308749D01*
G37*
%LPD*%
%LPC*%
G36*
X928653Y418749D02*
X928653Y418749D01*
X926749Y420653D01*
X926749Y423347D01*
X928653Y425251D01*
X931347Y425251D01*
X933251Y423347D01*
X933251Y420653D01*
X931347Y418749D01*
X928653Y418749D01*
G37*
%LPD*%
%LPC*%
G36*
X1359653Y306749D02*
X1359653Y306749D01*
X1357749Y308653D01*
X1357749Y311347D01*
X1359653Y313251D01*
X1362347Y313251D01*
X1364251Y311347D01*
X1364251Y308653D01*
X1362347Y306749D01*
X1359653Y306749D01*
G37*
%LPD*%
%LPC*%
G36*
X377653Y304749D02*
X377653Y304749D01*
X375749Y306653D01*
X375749Y309347D01*
X377653Y311251D01*
X380347Y311251D01*
X382251Y309347D01*
X382251Y306653D01*
X380347Y304749D01*
X377653Y304749D01*
G37*
%LPD*%
%LPC*%
G36*
X1622653Y303749D02*
X1622653Y303749D01*
X1620749Y305653D01*
X1620749Y308347D01*
X1622653Y310251D01*
X1625347Y310251D01*
X1627251Y308347D01*
X1627251Y305653D01*
X1625347Y303749D01*
X1622653Y303749D01*
G37*
%LPD*%
%LPC*%
G36*
X91653Y301749D02*
X91653Y301749D01*
X89749Y303653D01*
X89749Y306347D01*
X91653Y308251D01*
X94347Y308251D01*
X96251Y306347D01*
X96251Y303653D01*
X94347Y301749D01*
X91653Y301749D01*
G37*
%LPD*%
%LPC*%
G36*
X20653Y300749D02*
X20653Y300749D01*
X18749Y302653D01*
X18749Y305347D01*
X20653Y307251D01*
X23347Y307251D01*
X25251Y305347D01*
X25251Y302653D01*
X23347Y300749D01*
X20653Y300749D01*
G37*
%LPD*%
%LPC*%
G36*
X1439653Y298749D02*
X1439653Y298749D01*
X1437749Y300653D01*
X1437749Y303347D01*
X1439653Y305251D01*
X1442347Y305251D01*
X1444251Y303347D01*
X1444251Y300653D01*
X1442347Y298749D01*
X1439653Y298749D01*
G37*
%LPD*%
%LPC*%
G36*
X925653Y296749D02*
X925653Y296749D01*
X923749Y298653D01*
X923749Y301347D01*
X925653Y303251D01*
X928347Y303251D01*
X930251Y301347D01*
X930251Y298653D01*
X928347Y296749D01*
X925653Y296749D01*
G37*
%LPD*%
%LPC*%
G36*
X1869653Y295749D02*
X1869653Y295749D01*
X1867749Y297653D01*
X1867749Y300347D01*
X1869653Y302251D01*
X1872347Y302251D01*
X1874251Y300347D01*
X1874251Y297653D01*
X1872347Y295749D01*
X1869653Y295749D01*
G37*
%LPD*%
%LPC*%
G36*
X1568653Y295749D02*
X1568653Y295749D01*
X1566749Y297653D01*
X1566749Y300347D01*
X1568653Y302251D01*
X1571347Y302251D01*
X1573251Y300347D01*
X1573251Y297653D01*
X1571347Y295749D01*
X1568653Y295749D01*
G37*
%LPD*%
%LPC*%
G36*
X223653Y295749D02*
X223653Y295749D01*
X221749Y297653D01*
X221749Y300347D01*
X223653Y302251D01*
X226347Y302251D01*
X228251Y300347D01*
X228251Y297653D01*
X226347Y295749D01*
X223653Y295749D01*
G37*
%LPD*%
%LPC*%
G36*
X1863653Y289749D02*
X1863653Y289749D01*
X1861749Y291653D01*
X1861749Y294347D01*
X1863653Y296251D01*
X1866347Y296251D01*
X1868251Y294347D01*
X1868251Y291653D01*
X1866347Y289749D01*
X1863653Y289749D01*
G37*
%LPD*%
%LPC*%
G36*
X1342653Y286749D02*
X1342653Y286749D01*
X1340749Y288653D01*
X1340749Y291347D01*
X1342653Y293251D01*
X1345347Y293251D01*
X1347251Y291347D01*
X1347251Y288653D01*
X1345347Y286749D01*
X1342653Y286749D01*
G37*
%LPD*%
%LPC*%
G36*
X1847653Y283749D02*
X1847653Y283749D01*
X1845749Y285653D01*
X1845749Y288347D01*
X1847653Y290251D01*
X1850347Y290251D01*
X1852251Y288347D01*
X1852251Y285653D01*
X1850347Y283749D01*
X1847653Y283749D01*
G37*
%LPD*%
%LPC*%
G36*
X672653Y283749D02*
X672653Y283749D01*
X670749Y285653D01*
X670749Y288347D01*
X672653Y290251D01*
X675347Y290251D01*
X677251Y288347D01*
X677251Y285653D01*
X675347Y283749D01*
X672653Y283749D01*
G37*
%LPD*%
%LPC*%
G36*
X1857682Y283499D02*
X1857682Y283499D01*
X1855777Y285403D01*
X1855777Y288097D01*
X1857682Y290001D01*
X1860375Y290001D01*
X1862279Y288097D01*
X1862279Y285403D01*
X1860375Y283499D01*
X1857682Y283499D01*
G37*
%LPD*%
%LPC*%
G36*
X1642653Y282749D02*
X1642653Y282749D01*
X1640749Y284653D01*
X1640749Y287347D01*
X1642653Y289251D01*
X1645347Y289251D01*
X1647251Y287347D01*
X1647251Y284653D01*
X1645347Y282749D01*
X1642653Y282749D01*
G37*
%LPD*%
%LPC*%
G36*
X579653Y395749D02*
X579653Y395749D01*
X577749Y397653D01*
X577749Y400347D01*
X579653Y402251D01*
X582347Y402251D01*
X584251Y400347D01*
X584251Y397653D01*
X582347Y395749D01*
X579653Y395749D01*
G37*
%LPD*%
%LPC*%
G36*
X1099653Y279749D02*
X1099653Y279749D01*
X1097749Y281653D01*
X1097749Y284347D01*
X1099653Y286251D01*
X1102347Y286251D01*
X1104251Y284347D01*
X1104251Y281653D01*
X1102347Y279749D01*
X1099653Y279749D01*
G37*
%LPD*%
%LPC*%
G36*
X141653Y397749D02*
X141653Y397749D01*
X139749Y399653D01*
X139749Y402347D01*
X141653Y404251D01*
X144347Y404251D01*
X146251Y402347D01*
X146251Y399653D01*
X144347Y397749D01*
X141653Y397749D01*
G37*
%LPD*%
%LPC*%
G36*
X1866113Y380749D02*
X1866113Y380749D01*
X1864209Y382653D01*
X1864209Y385347D01*
X1866113Y387251D01*
X1868807Y387251D01*
X1870711Y385347D01*
X1870711Y382653D01*
X1868807Y380749D01*
X1866113Y380749D01*
G37*
%LPD*%
%LPC*%
G36*
X1708653Y277749D02*
X1708653Y277749D01*
X1706749Y279653D01*
X1706749Y282347D01*
X1708653Y284251D01*
X1711347Y284251D01*
X1713251Y282347D01*
X1713251Y279653D01*
X1711347Y277749D01*
X1708653Y277749D01*
G37*
%LPD*%
%LPC*%
G36*
X1848653Y273749D02*
X1848653Y273749D01*
X1846749Y275653D01*
X1846749Y278347D01*
X1848653Y280251D01*
X1851347Y280251D01*
X1853251Y278347D01*
X1853251Y275653D01*
X1851347Y273749D01*
X1848653Y273749D01*
G37*
%LPD*%
%LPC*%
G36*
X926653Y271749D02*
X926653Y271749D01*
X924749Y273653D01*
X924749Y276347D01*
X926653Y278251D01*
X929347Y278251D01*
X931251Y276347D01*
X931251Y273653D01*
X929347Y271749D01*
X926653Y271749D01*
G37*
%LPD*%
%LPC*%
G36*
X672653Y271749D02*
X672653Y271749D01*
X670749Y273653D01*
X670749Y276347D01*
X672653Y278251D01*
X675347Y278251D01*
X677251Y276347D01*
X677251Y273653D01*
X675347Y271749D01*
X672653Y271749D01*
G37*
%LPD*%
%LPC*%
G36*
X427653Y270749D02*
X427653Y270749D01*
X425749Y272653D01*
X425749Y275347D01*
X427653Y277251D01*
X430347Y277251D01*
X432251Y275347D01*
X432251Y272653D01*
X430347Y270749D01*
X427653Y270749D01*
G37*
%LPD*%
%LPC*%
G36*
X1390653Y267749D02*
X1390653Y267749D01*
X1388749Y269653D01*
X1388749Y272347D01*
X1390653Y274251D01*
X1393347Y274251D01*
X1395251Y272347D01*
X1395251Y269653D01*
X1393347Y267749D01*
X1390653Y267749D01*
G37*
%LPD*%
%LPC*%
G36*
X1690653Y266749D02*
X1690653Y266749D01*
X1688749Y268653D01*
X1688749Y271347D01*
X1690653Y273251D01*
X1693347Y273251D01*
X1695251Y271347D01*
X1695251Y268653D01*
X1693347Y266749D01*
X1690653Y266749D01*
G37*
%LPD*%
%LPC*%
G36*
X1545653Y266749D02*
X1545653Y266749D01*
X1543749Y268653D01*
X1543749Y271347D01*
X1545653Y273251D01*
X1548347Y273251D01*
X1550251Y271347D01*
X1550251Y268653D01*
X1548347Y266749D01*
X1545653Y266749D01*
G37*
%LPD*%
%LPC*%
G36*
X1708653Y264749D02*
X1708653Y264749D01*
X1706749Y266653D01*
X1706749Y269347D01*
X1708653Y271251D01*
X1711347Y271251D01*
X1713251Y269347D01*
X1713251Y266653D01*
X1711347Y264749D01*
X1708653Y264749D01*
G37*
%LPD*%
%LPC*%
G36*
X1445653Y263749D02*
X1445653Y263749D01*
X1443749Y265653D01*
X1443749Y268347D01*
X1445653Y270251D01*
X1448347Y270251D01*
X1450251Y268347D01*
X1450251Y265653D01*
X1448347Y263749D01*
X1445653Y263749D01*
G37*
%LPD*%
%LPC*%
G36*
X926653Y258749D02*
X926653Y258749D01*
X924749Y260653D01*
X924749Y263347D01*
X926653Y265251D01*
X929347Y265251D01*
X931251Y263347D01*
X931251Y260653D01*
X929347Y258749D01*
X926653Y258749D01*
G37*
%LPD*%
%LPC*%
G36*
X615653Y258749D02*
X615653Y258749D01*
X613749Y260653D01*
X613749Y263347D01*
X615653Y265251D01*
X618347Y265251D01*
X620251Y263347D01*
X620251Y260653D01*
X618347Y258749D01*
X615653Y258749D01*
G37*
%LPD*%
%LPC*%
G36*
X1915653Y256749D02*
X1915653Y256749D01*
X1913749Y258653D01*
X1913749Y261347D01*
X1915653Y263251D01*
X1918347Y263251D01*
X1920251Y261347D01*
X1920251Y258653D01*
X1918347Y256749D01*
X1915653Y256749D01*
G37*
%LPD*%
%LPC*%
G36*
X1540653Y255749D02*
X1540653Y255749D01*
X1538749Y257653D01*
X1538749Y260347D01*
X1540653Y262251D01*
X1543347Y262251D01*
X1545251Y260347D01*
X1545251Y257653D01*
X1543347Y255749D01*
X1540653Y255749D01*
G37*
%LPD*%
%LPC*%
G36*
X1679653Y254749D02*
X1679653Y254749D01*
X1677749Y256653D01*
X1677749Y259347D01*
X1679653Y261251D01*
X1682347Y261251D01*
X1684251Y259347D01*
X1684251Y256653D01*
X1682347Y254749D01*
X1679653Y254749D01*
G37*
%LPD*%
%LPC*%
G36*
X1848653Y248749D02*
X1848653Y248749D01*
X1846749Y250653D01*
X1846749Y253347D01*
X1848653Y255251D01*
X1851347Y255251D01*
X1853251Y253347D01*
X1853251Y250653D01*
X1851347Y248749D01*
X1848653Y248749D01*
G37*
%LPD*%
%LPC*%
G36*
X447653Y247749D02*
X447653Y247749D01*
X445749Y249653D01*
X445749Y252347D01*
X447653Y254251D01*
X450347Y254251D01*
X452251Y252347D01*
X452251Y249653D01*
X450347Y247749D01*
X447653Y247749D01*
G37*
%LPD*%
%LPC*%
G36*
X1088653Y239749D02*
X1088653Y239749D01*
X1086749Y241653D01*
X1086749Y244347D01*
X1088653Y246251D01*
X1091347Y246251D01*
X1093251Y244347D01*
X1093251Y241653D01*
X1091347Y239749D01*
X1088653Y239749D01*
G37*
%LPD*%
%LPC*%
G36*
X327653Y419749D02*
X327653Y419749D01*
X325749Y421653D01*
X325749Y424347D01*
X327653Y426251D01*
X330347Y426251D01*
X332251Y424347D01*
X332251Y421653D01*
X330347Y419749D01*
X327653Y419749D01*
G37*
%LPD*%
%LPC*%
G36*
X1416653Y595749D02*
X1416653Y595749D01*
X1414749Y597653D01*
X1414749Y600347D01*
X1416653Y602251D01*
X1419347Y602251D01*
X1421251Y600347D01*
X1421251Y597653D01*
X1419347Y595749D01*
X1416653Y595749D01*
G37*
%LPD*%
%LPC*%
G36*
X328653Y232749D02*
X328653Y232749D01*
X326749Y234653D01*
X326749Y237347D01*
X328653Y239251D01*
X331347Y239251D01*
X333251Y237347D01*
X333251Y234653D01*
X331347Y232749D01*
X328653Y232749D01*
G37*
%LPD*%
%LPC*%
G36*
X801653Y422749D02*
X801653Y422749D01*
X799749Y424653D01*
X799749Y427347D01*
X801653Y429251D01*
X804347Y429251D01*
X806251Y427347D01*
X806251Y424653D01*
X804347Y422749D01*
X801653Y422749D01*
G37*
%LPD*%
%LPC*%
G36*
X1653653Y425749D02*
X1653653Y425749D01*
X1651749Y427653D01*
X1651749Y430347D01*
X1653653Y432251D01*
X1656347Y432251D01*
X1658251Y430347D01*
X1658251Y427653D01*
X1656347Y425749D01*
X1653653Y425749D01*
G37*
%LPD*%
%LPC*%
G36*
X1790653Y229749D02*
X1790653Y229749D01*
X1788749Y231653D01*
X1788749Y234347D01*
X1790653Y236251D01*
X1793347Y236251D01*
X1795251Y234347D01*
X1795251Y231653D01*
X1793347Y229749D01*
X1790653Y229749D01*
G37*
%LPD*%
%LPC*%
G36*
X1775653Y229749D02*
X1775653Y229749D01*
X1773749Y231653D01*
X1773749Y234347D01*
X1775653Y236251D01*
X1778347Y236251D01*
X1780251Y234347D01*
X1780251Y231653D01*
X1778347Y229749D01*
X1775653Y229749D01*
G37*
%LPD*%
%LPC*%
G36*
X1082653Y224749D02*
X1082653Y224749D01*
X1080749Y226653D01*
X1080749Y229347D01*
X1082653Y231251D01*
X1085347Y231251D01*
X1087251Y229347D01*
X1087251Y226653D01*
X1085347Y224749D01*
X1082653Y224749D01*
G37*
%LPD*%
%LPC*%
G36*
X1349653Y427749D02*
X1349653Y427749D01*
X1347749Y429653D01*
X1347749Y432347D01*
X1349653Y434251D01*
X1352347Y434251D01*
X1354251Y432347D01*
X1354251Y429653D01*
X1352347Y427749D01*
X1349653Y427749D01*
G37*
%LPD*%
%LPC*%
G36*
X1370653Y222749D02*
X1370653Y222749D01*
X1368749Y224653D01*
X1368749Y227347D01*
X1370653Y229251D01*
X1373347Y229251D01*
X1375251Y227347D01*
X1375251Y224653D01*
X1373347Y222749D01*
X1370653Y222749D01*
G37*
%LPD*%
%LPC*%
G36*
X1875193Y380749D02*
X1875193Y380749D01*
X1873289Y382653D01*
X1873289Y385347D01*
X1875193Y387251D01*
X1877887Y387251D01*
X1879791Y385347D01*
X1879791Y382653D01*
X1877887Y380749D01*
X1875193Y380749D01*
G37*
%LPD*%
%LPC*%
G36*
X1414653Y431749D02*
X1414653Y431749D01*
X1412749Y433653D01*
X1412749Y436347D01*
X1414653Y438251D01*
X1417347Y438251D01*
X1419251Y436347D01*
X1419251Y433653D01*
X1417347Y431749D01*
X1414653Y431749D01*
G37*
%LPD*%
%LPC*%
G36*
X1525653Y219749D02*
X1525653Y219749D01*
X1523749Y221653D01*
X1523749Y224347D01*
X1525653Y226251D01*
X1528347Y226251D01*
X1530251Y224347D01*
X1530251Y221653D01*
X1528347Y219749D01*
X1525653Y219749D01*
G37*
%LPD*%
%LPC*%
G36*
X373653Y217749D02*
X373653Y217749D01*
X371749Y219653D01*
X371749Y222347D01*
X373653Y224251D01*
X376347Y224251D01*
X378251Y222347D01*
X378251Y219653D01*
X376347Y217749D01*
X373653Y217749D01*
G37*
%LPD*%
%LPC*%
G36*
X1950653Y216749D02*
X1950653Y216749D01*
X1948749Y218653D01*
X1948749Y221347D01*
X1950653Y223251D01*
X1953347Y223251D01*
X1955251Y221347D01*
X1955251Y218653D01*
X1953347Y216749D01*
X1950653Y216749D01*
G37*
%LPD*%
%LPC*%
G36*
X1531653Y213749D02*
X1531653Y213749D01*
X1529749Y215653D01*
X1529749Y218347D01*
X1531653Y220251D01*
X1534347Y220251D01*
X1536251Y218347D01*
X1536251Y215653D01*
X1534347Y213749D01*
X1531653Y213749D01*
G37*
%LPD*%
%LPC*%
G36*
X20653Y212749D02*
X20653Y212749D01*
X18749Y214653D01*
X18749Y217347D01*
X20653Y219251D01*
X23347Y219251D01*
X25251Y217347D01*
X25251Y214653D01*
X23347Y212749D01*
X20653Y212749D01*
G37*
%LPD*%
%LPC*%
G36*
X1760653Y207749D02*
X1760653Y207749D01*
X1758749Y209653D01*
X1758749Y212347D01*
X1760653Y214251D01*
X1763347Y214251D01*
X1765251Y212347D01*
X1765251Y209653D01*
X1763347Y207749D01*
X1760653Y207749D01*
G37*
%LPD*%
%LPC*%
G36*
X1735133Y434269D02*
X1735133Y434269D01*
X1733229Y436173D01*
X1733229Y438867D01*
X1735133Y440771D01*
X1737827Y440771D01*
X1739731Y438867D01*
X1739731Y436173D01*
X1737827Y434269D01*
X1735133Y434269D01*
G37*
%LPD*%
%LPC*%
G36*
X1090653Y436749D02*
X1090653Y436749D01*
X1088749Y438653D01*
X1088749Y441347D01*
X1090653Y443251D01*
X1093347Y443251D01*
X1095251Y441347D01*
X1095251Y438653D01*
X1093347Y436749D01*
X1090653Y436749D01*
G37*
%LPD*%
%LPC*%
G36*
X1915653Y200749D02*
X1915653Y200749D01*
X1913749Y202653D01*
X1913749Y205347D01*
X1915653Y207251D01*
X1918347Y207251D01*
X1920251Y205347D01*
X1920251Y202653D01*
X1918347Y200749D01*
X1915653Y200749D01*
G37*
%LPD*%
%LPC*%
G36*
X676653Y440749D02*
X676653Y440749D01*
X674749Y442653D01*
X674749Y445347D01*
X676653Y447251D01*
X679347Y447251D01*
X681251Y445347D01*
X681251Y442653D01*
X679347Y440749D01*
X676653Y440749D01*
G37*
%LPD*%
%LPC*%
G36*
X371653Y450749D02*
X371653Y450749D01*
X369749Y452653D01*
X369749Y455347D01*
X371653Y457251D01*
X374347Y457251D01*
X376251Y455347D01*
X376251Y452653D01*
X374347Y450749D01*
X371653Y450749D01*
G37*
%LPD*%
%LPC*%
G36*
X747653Y459749D02*
X747653Y459749D01*
X745749Y461653D01*
X745749Y464347D01*
X747653Y466251D01*
X750347Y466251D01*
X752251Y464347D01*
X752251Y461653D01*
X750347Y459749D01*
X747653Y459749D01*
G37*
%LPD*%
%LPC*%
G36*
X1432653Y600749D02*
X1432653Y600749D01*
X1430749Y602653D01*
X1430749Y605347D01*
X1432653Y607251D01*
X1435347Y607251D01*
X1437251Y605347D01*
X1437251Y602653D01*
X1435347Y600749D01*
X1432653Y600749D01*
G37*
%LPD*%
%LPC*%
G36*
X1421653Y459749D02*
X1421653Y459749D01*
X1419749Y461653D01*
X1419749Y464347D01*
X1421653Y466251D01*
X1424347Y466251D01*
X1426251Y464347D01*
X1426251Y461653D01*
X1424347Y459749D01*
X1421653Y459749D01*
G37*
%LPD*%
%LPC*%
G36*
X492653Y460749D02*
X492653Y460749D01*
X490749Y462653D01*
X490749Y465347D01*
X492653Y467251D01*
X495347Y467251D01*
X497251Y465347D01*
X497251Y462653D01*
X495347Y460749D01*
X492653Y460749D01*
G37*
%LPD*%
%LPC*%
G36*
X1701285Y462674D02*
X1701285Y462674D01*
X1699381Y464578D01*
X1699381Y467271D01*
X1701285Y469175D01*
X1703978Y469175D01*
X1705882Y467271D01*
X1705882Y464578D01*
X1703978Y462674D01*
X1701285Y462674D01*
G37*
%LPD*%
%LPC*%
G36*
X1421653Y468749D02*
X1421653Y468749D01*
X1419749Y470653D01*
X1419749Y473347D01*
X1421653Y475251D01*
X1424347Y475251D01*
X1426251Y473347D01*
X1426251Y470653D01*
X1424347Y468749D01*
X1421653Y468749D01*
G37*
%LPD*%
%LPC*%
G36*
X1341653Y382749D02*
X1341653Y382749D01*
X1339749Y384653D01*
X1339749Y387347D01*
X1341653Y389251D01*
X1344347Y389251D01*
X1346251Y387347D01*
X1346251Y384653D01*
X1344347Y382749D01*
X1341653Y382749D01*
G37*
%LPD*%
%LPC*%
G36*
X724653Y384749D02*
X724653Y384749D01*
X722749Y386653D01*
X722749Y389347D01*
X724653Y391251D01*
X727347Y391251D01*
X729251Y389347D01*
X729251Y386653D01*
X727347Y384749D01*
X724653Y384749D01*
G37*
%LPD*%
%LPC*%
G36*
X1100653Y194749D02*
X1100653Y194749D01*
X1098749Y196653D01*
X1098749Y199347D01*
X1100653Y201251D01*
X1103347Y201251D01*
X1105251Y199347D01*
X1105251Y196653D01*
X1103347Y194749D01*
X1100653Y194749D01*
G37*
%LPD*%
%LPC*%
G36*
X869653Y194749D02*
X869653Y194749D01*
X867749Y196653D01*
X867749Y199347D01*
X869653Y201251D01*
X872347Y201251D01*
X874251Y199347D01*
X874251Y196653D01*
X872347Y194749D01*
X869653Y194749D01*
G37*
%LPD*%
%LPC*%
G36*
X614653Y193749D02*
X614653Y193749D01*
X612749Y195653D01*
X612749Y198347D01*
X614653Y200251D01*
X617347Y200251D01*
X619251Y198347D01*
X619251Y195653D01*
X617347Y193749D01*
X614653Y193749D01*
G37*
%LPD*%
%LPC*%
G36*
X1908653Y191749D02*
X1908653Y191749D01*
X1906749Y193653D01*
X1906749Y196347D01*
X1908653Y198251D01*
X1911347Y198251D01*
X1913251Y196347D01*
X1913251Y193653D01*
X1911347Y191749D01*
X1908653Y191749D01*
G37*
%LPD*%
%LPC*%
G36*
X1024653Y190749D02*
X1024653Y190749D01*
X1022749Y192653D01*
X1022749Y195347D01*
X1024653Y197251D01*
X1027347Y197251D01*
X1029251Y195347D01*
X1029251Y192653D01*
X1027347Y190749D01*
X1024653Y190749D01*
G37*
%LPD*%
%LPC*%
G36*
X600653Y190249D02*
X600653Y190249D01*
X598749Y192153D01*
X598749Y194847D01*
X600653Y196751D01*
X603347Y196751D01*
X605251Y194847D01*
X605251Y192153D01*
X603347Y190249D01*
X600653Y190249D01*
G37*
%LPD*%
%LPC*%
G36*
X1691653Y470749D02*
X1691653Y470749D01*
X1689749Y472653D01*
X1689749Y475347D01*
X1691653Y477251D01*
X1694347Y477251D01*
X1696251Y475347D01*
X1696251Y472653D01*
X1694347Y470749D01*
X1691653Y470749D01*
G37*
%LPD*%
%LPC*%
G36*
X1749653Y185749D02*
X1749653Y185749D01*
X1747749Y187653D01*
X1747749Y190347D01*
X1749653Y192251D01*
X1752347Y192251D01*
X1754251Y190347D01*
X1754251Y187653D01*
X1752347Y185749D01*
X1749653Y185749D01*
G37*
%LPD*%
%LPC*%
G36*
X1047653Y175749D02*
X1047653Y175749D01*
X1045749Y177653D01*
X1045749Y180347D01*
X1047653Y182251D01*
X1050347Y182251D01*
X1052251Y180347D01*
X1052251Y177653D01*
X1050347Y175749D01*
X1047653Y175749D01*
G37*
%LPD*%
%LPC*%
G36*
X750653Y172749D02*
X750653Y172749D01*
X748749Y174653D01*
X748749Y177347D01*
X750653Y179251D01*
X753347Y179251D01*
X755251Y177347D01*
X755251Y174653D01*
X753347Y172749D01*
X750653Y172749D01*
G37*
%LPD*%
%LPC*%
G36*
X1701653Y170749D02*
X1701653Y170749D01*
X1699749Y172653D01*
X1699749Y175347D01*
X1701653Y177251D01*
X1704347Y177251D01*
X1706251Y175347D01*
X1706251Y172653D01*
X1704347Y170749D01*
X1701653Y170749D01*
G37*
%LPD*%
%LPC*%
G36*
X669653Y168749D02*
X669653Y168749D01*
X667749Y170653D01*
X667749Y173347D01*
X669653Y175251D01*
X672347Y175251D01*
X674251Y173347D01*
X674251Y170653D01*
X672347Y168749D01*
X669653Y168749D01*
G37*
%LPD*%
%LPC*%
G36*
X1835653Y159749D02*
X1835653Y159749D01*
X1833749Y161653D01*
X1833749Y164347D01*
X1835653Y166251D01*
X1838347Y166251D01*
X1840251Y164347D01*
X1840251Y161653D01*
X1838347Y159749D01*
X1835653Y159749D01*
G37*
%LPD*%
%LPC*%
G36*
X1761653Y158749D02*
X1761653Y158749D01*
X1759749Y160653D01*
X1759749Y163347D01*
X1761653Y165251D01*
X1764347Y165251D01*
X1766251Y163347D01*
X1766251Y160653D01*
X1764347Y158749D01*
X1761653Y158749D01*
G37*
%LPD*%
%LPC*%
G36*
X1095653Y158749D02*
X1095653Y158749D01*
X1093749Y160653D01*
X1093749Y163347D01*
X1095653Y165251D01*
X1098347Y165251D01*
X1100251Y163347D01*
X1100251Y160653D01*
X1098347Y158749D01*
X1095653Y158749D01*
G37*
%LPD*%
%LPC*%
G36*
X1378653Y157749D02*
X1378653Y157749D01*
X1376749Y159653D01*
X1376749Y162347D01*
X1378653Y164251D01*
X1381347Y164251D01*
X1383251Y162347D01*
X1383251Y159653D01*
X1381347Y157749D01*
X1378653Y157749D01*
G37*
%LPD*%
%LPC*%
G36*
X1326653Y157749D02*
X1326653Y157749D01*
X1324749Y159653D01*
X1324749Y162347D01*
X1326653Y164251D01*
X1329347Y164251D01*
X1331251Y162347D01*
X1331251Y159653D01*
X1329347Y157749D01*
X1326653Y157749D01*
G37*
%LPD*%
%LPC*%
G36*
X735653Y155749D02*
X735653Y155749D01*
X733749Y157653D01*
X733749Y160347D01*
X735653Y162251D01*
X738347Y162251D01*
X740251Y160347D01*
X740251Y157653D01*
X738347Y155749D01*
X735653Y155749D01*
G37*
%LPD*%
%LPC*%
G36*
X447653Y155749D02*
X447653Y155749D01*
X445749Y157653D01*
X445749Y160347D01*
X447653Y162251D01*
X450347Y162251D01*
X452251Y160347D01*
X452251Y157653D01*
X450347Y155749D01*
X447653Y155749D01*
G37*
%LPD*%
%LPC*%
G36*
X1132653Y153749D02*
X1132653Y153749D01*
X1130749Y155653D01*
X1130749Y158347D01*
X1132653Y160251D01*
X1135347Y160251D01*
X1137251Y158347D01*
X1137251Y155653D01*
X1135347Y153749D01*
X1132653Y153749D01*
G37*
%LPD*%
%LPC*%
G36*
X110653Y148749D02*
X110653Y148749D01*
X108749Y150653D01*
X108749Y153347D01*
X110653Y155251D01*
X113347Y155251D01*
X115251Y153347D01*
X115251Y150653D01*
X113347Y148749D01*
X110653Y148749D01*
G37*
%LPD*%
%LPC*%
G36*
X230653Y147749D02*
X230653Y147749D01*
X228749Y149653D01*
X228749Y152347D01*
X230653Y154251D01*
X233347Y154251D01*
X235251Y152347D01*
X235251Y149653D01*
X233347Y147749D01*
X230653Y147749D01*
G37*
%LPD*%
%LPC*%
G36*
X840653Y145749D02*
X840653Y145749D01*
X838749Y147653D01*
X838749Y150347D01*
X840653Y152251D01*
X843347Y152251D01*
X845251Y150347D01*
X845251Y147653D01*
X843347Y145749D01*
X840653Y145749D01*
G37*
%LPD*%
%LPC*%
G36*
X412653Y142749D02*
X412653Y142749D01*
X410749Y144653D01*
X410749Y147347D01*
X412653Y149251D01*
X415347Y149251D01*
X417251Y147347D01*
X417251Y144653D01*
X415347Y142749D01*
X412653Y142749D01*
G37*
%LPD*%
%LPC*%
G36*
X724653Y140749D02*
X724653Y140749D01*
X722749Y142653D01*
X722749Y145347D01*
X724653Y147251D01*
X727347Y147251D01*
X729251Y145347D01*
X729251Y142653D01*
X727347Y140749D01*
X724653Y140749D01*
G37*
%LPD*%
%LPC*%
G36*
X1724653Y139749D02*
X1724653Y139749D01*
X1722749Y141653D01*
X1722749Y144347D01*
X1724653Y146251D01*
X1727347Y146251D01*
X1729251Y144347D01*
X1729251Y141653D01*
X1727347Y139749D01*
X1724653Y139749D01*
G37*
%LPD*%
%LPC*%
G36*
X67653Y138749D02*
X67653Y138749D01*
X65749Y140653D01*
X65749Y143347D01*
X67653Y145251D01*
X70347Y145251D01*
X72251Y143347D01*
X72251Y140653D01*
X70347Y138749D01*
X67653Y138749D01*
G37*
%LPD*%
%LPC*%
G36*
X906653Y137749D02*
X906653Y137749D01*
X904749Y139653D01*
X904749Y142347D01*
X906653Y144251D01*
X909347Y144251D01*
X911251Y142347D01*
X911251Y139653D01*
X909347Y137749D01*
X906653Y137749D01*
G37*
%LPD*%
%LPC*%
G36*
X356653Y136749D02*
X356653Y136749D01*
X354749Y138653D01*
X354749Y141347D01*
X356653Y143251D01*
X359347Y143251D01*
X361251Y141347D01*
X361251Y138653D01*
X359347Y136749D01*
X356653Y136749D01*
G37*
%LPD*%
%LPC*%
G36*
X653653Y135749D02*
X653653Y135749D01*
X651749Y137653D01*
X651749Y140347D01*
X653653Y142251D01*
X656347Y142251D01*
X658251Y140347D01*
X658251Y137653D01*
X656347Y135749D01*
X653653Y135749D01*
G37*
%LPD*%
%LPC*%
G36*
X977653Y385749D02*
X977653Y385749D01*
X975749Y387653D01*
X975749Y390347D01*
X977653Y392251D01*
X980347Y392251D01*
X982251Y390347D01*
X982251Y387653D01*
X980347Y385749D01*
X977653Y385749D01*
G37*
%LPD*%
%LPC*%
G36*
X1126653Y126749D02*
X1126653Y126749D01*
X1124749Y128653D01*
X1124749Y131347D01*
X1126653Y133251D01*
X1129347Y133251D01*
X1131251Y131347D01*
X1131251Y128653D01*
X1129347Y126749D01*
X1126653Y126749D01*
G37*
%LPD*%
%LPC*%
G36*
X1112653Y125749D02*
X1112653Y125749D01*
X1110749Y127653D01*
X1110749Y130347D01*
X1112653Y132251D01*
X1115347Y132251D01*
X1117251Y130347D01*
X1117251Y127653D01*
X1115347Y125749D01*
X1112653Y125749D01*
G37*
%LPD*%
%LPC*%
G36*
X1090653Y121749D02*
X1090653Y121749D01*
X1088749Y123653D01*
X1088749Y126347D01*
X1090653Y128251D01*
X1093347Y128251D01*
X1095251Y126347D01*
X1095251Y123653D01*
X1093347Y121749D01*
X1090653Y121749D01*
G37*
%LPD*%
%LPC*%
G36*
X188653Y121749D02*
X188653Y121749D01*
X186749Y123653D01*
X186749Y126347D01*
X188653Y128251D01*
X191347Y128251D01*
X193251Y126347D01*
X193251Y123653D01*
X191347Y121749D01*
X188653Y121749D01*
G37*
%LPD*%
%LPC*%
G36*
X67653Y121749D02*
X67653Y121749D01*
X65749Y123653D01*
X65749Y126347D01*
X67653Y128251D01*
X70347Y128251D01*
X72251Y126347D01*
X72251Y123653D01*
X70347Y121749D01*
X67653Y121749D01*
G37*
%LPD*%
%LPC*%
G36*
X448653Y120749D02*
X448653Y120749D01*
X446749Y122653D01*
X446749Y125347D01*
X448653Y127251D01*
X451347Y127251D01*
X453251Y125347D01*
X453251Y122653D01*
X451347Y120749D01*
X448653Y120749D01*
G37*
%LPD*%
%LPC*%
G36*
X428653Y119749D02*
X428653Y119749D01*
X426749Y121653D01*
X426749Y124347D01*
X428653Y126251D01*
X431347Y126251D01*
X433251Y124347D01*
X433251Y121653D01*
X431347Y119749D01*
X428653Y119749D01*
G37*
%LPD*%
%LPC*%
G36*
X1010653Y118749D02*
X1010653Y118749D01*
X1008749Y120653D01*
X1008749Y123347D01*
X1010653Y125251D01*
X1013347Y125251D01*
X1015251Y123347D01*
X1015251Y120653D01*
X1013347Y118749D01*
X1010653Y118749D01*
G37*
%LPD*%
%LPC*%
G36*
X1924653Y115749D02*
X1924653Y115749D01*
X1922749Y117653D01*
X1922749Y120347D01*
X1924653Y122251D01*
X1927347Y122251D01*
X1929251Y120347D01*
X1929251Y117653D01*
X1927347Y115749D01*
X1924653Y115749D01*
G37*
%LPD*%
%LPC*%
G36*
X628653Y388749D02*
X628653Y388749D01*
X626749Y390653D01*
X626749Y393347D01*
X628653Y395251D01*
X631347Y395251D01*
X633251Y393347D01*
X633251Y390653D01*
X631347Y388749D01*
X628653Y388749D01*
G37*
%LPD*%
%LPC*%
G36*
X386653Y396749D02*
X386653Y396749D01*
X384749Y398653D01*
X384749Y401347D01*
X386653Y403251D01*
X389347Y403251D01*
X391251Y401347D01*
X391251Y398653D01*
X389347Y396749D01*
X386653Y396749D01*
G37*
%LPD*%
%LPC*%
G36*
X307653Y110749D02*
X307653Y110749D01*
X305749Y112653D01*
X305749Y115347D01*
X307653Y117251D01*
X310347Y117251D01*
X312251Y115347D01*
X312251Y112653D01*
X310347Y110749D01*
X307653Y110749D01*
G37*
%LPD*%
%LPC*%
G36*
X755653Y109749D02*
X755653Y109749D01*
X753749Y111653D01*
X753749Y114347D01*
X755653Y116251D01*
X758347Y116251D01*
X760251Y114347D01*
X760251Y111653D01*
X758347Y109749D01*
X755653Y109749D01*
G37*
%LPD*%
%LPC*%
G36*
X526653Y108899D02*
X526653Y108899D01*
X524749Y110803D01*
X524749Y113497D01*
X526653Y115401D01*
X529347Y115401D01*
X531251Y113497D01*
X531251Y110803D01*
X529347Y108899D01*
X526653Y108899D01*
G37*
%LPD*%
%LPC*%
G36*
X1603653Y107749D02*
X1603653Y107749D01*
X1601749Y109653D01*
X1601749Y112347D01*
X1603653Y114251D01*
X1606347Y114251D01*
X1608251Y112347D01*
X1608251Y109653D01*
X1606347Y107749D01*
X1603653Y107749D01*
G37*
%LPD*%
%LPC*%
G36*
X1582653Y106749D02*
X1582653Y106749D01*
X1580749Y108653D01*
X1580749Y111347D01*
X1582653Y113251D01*
X1585347Y113251D01*
X1587251Y111347D01*
X1587251Y108653D01*
X1585347Y106749D01*
X1582653Y106749D01*
G37*
%LPD*%
%LPC*%
G36*
X1403653Y106749D02*
X1403653Y106749D01*
X1401749Y108653D01*
X1401749Y111347D01*
X1403653Y113251D01*
X1406347Y113251D01*
X1408251Y111347D01*
X1408251Y108653D01*
X1406347Y106749D01*
X1403653Y106749D01*
G37*
%LPD*%
%LPC*%
G36*
X371653Y472749D02*
X371653Y472749D01*
X369749Y474653D01*
X369749Y477347D01*
X371653Y479251D01*
X374347Y479251D01*
X376251Y477347D01*
X376251Y474653D01*
X374347Y472749D01*
X371653Y472749D01*
G37*
%LPD*%
%LPC*%
G36*
X17653Y389749D02*
X17653Y389749D01*
X15749Y391653D01*
X15749Y394347D01*
X17653Y396251D01*
X20347Y396251D01*
X22251Y394347D01*
X22251Y391653D01*
X20347Y389749D01*
X17653Y389749D01*
G37*
%LPD*%
%LPC*%
G36*
X17653Y476749D02*
X17653Y476749D01*
X15749Y478653D01*
X15749Y481347D01*
X17653Y483251D01*
X20347Y483251D01*
X22251Y481347D01*
X22251Y478653D01*
X20347Y476749D01*
X17653Y476749D01*
G37*
%LPD*%
%LPC*%
G36*
X437653Y103289D02*
X437653Y103289D01*
X435749Y105193D01*
X435749Y107887D01*
X437653Y109791D01*
X440347Y109791D01*
X442251Y107887D01*
X442251Y105193D01*
X440347Y103289D01*
X437653Y103289D01*
G37*
%LPD*%
%LPC*%
G36*
X883653Y390749D02*
X883653Y390749D01*
X881749Y392653D01*
X881749Y395347D01*
X883653Y397251D01*
X886347Y397251D01*
X888251Y395347D01*
X888251Y392653D01*
X886347Y390749D01*
X883653Y390749D01*
G37*
%LPD*%
%LPC*%
G36*
X869653Y97749D02*
X869653Y97749D01*
X867749Y99653D01*
X867749Y102347D01*
X869653Y104251D01*
X872347Y104251D01*
X874251Y102347D01*
X874251Y99653D01*
X872347Y97749D01*
X869653Y97749D01*
G37*
%LPD*%
%LPC*%
G36*
X221653Y476749D02*
X221653Y476749D01*
X219749Y478653D01*
X219749Y481347D01*
X221653Y483251D01*
X224347Y483251D01*
X226251Y481347D01*
X226251Y478653D01*
X224347Y476749D01*
X221653Y476749D01*
G37*
%LPD*%
%LPC*%
G36*
X1401653Y607749D02*
X1401653Y607749D01*
X1399749Y609653D01*
X1399749Y612347D01*
X1401653Y614251D01*
X1404347Y614251D01*
X1406251Y612347D01*
X1406251Y609653D01*
X1404347Y607749D01*
X1401653Y607749D01*
G37*
%LPD*%
%LPC*%
G36*
X269653Y480749D02*
X269653Y480749D01*
X267749Y482653D01*
X267749Y485347D01*
X269653Y487251D01*
X272347Y487251D01*
X274251Y485347D01*
X274251Y482653D01*
X272347Y480749D01*
X269653Y480749D01*
G37*
%LPD*%
%LPC*%
G36*
X465653Y480749D02*
X465653Y480749D01*
X463749Y482653D01*
X463749Y485347D01*
X465653Y487251D01*
X468347Y487251D01*
X470251Y485347D01*
X470251Y482653D01*
X468347Y480749D01*
X465653Y480749D01*
G37*
%LPD*%
%LPC*%
G36*
X243653Y485749D02*
X243653Y485749D01*
X241749Y487653D01*
X241749Y490347D01*
X243653Y492251D01*
X246347Y492251D01*
X248251Y490347D01*
X248251Y487653D01*
X246347Y485749D01*
X243653Y485749D01*
G37*
%LPD*%
%LPC*%
G36*
X161653Y486749D02*
X161653Y486749D01*
X159749Y488653D01*
X159749Y491347D01*
X161653Y493251D01*
X164347Y493251D01*
X166251Y491347D01*
X166251Y488653D01*
X164347Y486749D01*
X161653Y486749D01*
G37*
%LPD*%
%LPC*%
G36*
X1656653Y93749D02*
X1656653Y93749D01*
X1654749Y95653D01*
X1654749Y98347D01*
X1656653Y100251D01*
X1659347Y100251D01*
X1661251Y98347D01*
X1661251Y95653D01*
X1659347Y93749D01*
X1656653Y93749D01*
G37*
%LPD*%
%LPC*%
G36*
X1388653Y507749D02*
X1388653Y507749D01*
X1386749Y509653D01*
X1386749Y512347D01*
X1388653Y514251D01*
X1391347Y514251D01*
X1393251Y512347D01*
X1393251Y509653D01*
X1391347Y507749D01*
X1388653Y507749D01*
G37*
%LPD*%
%LPC*%
G36*
X1363653Y89749D02*
X1363653Y89749D01*
X1361749Y91653D01*
X1361749Y94347D01*
X1363653Y96251D01*
X1366347Y96251D01*
X1368251Y94347D01*
X1368251Y91653D01*
X1366347Y89749D01*
X1363653Y89749D01*
G37*
%LPD*%
%LPC*%
G36*
X1648653Y85749D02*
X1648653Y85749D01*
X1646749Y87653D01*
X1646749Y90347D01*
X1648653Y92251D01*
X1651347Y92251D01*
X1653251Y90347D01*
X1653251Y87653D01*
X1651347Y85749D01*
X1648653Y85749D01*
G37*
%LPD*%
%LPC*%
G36*
X976653Y85749D02*
X976653Y85749D01*
X974749Y87653D01*
X974749Y90347D01*
X976653Y92251D01*
X979347Y92251D01*
X981251Y90347D01*
X981251Y87653D01*
X979347Y85749D01*
X976653Y85749D01*
G37*
%LPD*%
%LPC*%
G36*
X1622653Y81749D02*
X1622653Y81749D01*
X1620749Y83653D01*
X1620749Y86347D01*
X1622653Y88251D01*
X1625347Y88251D01*
X1627251Y86347D01*
X1627251Y83653D01*
X1625347Y81749D01*
X1622653Y81749D01*
G37*
%LPD*%
%LPC*%
G36*
X396653Y79749D02*
X396653Y79749D01*
X394749Y81653D01*
X394749Y84347D01*
X396653Y86251D01*
X399347Y86251D01*
X401251Y84347D01*
X401251Y81653D01*
X399347Y79749D01*
X396653Y79749D01*
G37*
%LPD*%
%LPC*%
G36*
X1389653Y78749D02*
X1389653Y78749D01*
X1387749Y80653D01*
X1387749Y83347D01*
X1389653Y85251D01*
X1392347Y85251D01*
X1394251Y83347D01*
X1394251Y80653D01*
X1392347Y78749D01*
X1389653Y78749D01*
G37*
%LPD*%
%LPC*%
G36*
X1379653Y77749D02*
X1379653Y77749D01*
X1377749Y79653D01*
X1377749Y82347D01*
X1379653Y84251D01*
X1382347Y84251D01*
X1384251Y82347D01*
X1384251Y79653D01*
X1382347Y77749D01*
X1379653Y77749D01*
G37*
%LPD*%
%LPC*%
G36*
X1416603Y633799D02*
X1416603Y633799D01*
X1414699Y635703D01*
X1414699Y638397D01*
X1416603Y640301D01*
X1419297Y640301D01*
X1421201Y638397D01*
X1421201Y635703D01*
X1419297Y633799D01*
X1416603Y633799D01*
G37*
%LPD*%
%LPC*%
G36*
X1521653Y636749D02*
X1521653Y636749D01*
X1519749Y638653D01*
X1519749Y641347D01*
X1521653Y643251D01*
X1524347Y643251D01*
X1526251Y641347D01*
X1526251Y638653D01*
X1524347Y636749D01*
X1521653Y636749D01*
G37*
%LPD*%
%LPC*%
G36*
X1843653Y511749D02*
X1843653Y511749D01*
X1841749Y513653D01*
X1841749Y516347D01*
X1843653Y518251D01*
X1846347Y518251D01*
X1848251Y516347D01*
X1848251Y513653D01*
X1846347Y511749D01*
X1843653Y511749D01*
G37*
%LPD*%
%LPC*%
G36*
X1162653Y514749D02*
X1162653Y514749D01*
X1160749Y516653D01*
X1160749Y519347D01*
X1162653Y521251D01*
X1165347Y521251D01*
X1167251Y519347D01*
X1167251Y516653D01*
X1165347Y514749D01*
X1162653Y514749D01*
G37*
%LPD*%
%LPC*%
G36*
X1519653Y659749D02*
X1519653Y659749D01*
X1517749Y661653D01*
X1517749Y664347D01*
X1519653Y666251D01*
X1522347Y666251D01*
X1524251Y664347D01*
X1524251Y661653D01*
X1522347Y659749D01*
X1519653Y659749D01*
G37*
%LPD*%
%LPC*%
G36*
X1550653Y279749D02*
X1550653Y279749D01*
X1548749Y281653D01*
X1548749Y284347D01*
X1550653Y286251D01*
X1553347Y286251D01*
X1555251Y284347D01*
X1555251Y281653D01*
X1553347Y279749D01*
X1550653Y279749D01*
G37*
%LPD*%
%LPC*%
G36*
X1666653Y25749D02*
X1666653Y25749D01*
X1664749Y27653D01*
X1664749Y30347D01*
X1666653Y32251D01*
X1669347Y32251D01*
X1671251Y30347D01*
X1671251Y27653D01*
X1669347Y25749D01*
X1666653Y25749D01*
G37*
%LPD*%
%LPC*%
G36*
X692653Y68749D02*
X692653Y68749D01*
X690749Y70653D01*
X690749Y73347D01*
X692653Y75251D01*
X695347Y75251D01*
X697251Y73347D01*
X697251Y70653D01*
X695347Y68749D01*
X692653Y68749D01*
G37*
%LPD*%
%LPC*%
G36*
X1419653Y64749D02*
X1419653Y64749D01*
X1417749Y66653D01*
X1417749Y69347D01*
X1419653Y71251D01*
X1422347Y71251D01*
X1424251Y69347D01*
X1424251Y66653D01*
X1422347Y64749D01*
X1419653Y64749D01*
G37*
%LPD*%
%LPC*%
G36*
X1476653Y582749D02*
X1476653Y582749D01*
X1474749Y584653D01*
X1474749Y587347D01*
X1476653Y589251D01*
X1479347Y589251D01*
X1481251Y587347D01*
X1481251Y584653D01*
X1479347Y582749D01*
X1476653Y582749D01*
G37*
%LPD*%
%LPC*%
G36*
X1653653Y533749D02*
X1653653Y533749D01*
X1651749Y535653D01*
X1651749Y538347D01*
X1653653Y540251D01*
X1656347Y540251D01*
X1658251Y538347D01*
X1658251Y535653D01*
X1656347Y533749D01*
X1653653Y533749D01*
G37*
%LPD*%
%LPC*%
G36*
X1995653Y534749D02*
X1995653Y534749D01*
X1993749Y536653D01*
X1993749Y539347D01*
X1995653Y541251D01*
X1998347Y541251D01*
X2000251Y539347D01*
X2000251Y536653D01*
X1998347Y534749D01*
X1995653Y534749D01*
G37*
%LPD*%
%LPC*%
G36*
X869653Y60749D02*
X869653Y60749D01*
X867749Y62653D01*
X867749Y65347D01*
X869653Y67251D01*
X872347Y67251D01*
X874251Y65347D01*
X874251Y62653D01*
X872347Y60749D01*
X869653Y60749D01*
G37*
%LPD*%
%LPC*%
G36*
X1019653Y391749D02*
X1019653Y391749D01*
X1017749Y393653D01*
X1017749Y396347D01*
X1019653Y398251D01*
X1022347Y398251D01*
X1024251Y396347D01*
X1024251Y393653D01*
X1022347Y391749D01*
X1019653Y391749D01*
G37*
%LPD*%
%LPC*%
G36*
X1235653Y538749D02*
X1235653Y538749D01*
X1233749Y540653D01*
X1233749Y543347D01*
X1235653Y545251D01*
X1238347Y545251D01*
X1240251Y543347D01*
X1240251Y540653D01*
X1238347Y538749D01*
X1235653Y538749D01*
G37*
%LPD*%
%LPC*%
G36*
X1644153Y546749D02*
X1644153Y546749D01*
X1642249Y548653D01*
X1642249Y551347D01*
X1644153Y553251D01*
X1646847Y553251D01*
X1648751Y551347D01*
X1648751Y548653D01*
X1646847Y546749D01*
X1644153Y546749D01*
G37*
%LPD*%
%LPC*%
G36*
X1424653Y50749D02*
X1424653Y50749D01*
X1422749Y52653D01*
X1422749Y55347D01*
X1424653Y57251D01*
X1427347Y57251D01*
X1429251Y55347D01*
X1429251Y52653D01*
X1427347Y50749D01*
X1424653Y50749D01*
G37*
%LPD*%
%LPC*%
G36*
X1567653Y395749D02*
X1567653Y395749D01*
X1565749Y397653D01*
X1565749Y400347D01*
X1567653Y402251D01*
X1570347Y402251D01*
X1572251Y400347D01*
X1572251Y397653D01*
X1570347Y395749D01*
X1567653Y395749D01*
G37*
%LPD*%
%LPC*%
G36*
X1675653Y25749D02*
X1675653Y25749D01*
X1673749Y27653D01*
X1673749Y30347D01*
X1675653Y32251D01*
X1678347Y32251D01*
X1680251Y30347D01*
X1680251Y27653D01*
X1678347Y25749D01*
X1675653Y25749D01*
G37*
%LPD*%
%LPC*%
G36*
X1408653Y39749D02*
X1408653Y39749D01*
X1406749Y41653D01*
X1406749Y44347D01*
X1408653Y46251D01*
X1411347Y46251D01*
X1413251Y44347D01*
X1413251Y41653D01*
X1411347Y39749D01*
X1408653Y39749D01*
G37*
%LPD*%
%LPC*%
G36*
X869653Y39749D02*
X869653Y39749D01*
X867749Y41653D01*
X867749Y44347D01*
X869653Y46251D01*
X872347Y46251D01*
X874251Y44347D01*
X874251Y41653D01*
X872347Y39749D01*
X869653Y39749D01*
G37*
%LPD*%
%LPC*%
G36*
X1725653Y32749D02*
X1725653Y32749D01*
X1723749Y34653D01*
X1723749Y37347D01*
X1725653Y39251D01*
X1728347Y39251D01*
X1730251Y37347D01*
X1730251Y34653D01*
X1728347Y32749D01*
X1725653Y32749D01*
G37*
%LPD*%
%LPC*%
G36*
X1377653Y38749D02*
X1377653Y38749D01*
X1375749Y40653D01*
X1375749Y43347D01*
X1377653Y45251D01*
X1380347Y45251D01*
X1382251Y43347D01*
X1382251Y40653D01*
X1380347Y38749D01*
X1377653Y38749D01*
G37*
%LPD*%
%LPC*%
G36*
X755653Y36749D02*
X755653Y36749D01*
X753749Y38653D01*
X753749Y41347D01*
X755653Y43251D01*
X758347Y43251D01*
X760251Y41347D01*
X760251Y38653D01*
X758347Y36749D01*
X755653Y36749D01*
G37*
%LPD*%
%LPC*%
G36*
X1319653Y35749D02*
X1319653Y35749D01*
X1317749Y37653D01*
X1317749Y40347D01*
X1319653Y42251D01*
X1322347Y42251D01*
X1324251Y40347D01*
X1324251Y37653D01*
X1322347Y35749D01*
X1319653Y35749D01*
G37*
%LPD*%
%LPC*%
G36*
X1127653Y34749D02*
X1127653Y34749D01*
X1125749Y36653D01*
X1125749Y39347D01*
X1127653Y41251D01*
X1130347Y41251D01*
X1132251Y39347D01*
X1132251Y36653D01*
X1130347Y34749D01*
X1127653Y34749D01*
G37*
%LPD*%
%LPC*%
G36*
X1052653Y34749D02*
X1052653Y34749D01*
X1050749Y36653D01*
X1050749Y39347D01*
X1052653Y41251D01*
X1055347Y41251D01*
X1057251Y39347D01*
X1057251Y36653D01*
X1055347Y34749D01*
X1052653Y34749D01*
G37*
%LPD*%
%LPC*%
G36*
X1496193Y570630D02*
X1496193Y570630D01*
X1494289Y572534D01*
X1494289Y575227D01*
X1496193Y577131D01*
X1498887Y577131D01*
X1500791Y575227D01*
X1500791Y572534D01*
X1498887Y570630D01*
X1496193Y570630D01*
G37*
%LPD*%
%LPC*%
G36*
X849899Y572999D02*
X849899Y572999D01*
X849899Y573001D01*
X849901Y573001D01*
X849901Y572999D01*
X849899Y572999D01*
G37*
%LPD*%
%LPC*%
G36*
X596899Y572999D02*
X596899Y572999D01*
X596899Y573001D01*
X596901Y573001D01*
X596901Y572999D01*
X596899Y572999D01*
G37*
%LPD*%
%LPC*%
G36*
X420099Y522199D02*
X420099Y522199D01*
X420099Y522201D01*
X420101Y522201D01*
X420101Y522199D01*
X420099Y522199D01*
G37*
%LPD*%
%LPC*%
G36*
X1585499Y577899D02*
X1585499Y577899D01*
X1585499Y577901D01*
X1585501Y577901D01*
X1585501Y577899D01*
X1585499Y577899D01*
G37*
%LPD*%
%LPC*%
G36*
X167099Y522199D02*
X167099Y522199D01*
X167099Y522201D01*
X167101Y522201D01*
X167101Y522199D01*
X167099Y522199D01*
G37*
%LPD*%
D10*
X673100Y566650D03*
D11*
X635000Y528500D03*
D10*
X596900Y573000D03*
D11*
X129000Y573000D03*
D10*
X90900Y522200D03*
D11*
X129000Y522200D03*
D10*
X167100Y522200D03*
X926100Y566650D03*
D11*
X888000Y528500D03*
D10*
X849900Y573000D03*
D11*
X382000Y573000D03*
D10*
X343900Y522200D03*
D11*
X382000Y522200D03*
D10*
X420100Y522200D03*
D12*
X703400Y230000D03*
X955200Y230000D03*
X490800Y221000D03*
X490600Y315000D03*
D13*
X1585500Y557900D03*
X1610500Y557900D03*
X1610500Y577900D03*
X1585500Y577900D03*
D14*
X1658000Y605000D03*
X1538000Y605000D03*
D15*
X658304Y67078D03*
X581596Y67078D03*
X1906304Y89078D03*
X1829596Y89078D03*
X2020304Y89078D03*
X1943596Y89078D03*
D12*
X1550000Y61000D03*
X1575400Y61000D03*
D15*
X1795304Y89078D03*
X1718596Y89078D03*
X583078Y232696D03*
X583078Y309404D03*
X542304Y68078D03*
X465596Y68078D03*
X265304Y70078D03*
X188596Y70078D03*
X1795304Y193078D03*
X1718596Y193078D03*
D12*
X1257000Y424000D03*
X1257000Y445000D03*
X1759000Y465000D03*
X1759000Y490400D03*
X1759000Y515800D03*
X1760000Y541200D03*
X1760000Y566600D03*
X1760000Y592000D03*
D16*
X1237000Y542000D03*
X1054000Y38000D03*
D17*
X621000Y43000D03*
D16*
X871000Y198000D03*
X616000Y197000D03*
X908000Y141000D03*
X655000Y139000D03*
X842000Y149000D03*
X885000Y394000D03*
X630000Y392000D03*
X928000Y262000D03*
X1084000Y228000D03*
X979000Y389000D03*
X1058000Y374000D03*
X1164000Y518000D03*
X1099000Y325000D03*
X143000Y401000D03*
X388000Y400000D03*
X449000Y251000D03*
X449000Y159000D03*
X375000Y221000D03*
X398000Y83000D03*
X358000Y140000D03*
X232000Y151000D03*
X112000Y152000D03*
X726000Y388000D03*
X379000Y308000D03*
X617000Y262000D03*
D17*
X528000Y26000D03*
D16*
X1891000Y381000D03*
X1932000Y348000D03*
X1874000Y244000D03*
X1981000Y314000D03*
X1823000Y241000D03*
X1823000Y223000D03*
X1934000Y229000D03*
X1830000Y144000D03*
X1952000Y131000D03*
X1678000Y580000D03*
X1678000Y520000D03*
X1742000Y638000D03*
X1742000Y617000D03*
X1612000Y503000D03*
X1654000Y507000D03*
X1521000Y511000D03*
X1541000Y524000D03*
X1792000Y422000D03*
X1779000Y443000D03*
X1825000Y438000D03*
X1778000Y383000D03*
X1460000Y381000D03*
X1462000Y323000D03*
X1454000Y257000D03*
X1461000Y286000D03*
X1605000Y201000D03*
X1536000Y198000D03*
X1568000Y136000D03*
X1593000Y137000D03*
X1631000Y131000D03*
X1653000Y131000D03*
X1326000Y124500D03*
X1308250Y436250D03*
X1309750Y347750D03*
X1283000Y479000D03*
X1331777Y512146D03*
X1857000Y346000D03*
X1811000Y348000D03*
X1782000Y263000D03*
X1779000Y332000D03*
X1688000Y187000D03*
X1903000Y289000D03*
X2029000Y535000D03*
X1988000Y408000D03*
X1213000Y56000D03*
X1172000Y56000D03*
X1164000Y148000D03*
X1447000Y641000D03*
X1849000Y58000D03*
X1637000Y89000D03*
X1678000Y89000D03*
X1597000Y88000D03*
D17*
X1245000Y663000D03*
D16*
X1742000Y244000D03*
X1697000Y135000D03*
X1045500Y38000D03*
X1165000Y426000D03*
X1111000Y385000D03*
X1041000Y367000D03*
X1040000Y239000D03*
X1039000Y152000D03*
X634000Y446000D03*
X889000Y447000D03*
X630000Y296000D03*
X689000Y198000D03*
X941000Y197000D03*
X787000Y147000D03*
X825000Y127000D03*
X997000Y454000D03*
X871000Y421000D03*
X741000Y450000D03*
X617000Y417000D03*
X979000Y346000D03*
X889000Y369000D03*
X983000Y256000D03*
X1380000Y350000D03*
X884000Y295000D03*
X730000Y257000D03*
X1086000Y158000D03*
X1135000Y228000D03*
X740000Y97000D03*
X1099000Y479000D03*
X1075000Y374000D03*
X656000Y231000D03*
X617000Y167000D03*
X883000Y156000D03*
X909000Y230000D03*
X632000Y370000D03*
X726000Y342000D03*
X1076000Y258000D03*
X1132000Y314000D03*
X1362000Y488000D03*
X1441000Y550000D03*
X511000Y140000D03*
X1093000Y518000D03*
X1015000Y522000D03*
X388000Y444000D03*
X175000Y369000D03*
X421000Y369000D03*
X143000Y445000D03*
X430000Y299000D03*
X448000Y299000D03*
X414000Y332000D03*
X389000Y257000D03*
X414000Y237000D03*
X389000Y165000D03*
X432000Y206000D03*
X449000Y206000D03*
X468000Y89000D03*
X430000Y111000D03*
X369000Y98000D03*
X348000Y104000D03*
X12000Y81000D03*
X110000Y112000D03*
X132000Y85000D03*
X208000Y85000D03*
X241000Y107000D03*
X252000Y135000D03*
X925000Y197000D03*
D18*
X925000Y198000D01*
D16*
X1381000Y256000D03*
X1488000Y70000D03*
X669000Y197000D03*
X581000Y399000D03*
X122000Y381000D03*
X501000Y413000D03*
X19000Y393000D03*
X749000Y463000D03*
X930000Y422000D03*
X494000Y464000D03*
X678000Y444000D03*
X329000Y423000D03*
X829000Y412000D03*
X254000Y422000D03*
X803000Y426000D03*
X19000Y480000D03*
X223000Y480000D03*
X271000Y484000D03*
X467000Y484000D03*
X674000Y287000D03*
X927000Y300000D03*
X978000Y89000D03*
X1012000Y122000D03*
X694000Y72000D03*
X752000Y176000D03*
D19*
X263000Y114000D03*
X187000Y108000D03*
D16*
X69000Y125000D03*
X190000Y125000D03*
X309000Y114000D03*
X757000Y40000D03*
X757000Y113000D03*
X602000Y193500D03*
X726000Y144000D03*
X69000Y142000D03*
X93000Y305000D03*
X22000Y216000D03*
X22000Y304000D03*
X871000Y43000D03*
X871000Y101000D03*
X871000Y64000D03*
X225000Y299000D03*
X330000Y236000D03*
X674000Y275000D03*
X928000Y275000D03*
X961000Y327000D03*
X163000Y490000D03*
X245000Y489000D03*
X373000Y476000D03*
X373000Y454000D03*
D17*
X31000Y381000D03*
X523000Y380000D03*
X31000Y685000D03*
X1124000Y574000D03*
X542000Y662000D03*
X283000Y374000D03*
X783000Y381000D03*
X783000Y627000D03*
X283000Y628000D03*
X1110000Y586000D03*
X776000Y201000D03*
X760000Y604000D03*
X1135000Y599000D03*
X45000Y197000D03*
X45000Y648000D03*
X1110000Y610000D03*
X151000Y206000D03*
X72000Y638000D03*
X1094000Y624000D03*
X279000Y207000D03*
X112000Y592000D03*
X1079000Y589000D03*
D16*
X1710000Y268000D03*
X1023000Y421000D03*
X1710000Y281000D03*
X1152000Y419000D03*
X671000Y172000D03*
X737000Y159000D03*
X1007000Y421000D03*
X1677000Y29000D03*
X1692000Y270000D03*
X1497540Y573881D03*
X1538000Y377000D03*
X1452000Y312000D03*
X1418000Y599000D03*
X1457000Y343000D03*
X1434000Y604000D03*
X1539000Y367000D03*
X1478000Y586000D03*
X1476000Y354000D03*
X1403000Y611000D03*
X1485751Y357566D03*
X1417950Y637050D03*
X1668000Y29000D03*
X1681000Y258000D03*
D17*
X1988000Y65000D03*
X1143000Y663000D03*
D16*
X1521000Y663000D03*
D17*
X821000Y368000D03*
X565000Y368000D03*
X321000Y375000D03*
X58000Y378000D03*
X59000Y197000D03*
X238000Y197000D03*
X356000Y196000D03*
X820000Y200000D03*
D16*
X1792000Y233000D03*
X1416000Y435000D03*
X1743000Y409000D03*
X1736480Y437520D03*
X1569000Y399000D03*
X1570000Y299000D03*
X1114000Y129000D03*
X1134000Y157000D03*
X1092000Y125000D03*
X1090000Y243000D03*
X1442000Y351000D03*
X1441000Y302000D03*
X429000Y274000D03*
X430000Y123000D03*
X528000Y112150D03*
X414000Y146000D03*
D19*
X299000Y49000D03*
X299000Y115000D03*
D16*
X1092000Y440000D03*
X1128000Y130000D03*
X1143000Y367000D03*
X1021500Y324500D03*
X1021000Y395000D03*
X1097000Y162000D03*
X1102000Y198000D03*
X1101000Y283000D03*
X1049000Y179000D03*
X1026000Y194000D03*
X450000Y124000D03*
X439000Y106540D03*
X1520000Y188000D03*
X1426000Y54000D03*
X1527000Y223000D03*
X1381000Y81000D03*
X1533000Y217000D03*
X1391000Y82000D03*
X1378000Y95000D03*
X1542000Y259000D03*
X1378000Y102000D03*
X1547000Y270000D03*
X1378000Y109000D03*
X1552000Y283000D03*
X1498000Y237000D03*
X1658000Y363000D03*
X1491000Y237000D03*
X1663000Y368000D03*
X1484000Y237000D03*
X1668000Y373000D03*
X1477000Y237000D03*
X1682000Y388000D03*
X1470000Y237000D03*
X1687000Y393000D03*
X1463000Y237000D03*
X1692000Y398000D03*
X1456000Y237000D03*
X1697000Y403000D03*
X1449000Y237000D03*
X1702000Y408000D03*
X1442000Y237000D03*
X1707000Y413000D03*
X1353000Y82000D03*
X1420000Y417000D03*
X1365000Y93000D03*
X1431000Y405000D03*
X1338000Y97000D03*
X1522000Y471000D03*
X1423000Y472000D03*
X1582000Y473000D03*
X1343000Y92000D03*
X1576000Y468000D03*
X1522000Y464000D03*
X1423000Y463000D03*
X1348000Y87000D03*
X1415000Y422000D03*
X1359000Y87000D03*
X1426000Y411000D03*
X1435000Y367000D03*
X1399499Y42209D03*
X1627000Y430000D03*
X1393000Y42000D03*
X1440000Y362000D03*
X1410000Y43000D03*
X1379000Y42000D03*
X1635000Y430000D03*
X1939000Y288000D03*
X1926000Y119000D03*
X1593000Y107000D03*
X1581000Y413000D03*
X1939000Y273000D03*
X1917000Y204000D03*
X1939000Y280500D03*
X1923000Y220000D03*
X1917000Y260000D03*
X1917000Y224000D03*
X1584000Y110000D03*
X1558000Y410000D03*
X1658000Y97000D03*
X1655000Y429000D03*
X1624000Y307000D03*
X1624000Y85000D03*
X1650000Y89000D03*
X1644000Y286000D03*
X1515000Y193000D03*
X1421000Y68000D03*
X1447000Y267000D03*
X1440000Y407000D03*
X1599000Y102000D03*
X1588460Y428540D03*
X1605000Y111000D03*
X1595000Y430000D03*
X1328000Y161000D03*
X1380000Y161000D03*
X1405000Y110000D03*
X1321000Y39000D03*
D17*
X1947000Y35000D03*
D16*
X1372000Y226000D03*
X1523000Y640000D03*
X1703000Y174000D03*
D17*
X1756000Y72000D03*
D16*
X1129000Y38000D03*
X1328000Y315000D03*
X1327000Y413000D03*
X1392000Y271000D03*
X1751000Y189000D03*
X1939000Y311000D03*
X1702632Y465924D03*
X1939000Y296000D03*
X1540000Y347000D03*
X1939000Y303500D03*
X1490279Y337399D03*
X1655000Y537000D03*
X1952000Y220000D03*
X1752000Y283000D03*
X1850000Y277000D03*
X1850000Y252000D03*
X1876540Y384000D03*
X1867460Y384000D03*
X1872000Y375000D03*
X1861000Y378000D03*
X1895250Y322000D03*
X1929000Y392000D03*
X1900750Y319000D03*
X1935500Y392000D03*
X1935500Y372000D03*
X1871000Y299000D03*
X1997000Y538000D03*
X1865000Y293000D03*
X1845000Y515000D03*
X1393000Y370000D03*
X1390000Y511000D03*
X1859028Y286750D03*
X1910000Y195000D03*
X1849000Y287000D03*
X1837000Y163000D03*
X1744000Y281000D03*
X1777000Y233000D03*
X1645500Y550000D03*
X1633000Y559000D03*
X1640000Y558000D03*
X1361000Y409500D03*
X1361000Y310000D03*
X1351000Y431000D03*
X1344000Y290000D03*
X1343000Y386000D03*
X1726000Y143000D03*
X1727000Y36000D03*
D19*
X527000Y198000D03*
X509000Y198000D03*
X318000Y62000D03*
X312000Y130000D03*
X95000Y224040D03*
X290000Y25000D03*
X290000Y103000D03*
D16*
X1762000Y211000D03*
X1696000Y316000D03*
X1763000Y162000D03*
X1693000Y474000D03*
M02*
