G04 EAGLE Gerber RS-274X export*
G75*
%MOMM*%
%FSLAX34Y34*%
%LPD*%
%INSoldermask Bottom*%
%IPPOS*%
%AMOC8*
5,1,8,0,0,1.08239X$1,22.5*%
G01*
%ADD10C,4.020000*%
%ADD11R,2.120000X2.120000*%
%ADD12R,1.720000X1.720000*%
%ADD13C,1.620000*%
%ADD14C,1.720000*%
%ADD15C,1.520000*%
%ADD16P,1.836166X8X202.500000*%
%ADD17C,2.720000*%
%ADD18C,2.648900*%
%ADD19C,3.270000*%
%ADD20C,0.470000*%
%ADD21C,0.980000*%
%ADD22C,0.520000*%


D10*
X2060000Y660000D03*
X508000Y525000D03*
X40000Y40000D03*
X2060000Y40000D03*
D11*
X673100Y566650D03*
D12*
X635000Y528500D03*
D11*
X596900Y573000D03*
D13*
X596900Y661900D03*
X673100Y611100D03*
D14*
X129000Y573000D03*
D11*
X90900Y522200D03*
D12*
X129000Y522200D03*
D11*
X167100Y522200D03*
D13*
X90900Y662000D03*
X167100Y611100D03*
D11*
X926100Y566650D03*
D12*
X888000Y528500D03*
D11*
X849900Y573000D03*
D13*
X849900Y661900D03*
X926100Y611100D03*
D14*
X382000Y573000D03*
D11*
X343900Y522200D03*
D12*
X382000Y522200D03*
D11*
X420100Y522200D03*
D13*
X343900Y662000D03*
X420100Y611100D03*
D15*
X695900Y230000D02*
X710900Y230000D01*
X947700Y230000D02*
X962700Y230000D01*
X490800Y228500D02*
X490800Y213500D01*
X490600Y307500D02*
X490600Y322500D01*
D16*
X1585500Y557900D03*
X1610500Y557900D03*
X1610500Y577900D03*
X1585500Y577900D03*
D17*
X1658000Y605000D03*
X1538000Y605000D03*
D18*
X658304Y67078D03*
X581596Y67078D03*
X1906304Y89078D03*
X1829596Y89078D03*
D19*
X1966500Y647500D03*
X1839500Y647500D03*
D18*
X2020304Y89078D03*
X1943596Y89078D03*
D15*
X1550000Y68500D02*
X1550000Y53500D01*
X1575400Y53500D02*
X1575400Y68500D01*
D18*
X1795304Y89078D03*
X1718596Y89078D03*
X583078Y232696D03*
X583078Y309404D03*
X542304Y68078D03*
X465596Y68078D03*
X265304Y70078D03*
X188596Y70078D03*
X1795304Y193078D03*
X1718596Y193078D03*
D15*
X1264500Y424000D02*
X1249500Y424000D01*
X1249500Y445000D02*
X1264500Y445000D01*
X1751500Y465000D02*
X1766500Y465000D01*
X1766500Y490400D02*
X1751500Y490400D01*
X1751500Y515800D02*
X1766500Y515800D01*
X1767500Y541200D02*
X1752500Y541200D01*
X1752500Y566600D02*
X1767500Y566600D01*
X1767500Y592000D02*
X1752500Y592000D01*
D20*
X1237000Y542000D03*
X1054000Y38000D03*
D21*
X621000Y43000D03*
D20*
X871000Y198000D03*
X616000Y197000D03*
X908000Y141000D03*
X655000Y139000D03*
X842000Y149000D03*
X885000Y394000D03*
X630000Y392000D03*
X928000Y262000D03*
X1084000Y228000D03*
X979000Y389000D03*
X1058000Y374000D03*
X1164000Y518000D03*
X1099000Y325000D03*
X143000Y401000D03*
X388000Y400000D03*
X449000Y251000D03*
X449000Y159000D03*
X375000Y221000D03*
X398000Y83000D03*
X358000Y140000D03*
X232000Y151000D03*
X112000Y152000D03*
X726000Y388000D03*
X379000Y308000D03*
X617000Y262000D03*
D21*
X528000Y26000D03*
D20*
X1891000Y381000D03*
X1932000Y348000D03*
X1874000Y244000D03*
X1981000Y314000D03*
X1823000Y241000D03*
X1823000Y223000D03*
X1934000Y229000D03*
X1830000Y144000D03*
X1952000Y131000D03*
X1678000Y580000D03*
X1678000Y520000D03*
X1742000Y638000D03*
X1742000Y617000D03*
X1612000Y503000D03*
X1654000Y507000D03*
X1521000Y511000D03*
X1541000Y524000D03*
X1792000Y422000D03*
X1779000Y443000D03*
X1825000Y438000D03*
X1778000Y383000D03*
X1460000Y381000D03*
X1462000Y323000D03*
X1454000Y257000D03*
X1461000Y286000D03*
X1605000Y201000D03*
X1536000Y198000D03*
X1568000Y136000D03*
X1593000Y137000D03*
X1631000Y131000D03*
X1653000Y131000D03*
X1326000Y124500D03*
X1308250Y436250D03*
X1309750Y347750D03*
X1283000Y479000D03*
X1331777Y512146D03*
X1857000Y346000D03*
X1811000Y348000D03*
X1782000Y263000D03*
X1779000Y332000D03*
X1688000Y187000D03*
X1903000Y289000D03*
X2029000Y535000D03*
X1988000Y408000D03*
X1213000Y56000D03*
X1172000Y56000D03*
X1164000Y148000D03*
X1447000Y641000D03*
X1849000Y58000D03*
X1637000Y89000D03*
X1678000Y89000D03*
X1597000Y88000D03*
D21*
X1245000Y663000D03*
D20*
X1742000Y244000D03*
X1697000Y135000D03*
X1045500Y38000D03*
X1165000Y426000D03*
X1111000Y385000D03*
X1041000Y367000D03*
X1040000Y239000D03*
X1039000Y152000D03*
X634000Y446000D03*
X889000Y447000D03*
X630000Y296000D03*
X689000Y198000D03*
X941000Y197000D03*
X787000Y147000D03*
X825000Y127000D03*
X997000Y454000D03*
X871000Y421000D03*
X741000Y450000D03*
X617000Y417000D03*
X979000Y346000D03*
X889000Y369000D03*
X983000Y256000D03*
X1380000Y350000D03*
X884000Y295000D03*
X730000Y257000D03*
X1086000Y158000D03*
X1135000Y228000D03*
X740000Y97000D03*
X1099000Y479000D03*
X1075000Y374000D03*
X656000Y231000D03*
X617000Y167000D03*
X883000Y156000D03*
X909000Y230000D03*
X632000Y370000D03*
X726000Y342000D03*
X1076000Y258000D03*
X1132000Y314000D03*
X1362000Y488000D03*
X1441000Y550000D03*
X511000Y140000D03*
X1093000Y518000D03*
X1015000Y522000D03*
X388000Y444000D03*
X175000Y369000D03*
X421000Y369000D03*
X143000Y445000D03*
X430000Y299000D03*
X448000Y299000D03*
X414000Y332000D03*
X389000Y257000D03*
X414000Y237000D03*
X389000Y165000D03*
X432000Y206000D03*
X449000Y206000D03*
X468000Y89000D03*
X430000Y111000D03*
X369000Y98000D03*
X348000Y104000D03*
X12000Y81000D03*
X110000Y112000D03*
X132000Y85000D03*
X208000Y85000D03*
X241000Y107000D03*
X252000Y135000D03*
X925000Y197000D03*
X1381000Y256000D03*
X1488000Y70000D03*
X669000Y197000D03*
X581000Y399000D03*
X122000Y381000D03*
X501000Y413000D03*
X19000Y393000D03*
X749000Y463000D03*
X930000Y422000D03*
X494000Y464000D03*
X678000Y444000D03*
X329000Y423000D03*
X829000Y412000D03*
X254000Y422000D03*
X803000Y426000D03*
X19000Y480000D03*
X223000Y480000D03*
X271000Y484000D03*
X467000Y484000D03*
X674000Y287000D03*
X927000Y300000D03*
X978000Y89000D03*
X1012000Y122000D03*
X694000Y72000D03*
X752000Y176000D03*
D22*
X263000Y114000D03*
X187000Y108000D03*
D20*
X69000Y125000D03*
X190000Y125000D03*
X309000Y114000D03*
X757000Y40000D03*
X757000Y113000D03*
X602000Y193500D03*
X726000Y144000D03*
X69000Y142000D03*
X93000Y305000D03*
X22000Y216000D03*
X22000Y304000D03*
X871000Y43000D03*
X871000Y101000D03*
X871000Y64000D03*
X225000Y299000D03*
X330000Y236000D03*
X674000Y275000D03*
X928000Y275000D03*
X961000Y327000D03*
X163000Y490000D03*
X245000Y489000D03*
X373000Y476000D03*
X373000Y454000D03*
D21*
X31000Y381000D03*
X523000Y380000D03*
X31000Y685000D03*
X1124000Y574000D03*
X542000Y662000D03*
X283000Y374000D03*
X783000Y381000D03*
X783000Y627000D03*
X283000Y628000D03*
X1110000Y586000D03*
X776000Y201000D03*
X760000Y604000D03*
X1135000Y599000D03*
X45000Y197000D03*
X45000Y648000D03*
X1110000Y610000D03*
X151000Y206000D03*
X72000Y638000D03*
X1094000Y624000D03*
X279000Y207000D03*
X112000Y592000D03*
X1079000Y589000D03*
D20*
X1710000Y268000D03*
X1023000Y421000D03*
X1710000Y281000D03*
X1152000Y419000D03*
X671000Y172000D03*
X737000Y159000D03*
X1007000Y421000D03*
X1677000Y29000D03*
X1692000Y270000D03*
X1497540Y573881D03*
X1538000Y377000D03*
X1452000Y312000D03*
X1418000Y599000D03*
X1457000Y343000D03*
X1434000Y604000D03*
X1539000Y367000D03*
X1478000Y586000D03*
X1476000Y354000D03*
X1403000Y611000D03*
X1485751Y357566D03*
X1417950Y637050D03*
X1668000Y29000D03*
X1681000Y258000D03*
D21*
X1988000Y65000D03*
X1143000Y663000D03*
D20*
X1521000Y663000D03*
D21*
X821000Y368000D03*
X565000Y368000D03*
X321000Y375000D03*
X58000Y378000D03*
X59000Y197000D03*
X238000Y197000D03*
X356000Y196000D03*
X820000Y200000D03*
D20*
X1792000Y233000D03*
X1416000Y435000D03*
X1743000Y409000D03*
X1736480Y437520D03*
X1569000Y399000D03*
X1570000Y299000D03*
X1114000Y129000D03*
X1134000Y157000D03*
X1092000Y125000D03*
X1090000Y243000D03*
X1442000Y351000D03*
X1441000Y302000D03*
X429000Y274000D03*
X430000Y123000D03*
X528000Y112150D03*
X414000Y146000D03*
D22*
X299000Y49000D03*
X299000Y115000D03*
D20*
X1092000Y440000D03*
X1128000Y130000D03*
X1143000Y367000D03*
X1021500Y324500D03*
X1021000Y395000D03*
X1097000Y162000D03*
X1102000Y198000D03*
X1101000Y283000D03*
X1049000Y179000D03*
X1026000Y194000D03*
X450000Y124000D03*
X439000Y106540D03*
X1520000Y188000D03*
X1426000Y54000D03*
X1527000Y223000D03*
X1381000Y81000D03*
X1533000Y217000D03*
X1391000Y82000D03*
X1378000Y95000D03*
X1542000Y259000D03*
X1378000Y102000D03*
X1547000Y270000D03*
X1378000Y109000D03*
X1552000Y283000D03*
X1498000Y237000D03*
X1658000Y363000D03*
X1491000Y237000D03*
X1663000Y368000D03*
X1484000Y237000D03*
X1668000Y373000D03*
X1477000Y237000D03*
X1682000Y388000D03*
X1470000Y237000D03*
X1687000Y393000D03*
X1463000Y237000D03*
X1692000Y398000D03*
X1456000Y237000D03*
X1697000Y403000D03*
X1449000Y237000D03*
X1702000Y408000D03*
X1442000Y237000D03*
X1707000Y413000D03*
X1353000Y82000D03*
X1420000Y417000D03*
X1365000Y93000D03*
X1431000Y405000D03*
X1338000Y97000D03*
X1522000Y471000D03*
X1423000Y472000D03*
X1582000Y473000D03*
X1343000Y92000D03*
X1576000Y468000D03*
X1522000Y464000D03*
X1423000Y463000D03*
X1348000Y87000D03*
X1415000Y422000D03*
X1359000Y87000D03*
X1426000Y411000D03*
X1435000Y367000D03*
X1399499Y42209D03*
X1627000Y430000D03*
X1393000Y42000D03*
X1440000Y362000D03*
X1410000Y43000D03*
X1379000Y42000D03*
X1635000Y430000D03*
X1939000Y288000D03*
X1926000Y119000D03*
X1593000Y107000D03*
X1581000Y413000D03*
X1939000Y273000D03*
X1917000Y204000D03*
X1939000Y280500D03*
X1923000Y220000D03*
X1917000Y260000D03*
X1917000Y224000D03*
X1584000Y110000D03*
X1558000Y410000D03*
X1658000Y97000D03*
X1655000Y429000D03*
X1624000Y307000D03*
X1624000Y85000D03*
X1650000Y89000D03*
X1644000Y286000D03*
X1515000Y193000D03*
X1421000Y68000D03*
X1447000Y267000D03*
X1440000Y407000D03*
X1599000Y102000D03*
X1588460Y428540D03*
X1605000Y111000D03*
X1595000Y430000D03*
X1328000Y161000D03*
X1380000Y161000D03*
X1405000Y110000D03*
X1321000Y39000D03*
D21*
X1947000Y35000D03*
D20*
X1372000Y226000D03*
X1523000Y640000D03*
X1703000Y174000D03*
D21*
X1756000Y72000D03*
D20*
X1129000Y38000D03*
X1328000Y315000D03*
X1327000Y413000D03*
X1392000Y271000D03*
X1751000Y189000D03*
X1939000Y311000D03*
X1702632Y465924D03*
X1939000Y296000D03*
X1540000Y347000D03*
X1939000Y303500D03*
X1490279Y337399D03*
X1655000Y537000D03*
X1952000Y220000D03*
X1752000Y283000D03*
X1850000Y277000D03*
X1850000Y252000D03*
X1876540Y384000D03*
X1867460Y384000D03*
X1872000Y375000D03*
X1861000Y378000D03*
X1895250Y322000D03*
X1929000Y392000D03*
X1900750Y319000D03*
X1935500Y392000D03*
X1935500Y372000D03*
X1871000Y299000D03*
X1997000Y538000D03*
X1865000Y293000D03*
X1845000Y515000D03*
X1393000Y370000D03*
X1390000Y511000D03*
X1859028Y286750D03*
X1910000Y195000D03*
X1849000Y287000D03*
X1837000Y163000D03*
X1744000Y281000D03*
X1777000Y233000D03*
X1645500Y550000D03*
X1633000Y559000D03*
X1640000Y558000D03*
X1361000Y409500D03*
X1361000Y310000D03*
X1351000Y431000D03*
X1344000Y290000D03*
X1343000Y386000D03*
X1726000Y143000D03*
X1727000Y36000D03*
D22*
X527000Y198000D03*
X509000Y198000D03*
X318000Y62000D03*
X312000Y130000D03*
X95000Y224040D03*
X290000Y25000D03*
X290000Y103000D03*
D20*
X1762000Y211000D03*
X1696000Y316000D03*
X1763000Y162000D03*
X1693000Y474000D03*
M02*
