G04 EAGLE Gerber RS-274X export*
G75*
%MOMM*%
%FSLAX34Y34*%
%LPD*%
%INBottom Copper*%
%IPPOS*%
%AMOC8*
5,1,8,0,0,1.08239X$1,22.5*%
G01*
%ADD10C,1.830000*%
%ADD11C,1.524000*%
%ADD12R,1.408000X1.408000*%
%ADD13P,1.732040X8X112.500000*%
%ADD14P,1.924489X8X292.500000*%
%ADD15C,2.540000*%
%ADD16C,2.247900*%
%ADD17P,1.732040X8X22.500000*%
%ADD18P,1.924489X8X202.500000*%
%ADD19C,2.628900*%
%ADD20C,2.550000*%
%ADD21C,5.100000*%
%ADD22P,1.732040X8X292.500000*%
%ADD23P,1.924489X8X112.500000*%
%ADD24C,1.790700*%
%ADD25P,1.732040X8X202.500000*%
%ADD26R,1.980000X1.980000*%
%ADD27C,1.980000*%
%ADD28C,2.540000*%
%ADD29C,1.016000*%
%ADD30C,0.406400*%
%ADD31C,1.270000*%
%ADD32C,1.500000*%

G36*
X1638688Y10176D02*
X1638688Y10176D01*
X1638807Y10183D01*
X1638845Y10196D01*
X1638886Y10201D01*
X1638996Y10244D01*
X1639109Y10281D01*
X1639144Y10303D01*
X1639181Y10318D01*
X1639277Y10387D01*
X1639378Y10451D01*
X1639406Y10481D01*
X1639439Y10504D01*
X1639515Y10596D01*
X1639596Y10683D01*
X1639616Y10718D01*
X1639641Y10749D01*
X1639692Y10857D01*
X1639750Y10961D01*
X1639760Y11001D01*
X1639777Y11037D01*
X1639799Y11154D01*
X1639829Y11269D01*
X1639833Y11329D01*
X1639837Y11349D01*
X1639835Y11370D01*
X1639839Y11430D01*
X1639839Y838570D01*
X1639824Y838688D01*
X1639817Y838807D01*
X1639804Y838845D01*
X1639799Y838886D01*
X1639756Y838996D01*
X1639719Y839109D01*
X1639697Y839144D01*
X1639682Y839181D01*
X1639613Y839277D01*
X1639549Y839378D01*
X1639519Y839406D01*
X1639496Y839439D01*
X1639404Y839515D01*
X1639317Y839596D01*
X1639282Y839616D01*
X1639251Y839641D01*
X1639143Y839692D01*
X1639039Y839750D01*
X1638999Y839760D01*
X1638963Y839777D01*
X1638846Y839799D01*
X1638731Y839829D01*
X1638671Y839833D01*
X1638651Y839837D01*
X1638630Y839835D01*
X1638570Y839839D01*
X536856Y839839D01*
X536718Y839822D01*
X536579Y839809D01*
X536560Y839802D01*
X536540Y839799D01*
X536411Y839748D01*
X536280Y839701D01*
X536263Y839690D01*
X536245Y839682D01*
X536132Y839601D01*
X536017Y839523D01*
X536004Y839507D01*
X535987Y839496D01*
X535898Y839388D01*
X535807Y839284D01*
X535797Y839266D01*
X535784Y839251D01*
X535725Y839125D01*
X535662Y839001D01*
X535658Y838981D01*
X535649Y838963D01*
X535623Y838827D01*
X535592Y838691D01*
X535593Y838670D01*
X535589Y838651D01*
X535598Y838512D01*
X535602Y838373D01*
X535608Y838353D01*
X535609Y838333D01*
X535652Y838201D01*
X535690Y838067D01*
X535701Y838050D01*
X535707Y838031D01*
X535781Y837913D01*
X535852Y837793D01*
X535870Y837772D01*
X535877Y837762D01*
X535892Y837748D01*
X535958Y837673D01*
X538781Y834850D01*
X540724Y830159D01*
X540724Y802601D01*
X538781Y797910D01*
X535190Y794319D01*
X530499Y792376D01*
X525421Y792376D01*
X520730Y794319D01*
X517139Y797910D01*
X516433Y799615D01*
X516364Y799736D01*
X516299Y799859D01*
X516285Y799874D01*
X516275Y799892D01*
X516178Y799992D01*
X516085Y800094D01*
X516068Y800106D01*
X516054Y800120D01*
X515936Y800193D01*
X515819Y800269D01*
X515800Y800276D01*
X515783Y800286D01*
X515650Y800327D01*
X515518Y800372D01*
X515498Y800374D01*
X515479Y800380D01*
X515340Y800387D01*
X515201Y800398D01*
X515181Y800394D01*
X515161Y800395D01*
X515025Y800367D01*
X514888Y800343D01*
X514869Y800335D01*
X514850Y800331D01*
X514725Y800270D01*
X514598Y800213D01*
X514582Y800200D01*
X514564Y800191D01*
X514458Y800101D01*
X514350Y800014D01*
X514337Y799998D01*
X514322Y799985D01*
X514242Y799871D01*
X514158Y799760D01*
X514146Y799735D01*
X514139Y799725D01*
X514132Y799706D01*
X514087Y799615D01*
X513381Y797910D01*
X510806Y795336D01*
X510746Y795257D01*
X510678Y795185D01*
X510649Y795132D01*
X510612Y795084D01*
X510572Y794993D01*
X510524Y794907D01*
X510509Y794848D01*
X510485Y794793D01*
X510470Y794695D01*
X510445Y794599D01*
X510439Y794499D01*
X510435Y794478D01*
X510437Y794466D01*
X510435Y794438D01*
X510435Y758280D01*
X510438Y758251D01*
X510436Y758222D01*
X510458Y758093D01*
X510475Y757965D01*
X510485Y757937D01*
X510490Y757908D01*
X510544Y757790D01*
X510592Y757669D01*
X510609Y757645D01*
X510621Y757618D01*
X510702Y757517D01*
X510778Y757412D01*
X510801Y757393D01*
X510820Y757370D01*
X510923Y757292D01*
X511023Y757209D01*
X511050Y757196D01*
X511074Y757179D01*
X511218Y757108D01*
X512261Y756676D01*
X514500Y754436D01*
X514578Y754376D01*
X514650Y754308D01*
X514703Y754279D01*
X514751Y754242D01*
X514842Y754202D01*
X514929Y754154D01*
X514988Y754139D01*
X515043Y754115D01*
X515141Y754100D01*
X515237Y754075D01*
X515337Y754069D01*
X515357Y754065D01*
X515370Y754067D01*
X515398Y754065D01*
X702676Y754065D01*
X705571Y752866D01*
X706100Y752337D01*
X706178Y752276D01*
X706250Y752208D01*
X706303Y752179D01*
X706351Y752142D01*
X706442Y752102D01*
X706529Y752054D01*
X706587Y752039D01*
X706643Y752015D01*
X706741Y752000D01*
X706837Y751975D01*
X706937Y751969D01*
X706957Y751965D01*
X706970Y751967D01*
X706998Y751965D01*
X711572Y751965D01*
X712465Y751072D01*
X712465Y735728D01*
X711572Y734835D01*
X696228Y734835D01*
X695335Y735728D01*
X695335Y737046D01*
X695320Y737164D01*
X695313Y737283D01*
X695300Y737321D01*
X695295Y737362D01*
X695252Y737472D01*
X695215Y737585D01*
X695193Y737620D01*
X695178Y737657D01*
X695109Y737753D01*
X695045Y737854D01*
X695015Y737882D01*
X694992Y737915D01*
X694900Y737991D01*
X694813Y738072D01*
X694778Y738092D01*
X694747Y738117D01*
X694639Y738168D01*
X694535Y738226D01*
X694495Y738236D01*
X694459Y738253D01*
X694342Y738275D01*
X694227Y738305D01*
X694167Y738309D01*
X694147Y738313D01*
X694126Y738311D01*
X694066Y738315D01*
X514404Y738315D01*
X514286Y738300D01*
X514167Y738293D01*
X514129Y738280D01*
X514088Y738275D01*
X513978Y738232D01*
X513865Y738195D01*
X513830Y738173D01*
X513793Y738158D01*
X513697Y738089D01*
X513596Y738025D01*
X513568Y737995D01*
X513535Y737972D01*
X513459Y737880D01*
X513378Y737793D01*
X513358Y737758D01*
X513333Y737727D01*
X513282Y737619D01*
X513224Y737515D01*
X513214Y737475D01*
X513197Y737439D01*
X513175Y737322D01*
X513145Y737207D01*
X513141Y737147D01*
X513137Y737127D01*
X513139Y737106D01*
X513135Y737046D01*
X513135Y736294D01*
X511936Y733399D01*
X509342Y730805D01*
X509257Y730696D01*
X509168Y730589D01*
X509160Y730570D01*
X509147Y730554D01*
X509092Y730426D01*
X509033Y730301D01*
X509029Y730281D01*
X509021Y730262D01*
X508999Y730124D01*
X508973Y729988D01*
X508974Y729968D01*
X508971Y729948D01*
X508984Y729809D01*
X508993Y729671D01*
X508999Y729652D01*
X509001Y729632D01*
X509048Y729500D01*
X509091Y729369D01*
X509101Y729351D01*
X509108Y729332D01*
X509186Y729217D01*
X509261Y729100D01*
X509276Y729086D01*
X509287Y729069D01*
X509391Y728977D01*
X509492Y728882D01*
X509510Y728872D01*
X509525Y728859D01*
X509649Y728795D01*
X509771Y728728D01*
X509790Y728723D01*
X509809Y728714D01*
X509944Y728684D01*
X510079Y728649D01*
X510107Y728647D01*
X510119Y728644D01*
X510139Y728645D01*
X510240Y728639D01*
X528202Y728639D01*
X531097Y727440D01*
X566476Y692061D01*
X567675Y689166D01*
X567675Y672022D01*
X567687Y671924D01*
X567690Y671825D01*
X567707Y671767D01*
X567715Y671707D01*
X567751Y671615D01*
X567779Y671520D01*
X567809Y671468D01*
X567832Y671411D01*
X567890Y671331D01*
X567940Y671246D01*
X568006Y671170D01*
X568018Y671154D01*
X568028Y671146D01*
X568046Y671125D01*
X569326Y669846D01*
X569326Y661954D01*
X563746Y656374D01*
X555854Y656374D01*
X550274Y661954D01*
X550274Y669846D01*
X551554Y671125D01*
X551614Y671203D01*
X551682Y671275D01*
X551711Y671328D01*
X551748Y671376D01*
X551788Y671467D01*
X551836Y671554D01*
X551851Y671612D01*
X551875Y671668D01*
X551890Y671766D01*
X551915Y671862D01*
X551921Y671962D01*
X551925Y671982D01*
X551923Y671994D01*
X551925Y672022D01*
X551925Y683812D01*
X551913Y683911D01*
X551910Y684010D01*
X551893Y684068D01*
X551885Y684128D01*
X551849Y684220D01*
X551821Y684315D01*
X551791Y684367D01*
X551768Y684424D01*
X551710Y684504D01*
X551660Y684589D01*
X551594Y684664D01*
X551582Y684681D01*
X551572Y684689D01*
X551554Y684710D01*
X523746Y712518D01*
X523668Y712578D01*
X523596Y712646D01*
X523543Y712675D01*
X523495Y712712D01*
X523404Y712752D01*
X523317Y712800D01*
X523258Y712815D01*
X523203Y712839D01*
X523105Y712854D01*
X523009Y712879D01*
X522909Y712885D01*
X522889Y712889D01*
X522876Y712887D01*
X522848Y712889D01*
X514404Y712889D01*
X514266Y712872D01*
X514127Y712859D01*
X514108Y712852D01*
X514088Y712849D01*
X513959Y712798D01*
X513828Y712751D01*
X513811Y712740D01*
X513792Y712732D01*
X513680Y712651D01*
X513565Y712573D01*
X513551Y712557D01*
X513535Y712546D01*
X513446Y712438D01*
X513354Y712334D01*
X513345Y712316D01*
X513332Y712301D01*
X513273Y712175D01*
X513210Y712051D01*
X513205Y712031D01*
X513197Y712013D01*
X513171Y711877D01*
X513140Y711741D01*
X513141Y711720D01*
X513137Y711701D01*
X513146Y711562D01*
X513150Y711423D01*
X513155Y711403D01*
X513157Y711383D01*
X513199Y711251D01*
X513238Y711117D01*
X513248Y711100D01*
X513255Y711081D01*
X513329Y710963D01*
X513400Y710843D01*
X513418Y710822D01*
X513425Y710812D01*
X513440Y710798D01*
X513506Y710723D01*
X515915Y708314D01*
X515915Y699686D01*
X509814Y693585D01*
X506748Y693585D01*
X506649Y693573D01*
X506550Y693570D01*
X506492Y693553D01*
X506432Y693545D01*
X506340Y693509D01*
X506245Y693481D01*
X506193Y693451D01*
X506136Y693428D01*
X506056Y693370D01*
X505971Y693320D01*
X505896Y693254D01*
X505879Y693242D01*
X505871Y693232D01*
X505850Y693214D01*
X503818Y691181D01*
X503733Y691072D01*
X503644Y690965D01*
X503636Y690946D01*
X503623Y690930D01*
X503568Y690802D01*
X503509Y690677D01*
X503505Y690657D01*
X503497Y690638D01*
X503475Y690500D01*
X503449Y690364D01*
X503450Y690344D01*
X503447Y690324D01*
X503460Y690185D01*
X503469Y690047D01*
X503475Y690028D01*
X503477Y690008D01*
X503524Y689876D01*
X503567Y689745D01*
X503577Y689727D01*
X503584Y689708D01*
X503662Y689593D01*
X503737Y689476D01*
X503752Y689462D01*
X503763Y689445D01*
X503867Y689353D01*
X503968Y689258D01*
X503986Y689248D01*
X504001Y689235D01*
X504125Y689171D01*
X504247Y689104D01*
X504266Y689099D01*
X504285Y689090D01*
X504420Y689060D01*
X504555Y689025D01*
X504583Y689023D01*
X504595Y689020D01*
X504615Y689021D01*
X504716Y689015D01*
X509814Y689015D01*
X515915Y682914D01*
X515915Y674286D01*
X509814Y668185D01*
X501186Y668185D01*
X495085Y674286D01*
X495085Y679384D01*
X495068Y679522D01*
X495055Y679661D01*
X495048Y679680D01*
X495045Y679700D01*
X494994Y679829D01*
X494947Y679960D01*
X494936Y679977D01*
X494928Y679996D01*
X494847Y680108D01*
X494769Y680223D01*
X494753Y680237D01*
X494742Y680253D01*
X494634Y680342D01*
X494530Y680434D01*
X494512Y680443D01*
X494497Y680456D01*
X494371Y680515D01*
X494247Y680578D01*
X494227Y680583D01*
X494209Y680591D01*
X494073Y680617D01*
X493937Y680648D01*
X493916Y680647D01*
X493897Y680651D01*
X493758Y680643D01*
X493619Y680638D01*
X493599Y680633D01*
X493579Y680631D01*
X493447Y680589D01*
X493313Y680550D01*
X493296Y680540D01*
X493277Y680533D01*
X493159Y680459D01*
X493039Y680388D01*
X493018Y680370D01*
X493008Y680363D01*
X492994Y680348D01*
X492919Y680282D01*
X490646Y678010D01*
X490586Y677932D01*
X490518Y677860D01*
X490489Y677807D01*
X490452Y677759D01*
X490412Y677667D01*
X490364Y677581D01*
X490349Y677522D01*
X490325Y677467D01*
X490310Y677369D01*
X490285Y677273D01*
X490279Y677173D01*
X490275Y677153D01*
X490277Y677140D01*
X490275Y677112D01*
X490275Y640434D01*
X489076Y637539D01*
X484861Y633324D01*
X481966Y632125D01*
X393188Y632125D01*
X393089Y632113D01*
X392990Y632110D01*
X392932Y632093D01*
X392872Y632085D01*
X392780Y632049D01*
X392685Y632021D01*
X392633Y631991D01*
X392576Y631968D01*
X392496Y631910D01*
X392411Y631860D01*
X392336Y631794D01*
X392319Y631782D01*
X392311Y631772D01*
X392290Y631754D01*
X383646Y623110D01*
X383586Y623032D01*
X383518Y622960D01*
X383489Y622907D01*
X383452Y622859D01*
X383412Y622768D01*
X383364Y622681D01*
X383349Y622622D01*
X383325Y622567D01*
X383310Y622469D01*
X383285Y622373D01*
X383279Y622273D01*
X383275Y622253D01*
X383277Y622240D01*
X383275Y622212D01*
X383275Y597137D01*
X383287Y597039D01*
X383290Y596940D01*
X383307Y596882D01*
X383315Y596822D01*
X383351Y596730D01*
X383379Y596635D01*
X383409Y596582D01*
X383432Y596526D01*
X383490Y596446D01*
X383540Y596361D01*
X383606Y596285D01*
X383618Y596269D01*
X383628Y596261D01*
X383647Y596240D01*
X383965Y595922D01*
X383965Y580578D01*
X383072Y579685D01*
X367728Y579685D01*
X366835Y580578D01*
X366835Y595922D01*
X367153Y596240D01*
X367214Y596318D01*
X367282Y596390D01*
X367311Y596443D01*
X367348Y596491D01*
X367388Y596582D01*
X367436Y596669D01*
X367451Y596727D01*
X367475Y596783D01*
X367490Y596881D01*
X367515Y596977D01*
X367521Y597077D01*
X367525Y597097D01*
X367523Y597109D01*
X367525Y597137D01*
X367525Y627566D01*
X368724Y630461D01*
X384939Y646676D01*
X387834Y647875D01*
X473256Y647875D01*
X473374Y647890D01*
X473493Y647897D01*
X473531Y647910D01*
X473572Y647915D01*
X473682Y647958D01*
X473795Y647995D01*
X473830Y648017D01*
X473867Y648032D01*
X473963Y648101D01*
X474064Y648165D01*
X474092Y648195D01*
X474125Y648218D01*
X474201Y648310D01*
X474282Y648397D01*
X474302Y648432D01*
X474327Y648463D01*
X474378Y648571D01*
X474436Y648675D01*
X474446Y648715D01*
X474463Y648751D01*
X474485Y648868D01*
X474515Y648983D01*
X474519Y649043D01*
X474523Y649063D01*
X474521Y649084D01*
X474525Y649144D01*
X474525Y682466D01*
X475724Y685361D01*
X494714Y704350D01*
X494774Y704428D01*
X494842Y704500D01*
X494871Y704553D01*
X494908Y704601D01*
X494948Y704692D01*
X494996Y704779D01*
X495011Y704838D01*
X495035Y704893D01*
X495050Y704991D01*
X495075Y705087D01*
X495081Y705187D01*
X495085Y705207D01*
X495083Y705220D01*
X495085Y705248D01*
X495085Y708314D01*
X497430Y710659D01*
X497515Y710768D01*
X497604Y710875D01*
X497612Y710894D01*
X497625Y710910D01*
X497680Y711038D01*
X497739Y711163D01*
X497743Y711183D01*
X497751Y711202D01*
X497773Y711340D01*
X497799Y711476D01*
X497798Y711496D01*
X497801Y711516D01*
X497788Y711655D01*
X497779Y711793D01*
X497773Y711812D01*
X497771Y711832D01*
X497724Y711964D01*
X497681Y712095D01*
X497670Y712113D01*
X497664Y712132D01*
X497586Y712247D01*
X497511Y712364D01*
X497496Y712378D01*
X497485Y712395D01*
X497381Y712487D01*
X497280Y712582D01*
X497262Y712592D01*
X497247Y712605D01*
X497122Y712669D01*
X497001Y712736D01*
X496981Y712741D01*
X496963Y712750D01*
X496828Y712780D01*
X496693Y712815D01*
X496665Y712817D01*
X496653Y712820D01*
X496633Y712819D01*
X496532Y712825D01*
X491888Y712825D01*
X491789Y712813D01*
X491690Y712810D01*
X491632Y712793D01*
X491572Y712785D01*
X491480Y712749D01*
X491385Y712721D01*
X491333Y712691D01*
X491276Y712668D01*
X491196Y712610D01*
X491111Y712560D01*
X491035Y712494D01*
X491019Y712482D01*
X491011Y712472D01*
X490990Y712454D01*
X466446Y687910D01*
X466386Y687832D01*
X466318Y687760D01*
X466289Y687707D01*
X466252Y687659D01*
X466212Y687568D01*
X466164Y687481D01*
X466149Y687423D01*
X466125Y687367D01*
X466110Y687269D01*
X466085Y687173D01*
X466079Y687073D01*
X466075Y687053D01*
X466077Y687040D01*
X466075Y687012D01*
X466075Y672022D01*
X466087Y671924D01*
X466090Y671825D01*
X466107Y671767D01*
X466115Y671707D01*
X466151Y671615D01*
X466179Y671520D01*
X466209Y671467D01*
X466232Y671411D01*
X466290Y671331D01*
X466340Y671246D01*
X466406Y671170D01*
X466418Y671154D01*
X466428Y671146D01*
X466446Y671125D01*
X467726Y669846D01*
X467726Y661954D01*
X462146Y656374D01*
X454254Y656374D01*
X448674Y661954D01*
X448674Y669846D01*
X449954Y671125D01*
X450014Y671203D01*
X450082Y671275D01*
X450111Y671328D01*
X450148Y671376D01*
X450188Y671467D01*
X450236Y671554D01*
X450251Y671612D01*
X450275Y671668D01*
X450290Y671766D01*
X450315Y671862D01*
X450321Y671962D01*
X450325Y671982D01*
X450323Y671994D01*
X450325Y672022D01*
X450325Y692366D01*
X451524Y695261D01*
X453918Y697654D01*
X461271Y705008D01*
X461356Y705117D01*
X461445Y705224D01*
X461453Y705243D01*
X461466Y705259D01*
X461521Y705387D01*
X461580Y705512D01*
X461584Y705532D01*
X461592Y705551D01*
X461614Y705689D01*
X461640Y705825D01*
X461639Y705845D01*
X461642Y705865D01*
X461629Y706004D01*
X461620Y706142D01*
X461614Y706161D01*
X461612Y706181D01*
X461565Y706313D01*
X461522Y706444D01*
X461512Y706462D01*
X461505Y706481D01*
X461427Y706596D01*
X461352Y706713D01*
X461337Y706727D01*
X461326Y706744D01*
X461222Y706836D01*
X461121Y706931D01*
X461103Y706941D01*
X461088Y706954D01*
X460964Y707017D01*
X460842Y707085D01*
X460823Y707090D01*
X460804Y707099D01*
X460669Y707129D01*
X460534Y707164D01*
X460506Y707166D01*
X460494Y707169D01*
X460474Y707168D01*
X460373Y707174D01*
X454254Y707174D01*
X452975Y708454D01*
X452897Y708514D01*
X452825Y708582D01*
X452772Y708611D01*
X452724Y708648D01*
X452633Y708688D01*
X452546Y708736D01*
X452488Y708751D01*
X452432Y708775D01*
X452334Y708790D01*
X452238Y708815D01*
X452138Y708821D01*
X452118Y708825D01*
X452106Y708823D01*
X452078Y708825D01*
X366888Y708825D01*
X366789Y708813D01*
X366690Y708810D01*
X366632Y708793D01*
X366572Y708785D01*
X366480Y708749D01*
X366385Y708721D01*
X366333Y708691D01*
X366276Y708668D01*
X366196Y708610D01*
X366111Y708560D01*
X366036Y708494D01*
X366019Y708482D01*
X366011Y708472D01*
X365990Y708454D01*
X326461Y668924D01*
X323566Y667725D01*
X278880Y667725D01*
X278781Y667713D01*
X278682Y667710D01*
X278624Y667693D01*
X278564Y667685D01*
X278472Y667649D01*
X278377Y667621D01*
X278325Y667591D01*
X278268Y667568D01*
X278188Y667510D01*
X278103Y667460D01*
X278028Y667394D01*
X278011Y667382D01*
X278003Y667372D01*
X277982Y667354D01*
X275814Y665185D01*
X267186Y665185D01*
X265018Y667354D01*
X264940Y667414D01*
X264867Y667482D01*
X264814Y667511D01*
X264767Y667548D01*
X264676Y667588D01*
X264589Y667636D01*
X264530Y667651D01*
X264475Y667675D01*
X264377Y667690D01*
X264281Y667715D01*
X264181Y667721D01*
X264161Y667725D01*
X264148Y667723D01*
X264120Y667725D01*
X251288Y667725D01*
X251189Y667713D01*
X251090Y667710D01*
X251032Y667693D01*
X250972Y667685D01*
X250880Y667649D01*
X250785Y667621D01*
X250733Y667591D01*
X250676Y667568D01*
X250596Y667510D01*
X250511Y667460D01*
X250436Y667394D01*
X250419Y667382D01*
X250411Y667372D01*
X250390Y667354D01*
X236097Y653061D01*
X236037Y652983D01*
X235969Y652911D01*
X235940Y652858D01*
X235903Y652810D01*
X235863Y652719D01*
X235815Y652632D01*
X235800Y652574D01*
X235776Y652518D01*
X235761Y652420D01*
X235736Y652324D01*
X235730Y652224D01*
X235726Y652204D01*
X235728Y652191D01*
X235726Y652163D01*
X235726Y650354D01*
X230146Y644774D01*
X222254Y644774D01*
X216674Y650354D01*
X216674Y652163D01*
X216662Y652262D01*
X216659Y652361D01*
X216642Y652419D01*
X216634Y652479D01*
X216598Y652571D01*
X216570Y652666D01*
X216540Y652718D01*
X216517Y652775D01*
X216459Y652855D01*
X216409Y652940D01*
X216343Y653016D01*
X216331Y653032D01*
X216321Y653040D01*
X216303Y653061D01*
X189534Y679830D01*
X187140Y682223D01*
X185941Y685118D01*
X185941Y832646D01*
X187140Y835541D01*
X189272Y837673D01*
X189357Y837782D01*
X189446Y837889D01*
X189454Y837908D01*
X189467Y837924D01*
X189522Y838052D01*
X189581Y838177D01*
X189585Y838197D01*
X189593Y838216D01*
X189615Y838354D01*
X189641Y838490D01*
X189640Y838510D01*
X189643Y838530D01*
X189630Y838669D01*
X189621Y838807D01*
X189615Y838826D01*
X189613Y838846D01*
X189566Y838978D01*
X189523Y839109D01*
X189513Y839127D01*
X189506Y839146D01*
X189428Y839261D01*
X189353Y839378D01*
X189338Y839392D01*
X189327Y839409D01*
X189223Y839501D01*
X189122Y839596D01*
X189104Y839606D01*
X189089Y839619D01*
X188965Y839683D01*
X188843Y839750D01*
X188824Y839755D01*
X188805Y839764D01*
X188670Y839794D01*
X188535Y839829D01*
X188507Y839831D01*
X188495Y839834D01*
X188475Y839833D01*
X188374Y839839D01*
X11430Y839839D01*
X11312Y839824D01*
X11193Y839817D01*
X11155Y839804D01*
X11114Y839799D01*
X11004Y839756D01*
X10891Y839719D01*
X10856Y839697D01*
X10819Y839682D01*
X10723Y839613D01*
X10622Y839549D01*
X10594Y839519D01*
X10561Y839496D01*
X10485Y839404D01*
X10404Y839317D01*
X10384Y839282D01*
X10359Y839251D01*
X10308Y839143D01*
X10250Y839039D01*
X10240Y838999D01*
X10223Y838963D01*
X10201Y838846D01*
X10171Y838731D01*
X10167Y838671D01*
X10163Y838651D01*
X10165Y838630D01*
X10161Y838570D01*
X10161Y478046D01*
X10178Y477908D01*
X10191Y477769D01*
X10198Y477750D01*
X10201Y477730D01*
X10252Y477601D01*
X10299Y477470D01*
X10310Y477453D01*
X10318Y477435D01*
X10399Y477322D01*
X10477Y477207D01*
X10493Y477194D01*
X10504Y477177D01*
X10612Y477088D01*
X10716Y476997D01*
X10734Y476987D01*
X10749Y476974D01*
X10875Y476915D01*
X10999Y476852D01*
X11019Y476848D01*
X11037Y476839D01*
X11173Y476813D01*
X11309Y476782D01*
X11330Y476783D01*
X11349Y476779D01*
X11488Y476788D01*
X11627Y476792D01*
X11647Y476798D01*
X11667Y476799D01*
X11799Y476842D01*
X11933Y476880D01*
X11950Y476891D01*
X11969Y476897D01*
X12087Y476971D01*
X12207Y477042D01*
X12228Y477060D01*
X12238Y477067D01*
X12252Y477082D01*
X12327Y477148D01*
X15360Y480181D01*
X20051Y482124D01*
X47609Y482124D01*
X52300Y480181D01*
X55891Y476590D01*
X57834Y471899D01*
X57834Y466821D01*
X55891Y462130D01*
X52300Y458539D01*
X50594Y457833D01*
X50473Y457764D01*
X50351Y457699D01*
X50336Y457685D01*
X50318Y457675D01*
X50218Y457578D01*
X50115Y457485D01*
X50104Y457468D01*
X50090Y457454D01*
X50017Y457335D01*
X49941Y457219D01*
X49934Y457200D01*
X49924Y457183D01*
X49883Y457050D01*
X49838Y456918D01*
X49836Y456898D01*
X49830Y456879D01*
X49823Y456740D01*
X49812Y456601D01*
X49816Y456581D01*
X49815Y456561D01*
X49843Y456425D01*
X49867Y456288D01*
X49875Y456269D01*
X49879Y456250D01*
X49940Y456124D01*
X49997Y455998D01*
X50010Y455982D01*
X50019Y455964D01*
X50109Y455858D01*
X50196Y455750D01*
X50212Y455737D01*
X50225Y455722D01*
X50339Y455642D01*
X50450Y455558D01*
X50475Y455546D01*
X50485Y455539D01*
X50504Y455532D01*
X50595Y455487D01*
X52300Y454781D01*
X54874Y452206D01*
X54953Y452146D01*
X55025Y452078D01*
X55078Y452049D01*
X55126Y452012D01*
X55217Y451972D01*
X55303Y451924D01*
X55362Y451909D01*
X55417Y451885D01*
X55515Y451870D01*
X55611Y451845D01*
X55711Y451839D01*
X55732Y451835D01*
X55744Y451837D01*
X55772Y451835D01*
X68142Y451835D01*
X68241Y451847D01*
X68340Y451850D01*
X68398Y451867D01*
X68458Y451875D01*
X68550Y451911D01*
X68645Y451939D01*
X68697Y451969D01*
X68754Y451992D01*
X68834Y452050D01*
X68919Y452100D01*
X68994Y452166D01*
X69011Y452178D01*
X69019Y452188D01*
X69040Y452206D01*
X101784Y484950D01*
X101844Y485028D01*
X101912Y485100D01*
X101941Y485153D01*
X101978Y485201D01*
X102018Y485292D01*
X102066Y485379D01*
X102081Y485438D01*
X102105Y485493D01*
X102120Y485591D01*
X102145Y485687D01*
X102151Y485787D01*
X102155Y485807D01*
X102153Y485820D01*
X102155Y485848D01*
X102155Y542466D01*
X103354Y545361D01*
X105569Y547576D01*
X108464Y548775D01*
X138890Y548775D01*
X139027Y548792D01*
X139166Y548805D01*
X139185Y548812D01*
X139205Y548815D01*
X139334Y548866D01*
X139465Y548913D01*
X139482Y548924D01*
X139501Y548932D01*
X139613Y549013D01*
X139728Y549091D01*
X139742Y549107D01*
X139758Y549118D01*
X139847Y549226D01*
X139939Y549330D01*
X139948Y549348D01*
X139961Y549363D01*
X140020Y549489D01*
X140083Y549613D01*
X140088Y549633D01*
X140097Y549651D01*
X140123Y549787D01*
X140153Y549923D01*
X140153Y549944D01*
X140156Y549963D01*
X140148Y550102D01*
X140143Y550241D01*
X140138Y550261D01*
X140137Y550281D01*
X140094Y550413D01*
X140055Y550547D01*
X140045Y550564D01*
X140039Y550583D01*
X139964Y550701D01*
X139894Y550821D01*
X139875Y550842D01*
X139868Y550852D01*
X139853Y550866D01*
X139787Y550941D01*
X136774Y553954D01*
X136774Y561846D01*
X142354Y567426D01*
X150246Y567426D01*
X155826Y561846D01*
X155826Y553954D01*
X152813Y550941D01*
X152728Y550832D01*
X152639Y550725D01*
X152630Y550706D01*
X152618Y550690D01*
X152562Y550562D01*
X152503Y550437D01*
X152500Y550417D01*
X152492Y550398D01*
X152470Y550260D01*
X152444Y550124D01*
X152445Y550104D01*
X152442Y550084D01*
X152455Y549945D01*
X152463Y549807D01*
X152470Y549788D01*
X152472Y549768D01*
X152519Y549636D01*
X152561Y549505D01*
X152572Y549487D01*
X152579Y549468D01*
X152657Y549353D01*
X152732Y549236D01*
X152746Y549222D01*
X152758Y549205D01*
X152862Y549113D01*
X152963Y549018D01*
X152981Y549008D01*
X152996Y548995D01*
X153120Y548931D01*
X153242Y548864D01*
X153261Y548859D01*
X153279Y548850D01*
X153415Y548820D01*
X153550Y548785D01*
X153578Y548783D01*
X153590Y548780D01*
X153610Y548781D01*
X153710Y548775D01*
X176312Y548775D01*
X176411Y548787D01*
X176510Y548790D01*
X176568Y548807D01*
X176628Y548815D01*
X176720Y548851D01*
X176815Y548879D01*
X176867Y548909D01*
X176924Y548932D01*
X177004Y548990D01*
X177089Y549040D01*
X177164Y549106D01*
X177181Y549118D01*
X177189Y549128D01*
X177210Y549146D01*
X182504Y554440D01*
X182564Y554518D01*
X182632Y554590D01*
X182661Y554643D01*
X182698Y554691D01*
X182738Y554782D01*
X182786Y554869D01*
X182801Y554928D01*
X182825Y554983D01*
X182840Y555081D01*
X182865Y555177D01*
X182871Y555277D01*
X182875Y555297D01*
X182873Y555310D01*
X182875Y555338D01*
X182875Y560730D01*
X185041Y565958D01*
X189042Y569959D01*
X194270Y572125D01*
X199930Y572125D01*
X205158Y569959D01*
X222620Y552496D01*
X222699Y552436D01*
X222771Y552368D01*
X222824Y552339D01*
X222872Y552302D01*
X222963Y552262D01*
X223049Y552214D01*
X223108Y552199D01*
X223163Y552175D01*
X223261Y552160D01*
X223357Y552135D01*
X223457Y552129D01*
X223478Y552125D01*
X223490Y552127D01*
X223518Y552125D01*
X250042Y552125D01*
X250140Y552137D01*
X250239Y552140D01*
X250298Y552157D01*
X250358Y552165D01*
X250450Y552201D01*
X250545Y552229D01*
X250597Y552259D01*
X250653Y552282D01*
X250733Y552340D01*
X250819Y552390D01*
X250894Y552456D01*
X250911Y552468D01*
X250914Y552472D01*
X250917Y552474D01*
X250922Y552481D01*
X250940Y552496D01*
X260612Y562169D01*
X260697Y562278D01*
X260786Y562385D01*
X260794Y562404D01*
X260807Y562420D01*
X260862Y562548D01*
X260921Y562673D01*
X260925Y562693D01*
X260933Y562712D01*
X260955Y562850D01*
X260981Y562986D01*
X260980Y563006D01*
X260983Y563026D01*
X260970Y563165D01*
X260961Y563303D01*
X260955Y563322D01*
X260953Y563342D01*
X260906Y563473D01*
X260863Y563605D01*
X260852Y563623D01*
X260845Y563642D01*
X260767Y563757D01*
X260693Y563874D01*
X260678Y563888D01*
X260667Y563905D01*
X260563Y563997D01*
X260461Y564092D01*
X260444Y564102D01*
X260428Y564115D01*
X260304Y564179D01*
X260183Y564246D01*
X260163Y564251D01*
X260145Y564260D01*
X260009Y564290D01*
X259875Y564325D01*
X259847Y564327D01*
X259835Y564330D01*
X259814Y564329D01*
X259714Y564335D01*
X248788Y564335D01*
X247895Y565228D01*
X247895Y580572D01*
X248788Y581465D01*
X264132Y581465D01*
X265025Y580572D01*
X265025Y569347D01*
X265031Y569297D01*
X265029Y569248D01*
X265051Y569140D01*
X265065Y569031D01*
X265083Y568985D01*
X265093Y568936D01*
X265141Y568837D01*
X265182Y568735D01*
X265211Y568695D01*
X265233Y568651D01*
X265304Y568567D01*
X265368Y568478D01*
X265407Y568446D01*
X265439Y568409D01*
X265529Y568345D01*
X265613Y568275D01*
X265658Y568254D01*
X265699Y568226D01*
X265802Y568186D01*
X265901Y568140D01*
X265950Y568130D01*
X265996Y568113D01*
X266106Y568101D01*
X266213Y568080D01*
X266263Y568083D01*
X266312Y568078D01*
X266421Y568093D01*
X266531Y568100D01*
X266578Y568115D01*
X266627Y568122D01*
X266780Y568174D01*
X271730Y570225D01*
X613830Y570225D01*
X619058Y568059D01*
X651220Y535896D01*
X651299Y535836D01*
X651371Y535768D01*
X651424Y535739D01*
X651472Y535702D01*
X651563Y535662D01*
X651649Y535614D01*
X651708Y535599D01*
X651763Y535575D01*
X651861Y535560D01*
X651957Y535535D01*
X652057Y535529D01*
X652078Y535525D01*
X652090Y535527D01*
X652118Y535525D01*
X1012830Y535525D01*
X1018058Y533359D01*
X1022237Y529179D01*
X1022238Y529179D01*
X1077879Y473538D01*
X1082059Y469358D01*
X1084225Y464130D01*
X1084225Y139470D01*
X1082059Y134242D01*
X1018058Y70241D01*
X1012830Y68075D01*
X1007170Y68075D01*
X1001942Y70241D01*
X997941Y74242D01*
X995775Y79470D01*
X995775Y85130D01*
X997941Y90358D01*
X1055404Y147820D01*
X1055464Y147899D01*
X1055532Y147971D01*
X1055561Y148024D01*
X1055598Y148072D01*
X1055638Y148163D01*
X1055686Y148249D01*
X1055701Y148308D01*
X1055725Y148363D01*
X1055740Y148461D01*
X1055765Y148557D01*
X1055771Y148657D01*
X1055775Y148678D01*
X1055773Y148690D01*
X1055775Y148718D01*
X1055775Y454882D01*
X1055763Y454980D01*
X1055760Y455079D01*
X1055743Y455138D01*
X1055735Y455198D01*
X1055699Y455290D01*
X1055671Y455385D01*
X1055641Y455437D01*
X1055618Y455493D01*
X1055560Y455573D01*
X1055510Y455659D01*
X1055444Y455734D01*
X1055432Y455751D01*
X1055422Y455759D01*
X1055404Y455780D01*
X1004480Y506704D01*
X1004401Y506764D01*
X1004329Y506832D01*
X1004276Y506861D01*
X1004228Y506898D01*
X1004137Y506938D01*
X1004051Y506986D01*
X1003992Y507001D01*
X1003937Y507025D01*
X1003839Y507040D01*
X1003743Y507065D01*
X1003643Y507071D01*
X1003622Y507075D01*
X1003610Y507073D01*
X1003582Y507075D01*
X642870Y507075D01*
X637642Y509241D01*
X605480Y541404D01*
X605401Y541464D01*
X605329Y541532D01*
X605276Y541561D01*
X605228Y541598D01*
X605137Y541638D01*
X605051Y541686D01*
X604992Y541701D01*
X604937Y541725D01*
X604839Y541740D01*
X604743Y541765D01*
X604643Y541771D01*
X604622Y541775D01*
X604610Y541773D01*
X604582Y541775D01*
X280978Y541775D01*
X280880Y541763D01*
X280781Y541760D01*
X280722Y541743D01*
X280662Y541735D01*
X280570Y541699D01*
X280475Y541671D01*
X280423Y541641D01*
X280367Y541618D01*
X280287Y541560D01*
X280201Y541510D01*
X280126Y541444D01*
X280109Y541432D01*
X280101Y541422D01*
X280080Y541404D01*
X264518Y525841D01*
X259290Y523675D01*
X214270Y523675D01*
X209042Y525841D01*
X204862Y530021D01*
X193507Y541376D01*
X193413Y541449D01*
X193324Y541528D01*
X193288Y541546D01*
X193256Y541571D01*
X193147Y541618D01*
X193041Y541672D01*
X193001Y541681D01*
X192964Y541697D01*
X192847Y541716D01*
X192731Y541742D01*
X192690Y541741D01*
X192650Y541747D01*
X192532Y541736D01*
X192413Y541732D01*
X192374Y541721D01*
X192334Y541717D01*
X192221Y541677D01*
X192107Y541644D01*
X192072Y541623D01*
X192034Y541610D01*
X191936Y541543D01*
X191833Y541482D01*
X191788Y541442D01*
X191771Y541431D01*
X191758Y541416D01*
X191712Y541376D01*
X184561Y534224D01*
X181666Y533025D01*
X119174Y533025D01*
X119056Y533010D01*
X118937Y533003D01*
X118899Y532990D01*
X118858Y532985D01*
X118748Y532942D01*
X118635Y532905D01*
X118600Y532883D01*
X118563Y532868D01*
X118467Y532799D01*
X118366Y532735D01*
X118338Y532705D01*
X118305Y532682D01*
X118229Y532590D01*
X118148Y532503D01*
X118128Y532468D01*
X118103Y532437D01*
X118052Y532329D01*
X117994Y532225D01*
X117984Y532185D01*
X117967Y532149D01*
X117945Y532032D01*
X117915Y531917D01*
X117911Y531857D01*
X117907Y531837D01*
X117909Y531816D01*
X117905Y531756D01*
X117905Y480494D01*
X116706Y477599D01*
X76391Y437284D01*
X73496Y436085D01*
X55772Y436085D01*
X55674Y436073D01*
X55575Y436070D01*
X55516Y436053D01*
X55456Y436045D01*
X55364Y436009D01*
X55269Y435981D01*
X55217Y435951D01*
X55161Y435928D01*
X55080Y435870D01*
X54995Y435820D01*
X54920Y435754D01*
X54903Y435742D01*
X54895Y435732D01*
X54874Y435714D01*
X52300Y433139D01*
X50594Y432433D01*
X50473Y432364D01*
X50351Y432299D01*
X50336Y432285D01*
X50318Y432275D01*
X50218Y432178D01*
X50115Y432085D01*
X50104Y432068D01*
X50090Y432054D01*
X50017Y431935D01*
X49941Y431819D01*
X49934Y431800D01*
X49924Y431783D01*
X49883Y431650D01*
X49838Y431518D01*
X49836Y431498D01*
X49830Y431479D01*
X49823Y431340D01*
X49812Y431201D01*
X49816Y431181D01*
X49815Y431161D01*
X49843Y431025D01*
X49867Y430888D01*
X49875Y430869D01*
X49879Y430850D01*
X49940Y430724D01*
X49997Y430598D01*
X50010Y430582D01*
X50019Y430564D01*
X50109Y430458D01*
X50196Y430350D01*
X50212Y430337D01*
X50225Y430322D01*
X50339Y430242D01*
X50450Y430158D01*
X50475Y430146D01*
X50485Y430139D01*
X50504Y430132D01*
X50595Y430087D01*
X52300Y429381D01*
X55314Y426366D01*
X55393Y426306D01*
X55465Y426238D01*
X55518Y426209D01*
X55566Y426172D01*
X55657Y426132D01*
X55743Y426084D01*
X55802Y426069D01*
X55857Y426045D01*
X55955Y426030D01*
X56051Y426005D01*
X56151Y425999D01*
X56172Y425995D01*
X56184Y425997D01*
X56212Y425995D01*
X86632Y425995D01*
X86731Y426007D01*
X86830Y426010D01*
X86888Y426027D01*
X86948Y426035D01*
X87040Y426071D01*
X87135Y426099D01*
X87187Y426129D01*
X87244Y426152D01*
X87324Y426210D01*
X87409Y426260D01*
X87484Y426326D01*
X87501Y426338D01*
X87509Y426348D01*
X87530Y426366D01*
X136403Y475239D01*
X136463Y475317D01*
X136531Y475389D01*
X136560Y475442D01*
X136597Y475490D01*
X136637Y475581D01*
X136685Y475668D01*
X136700Y475727D01*
X136724Y475782D01*
X136739Y475880D01*
X136764Y475976D01*
X136770Y476076D01*
X136774Y476096D01*
X136772Y476109D01*
X136774Y476137D01*
X136774Y477946D01*
X142354Y483526D01*
X150246Y483526D01*
X155826Y477946D01*
X155826Y476137D01*
X155838Y476038D01*
X155841Y475939D01*
X155858Y475881D01*
X155866Y475821D01*
X155902Y475729D01*
X155930Y475634D01*
X155960Y475582D01*
X155983Y475525D01*
X156041Y475445D01*
X156091Y475360D01*
X156157Y475284D01*
X156169Y475268D01*
X156179Y475260D01*
X156197Y475239D01*
X219295Y412141D01*
X219335Y412111D01*
X219368Y412074D01*
X219460Y412014D01*
X219547Y411946D01*
X219592Y411927D01*
X219634Y411899D01*
X219737Y411864D01*
X219838Y411820D01*
X219888Y411812D01*
X219934Y411796D01*
X220044Y411787D01*
X220152Y411770D01*
X220202Y411775D01*
X220251Y411771D01*
X220360Y411790D01*
X220469Y411800D01*
X220516Y411817D01*
X220565Y411825D01*
X220665Y411870D01*
X220768Y411908D01*
X220809Y411935D01*
X220855Y411956D01*
X220941Y412025D01*
X221031Y412086D01*
X221064Y412123D01*
X221103Y412154D01*
X221169Y412242D01*
X221242Y412325D01*
X221265Y412369D01*
X221294Y412409D01*
X221365Y412553D01*
X221824Y413661D01*
X279403Y471239D01*
X279463Y471317D01*
X279531Y471389D01*
X279560Y471442D01*
X279597Y471490D01*
X279637Y471581D01*
X279685Y471668D01*
X279700Y471726D01*
X279724Y471782D01*
X279739Y471880D01*
X279764Y471976D01*
X279770Y472076D01*
X279774Y472096D01*
X279772Y472109D01*
X279774Y472137D01*
X279774Y473946D01*
X285354Y479526D01*
X293246Y479526D01*
X298826Y473946D01*
X298826Y466054D01*
X293246Y460474D01*
X291437Y460474D01*
X291338Y460462D01*
X291239Y460459D01*
X291181Y460442D01*
X291121Y460434D01*
X291029Y460398D01*
X290934Y460370D01*
X290882Y460340D01*
X290825Y460317D01*
X290745Y460259D01*
X290660Y460209D01*
X290584Y460143D01*
X290568Y460131D01*
X290560Y460121D01*
X290539Y460103D01*
X236746Y406310D01*
X236686Y406232D01*
X236618Y406160D01*
X236589Y406107D01*
X236552Y406059D01*
X236512Y405968D01*
X236464Y405881D01*
X236449Y405822D01*
X236425Y405767D01*
X236410Y405669D01*
X236385Y405573D01*
X236379Y405473D01*
X236375Y405453D01*
X236377Y405440D01*
X236375Y405412D01*
X236375Y382287D01*
X236387Y382189D01*
X236390Y382090D01*
X236407Y382032D01*
X236415Y381972D01*
X236451Y381880D01*
X236479Y381785D01*
X236509Y381732D01*
X236532Y381676D01*
X236590Y381596D01*
X236640Y381511D01*
X236706Y381435D01*
X236718Y381419D01*
X236728Y381411D01*
X236746Y381390D01*
X237065Y381072D01*
X237065Y365728D01*
X236172Y364835D01*
X220828Y364835D01*
X219935Y365728D01*
X219935Y381072D01*
X220254Y381390D01*
X220314Y381468D01*
X220382Y381540D01*
X220411Y381593D01*
X220448Y381641D01*
X220488Y381732D01*
X220536Y381819D01*
X220551Y381877D01*
X220575Y381933D01*
X220590Y382031D01*
X220615Y382127D01*
X220621Y382227D01*
X220625Y382247D01*
X220623Y382259D01*
X220625Y382287D01*
X220625Y388012D01*
X220613Y388111D01*
X220610Y388210D01*
X220593Y388268D01*
X220585Y388328D01*
X220549Y388420D01*
X220521Y388515D01*
X220491Y388567D01*
X220468Y388624D01*
X220410Y388704D01*
X220360Y388789D01*
X220294Y388865D01*
X220282Y388881D01*
X220272Y388889D01*
X220254Y388910D01*
X147198Y461966D01*
X147103Y462039D01*
X147014Y462118D01*
X146978Y462136D01*
X146946Y462161D01*
X146837Y462208D01*
X146731Y462262D01*
X146692Y462271D01*
X146654Y462287D01*
X146537Y462306D01*
X146421Y462332D01*
X146380Y462331D01*
X146340Y462337D01*
X146222Y462326D01*
X146103Y462322D01*
X146064Y462311D01*
X146024Y462307D01*
X145911Y462267D01*
X145797Y462234D01*
X145763Y462213D01*
X145724Y462200D01*
X145626Y462133D01*
X145523Y462072D01*
X145478Y462032D01*
X145461Y462021D01*
X145448Y462006D01*
X145403Y461966D01*
X94881Y411444D01*
X91986Y410245D01*
X55332Y410245D01*
X55234Y410233D01*
X55135Y410230D01*
X55076Y410213D01*
X55016Y410205D01*
X54924Y410169D01*
X54829Y410141D01*
X54777Y410111D01*
X54721Y410088D01*
X54640Y410030D01*
X54555Y409980D01*
X54480Y409914D01*
X54463Y409902D01*
X54455Y409892D01*
X54434Y409874D01*
X52300Y407739D01*
X47609Y405796D01*
X20051Y405796D01*
X15360Y407739D01*
X12327Y410772D01*
X12218Y410857D01*
X12111Y410946D01*
X12092Y410954D01*
X12076Y410967D01*
X11948Y411022D01*
X11823Y411081D01*
X11803Y411085D01*
X11784Y411093D01*
X11646Y411115D01*
X11510Y411141D01*
X11490Y411140D01*
X11470Y411143D01*
X11331Y411130D01*
X11193Y411121D01*
X11174Y411115D01*
X11154Y411113D01*
X11022Y411066D01*
X10891Y411023D01*
X10873Y411012D01*
X10854Y411005D01*
X10739Y410927D01*
X10622Y410853D01*
X10608Y410838D01*
X10591Y410827D01*
X10499Y410722D01*
X10404Y410621D01*
X10394Y410604D01*
X10381Y410588D01*
X10317Y410464D01*
X10250Y410343D01*
X10245Y410323D01*
X10236Y410305D01*
X10206Y410169D01*
X10171Y410035D01*
X10169Y410007D01*
X10166Y409995D01*
X10167Y409974D01*
X10161Y409874D01*
X10161Y11430D01*
X10176Y11312D01*
X10183Y11193D01*
X10196Y11155D01*
X10201Y11114D01*
X10244Y11004D01*
X10281Y10891D01*
X10303Y10856D01*
X10318Y10819D01*
X10387Y10723D01*
X10451Y10622D01*
X10481Y10594D01*
X10504Y10561D01*
X10596Y10485D01*
X10683Y10404D01*
X10718Y10384D01*
X10749Y10359D01*
X10857Y10308D01*
X10961Y10250D01*
X11001Y10240D01*
X11037Y10223D01*
X11154Y10201D01*
X11269Y10171D01*
X11329Y10167D01*
X11349Y10163D01*
X11370Y10165D01*
X11430Y10161D01*
X1638570Y10161D01*
X1638688Y10176D01*
G37*
%LPC*%
G36*
X1007170Y355075D02*
X1007170Y355075D01*
X1001942Y357241D01*
X944530Y414654D01*
X944451Y414714D01*
X944379Y414782D01*
X944326Y414811D01*
X944278Y414848D01*
X944187Y414888D01*
X944101Y414936D01*
X944042Y414951D01*
X943987Y414975D01*
X943889Y414990D01*
X943793Y415015D01*
X943693Y415021D01*
X943672Y415025D01*
X943660Y415023D01*
X943632Y415025D01*
X350970Y415025D01*
X345742Y417191D01*
X344384Y418549D01*
X344290Y418622D01*
X344201Y418701D01*
X344165Y418719D01*
X344133Y418744D01*
X344024Y418791D01*
X343918Y418845D01*
X343878Y418854D01*
X343841Y418870D01*
X343724Y418889D01*
X343608Y418915D01*
X343567Y418914D01*
X343527Y418920D01*
X343409Y418909D01*
X343290Y418905D01*
X343251Y418894D01*
X343211Y418890D01*
X343098Y418850D01*
X342984Y418817D01*
X342949Y418796D01*
X342911Y418783D01*
X342813Y418716D01*
X342710Y418655D01*
X342665Y418615D01*
X342648Y418604D01*
X342635Y418589D01*
X342589Y418549D01*
X322676Y398636D01*
X322616Y398558D01*
X322548Y398486D01*
X322519Y398433D01*
X322482Y398385D01*
X322442Y398294D01*
X322394Y398207D01*
X322379Y398149D01*
X322355Y398093D01*
X322340Y397995D01*
X322315Y397899D01*
X322309Y397799D01*
X322305Y397779D01*
X322307Y397766D01*
X322305Y397738D01*
X322305Y385392D01*
X322317Y385294D01*
X322320Y385195D01*
X322337Y385137D01*
X322345Y385077D01*
X322381Y384985D01*
X322409Y384890D01*
X322439Y384838D01*
X322462Y384781D01*
X322520Y384701D01*
X322570Y384616D01*
X322636Y384540D01*
X322648Y384524D01*
X322658Y384516D01*
X322676Y384495D01*
X325226Y381946D01*
X325226Y374054D01*
X319646Y368474D01*
X311754Y368474D01*
X306174Y374054D01*
X306174Y381946D01*
X308724Y384495D01*
X308784Y384573D01*
X308852Y384645D01*
X308881Y384698D01*
X308918Y384746D01*
X308958Y384837D01*
X309006Y384924D01*
X309021Y384982D01*
X309045Y385038D01*
X309060Y385136D01*
X309085Y385232D01*
X309091Y385332D01*
X309095Y385352D01*
X309093Y385364D01*
X309095Y385392D01*
X309095Y395338D01*
X309083Y395437D01*
X309080Y395536D01*
X309063Y395594D01*
X309055Y395654D01*
X309019Y395746D01*
X308991Y395841D01*
X308961Y395893D01*
X308938Y395950D01*
X308880Y396030D01*
X308830Y396115D01*
X308764Y396191D01*
X308752Y396207D01*
X308742Y396215D01*
X308724Y396236D01*
X290857Y414103D01*
X290779Y414163D01*
X290707Y414231D01*
X290654Y414260D01*
X290606Y414297D01*
X290515Y414337D01*
X290428Y414385D01*
X290370Y414400D01*
X290314Y414424D01*
X290216Y414439D01*
X290120Y414464D01*
X290020Y414470D01*
X290000Y414474D01*
X289987Y414472D01*
X289959Y414474D01*
X286354Y414474D01*
X280774Y420054D01*
X280774Y427946D01*
X286354Y433526D01*
X294246Y433526D01*
X299826Y427946D01*
X299826Y424341D01*
X299838Y424242D01*
X299841Y424143D01*
X299858Y424085D01*
X299866Y424025D01*
X299902Y423933D01*
X299930Y423838D01*
X299960Y423786D01*
X299983Y423729D01*
X300041Y423649D01*
X300091Y423564D01*
X300157Y423488D01*
X300169Y423472D01*
X300179Y423464D01*
X300197Y423443D01*
X304008Y419633D01*
X304117Y419548D01*
X304224Y419459D01*
X304243Y419450D01*
X304259Y419438D01*
X304387Y419383D01*
X304512Y419324D01*
X304532Y419320D01*
X304551Y419312D01*
X304689Y419290D01*
X304825Y419264D01*
X304845Y419265D01*
X304865Y419262D01*
X305004Y419275D01*
X305142Y419284D01*
X305161Y419290D01*
X305181Y419292D01*
X305313Y419339D01*
X305444Y419382D01*
X305462Y419392D01*
X305481Y419399D01*
X305596Y419477D01*
X305713Y419552D01*
X305727Y419566D01*
X305744Y419578D01*
X305836Y419682D01*
X305931Y419783D01*
X305941Y419801D01*
X305954Y419816D01*
X306018Y419940D01*
X306085Y420062D01*
X306090Y420081D01*
X306099Y420099D01*
X306129Y420235D01*
X306164Y420370D01*
X306166Y420398D01*
X306169Y420410D01*
X306168Y420430D01*
X306174Y420530D01*
X306174Y427946D01*
X311754Y433526D01*
X315359Y433526D01*
X315458Y433538D01*
X315557Y433541D01*
X315615Y433558D01*
X315675Y433566D01*
X315767Y433602D01*
X315862Y433630D01*
X315914Y433660D01*
X315971Y433683D01*
X316051Y433741D01*
X316136Y433791D01*
X316212Y433857D01*
X316228Y433869D01*
X316236Y433879D01*
X316257Y433897D01*
X340938Y458579D01*
X341023Y458688D01*
X341112Y458795D01*
X341121Y458814D01*
X341133Y458830D01*
X341188Y458958D01*
X341247Y459083D01*
X341251Y459103D01*
X341259Y459122D01*
X341281Y459260D01*
X341307Y459396D01*
X341306Y459416D01*
X341309Y459436D01*
X341296Y459575D01*
X341287Y459713D01*
X341281Y459732D01*
X341279Y459752D01*
X341232Y459884D01*
X341189Y460015D01*
X341179Y460033D01*
X341172Y460052D01*
X341094Y460167D01*
X341019Y460284D01*
X341005Y460298D01*
X340993Y460315D01*
X340889Y460407D01*
X340788Y460502D01*
X340770Y460512D01*
X340755Y460525D01*
X340631Y460588D01*
X340509Y460656D01*
X340490Y460661D01*
X340472Y460670D01*
X340336Y460700D01*
X340201Y460735D01*
X340173Y460737D01*
X340161Y460740D01*
X340141Y460739D01*
X340041Y460745D01*
X338636Y460745D01*
X336209Y461751D01*
X326392Y471567D01*
X326283Y471652D01*
X326176Y471741D01*
X326157Y471750D01*
X326141Y471762D01*
X326013Y471817D01*
X325888Y471876D01*
X325868Y471880D01*
X325849Y471888D01*
X325711Y471910D01*
X325575Y471936D01*
X325555Y471935D01*
X325535Y471938D01*
X325396Y471925D01*
X325258Y471916D01*
X325239Y471910D01*
X325219Y471908D01*
X325087Y471861D01*
X324956Y471818D01*
X324938Y471808D01*
X324919Y471801D01*
X324804Y471723D01*
X324687Y471648D01*
X324673Y471634D01*
X324656Y471622D01*
X324564Y471518D01*
X324469Y471417D01*
X324459Y471399D01*
X324446Y471384D01*
X324382Y471260D01*
X324315Y471138D01*
X324310Y471119D01*
X324301Y471101D01*
X324271Y470965D01*
X324236Y470830D01*
X324234Y470802D01*
X324231Y470790D01*
X324232Y470770D01*
X324226Y470670D01*
X324226Y466054D01*
X318646Y460474D01*
X310754Y460474D01*
X305174Y466054D01*
X305174Y473946D01*
X310754Y479526D01*
X315370Y479526D01*
X315507Y479543D01*
X315646Y479556D01*
X315665Y479563D01*
X315685Y479566D01*
X315814Y479617D01*
X315945Y479664D01*
X315962Y479675D01*
X315981Y479683D01*
X316093Y479764D01*
X316208Y479842D01*
X316222Y479858D01*
X316238Y479869D01*
X316327Y479977D01*
X316419Y480081D01*
X316428Y480099D01*
X316441Y480114D01*
X316500Y480240D01*
X316563Y480364D01*
X316568Y480384D01*
X316576Y480402D01*
X316603Y480538D01*
X316633Y480674D01*
X316632Y480695D01*
X316636Y480714D01*
X316628Y480853D01*
X316623Y480992D01*
X316618Y481012D01*
X316616Y481032D01*
X316574Y481164D01*
X316535Y481298D01*
X316525Y481315D01*
X316518Y481334D01*
X316444Y481452D01*
X316373Y481572D01*
X316355Y481593D01*
X316348Y481603D01*
X316333Y481617D01*
X316267Y481692D01*
X291857Y506103D01*
X291779Y506163D01*
X291707Y506231D01*
X291654Y506260D01*
X291606Y506297D01*
X291515Y506337D01*
X291428Y506385D01*
X291370Y506400D01*
X291314Y506424D01*
X291216Y506439D01*
X291120Y506464D01*
X291020Y506470D01*
X291000Y506474D01*
X290987Y506472D01*
X290959Y506474D01*
X285354Y506474D01*
X279774Y512054D01*
X279774Y519946D01*
X285354Y525526D01*
X293246Y525526D01*
X298826Y519946D01*
X298826Y518341D01*
X298838Y518242D01*
X298841Y518143D01*
X298858Y518085D01*
X298866Y518025D01*
X298902Y517933D01*
X298930Y517838D01*
X298960Y517786D01*
X298983Y517729D01*
X299041Y517649D01*
X299091Y517564D01*
X299157Y517488D01*
X299169Y517472D01*
X299179Y517464D01*
X299197Y517443D01*
X303008Y513633D01*
X303117Y513548D01*
X303224Y513459D01*
X303243Y513450D01*
X303259Y513438D01*
X303387Y513383D01*
X303512Y513324D01*
X303532Y513320D01*
X303551Y513312D01*
X303689Y513290D01*
X303825Y513264D01*
X303845Y513265D01*
X303865Y513262D01*
X304004Y513275D01*
X304142Y513284D01*
X304161Y513290D01*
X304181Y513292D01*
X304313Y513339D01*
X304444Y513382D01*
X304462Y513392D01*
X304481Y513399D01*
X304596Y513477D01*
X304713Y513552D01*
X304727Y513566D01*
X304744Y513578D01*
X304836Y513682D01*
X304931Y513783D01*
X304941Y513801D01*
X304954Y513816D01*
X305018Y513940D01*
X305085Y514062D01*
X305090Y514081D01*
X305099Y514099D01*
X305129Y514235D01*
X305164Y514370D01*
X305166Y514398D01*
X305169Y514410D01*
X305168Y514430D01*
X305174Y514530D01*
X305174Y519946D01*
X310754Y525526D01*
X318646Y525526D01*
X324226Y519946D01*
X324226Y512054D01*
X318646Y506474D01*
X313230Y506474D01*
X313093Y506457D01*
X312954Y506444D01*
X312935Y506437D01*
X312915Y506434D01*
X312786Y506383D01*
X312655Y506336D01*
X312638Y506325D01*
X312619Y506317D01*
X312507Y506236D01*
X312392Y506158D01*
X312378Y506142D01*
X312362Y506131D01*
X312273Y506023D01*
X312181Y505919D01*
X312172Y505901D01*
X312159Y505886D01*
X312100Y505760D01*
X312037Y505636D01*
X312032Y505616D01*
X312024Y505598D01*
X311997Y505462D01*
X311967Y505326D01*
X311968Y505305D01*
X311964Y505286D01*
X311972Y505147D01*
X311977Y505008D01*
X311982Y504988D01*
X311984Y504968D01*
X312026Y504836D01*
X312065Y504702D01*
X312075Y504685D01*
X312082Y504666D01*
X312156Y504548D01*
X312227Y504428D01*
X312245Y504407D01*
X312252Y504397D01*
X312267Y504383D01*
X312333Y504308D01*
X342314Y474326D01*
X342392Y474266D01*
X342464Y474198D01*
X342517Y474169D01*
X342565Y474132D01*
X342656Y474092D01*
X342743Y474044D01*
X342801Y474029D01*
X342857Y474005D01*
X342955Y473990D01*
X343051Y473965D01*
X343151Y473959D01*
X343171Y473955D01*
X343184Y473957D01*
X343212Y473955D01*
X344783Y473955D01*
X344881Y473967D01*
X344980Y473970D01*
X345038Y473987D01*
X345098Y473995D01*
X345190Y474031D01*
X345285Y474059D01*
X345338Y474089D01*
X345394Y474112D01*
X345474Y474170D01*
X345559Y474220D01*
X345635Y474286D01*
X345651Y474298D01*
X345659Y474308D01*
X345680Y474326D01*
X347753Y476400D01*
X351677Y478025D01*
X355923Y478025D01*
X359847Y476400D01*
X362850Y473397D01*
X364475Y469473D01*
X364475Y465227D01*
X362850Y461303D01*
X359847Y458300D01*
X359216Y458039D01*
X359208Y458035D01*
X359199Y458032D01*
X359070Y457956D01*
X358940Y457882D01*
X358934Y457875D01*
X358926Y457871D01*
X358805Y457764D01*
X344463Y443422D01*
X344420Y443367D01*
X344370Y443318D01*
X344323Y443242D01*
X344268Y443171D01*
X344240Y443107D01*
X344204Y443047D01*
X344177Y442962D01*
X344141Y442879D01*
X344130Y442810D01*
X344110Y442743D01*
X344106Y442654D01*
X344092Y442565D01*
X344098Y442495D01*
X344095Y442426D01*
X344113Y442338D01*
X344121Y442248D01*
X344145Y442183D01*
X344159Y442114D01*
X344199Y442034D01*
X344229Y441949D01*
X344268Y441891D01*
X344299Y441829D01*
X344357Y441760D01*
X344408Y441686D01*
X344460Y441640D01*
X344505Y441587D01*
X344579Y441535D01*
X344646Y441475D01*
X344708Y441444D01*
X344765Y441404D01*
X344849Y441372D01*
X344929Y441331D01*
X344997Y441316D01*
X345063Y441291D01*
X345152Y441281D01*
X345239Y441261D01*
X345309Y441263D01*
X345379Y441256D01*
X345468Y441268D01*
X345557Y441271D01*
X345624Y441290D01*
X345694Y441300D01*
X345846Y441352D01*
X350970Y443475D01*
X952880Y443475D01*
X958108Y441309D01*
X1022059Y377358D01*
X1024225Y372130D01*
X1024225Y366470D01*
X1022059Y361242D01*
X1018058Y357241D01*
X1012830Y355075D01*
X1007170Y355075D01*
G37*
%LPD*%
%LPC*%
G36*
X1193810Y391125D02*
X1193810Y391125D01*
X1190916Y392324D01*
X1038486Y544754D01*
X1038408Y544814D01*
X1038336Y544882D01*
X1038283Y544911D01*
X1038235Y544948D01*
X1038144Y544988D01*
X1038057Y545036D01*
X1037999Y545051D01*
X1037943Y545075D01*
X1037845Y545090D01*
X1037749Y545115D01*
X1037649Y545121D01*
X1037629Y545125D01*
X1037617Y545123D01*
X1037589Y545125D01*
X964434Y545125D01*
X961539Y546324D01*
X911324Y596539D01*
X910125Y599434D01*
X910125Y626789D01*
X910117Y626858D01*
X910118Y626928D01*
X910097Y627016D01*
X910085Y627105D01*
X910060Y627170D01*
X910043Y627237D01*
X910001Y627317D01*
X909968Y627400D01*
X909927Y627457D01*
X909895Y627518D01*
X909834Y627585D01*
X909782Y627658D01*
X909728Y627702D01*
X909681Y627754D01*
X909606Y627803D01*
X909537Y627860D01*
X909473Y627890D01*
X909415Y627929D01*
X909330Y627958D01*
X909249Y627996D01*
X909180Y628009D01*
X909114Y628032D01*
X909025Y628039D01*
X908937Y628056D01*
X908867Y628051D01*
X908797Y628057D01*
X908709Y628042D01*
X908619Y628036D01*
X908553Y628015D01*
X908484Y628003D01*
X908402Y627966D01*
X908317Y627938D01*
X908258Y627901D01*
X908194Y627872D01*
X908124Y627816D01*
X908048Y627768D01*
X908000Y627717D01*
X907946Y627673D01*
X907891Y627602D01*
X907830Y627536D01*
X907796Y627475D01*
X907754Y627419D01*
X907683Y627275D01*
X906950Y625503D01*
X903947Y622500D01*
X900023Y620875D01*
X897092Y620875D01*
X896993Y620863D01*
X896894Y620860D01*
X896836Y620843D01*
X896776Y620835D01*
X896684Y620799D01*
X896589Y620771D01*
X896537Y620741D01*
X896480Y620718D01*
X896400Y620660D01*
X896315Y620610D01*
X896239Y620544D01*
X896223Y620532D01*
X896215Y620522D01*
X896194Y620504D01*
X896091Y620401D01*
X893664Y619395D01*
X837092Y619395D01*
X836994Y619383D01*
X836895Y619380D01*
X836837Y619363D01*
X836777Y619355D01*
X836685Y619319D01*
X836590Y619291D01*
X836538Y619261D01*
X836481Y619238D01*
X836401Y619180D01*
X836316Y619130D01*
X836240Y619064D01*
X836224Y619052D01*
X836216Y619042D01*
X836195Y619024D01*
X833646Y616474D01*
X825754Y616474D01*
X820174Y622054D01*
X820174Y629470D01*
X820157Y629607D01*
X820144Y629746D01*
X820137Y629765D01*
X820134Y629785D01*
X820083Y629914D01*
X820036Y630045D01*
X820025Y630062D01*
X820017Y630081D01*
X819936Y630193D01*
X819858Y630308D01*
X819842Y630322D01*
X819831Y630338D01*
X819723Y630427D01*
X819619Y630519D01*
X819601Y630528D01*
X819586Y630541D01*
X819460Y630600D01*
X819336Y630663D01*
X819316Y630668D01*
X819298Y630676D01*
X819162Y630703D01*
X819026Y630733D01*
X819005Y630732D01*
X818986Y630736D01*
X818847Y630728D01*
X818708Y630723D01*
X818688Y630718D01*
X818668Y630716D01*
X818536Y630674D01*
X818402Y630635D01*
X818385Y630625D01*
X818366Y630618D01*
X818248Y630544D01*
X818128Y630473D01*
X818107Y630455D01*
X818097Y630448D01*
X818083Y630433D01*
X818008Y630367D01*
X814197Y626557D01*
X814137Y626479D01*
X814069Y626407D01*
X814040Y626354D01*
X814003Y626306D01*
X813963Y626215D01*
X813915Y626128D01*
X813900Y626070D01*
X813876Y626014D01*
X813861Y625916D01*
X813836Y625820D01*
X813830Y625720D01*
X813826Y625700D01*
X813828Y625687D01*
X813826Y625659D01*
X813826Y622054D01*
X808246Y616474D01*
X800354Y616474D01*
X794774Y622054D01*
X794774Y629946D01*
X800354Y635526D01*
X803959Y635526D01*
X804058Y635538D01*
X804157Y635541D01*
X804215Y635558D01*
X804275Y635566D01*
X804367Y635602D01*
X804462Y635630D01*
X804514Y635660D01*
X804571Y635683D01*
X804651Y635741D01*
X804736Y635791D01*
X804812Y635857D01*
X804828Y635869D01*
X804836Y635879D01*
X804857Y635897D01*
X832267Y663308D01*
X832352Y663417D01*
X832441Y663524D01*
X832450Y663543D01*
X832462Y663559D01*
X832517Y663687D01*
X832576Y663812D01*
X832580Y663832D01*
X832588Y663851D01*
X832610Y663989D01*
X832636Y664125D01*
X832635Y664145D01*
X832638Y664165D01*
X832625Y664304D01*
X832616Y664442D01*
X832610Y664461D01*
X832608Y664481D01*
X832561Y664613D01*
X832518Y664744D01*
X832508Y664762D01*
X832501Y664781D01*
X832423Y664896D01*
X832348Y665013D01*
X832334Y665027D01*
X832322Y665044D01*
X832218Y665136D01*
X832117Y665231D01*
X832099Y665241D01*
X832084Y665254D01*
X831960Y665317D01*
X831838Y665385D01*
X831819Y665390D01*
X831801Y665399D01*
X831665Y665429D01*
X831530Y665464D01*
X831502Y665466D01*
X831490Y665469D01*
X831470Y665468D01*
X831370Y665474D01*
X824754Y665474D01*
X819174Y671054D01*
X819174Y678946D01*
X824754Y684526D01*
X832646Y684526D01*
X838226Y678946D01*
X838226Y672330D01*
X838243Y672193D01*
X838256Y672054D01*
X838263Y672035D01*
X838266Y672015D01*
X838317Y671886D01*
X838364Y671755D01*
X838375Y671738D01*
X838383Y671719D01*
X838464Y671607D01*
X838542Y671492D01*
X838558Y671478D01*
X838569Y671462D01*
X838677Y671373D01*
X838781Y671281D01*
X838799Y671272D01*
X838814Y671259D01*
X838940Y671200D01*
X839064Y671137D01*
X839084Y671132D01*
X839102Y671124D01*
X839239Y671097D01*
X839374Y671067D01*
X839395Y671068D01*
X839414Y671064D01*
X839553Y671072D01*
X839692Y671077D01*
X839712Y671082D01*
X839732Y671084D01*
X839864Y671126D01*
X839998Y671165D01*
X840015Y671175D01*
X840034Y671182D01*
X840152Y671256D01*
X840272Y671327D01*
X840293Y671345D01*
X840303Y671352D01*
X840317Y671367D01*
X840392Y671433D01*
X842172Y673213D01*
X844209Y675249D01*
X846636Y676255D01*
X863041Y676255D01*
X863178Y676272D01*
X863317Y676285D01*
X863336Y676292D01*
X863356Y676295D01*
X863485Y676346D01*
X863616Y676393D01*
X863633Y676404D01*
X863652Y676412D01*
X863764Y676493D01*
X863879Y676571D01*
X863893Y676587D01*
X863909Y676598D01*
X863998Y676705D01*
X864090Y676810D01*
X864099Y676828D01*
X864112Y676843D01*
X864171Y676969D01*
X864234Y677093D01*
X864239Y677113D01*
X864247Y677131D01*
X864274Y677267D01*
X864304Y677403D01*
X864303Y677424D01*
X864307Y677443D01*
X864299Y677582D01*
X864294Y677721D01*
X864289Y677741D01*
X864287Y677761D01*
X864245Y677893D01*
X864206Y678027D01*
X864196Y678044D01*
X864189Y678063D01*
X864115Y678181D01*
X864044Y678301D01*
X864026Y678322D01*
X864019Y678332D01*
X864004Y678346D01*
X863938Y678421D01*
X829257Y713103D01*
X829179Y713163D01*
X829107Y713231D01*
X829054Y713260D01*
X829006Y713297D01*
X828915Y713337D01*
X828828Y713385D01*
X828770Y713400D01*
X828714Y713424D01*
X828616Y713439D01*
X828520Y713464D01*
X828420Y713470D01*
X828400Y713474D01*
X828387Y713472D01*
X828359Y713474D01*
X824754Y713474D01*
X819174Y719054D01*
X819174Y726946D01*
X824754Y732526D01*
X832646Y732526D01*
X838226Y726946D01*
X838226Y723341D01*
X838238Y723242D01*
X838241Y723143D01*
X838258Y723085D01*
X838266Y723025D01*
X838302Y722933D01*
X838330Y722838D01*
X838360Y722786D01*
X838383Y722729D01*
X838441Y722649D01*
X838491Y722564D01*
X838557Y722488D01*
X838569Y722472D01*
X838579Y722464D01*
X838597Y722443D01*
X884414Y676626D01*
X884492Y676566D01*
X884564Y676498D01*
X884617Y676469D01*
X884665Y676432D01*
X884756Y676392D01*
X884843Y676344D01*
X884901Y676329D01*
X884957Y676305D01*
X885055Y676290D01*
X885151Y676265D01*
X885251Y676259D01*
X885271Y676255D01*
X885284Y676257D01*
X885312Y676255D01*
X888883Y676255D01*
X888981Y676267D01*
X889080Y676270D01*
X889138Y676287D01*
X889198Y676295D01*
X889290Y676331D01*
X889385Y676359D01*
X889438Y676389D01*
X889494Y676412D01*
X889574Y676470D01*
X889659Y676520D01*
X889735Y676586D01*
X889751Y676598D01*
X889759Y676608D01*
X889780Y676626D01*
X891853Y678700D01*
X895777Y680325D01*
X900023Y680325D01*
X903947Y678700D01*
X906950Y675697D01*
X908575Y671773D01*
X908575Y670638D01*
X908587Y670539D01*
X908590Y670440D01*
X908607Y670382D01*
X908615Y670322D01*
X908651Y670230D01*
X908679Y670135D01*
X908709Y670083D01*
X908732Y670026D01*
X908790Y669946D01*
X908840Y669861D01*
X908906Y669786D01*
X908918Y669769D01*
X908928Y669761D01*
X908946Y669740D01*
X924676Y654011D01*
X925875Y651116D01*
X925875Y604788D01*
X925887Y604689D01*
X925890Y604590D01*
X925907Y604532D01*
X925915Y604472D01*
X925951Y604380D01*
X925979Y604285D01*
X926009Y604233D01*
X926032Y604176D01*
X926090Y604096D01*
X926140Y604011D01*
X926206Y603936D01*
X926218Y603919D01*
X926228Y603911D01*
X926246Y603890D01*
X968890Y561246D01*
X968968Y561186D01*
X969040Y561118D01*
X969093Y561089D01*
X969141Y561052D01*
X969232Y561012D01*
X969319Y560964D01*
X969378Y560949D01*
X969433Y560925D01*
X969531Y560910D01*
X969627Y560885D01*
X969727Y560879D01*
X969747Y560875D01*
X969760Y560877D01*
X969788Y560875D01*
X1042943Y560875D01*
X1045837Y559676D01*
X1048230Y557282D01*
X1048231Y557282D01*
X1198266Y407246D01*
X1198345Y407186D01*
X1198417Y407118D01*
X1198470Y407089D01*
X1198518Y407052D01*
X1198609Y407012D01*
X1198695Y406964D01*
X1198754Y406949D01*
X1198810Y406925D01*
X1198907Y406910D01*
X1199003Y406885D01*
X1199103Y406879D01*
X1199124Y406875D01*
X1199136Y406877D01*
X1199164Y406875D01*
X1387512Y406875D01*
X1387611Y406887D01*
X1387710Y406890D01*
X1387768Y406907D01*
X1387828Y406915D01*
X1387920Y406951D01*
X1388015Y406979D01*
X1388067Y407009D01*
X1388124Y407032D01*
X1388204Y407090D01*
X1388289Y407140D01*
X1388364Y407206D01*
X1388381Y407218D01*
X1388389Y407228D01*
X1388410Y407246D01*
X1473504Y492340D01*
X1473564Y492418D01*
X1473632Y492490D01*
X1473661Y492543D01*
X1473698Y492591D01*
X1473738Y492682D01*
X1473786Y492769D01*
X1473801Y492828D01*
X1473825Y492883D01*
X1473840Y492981D01*
X1473865Y493077D01*
X1473871Y493177D01*
X1473875Y493197D01*
X1473873Y493210D01*
X1473875Y493238D01*
X1473875Y498630D01*
X1476041Y503858D01*
X1480042Y507859D01*
X1485270Y510025D01*
X1490930Y510025D01*
X1496158Y507859D01*
X1500159Y503858D01*
X1502325Y498630D01*
X1502325Y492970D01*
X1500159Y487742D01*
X1496158Y483741D01*
X1490930Y481575D01*
X1485538Y481575D01*
X1485439Y481563D01*
X1485340Y481560D01*
X1485282Y481543D01*
X1485222Y481535D01*
X1485130Y481499D01*
X1485035Y481471D01*
X1484983Y481441D01*
X1484926Y481418D01*
X1484846Y481360D01*
X1484761Y481310D01*
X1484686Y481244D01*
X1484669Y481232D01*
X1484661Y481222D01*
X1484640Y481204D01*
X1395761Y392324D01*
X1392866Y391125D01*
X1193810Y391125D01*
G37*
%LPD*%
%LPC*%
G36*
X1199370Y481575D02*
X1199370Y481575D01*
X1194142Y483741D01*
X1022630Y655254D01*
X1022551Y655314D01*
X1022479Y655382D01*
X1022426Y655411D01*
X1022378Y655448D01*
X1022287Y655488D01*
X1022201Y655536D01*
X1022142Y655551D01*
X1022087Y655575D01*
X1021989Y655590D01*
X1021893Y655615D01*
X1021793Y655621D01*
X1021772Y655625D01*
X1021760Y655623D01*
X1021732Y655625D01*
X1019070Y655625D01*
X1013842Y657791D01*
X1009841Y661792D01*
X1009564Y662462D01*
X1009549Y662487D01*
X1009540Y662515D01*
X1009470Y662625D01*
X1009406Y662738D01*
X1009386Y662759D01*
X1009370Y662784D01*
X1009275Y662873D01*
X1009185Y662966D01*
X1009160Y662982D01*
X1009138Y663002D01*
X1009024Y663065D01*
X1008914Y663133D01*
X1008885Y663141D01*
X1008860Y663156D01*
X1008734Y663188D01*
X1008610Y663226D01*
X1008580Y663228D01*
X1008552Y663235D01*
X1008391Y663245D01*
X986412Y663245D01*
X986313Y663233D01*
X986214Y663230D01*
X986156Y663213D01*
X986096Y663205D01*
X986004Y663169D01*
X985909Y663141D01*
X985857Y663111D01*
X985800Y663088D01*
X985720Y663030D01*
X985635Y662980D01*
X985559Y662914D01*
X985543Y662902D01*
X985535Y662892D01*
X985514Y662874D01*
X962333Y639692D01*
X962248Y639583D01*
X962159Y639476D01*
X962150Y639457D01*
X962138Y639441D01*
X962083Y639313D01*
X962024Y639188D01*
X962020Y639168D01*
X962012Y639149D01*
X961990Y639011D01*
X961964Y638875D01*
X961965Y638855D01*
X961962Y638835D01*
X961975Y638696D01*
X961984Y638558D01*
X961990Y638539D01*
X961992Y638519D01*
X962039Y638387D01*
X962082Y638256D01*
X962092Y638238D01*
X962099Y638219D01*
X962177Y638104D01*
X962252Y637987D01*
X962266Y637973D01*
X962278Y637956D01*
X962382Y637864D01*
X962483Y637769D01*
X962501Y637759D01*
X962516Y637746D01*
X962640Y637682D01*
X962762Y637615D01*
X962781Y637610D01*
X962799Y637601D01*
X962935Y637571D01*
X963070Y637536D01*
X963098Y637534D01*
X963110Y637531D01*
X963130Y637532D01*
X963230Y637526D01*
X966359Y637526D01*
X966458Y637538D01*
X966557Y637541D01*
X966615Y637558D01*
X966675Y637566D01*
X966767Y637602D01*
X966862Y637630D01*
X966914Y637660D01*
X966971Y637683D01*
X967051Y637741D01*
X967136Y637791D01*
X967212Y637857D01*
X967228Y637869D01*
X967236Y637879D01*
X967257Y637897D01*
X967709Y638349D01*
X970136Y639355D01*
X1013883Y639355D01*
X1013981Y639367D01*
X1014080Y639370D01*
X1014138Y639387D01*
X1014198Y639395D01*
X1014290Y639431D01*
X1014385Y639459D01*
X1014438Y639489D01*
X1014494Y639512D01*
X1014574Y639570D01*
X1014659Y639620D01*
X1014735Y639686D01*
X1014751Y639698D01*
X1014759Y639708D01*
X1014780Y639726D01*
X1015853Y640800D01*
X1019777Y642425D01*
X1024023Y642425D01*
X1027947Y640800D01*
X1030950Y637797D01*
X1032575Y633873D01*
X1032575Y629627D01*
X1030950Y625703D01*
X1027947Y622700D01*
X1024023Y621075D01*
X1019777Y621075D01*
X1015853Y622700D01*
X1012780Y625774D01*
X1012702Y625834D01*
X1012630Y625902D01*
X1012577Y625931D01*
X1012529Y625968D01*
X1012438Y626008D01*
X1012351Y626056D01*
X1012293Y626071D01*
X1012237Y626095D01*
X1012139Y626110D01*
X1012043Y626135D01*
X1011943Y626141D01*
X1011923Y626145D01*
X1011911Y626143D01*
X1011883Y626145D01*
X977495Y626145D01*
X977377Y626130D01*
X977258Y626123D01*
X977220Y626110D01*
X977179Y626105D01*
X977069Y626062D01*
X976956Y626025D01*
X976921Y626003D01*
X976884Y625988D01*
X976788Y625919D01*
X976687Y625855D01*
X976659Y625825D01*
X976626Y625802D01*
X976550Y625710D01*
X976469Y625623D01*
X976449Y625588D01*
X976424Y625557D01*
X976373Y625449D01*
X976315Y625345D01*
X976305Y625305D01*
X976288Y625269D01*
X976266Y625152D01*
X976236Y625037D01*
X976232Y624977D01*
X976228Y624957D01*
X976230Y624936D01*
X976226Y624876D01*
X976226Y624054D01*
X970646Y618474D01*
X962754Y618474D01*
X957174Y624054D01*
X957174Y631470D01*
X957157Y631607D01*
X957144Y631746D01*
X957137Y631765D01*
X957134Y631785D01*
X957083Y631914D01*
X957036Y632045D01*
X957025Y632062D01*
X957017Y632081D01*
X956936Y632193D01*
X956858Y632308D01*
X956842Y632322D01*
X956831Y632338D01*
X956723Y632427D01*
X956619Y632519D01*
X956601Y632528D01*
X956586Y632541D01*
X956460Y632600D01*
X956336Y632663D01*
X956316Y632668D01*
X956298Y632676D01*
X956162Y632703D01*
X956026Y632733D01*
X956005Y632732D01*
X955986Y632736D01*
X955847Y632728D01*
X955708Y632723D01*
X955688Y632718D01*
X955668Y632716D01*
X955536Y632674D01*
X955402Y632635D01*
X955385Y632625D01*
X955366Y632618D01*
X955248Y632544D01*
X955128Y632473D01*
X955107Y632455D01*
X955097Y632448D01*
X955083Y632433D01*
X955008Y632367D01*
X951197Y628557D01*
X951137Y628479D01*
X951069Y628407D01*
X951040Y628354D01*
X951003Y628306D01*
X950963Y628215D01*
X950915Y628128D01*
X950900Y628070D01*
X950876Y628014D01*
X950861Y627916D01*
X950836Y627820D01*
X950830Y627720D01*
X950826Y627700D01*
X950828Y627687D01*
X950826Y627659D01*
X950826Y624054D01*
X945246Y618474D01*
X937354Y618474D01*
X931774Y624054D01*
X931774Y631946D01*
X937354Y637526D01*
X940959Y637526D01*
X941058Y637538D01*
X941157Y637541D01*
X941215Y637558D01*
X941275Y637566D01*
X941367Y637602D01*
X941462Y637630D01*
X941514Y637660D01*
X941571Y637683D01*
X941651Y637741D01*
X941736Y637791D01*
X941812Y637857D01*
X941828Y637869D01*
X941836Y637879D01*
X941857Y637897D01*
X969267Y665308D01*
X969352Y665417D01*
X969441Y665524D01*
X969450Y665543D01*
X969462Y665559D01*
X969517Y665687D01*
X969576Y665812D01*
X969580Y665832D01*
X969588Y665851D01*
X969610Y665989D01*
X969636Y666125D01*
X969635Y666145D01*
X969638Y666165D01*
X969625Y666304D01*
X969616Y666442D01*
X969610Y666461D01*
X969608Y666481D01*
X969561Y666613D01*
X969518Y666744D01*
X969508Y666762D01*
X969501Y666781D01*
X969423Y666896D01*
X969348Y667013D01*
X969334Y667027D01*
X969322Y667044D01*
X969218Y667136D01*
X969117Y667231D01*
X969099Y667241D01*
X969084Y667254D01*
X968960Y667318D01*
X968838Y667385D01*
X968819Y667390D01*
X968801Y667399D01*
X968665Y667429D01*
X968530Y667464D01*
X968502Y667466D01*
X968490Y667469D01*
X968470Y667468D01*
X968370Y667474D01*
X962754Y667474D01*
X957174Y673054D01*
X957174Y680946D01*
X962754Y686526D01*
X970646Y686526D01*
X976226Y680946D01*
X976226Y675330D01*
X976243Y675192D01*
X976256Y675054D01*
X976263Y675035D01*
X976266Y675015D01*
X976317Y674886D01*
X976364Y674755D01*
X976375Y674738D01*
X976383Y674719D01*
X976464Y674607D01*
X976542Y674492D01*
X976558Y674478D01*
X976569Y674462D01*
X976677Y674373D01*
X976781Y674281D01*
X976799Y674272D01*
X976814Y674259D01*
X976940Y674200D01*
X977064Y674137D01*
X977084Y674132D01*
X977102Y674124D01*
X977239Y674097D01*
X977374Y674067D01*
X977395Y674068D01*
X977414Y674064D01*
X977553Y674072D01*
X977692Y674077D01*
X977712Y674082D01*
X977732Y674084D01*
X977864Y674126D01*
X977998Y674165D01*
X978015Y674175D01*
X978034Y674182D01*
X978152Y674256D01*
X978272Y674327D01*
X978293Y674345D01*
X978303Y674352D01*
X978317Y674367D01*
X978392Y674433D01*
X979409Y675449D01*
X981836Y676455D01*
X1002891Y676455D01*
X1003028Y676472D01*
X1003167Y676485D01*
X1003186Y676492D01*
X1003206Y676495D01*
X1003335Y676546D01*
X1003466Y676593D01*
X1003483Y676604D01*
X1003502Y676612D01*
X1003614Y676693D01*
X1003729Y676771D01*
X1003743Y676787D01*
X1003759Y676798D01*
X1003848Y676905D01*
X1003940Y677010D01*
X1003949Y677028D01*
X1003962Y677043D01*
X1004021Y677169D01*
X1004084Y677293D01*
X1004089Y677313D01*
X1004097Y677331D01*
X1004124Y677467D01*
X1004154Y677603D01*
X1004153Y677624D01*
X1004157Y677643D01*
X1004149Y677782D01*
X1004144Y677921D01*
X1004139Y677941D01*
X1004137Y677961D01*
X1004095Y678093D01*
X1004056Y678227D01*
X1004046Y678244D01*
X1004039Y678263D01*
X1003965Y678381D01*
X1003894Y678501D01*
X1003876Y678522D01*
X1003869Y678532D01*
X1003854Y678546D01*
X1003788Y678621D01*
X966307Y716103D01*
X966229Y716163D01*
X966157Y716231D01*
X966104Y716260D01*
X966056Y716297D01*
X965965Y716337D01*
X965878Y716385D01*
X965820Y716400D01*
X965764Y716424D01*
X965666Y716439D01*
X965570Y716464D01*
X965470Y716470D01*
X965450Y716474D01*
X965437Y716472D01*
X965409Y716474D01*
X962754Y716474D01*
X957174Y722054D01*
X957174Y729470D01*
X957157Y729607D01*
X957144Y729746D01*
X957137Y729765D01*
X957134Y729785D01*
X957083Y729914D01*
X957036Y730045D01*
X957025Y730062D01*
X957017Y730081D01*
X956936Y730193D01*
X956858Y730308D01*
X956842Y730322D01*
X956831Y730338D01*
X956723Y730427D01*
X956619Y730519D01*
X956601Y730528D01*
X956586Y730541D01*
X956460Y730600D01*
X956336Y730663D01*
X956316Y730668D01*
X956298Y730676D01*
X956162Y730703D01*
X956026Y730733D01*
X956005Y730732D01*
X955986Y730736D01*
X955847Y730728D01*
X955708Y730723D01*
X955688Y730718D01*
X955668Y730716D01*
X955536Y730674D01*
X955402Y730635D01*
X955385Y730625D01*
X955366Y730618D01*
X955248Y730544D01*
X955128Y730473D01*
X955107Y730455D01*
X955097Y730448D01*
X955083Y730433D01*
X955008Y730367D01*
X951197Y726557D01*
X951137Y726479D01*
X951069Y726407D01*
X951040Y726354D01*
X951003Y726306D01*
X950963Y726215D01*
X950915Y726128D01*
X950900Y726070D01*
X950876Y726014D01*
X950861Y725916D01*
X950836Y725820D01*
X950830Y725720D01*
X950826Y725700D01*
X950828Y725687D01*
X950826Y725659D01*
X950826Y722054D01*
X945246Y716474D01*
X937354Y716474D01*
X931774Y722054D01*
X931774Y729946D01*
X937354Y735526D01*
X940959Y735526D01*
X941058Y735538D01*
X941157Y735541D01*
X941215Y735558D01*
X941275Y735566D01*
X941367Y735602D01*
X941462Y735630D01*
X941514Y735660D01*
X941571Y735683D01*
X941651Y735741D01*
X941736Y735791D01*
X941812Y735857D01*
X941828Y735869D01*
X941836Y735879D01*
X941857Y735897D01*
X953559Y747599D01*
X955986Y748605D01*
X989164Y748605D01*
X991591Y747599D01*
X1020194Y718996D01*
X1020272Y718936D01*
X1020344Y718868D01*
X1020397Y718839D01*
X1020445Y718802D01*
X1020536Y718762D01*
X1020623Y718714D01*
X1020681Y718699D01*
X1020737Y718675D01*
X1020835Y718660D01*
X1020931Y718635D01*
X1021031Y718629D01*
X1021051Y718625D01*
X1021064Y718627D01*
X1021092Y718625D01*
X1024023Y718625D01*
X1027947Y717000D01*
X1030950Y713997D01*
X1032575Y710073D01*
X1032575Y705827D01*
X1030950Y701903D01*
X1027947Y698900D01*
X1024023Y697275D01*
X1019777Y697275D01*
X1015853Y698900D01*
X1012850Y701903D01*
X1011225Y705827D01*
X1011225Y708758D01*
X1011213Y708857D01*
X1011210Y708956D01*
X1011193Y709014D01*
X1011185Y709074D01*
X1011149Y709166D01*
X1011121Y709261D01*
X1011091Y709313D01*
X1011068Y709370D01*
X1011010Y709450D01*
X1010960Y709535D01*
X1010894Y709611D01*
X1010882Y709627D01*
X1010872Y709635D01*
X1010854Y709656D01*
X985486Y735024D01*
X985408Y735084D01*
X985336Y735152D01*
X985283Y735181D01*
X985235Y735218D01*
X985144Y735258D01*
X985057Y735306D01*
X984999Y735321D01*
X984943Y735345D01*
X984845Y735360D01*
X984749Y735385D01*
X984649Y735391D01*
X984629Y735395D01*
X984616Y735393D01*
X984588Y735395D01*
X973840Y735395D01*
X973703Y735378D01*
X973564Y735365D01*
X973545Y735358D01*
X973525Y735355D01*
X973396Y735304D01*
X973265Y735257D01*
X973248Y735246D01*
X973229Y735238D01*
X973117Y735157D01*
X973002Y735079D01*
X972988Y735063D01*
X972972Y735052D01*
X972883Y734944D01*
X972791Y734840D01*
X972782Y734822D01*
X972769Y734807D01*
X972710Y734681D01*
X972647Y734557D01*
X972642Y734537D01*
X972633Y734519D01*
X972607Y734383D01*
X972577Y734247D01*
X972577Y734226D01*
X972574Y734207D01*
X972582Y734068D01*
X972587Y733929D01*
X972592Y733909D01*
X972593Y733889D01*
X972636Y733757D01*
X972675Y733623D01*
X972685Y733606D01*
X972691Y733587D01*
X972766Y733469D01*
X972836Y733349D01*
X972855Y733328D01*
X972862Y733318D01*
X972877Y733304D01*
X972943Y733229D01*
X976226Y729946D01*
X976226Y725391D01*
X976238Y725292D01*
X976241Y725193D01*
X976258Y725135D01*
X976266Y725075D01*
X976302Y724983D01*
X976330Y724888D01*
X976360Y724836D01*
X976383Y724779D01*
X976441Y724699D01*
X976491Y724614D01*
X976557Y724538D01*
X976569Y724522D01*
X976579Y724514D01*
X976597Y724493D01*
X1017018Y684073D01*
X1017041Y684054D01*
X1017060Y684032D01*
X1017166Y683957D01*
X1017269Y683878D01*
X1017296Y683866D01*
X1017320Y683849D01*
X1017442Y683803D01*
X1017561Y683751D01*
X1017590Y683747D01*
X1017618Y683736D01*
X1017747Y683722D01*
X1017875Y683701D01*
X1017905Y683704D01*
X1017934Y683701D01*
X1018062Y683719D01*
X1018192Y683731D01*
X1018220Y683741D01*
X1018249Y683745D01*
X1018401Y683797D01*
X1019071Y684075D01*
X1030980Y684075D01*
X1036208Y681909D01*
X1209443Y508674D01*
X1209450Y508668D01*
X1209456Y508661D01*
X1209575Y508571D01*
X1209694Y508479D01*
X1209703Y508475D01*
X1209710Y508470D01*
X1209855Y508399D01*
X1211158Y507859D01*
X1215159Y503858D01*
X1217325Y498630D01*
X1217325Y492970D01*
X1215159Y487742D01*
X1211158Y483741D01*
X1205930Y481575D01*
X1199370Y481575D01*
G37*
%LPD*%
%LPC*%
G36*
X1200561Y538425D02*
X1200561Y538425D01*
X1195314Y540598D01*
X1191298Y544614D01*
X1189125Y549861D01*
X1189125Y555539D01*
X1191298Y560786D01*
X1195314Y564802D01*
X1196909Y565462D01*
X1196917Y565467D01*
X1196926Y565469D01*
X1197055Y565545D01*
X1197185Y565620D01*
X1197191Y565626D01*
X1197199Y565631D01*
X1197320Y565737D01*
X1265642Y634059D01*
X1270870Y636225D01*
X1394830Y636225D01*
X1400058Y634059D01*
X1446320Y587796D01*
X1446399Y587736D01*
X1446471Y587668D01*
X1446524Y587639D01*
X1446572Y587602D01*
X1446663Y587562D01*
X1446749Y587514D01*
X1446808Y587499D01*
X1446863Y587475D01*
X1446961Y587460D01*
X1447057Y587435D01*
X1447157Y587429D01*
X1447178Y587425D01*
X1447190Y587427D01*
X1447218Y587425D01*
X1577830Y587425D01*
X1583058Y585259D01*
X1584267Y584050D01*
X1584345Y583989D01*
X1584417Y583921D01*
X1584470Y583892D01*
X1584518Y583855D01*
X1584609Y583816D01*
X1584696Y583768D01*
X1584754Y583753D01*
X1584810Y583729D01*
X1584908Y583713D01*
X1585004Y583688D01*
X1585104Y583682D01*
X1585124Y583679D01*
X1585136Y583680D01*
X1585164Y583678D01*
X1586038Y583678D01*
X1589889Y582083D01*
X1592837Y579135D01*
X1594432Y575284D01*
X1594432Y571116D01*
X1592837Y567265D01*
X1589889Y564317D01*
X1586038Y562722D01*
X1585164Y562722D01*
X1585066Y562709D01*
X1584967Y562706D01*
X1584909Y562690D01*
X1584849Y562682D01*
X1584757Y562645D01*
X1584662Y562618D01*
X1584609Y562587D01*
X1584553Y562565D01*
X1584473Y562507D01*
X1584388Y562456D01*
X1584312Y562390D01*
X1584296Y562378D01*
X1584288Y562369D01*
X1584267Y562350D01*
X1583058Y561141D01*
X1577830Y558975D01*
X1437970Y558975D01*
X1432742Y561141D01*
X1386480Y607404D01*
X1386401Y607464D01*
X1386329Y607532D01*
X1386276Y607561D01*
X1386228Y607598D01*
X1386137Y607638D01*
X1386051Y607686D01*
X1385992Y607701D01*
X1385937Y607725D01*
X1385839Y607740D01*
X1385743Y607765D01*
X1385643Y607771D01*
X1385622Y607775D01*
X1385610Y607773D01*
X1385582Y607775D01*
X1280118Y607775D01*
X1280020Y607763D01*
X1279921Y607760D01*
X1279862Y607743D01*
X1279802Y607735D01*
X1279710Y607699D01*
X1279615Y607671D01*
X1279563Y607641D01*
X1279507Y607618D01*
X1279427Y607560D01*
X1279341Y607510D01*
X1279266Y607444D01*
X1279249Y607432D01*
X1279241Y607422D01*
X1279220Y607404D01*
X1212458Y540641D01*
X1207230Y538475D01*
X1206613Y538475D01*
X1206603Y538474D01*
X1206594Y538475D01*
X1206446Y538454D01*
X1206297Y538435D01*
X1206288Y538432D01*
X1206279Y538431D01*
X1206263Y538425D01*
X1200561Y538425D01*
G37*
%LPD*%
%LPC*%
G36*
X221241Y17485D02*
X221241Y17485D01*
X217880Y18877D01*
X215307Y21450D01*
X213915Y24811D01*
X213915Y43689D01*
X215089Y46522D01*
X215091Y46531D01*
X215096Y46539D01*
X215103Y46568D01*
X215107Y46576D01*
X215112Y46603D01*
X215133Y46684D01*
X215173Y46829D01*
X215173Y46838D01*
X215175Y46847D01*
X215185Y47008D01*
X215185Y115350D01*
X215168Y115488D01*
X215155Y115626D01*
X215148Y115645D01*
X215145Y115665D01*
X215094Y115794D01*
X215047Y115925D01*
X215036Y115942D01*
X215028Y115961D01*
X214947Y116073D01*
X214869Y116188D01*
X214853Y116202D01*
X214842Y116218D01*
X214734Y116307D01*
X214630Y116399D01*
X214612Y116408D01*
X214597Y116421D01*
X214471Y116480D01*
X214347Y116543D01*
X214327Y116548D01*
X214309Y116557D01*
X214172Y116583D01*
X214037Y116613D01*
X214016Y116613D01*
X213997Y116616D01*
X213858Y116608D01*
X213719Y116603D01*
X213699Y116598D01*
X213679Y116597D01*
X213547Y116554D01*
X213413Y116515D01*
X213396Y116505D01*
X213377Y116499D01*
X213259Y116424D01*
X213139Y116354D01*
X213118Y116335D01*
X213108Y116328D01*
X213094Y116313D01*
X213019Y116247D01*
X211746Y114974D01*
X203854Y114974D01*
X198274Y120554D01*
X198274Y128446D01*
X203854Y134026D01*
X211746Y134026D01*
X213634Y132138D01*
X213743Y132053D01*
X213850Y131964D01*
X213869Y131955D01*
X213885Y131943D01*
X214013Y131887D01*
X214138Y131828D01*
X214158Y131825D01*
X214177Y131817D01*
X214315Y131795D01*
X214451Y131769D01*
X214471Y131770D01*
X214491Y131767D01*
X214630Y131780D01*
X214768Y131788D01*
X214787Y131795D01*
X214807Y131797D01*
X214939Y131844D01*
X215070Y131886D01*
X215088Y131897D01*
X215107Y131904D01*
X215222Y131982D01*
X215339Y132057D01*
X215353Y132071D01*
X215370Y132083D01*
X215462Y132187D01*
X215557Y132288D01*
X215567Y132306D01*
X215580Y132321D01*
X215644Y132445D01*
X215711Y132567D01*
X215716Y132586D01*
X215725Y132604D01*
X215755Y132740D01*
X215790Y132875D01*
X215792Y132903D01*
X215795Y132915D01*
X215794Y132935D01*
X215800Y133035D01*
X215800Y139241D01*
X216999Y142136D01*
X233866Y159003D01*
X233939Y159097D01*
X234018Y159186D01*
X234036Y159222D01*
X234061Y159254D01*
X234108Y159363D01*
X234162Y159469D01*
X234171Y159508D01*
X234187Y159546D01*
X234206Y159663D01*
X234232Y159779D01*
X234231Y159820D01*
X234237Y159860D01*
X234226Y159978D01*
X234222Y160097D01*
X234211Y160136D01*
X234207Y160176D01*
X234167Y160289D01*
X234134Y160403D01*
X234113Y160438D01*
X234100Y160476D01*
X234033Y160574D01*
X233972Y160677D01*
X233933Y160722D01*
X233921Y160739D01*
X233906Y160752D01*
X233866Y160798D01*
X227610Y167054D01*
X227532Y167114D01*
X227460Y167182D01*
X227407Y167211D01*
X227359Y167248D01*
X227268Y167288D01*
X227181Y167336D01*
X227122Y167351D01*
X227067Y167375D01*
X226969Y167390D01*
X226873Y167415D01*
X226773Y167421D01*
X226753Y167425D01*
X226740Y167423D01*
X226712Y167425D01*
X213922Y167425D01*
X213824Y167413D01*
X213725Y167410D01*
X213667Y167393D01*
X213607Y167385D01*
X213515Y167349D01*
X213420Y167321D01*
X213368Y167291D01*
X213311Y167268D01*
X213231Y167210D01*
X213146Y167160D01*
X213070Y167094D01*
X213054Y167082D01*
X213046Y167072D01*
X213025Y167054D01*
X211746Y165774D01*
X203854Y165774D01*
X198274Y171354D01*
X198274Y179246D01*
X203854Y184826D01*
X211746Y184826D01*
X213025Y183546D01*
X213103Y183486D01*
X213175Y183418D01*
X213228Y183389D01*
X213276Y183352D01*
X213367Y183312D01*
X213454Y183264D01*
X213512Y183249D01*
X213568Y183225D01*
X213666Y183210D01*
X213762Y183185D01*
X213862Y183179D01*
X213882Y183175D01*
X213894Y183177D01*
X213922Y183175D01*
X232066Y183175D01*
X234961Y181976D01*
X237354Y179582D01*
X246250Y170686D01*
X246328Y170626D01*
X246400Y170558D01*
X246453Y170529D01*
X246501Y170492D01*
X246592Y170452D01*
X246679Y170404D01*
X246737Y170389D01*
X246793Y170365D01*
X246891Y170350D01*
X246987Y170325D01*
X247087Y170319D01*
X247107Y170315D01*
X247120Y170317D01*
X247148Y170315D01*
X250214Y170315D01*
X256315Y164214D01*
X256315Y159116D01*
X256332Y158978D01*
X256345Y158839D01*
X256352Y158820D01*
X256355Y158800D01*
X256406Y158671D01*
X256453Y158540D01*
X256464Y158523D01*
X256472Y158504D01*
X256553Y158392D01*
X256631Y158277D01*
X256647Y158263D01*
X256658Y158247D01*
X256766Y158158D01*
X256870Y158066D01*
X256888Y158057D01*
X256903Y158044D01*
X257029Y157985D01*
X257153Y157922D01*
X257173Y157917D01*
X257191Y157909D01*
X257327Y157883D01*
X257463Y157852D01*
X257484Y157853D01*
X257503Y157849D01*
X257642Y157857D01*
X257781Y157862D01*
X257801Y157867D01*
X257821Y157869D01*
X257953Y157911D01*
X258087Y157950D01*
X258104Y157960D01*
X258123Y157967D01*
X258241Y158041D01*
X258361Y158112D01*
X258382Y158130D01*
X258392Y158137D01*
X258406Y158152D01*
X258481Y158218D01*
X279846Y179582D01*
X282239Y181976D01*
X285134Y183175D01*
X290578Y183175D01*
X290676Y183187D01*
X290775Y183190D01*
X290833Y183207D01*
X290893Y183215D01*
X290985Y183251D01*
X291080Y183279D01*
X291132Y183309D01*
X291189Y183332D01*
X291269Y183390D01*
X291354Y183440D01*
X291430Y183506D01*
X291446Y183518D01*
X291454Y183528D01*
X291475Y183546D01*
X292754Y184826D01*
X294563Y184826D01*
X294662Y184838D01*
X294761Y184841D01*
X294819Y184858D01*
X294879Y184866D01*
X294971Y184902D01*
X295066Y184930D01*
X295118Y184960D01*
X295175Y184983D01*
X295255Y185041D01*
X295340Y185091D01*
X295416Y185157D01*
X295432Y185169D01*
X295440Y185179D01*
X295461Y185197D01*
X350654Y240390D01*
X350714Y240468D01*
X350782Y240540D01*
X350811Y240593D01*
X350848Y240641D01*
X350888Y240732D01*
X350936Y240819D01*
X350951Y240878D01*
X350975Y240933D01*
X350990Y241031D01*
X351015Y241127D01*
X351021Y241227D01*
X351025Y241247D01*
X351023Y241260D01*
X351025Y241288D01*
X351025Y259232D01*
X351013Y259330D01*
X351010Y259429D01*
X350993Y259488D01*
X350985Y259548D01*
X350949Y259640D01*
X350921Y259735D01*
X350891Y259787D01*
X350868Y259843D01*
X350810Y259924D01*
X350760Y260009D01*
X350694Y260084D01*
X350682Y260101D01*
X350672Y260109D01*
X350654Y260130D01*
X345921Y264862D01*
X341741Y269042D01*
X339575Y274270D01*
X339575Y393980D01*
X341741Y399208D01*
X345742Y403209D01*
X350970Y405375D01*
X356630Y405375D01*
X361858Y403209D01*
X365859Y399208D01*
X368025Y393980D01*
X368025Y283518D01*
X368037Y283420D01*
X368040Y283321D01*
X368057Y283262D01*
X368065Y283202D01*
X368101Y283110D01*
X368129Y283015D01*
X368159Y282963D01*
X368182Y282907D01*
X368240Y282827D01*
X368290Y282741D01*
X368356Y282666D01*
X368368Y282649D01*
X368378Y282641D01*
X368396Y282620D01*
X370959Y280058D01*
X373125Y274830D01*
X373125Y269170D01*
X370959Y263942D01*
X367146Y260130D01*
X367086Y260051D01*
X367018Y259979D01*
X366989Y259926D01*
X366952Y259878D01*
X366912Y259787D01*
X366864Y259701D01*
X366849Y259642D01*
X366825Y259587D01*
X366810Y259489D01*
X366785Y259393D01*
X366779Y259293D01*
X366775Y259272D01*
X366777Y259260D01*
X366775Y259232D01*
X366775Y235934D01*
X365576Y233039D01*
X363182Y230646D01*
X306597Y174061D01*
X306537Y173983D01*
X306469Y173911D01*
X306440Y173858D01*
X306403Y173810D01*
X306363Y173719D01*
X306315Y173632D01*
X306300Y173574D01*
X306276Y173518D01*
X306261Y173420D01*
X306236Y173324D01*
X306230Y173224D01*
X306226Y173204D01*
X306228Y173191D01*
X306226Y173163D01*
X306226Y171354D01*
X300646Y165774D01*
X292754Y165774D01*
X291475Y167054D01*
X291397Y167114D01*
X291325Y167182D01*
X291272Y167211D01*
X291224Y167248D01*
X291133Y167288D01*
X291046Y167336D01*
X290988Y167351D01*
X290932Y167375D01*
X290834Y167390D01*
X290738Y167415D01*
X290638Y167421D01*
X290618Y167425D01*
X290606Y167423D01*
X290578Y167425D01*
X290488Y167425D01*
X290389Y167413D01*
X290290Y167410D01*
X290232Y167393D01*
X290172Y167385D01*
X290080Y167349D01*
X289985Y167321D01*
X289933Y167291D01*
X289876Y167268D01*
X289796Y167210D01*
X289711Y167160D01*
X289636Y167094D01*
X289619Y167082D01*
X289611Y167072D01*
X289590Y167054D01*
X256686Y134150D01*
X256626Y134072D01*
X256558Y134000D01*
X256529Y133947D01*
X256492Y133899D01*
X256452Y133808D01*
X256404Y133721D01*
X256389Y133663D01*
X256365Y133607D01*
X256350Y133509D01*
X256325Y133413D01*
X256319Y133313D01*
X256315Y133293D01*
X256317Y133280D01*
X256315Y133252D01*
X256315Y130186D01*
X254146Y128018D01*
X254086Y127940D01*
X254018Y127867D01*
X253989Y127814D01*
X253952Y127767D01*
X253912Y127676D01*
X253864Y127589D01*
X253849Y127530D01*
X253825Y127475D01*
X253810Y127377D01*
X253785Y127281D01*
X253779Y127181D01*
X253775Y127161D01*
X253777Y127148D01*
X253775Y127120D01*
X253775Y50014D01*
X253787Y49915D01*
X253790Y49816D01*
X253807Y49758D01*
X253815Y49698D01*
X253851Y49606D01*
X253879Y49511D01*
X253909Y49459D01*
X253932Y49402D01*
X253990Y49322D01*
X254040Y49237D01*
X254106Y49162D01*
X254118Y49145D01*
X254128Y49137D01*
X254146Y49116D01*
X256213Y47050D01*
X257605Y43689D01*
X257605Y24811D01*
X256213Y21450D01*
X253640Y18877D01*
X250279Y17485D01*
X246641Y17485D01*
X243280Y18877D01*
X240707Y21450D01*
X239315Y24811D01*
X239315Y31877D01*
X239314Y31886D01*
X239315Y31895D01*
X239294Y32044D01*
X239275Y32192D01*
X239272Y32201D01*
X239271Y32210D01*
X239219Y32363D01*
X238025Y35244D01*
X238025Y127120D01*
X238013Y127219D01*
X238010Y127318D01*
X237993Y127376D01*
X237985Y127436D01*
X237949Y127528D01*
X237921Y127623D01*
X237891Y127675D01*
X237868Y127732D01*
X237810Y127812D01*
X237760Y127897D01*
X237694Y127972D01*
X237682Y127989D01*
X237672Y127997D01*
X237654Y128018D01*
X235485Y130186D01*
X235485Y135284D01*
X235468Y135422D01*
X235455Y135561D01*
X235448Y135580D01*
X235445Y135600D01*
X235394Y135729D01*
X235347Y135860D01*
X235336Y135877D01*
X235328Y135896D01*
X235247Y136008D01*
X235169Y136123D01*
X235153Y136137D01*
X235142Y136153D01*
X235034Y136242D01*
X234930Y136334D01*
X234912Y136343D01*
X234897Y136356D01*
X234771Y136415D01*
X234647Y136478D01*
X234627Y136483D01*
X234609Y136491D01*
X234472Y136517D01*
X234337Y136548D01*
X234316Y136547D01*
X234297Y136551D01*
X234158Y136543D01*
X234019Y136538D01*
X233999Y136533D01*
X233979Y136531D01*
X233847Y136489D01*
X233713Y136450D01*
X233696Y136440D01*
X233677Y136433D01*
X233559Y136359D01*
X233439Y136288D01*
X233418Y136270D01*
X233408Y136263D01*
X233394Y136248D01*
X233319Y136182D01*
X231921Y134785D01*
X231861Y134707D01*
X231793Y134635D01*
X231764Y134582D01*
X231727Y134534D01*
X231687Y134443D01*
X231639Y134356D01*
X231624Y134297D01*
X231600Y134242D01*
X231585Y134144D01*
X231560Y134048D01*
X231554Y133948D01*
X231550Y133928D01*
X231552Y133915D01*
X231550Y133887D01*
X231550Y116358D01*
X231031Y115106D01*
X231029Y115098D01*
X231024Y115089D01*
X230987Y114944D01*
X230947Y114800D01*
X230947Y114790D01*
X230945Y114781D01*
X230935Y114621D01*
X230935Y47008D01*
X230936Y46998D01*
X230935Y46989D01*
X230956Y46840D01*
X230975Y46692D01*
X230978Y46683D01*
X230979Y46674D01*
X231031Y46522D01*
X232205Y43689D01*
X232205Y24811D01*
X230813Y21450D01*
X228240Y18877D01*
X224879Y17485D01*
X221241Y17485D01*
G37*
%LPD*%
%LPC*%
G36*
X1060205Y670975D02*
X1060205Y670975D01*
X1056888Y672349D01*
X1054349Y674888D01*
X1052975Y678205D01*
X1052975Y681795D01*
X1054029Y684338D01*
X1054031Y684347D01*
X1054036Y684355D01*
X1054073Y684501D01*
X1054113Y684645D01*
X1054113Y684654D01*
X1054115Y684663D01*
X1054125Y684824D01*
X1054125Y749212D01*
X1054113Y749311D01*
X1054110Y749410D01*
X1054093Y749468D01*
X1054085Y749528D01*
X1054049Y749620D01*
X1054021Y749715D01*
X1053991Y749767D01*
X1053968Y749824D01*
X1053910Y749904D01*
X1053860Y749989D01*
X1053794Y750064D01*
X1053782Y750081D01*
X1053772Y750089D01*
X1053754Y750110D01*
X995110Y808754D01*
X995032Y808814D01*
X994960Y808882D01*
X994907Y808911D01*
X994859Y808948D01*
X994768Y808988D01*
X994681Y809036D01*
X994622Y809051D01*
X994567Y809075D01*
X994469Y809090D01*
X994373Y809115D01*
X994273Y809121D01*
X994253Y809125D01*
X994240Y809123D01*
X994212Y809125D01*
X929788Y809125D01*
X929689Y809113D01*
X929590Y809110D01*
X929532Y809093D01*
X929472Y809085D01*
X929380Y809049D01*
X929285Y809021D01*
X929233Y808991D01*
X929176Y808968D01*
X929096Y808910D01*
X929011Y808860D01*
X928936Y808794D01*
X928919Y808782D01*
X928911Y808772D01*
X928890Y808754D01*
X926246Y806110D01*
X926186Y806032D01*
X926118Y805960D01*
X926089Y805907D01*
X926052Y805859D01*
X926012Y805768D01*
X925964Y805681D01*
X925949Y805623D01*
X925925Y805567D01*
X925910Y805469D01*
X925885Y805373D01*
X925879Y805273D01*
X925875Y805253D01*
X925877Y805240D01*
X925875Y805212D01*
X925875Y726284D01*
X924676Y723389D01*
X922282Y720996D01*
X908946Y707660D01*
X908886Y707582D01*
X908818Y707510D01*
X908789Y707457D01*
X908752Y707409D01*
X908712Y707318D01*
X908664Y707231D01*
X908649Y707173D01*
X908625Y707117D01*
X908610Y707019D01*
X908585Y706923D01*
X908579Y706823D01*
X908575Y706803D01*
X908577Y706790D01*
X908575Y706762D01*
X908575Y705627D01*
X906950Y701703D01*
X903947Y698700D01*
X900023Y697075D01*
X895777Y697075D01*
X891853Y698700D01*
X888850Y701703D01*
X887225Y705627D01*
X887225Y708559D01*
X887213Y708657D01*
X887210Y708756D01*
X887193Y708814D01*
X887185Y708874D01*
X887149Y708966D01*
X887121Y709061D01*
X887091Y709113D01*
X887068Y709170D01*
X887010Y709250D01*
X886960Y709335D01*
X886894Y709411D01*
X886882Y709427D01*
X886872Y709435D01*
X886854Y709456D01*
X859286Y737024D01*
X859208Y737084D01*
X859136Y737152D01*
X859083Y737181D01*
X859035Y737218D01*
X858944Y737258D01*
X858857Y737306D01*
X858799Y737321D01*
X858743Y737345D01*
X858645Y737360D01*
X858549Y737385D01*
X858449Y737391D01*
X858429Y737395D01*
X858416Y737393D01*
X858388Y737395D01*
X819262Y737395D01*
X819163Y737383D01*
X819064Y737380D01*
X819006Y737363D01*
X818946Y737355D01*
X818854Y737319D01*
X818759Y737291D01*
X818707Y737261D01*
X818650Y737238D01*
X818570Y737180D01*
X818485Y737130D01*
X818409Y737064D01*
X818393Y737052D01*
X818385Y737042D01*
X818364Y737024D01*
X811453Y730113D01*
X811380Y730019D01*
X811302Y729930D01*
X811283Y729894D01*
X811258Y729862D01*
X811211Y729752D01*
X811157Y729646D01*
X811148Y729607D01*
X811132Y729570D01*
X811113Y729452D01*
X811087Y729336D01*
X811089Y729296D01*
X811082Y729256D01*
X811093Y729137D01*
X811097Y729018D01*
X811108Y728979D01*
X811112Y728939D01*
X811152Y728827D01*
X811185Y728713D01*
X811206Y728678D01*
X811220Y728640D01*
X811287Y728541D01*
X811347Y728439D01*
X811387Y728394D01*
X811398Y728377D01*
X811414Y728363D01*
X811453Y728318D01*
X812826Y726946D01*
X812826Y719054D01*
X807246Y713474D01*
X799354Y713474D01*
X793774Y719054D01*
X793774Y726946D01*
X796324Y729495D01*
X796384Y729573D01*
X796452Y729645D01*
X796481Y729698D01*
X796518Y729746D01*
X796558Y729837D01*
X796606Y729924D01*
X796621Y729982D01*
X796645Y730038D01*
X796660Y730136D01*
X796685Y730232D01*
X796691Y730332D01*
X796695Y730352D01*
X796693Y730364D01*
X796695Y730392D01*
X796695Y732614D01*
X797701Y735041D01*
X812259Y749599D01*
X814686Y750605D01*
X862964Y750605D01*
X865391Y749599D01*
X867428Y747563D01*
X896104Y718886D01*
X896198Y718813D01*
X896288Y718734D01*
X896324Y718716D01*
X896356Y718691D01*
X896465Y718644D01*
X896571Y718590D01*
X896610Y718581D01*
X896648Y718565D01*
X896765Y718546D01*
X896881Y718520D01*
X896922Y718521D01*
X896962Y718515D01*
X897080Y718526D01*
X897199Y718530D01*
X897238Y718541D01*
X897278Y718545D01*
X897390Y718585D01*
X897505Y718618D01*
X897539Y718639D01*
X897578Y718652D01*
X897676Y718719D01*
X897779Y718780D01*
X897824Y718819D01*
X897841Y718831D01*
X897854Y718846D01*
X897899Y718886D01*
X909754Y730740D01*
X909814Y730818D01*
X909882Y730890D01*
X909911Y730943D01*
X909948Y730991D01*
X909988Y731082D01*
X910036Y731169D01*
X910051Y731227D01*
X910075Y731283D01*
X910090Y731381D01*
X910115Y731477D01*
X910121Y731577D01*
X910125Y731597D01*
X910123Y731610D01*
X910125Y731638D01*
X910125Y741089D01*
X910117Y741158D01*
X910118Y741228D01*
X910097Y741316D01*
X910085Y741405D01*
X910060Y741470D01*
X910043Y741537D01*
X910001Y741617D01*
X909968Y741700D01*
X909927Y741757D01*
X909895Y741818D01*
X909834Y741885D01*
X909782Y741958D01*
X909728Y742002D01*
X909681Y742054D01*
X909606Y742103D01*
X909537Y742160D01*
X909473Y742190D01*
X909415Y742229D01*
X909330Y742258D01*
X909249Y742296D01*
X909180Y742309D01*
X909114Y742332D01*
X909025Y742339D01*
X908937Y742356D01*
X908867Y742351D01*
X908797Y742357D01*
X908709Y742342D01*
X908619Y742336D01*
X908553Y742315D01*
X908484Y742303D01*
X908402Y742266D01*
X908317Y742238D01*
X908258Y742201D01*
X908194Y742172D01*
X908124Y742116D01*
X908048Y742068D01*
X908000Y742017D01*
X907946Y741973D01*
X907891Y741902D01*
X907830Y741836D01*
X907796Y741775D01*
X907754Y741719D01*
X907683Y741575D01*
X906950Y739803D01*
X903947Y736800D01*
X900023Y735175D01*
X895777Y735175D01*
X891853Y736800D01*
X888850Y739803D01*
X887225Y743727D01*
X887225Y747973D01*
X888850Y751897D01*
X891853Y754900D01*
X895777Y756525D01*
X900023Y756525D01*
X903947Y754900D01*
X906950Y751897D01*
X907683Y750125D01*
X907718Y750065D01*
X907744Y750000D01*
X907796Y749927D01*
X907841Y749849D01*
X907889Y749799D01*
X907930Y749742D01*
X908000Y749685D01*
X908062Y749621D01*
X908122Y749584D01*
X908175Y749540D01*
X908257Y749501D01*
X908333Y749454D01*
X908400Y749434D01*
X908463Y749404D01*
X908551Y749387D01*
X908637Y749361D01*
X908707Y749357D01*
X908776Y749344D01*
X908865Y749350D01*
X908955Y749346D01*
X909023Y749360D01*
X909093Y749364D01*
X909178Y749392D01*
X909266Y749410D01*
X909329Y749441D01*
X909395Y749462D01*
X909471Y749510D01*
X909552Y749550D01*
X909605Y749595D01*
X909664Y749632D01*
X909726Y749698D01*
X909794Y749756D01*
X909834Y749813D01*
X909882Y749864D01*
X909925Y749942D01*
X909977Y750016D01*
X910002Y750081D01*
X910036Y750142D01*
X910058Y750229D01*
X910090Y750313D01*
X910098Y750383D01*
X910115Y750450D01*
X910125Y750611D01*
X910125Y810566D01*
X911324Y813461D01*
X913718Y815854D01*
X919146Y821282D01*
X921539Y823676D01*
X924434Y824875D01*
X999566Y824875D01*
X1002461Y823676D01*
X1068676Y757461D01*
X1069875Y754566D01*
X1069875Y684824D01*
X1069876Y684815D01*
X1069875Y684805D01*
X1069896Y684657D01*
X1069915Y684508D01*
X1069918Y684500D01*
X1069919Y684491D01*
X1069971Y684338D01*
X1071025Y681795D01*
X1071025Y678205D01*
X1069651Y674888D01*
X1067112Y672349D01*
X1063795Y670975D01*
X1060205Y670975D01*
G37*
%LPD*%
%LPC*%
G36*
X1201434Y432125D02*
X1201434Y432125D01*
X1198539Y433324D01*
X1059843Y572021D01*
X1059835Y572026D01*
X1059830Y572034D01*
X1059710Y572124D01*
X1059591Y572216D01*
X1059583Y572219D01*
X1059576Y572225D01*
X1059431Y572296D01*
X1056888Y573349D01*
X1054349Y575888D01*
X1052975Y579205D01*
X1052975Y582795D01*
X1054349Y586112D01*
X1056888Y588651D01*
X1060205Y590025D01*
X1063795Y590025D01*
X1067112Y588651D01*
X1069651Y586112D01*
X1070704Y583569D01*
X1070709Y583561D01*
X1070711Y583552D01*
X1070787Y583423D01*
X1070862Y583293D01*
X1070868Y583286D01*
X1070873Y583278D01*
X1070979Y583157D01*
X1205890Y448246D01*
X1205968Y448186D01*
X1206040Y448118D01*
X1206093Y448089D01*
X1206141Y448052D01*
X1206232Y448012D01*
X1206319Y447964D01*
X1206378Y447949D01*
X1206433Y447925D01*
X1206531Y447910D01*
X1206627Y447885D01*
X1206727Y447879D01*
X1206747Y447875D01*
X1206760Y447877D01*
X1206788Y447875D01*
X1333512Y447875D01*
X1333611Y447887D01*
X1333710Y447890D01*
X1333768Y447907D01*
X1333828Y447915D01*
X1333920Y447951D01*
X1334015Y447979D01*
X1334067Y448009D01*
X1334124Y448032D01*
X1334204Y448090D01*
X1334289Y448140D01*
X1334365Y448206D01*
X1334381Y448218D01*
X1334389Y448228D01*
X1334410Y448246D01*
X1378504Y492340D01*
X1378564Y492418D01*
X1378632Y492490D01*
X1378661Y492543D01*
X1378698Y492591D01*
X1378738Y492682D01*
X1378786Y492769D01*
X1378801Y492827D01*
X1378825Y492883D01*
X1378840Y492981D01*
X1378865Y493077D01*
X1378871Y493177D01*
X1378875Y493197D01*
X1378873Y493210D01*
X1378875Y493238D01*
X1378875Y498630D01*
X1381041Y503858D01*
X1385042Y507859D01*
X1390270Y510025D01*
X1395930Y510025D01*
X1401158Y507859D01*
X1405159Y503858D01*
X1407325Y498630D01*
X1407325Y492970D01*
X1405159Y487742D01*
X1401158Y483741D01*
X1395930Y481575D01*
X1390538Y481575D01*
X1390439Y481563D01*
X1390340Y481560D01*
X1390282Y481543D01*
X1390222Y481535D01*
X1390130Y481499D01*
X1390035Y481471D01*
X1389983Y481441D01*
X1389926Y481418D01*
X1389846Y481360D01*
X1389761Y481310D01*
X1389685Y481244D01*
X1389669Y481232D01*
X1389661Y481222D01*
X1389640Y481204D01*
X1344154Y435718D01*
X1341761Y433324D01*
X1338866Y432125D01*
X1201434Y432125D01*
G37*
%LPD*%
%LPC*%
G36*
X1200270Y75575D02*
X1200270Y75575D01*
X1195042Y77741D01*
X1191041Y81742D01*
X1188875Y86970D01*
X1188875Y92630D01*
X1191041Y97858D01*
X1236242Y143059D01*
X1241470Y145225D01*
X1354730Y145225D01*
X1359958Y143059D01*
X1405159Y97858D01*
X1407325Y92630D01*
X1407325Y86970D01*
X1405159Y81742D01*
X1401158Y77741D01*
X1395930Y75575D01*
X1390270Y75575D01*
X1385042Y77741D01*
X1346380Y116404D01*
X1346301Y116464D01*
X1346229Y116532D01*
X1346176Y116561D01*
X1346128Y116598D01*
X1346037Y116638D01*
X1345951Y116686D01*
X1345892Y116701D01*
X1345837Y116725D01*
X1345739Y116740D01*
X1345643Y116765D01*
X1345543Y116771D01*
X1345522Y116775D01*
X1345510Y116773D01*
X1345482Y116775D01*
X1250718Y116775D01*
X1250620Y116763D01*
X1250521Y116760D01*
X1250462Y116743D01*
X1250402Y116735D01*
X1250310Y116699D01*
X1250215Y116671D01*
X1250163Y116641D01*
X1250107Y116618D01*
X1250027Y116560D01*
X1249941Y116510D01*
X1249866Y116444D01*
X1249849Y116432D01*
X1249841Y116422D01*
X1249820Y116404D01*
X1211158Y77741D01*
X1205930Y75575D01*
X1200270Y75575D01*
G37*
%LPD*%
%LPC*%
G36*
X1595053Y182915D02*
X1595053Y182915D01*
X1587134Y188172D01*
X1581490Y195820D01*
X1578802Y204938D01*
X1579075Y209301D01*
X1579074Y209322D01*
X1579077Y209380D01*
X1579077Y256968D01*
X1579061Y257096D01*
X1579051Y257224D01*
X1579040Y257267D01*
X1579037Y257284D01*
X1579029Y257304D01*
X1579009Y257380D01*
X1578963Y257513D01*
X1579075Y259301D01*
X1579074Y259322D01*
X1579077Y259380D01*
X1579077Y261173D01*
X1579131Y261303D01*
X1579165Y261427D01*
X1579205Y261550D01*
X1579211Y261593D01*
X1579215Y261609D01*
X1579215Y261631D01*
X1579225Y261709D01*
X1579395Y264425D01*
X1583197Y273137D01*
X1589749Y280023D01*
X1598262Y284253D01*
X1607707Y285316D01*
X1616947Y283085D01*
X1624866Y277828D01*
X1630510Y270180D01*
X1633198Y261062D01*
X1632991Y257745D01*
X1632925Y256699D01*
X1632926Y256679D01*
X1632923Y256620D01*
X1632923Y209032D01*
X1632939Y208904D01*
X1632949Y208775D01*
X1632960Y208733D01*
X1632963Y208716D01*
X1632971Y208696D01*
X1632991Y208620D01*
X1633037Y208487D01*
X1632925Y206699D01*
X1632926Y206679D01*
X1632923Y206620D01*
X1632923Y204827D01*
X1632869Y204697D01*
X1632835Y204573D01*
X1632795Y204450D01*
X1632789Y204407D01*
X1632785Y204391D01*
X1632785Y204369D01*
X1632775Y204291D01*
X1632605Y201575D01*
X1628803Y192863D01*
X1622251Y185977D01*
X1613738Y181747D01*
X1604293Y180684D01*
X1595053Y182915D01*
G37*
%LPD*%
%LPC*%
G36*
X35053Y726415D02*
X35053Y726415D01*
X27134Y731672D01*
X21490Y739320D01*
X18802Y748438D01*
X18824Y748784D01*
X19075Y752801D01*
X19074Y752822D01*
X19077Y752881D01*
X19077Y800468D01*
X19061Y800596D01*
X19051Y800724D01*
X19040Y800767D01*
X19037Y800784D01*
X19029Y800804D01*
X19009Y800880D01*
X18963Y801013D01*
X19075Y802801D01*
X19074Y802822D01*
X19077Y802880D01*
X19077Y804673D01*
X19131Y804803D01*
X19165Y804927D01*
X19205Y805050D01*
X19211Y805093D01*
X19215Y805109D01*
X19215Y805131D01*
X19225Y805209D01*
X19348Y807169D01*
X19395Y807925D01*
X23197Y816637D01*
X29749Y823523D01*
X38262Y827753D01*
X47707Y828816D01*
X56947Y826585D01*
X64866Y821328D01*
X70510Y813680D01*
X73198Y804562D01*
X72974Y800984D01*
X72925Y800199D01*
X72926Y800179D01*
X72923Y800120D01*
X72923Y752532D01*
X72939Y752404D01*
X72949Y752276D01*
X72960Y752233D01*
X72963Y752216D01*
X72971Y752196D01*
X72991Y752120D01*
X73037Y751987D01*
X72925Y750199D01*
X72926Y750178D01*
X72923Y750119D01*
X72923Y748327D01*
X72869Y748197D01*
X72835Y748073D01*
X72795Y747950D01*
X72789Y747907D01*
X72785Y747891D01*
X72785Y747869D01*
X72775Y747791D01*
X72768Y747676D01*
X72767Y747675D01*
X72605Y745075D01*
X68803Y736363D01*
X62251Y729477D01*
X53738Y725247D01*
X44293Y724184D01*
X35053Y726415D01*
G37*
%LPD*%
%LPC*%
G36*
X35053Y182915D02*
X35053Y182915D01*
X27134Y188172D01*
X21490Y195820D01*
X18802Y204938D01*
X19075Y209301D01*
X19074Y209322D01*
X19077Y209381D01*
X19077Y256968D01*
X19061Y257096D01*
X19051Y257224D01*
X19040Y257267D01*
X19037Y257284D01*
X19029Y257304D01*
X19009Y257380D01*
X18963Y257513D01*
X19075Y259301D01*
X19074Y259322D01*
X19077Y259381D01*
X19077Y261173D01*
X19131Y261303D01*
X19165Y261427D01*
X19205Y261550D01*
X19211Y261593D01*
X19215Y261609D01*
X19215Y261631D01*
X19225Y261709D01*
X19364Y263930D01*
X19395Y264425D01*
X23197Y273137D01*
X29749Y280023D01*
X38262Y284253D01*
X47707Y285316D01*
X56947Y283085D01*
X64866Y277828D01*
X70510Y270180D01*
X73198Y261062D01*
X72925Y256699D01*
X72926Y256678D01*
X72923Y256619D01*
X72923Y209032D01*
X72939Y208904D01*
X72949Y208776D01*
X72960Y208733D01*
X72963Y208716D01*
X72971Y208696D01*
X72991Y208620D01*
X73037Y208487D01*
X72925Y206699D01*
X72926Y206678D01*
X72923Y206619D01*
X72923Y204827D01*
X72869Y204697D01*
X72835Y204573D01*
X72795Y204450D01*
X72789Y204407D01*
X72785Y204391D01*
X72785Y204369D01*
X72775Y204291D01*
X72605Y201575D01*
X68803Y192863D01*
X62251Y185977D01*
X53738Y181747D01*
X44293Y180684D01*
X35053Y182915D01*
G37*
%LPD*%
%LPC*%
G36*
X1449842Y762675D02*
X1449842Y762675D01*
X1442969Y764517D01*
X1436806Y768075D01*
X1431775Y773106D01*
X1428217Y779269D01*
X1426375Y786142D01*
X1426375Y793258D01*
X1428217Y800131D01*
X1431775Y806294D01*
X1436806Y811325D01*
X1442969Y814883D01*
X1449842Y816725D01*
X1456958Y816725D01*
X1463831Y814883D01*
X1469994Y811325D01*
X1475025Y806294D01*
X1478583Y800131D01*
X1480425Y793258D01*
X1480425Y786142D01*
X1478583Y779269D01*
X1475025Y773106D01*
X1469994Y768075D01*
X1463831Y764517D01*
X1456958Y762675D01*
X1449842Y762675D01*
G37*
%LPD*%
%LPC*%
G36*
X1089842Y762675D02*
X1089842Y762675D01*
X1082969Y764517D01*
X1076806Y768075D01*
X1071775Y773106D01*
X1068217Y779269D01*
X1066375Y786142D01*
X1066375Y793258D01*
X1068217Y800131D01*
X1071775Y806294D01*
X1076806Y811325D01*
X1082969Y814883D01*
X1089842Y816725D01*
X1096958Y816725D01*
X1103831Y814883D01*
X1109994Y811325D01*
X1115025Y806294D01*
X1118583Y800131D01*
X1120425Y793258D01*
X1120425Y786142D01*
X1118583Y779269D01*
X1115025Y773106D01*
X1109994Y768075D01*
X1103831Y764517D01*
X1096958Y762675D01*
X1089842Y762675D01*
G37*
%LPD*%
%LPC*%
G36*
X272041Y17485D02*
X272041Y17485D01*
X268680Y18877D01*
X266107Y21450D01*
X264715Y24811D01*
X264715Y43689D01*
X266107Y47050D01*
X268680Y49623D01*
X272041Y51015D01*
X275679Y51015D01*
X277589Y50224D01*
X277617Y50216D01*
X277644Y50202D01*
X277771Y50174D01*
X277896Y50140D01*
X277925Y50139D01*
X277954Y50133D01*
X278084Y50137D01*
X278214Y50135D01*
X278242Y50141D01*
X278272Y50142D01*
X278397Y50178D01*
X278523Y50209D01*
X278549Y50223D01*
X278577Y50231D01*
X278689Y50297D01*
X278804Y50357D01*
X278826Y50377D01*
X278851Y50392D01*
X278972Y50499D01*
X288454Y59980D01*
X288514Y60058D01*
X288582Y60130D01*
X288611Y60183D01*
X288648Y60231D01*
X288688Y60322D01*
X288736Y60409D01*
X288751Y60468D01*
X288775Y60523D01*
X288790Y60621D01*
X288815Y60717D01*
X288821Y60817D01*
X288825Y60837D01*
X288823Y60850D01*
X288825Y60878D01*
X288825Y118378D01*
X288813Y118476D01*
X288810Y118575D01*
X288793Y118633D01*
X288785Y118693D01*
X288749Y118785D01*
X288721Y118880D01*
X288691Y118933D01*
X288668Y118989D01*
X288610Y119069D01*
X288560Y119154D01*
X288494Y119230D01*
X288482Y119246D01*
X288472Y119254D01*
X288454Y119275D01*
X287174Y120554D01*
X287174Y128446D01*
X292754Y134026D01*
X300646Y134026D01*
X306226Y128446D01*
X306226Y120554D01*
X304946Y119275D01*
X304886Y119197D01*
X304818Y119125D01*
X304789Y119072D01*
X304752Y119024D01*
X304712Y118933D01*
X304664Y118846D01*
X304649Y118788D01*
X304625Y118732D01*
X304610Y118634D01*
X304585Y118538D01*
X304579Y118438D01*
X304575Y118418D01*
X304577Y118406D01*
X304575Y118378D01*
X304575Y55524D01*
X303376Y52629D01*
X283376Y32630D01*
X283316Y32552D01*
X283248Y32480D01*
X283227Y32441D01*
X283208Y32419D01*
X283201Y32404D01*
X283182Y32379D01*
X283142Y32288D01*
X283094Y32201D01*
X283081Y32148D01*
X283073Y32131D01*
X283071Y32124D01*
X283055Y32087D01*
X283040Y31989D01*
X283015Y31893D01*
X283009Y31793D01*
X283005Y31773D01*
X283007Y31760D01*
X283005Y31732D01*
X283005Y24811D01*
X281613Y21450D01*
X279040Y18877D01*
X275679Y17485D01*
X272041Y17485D01*
G37*
%LPD*%
%LPC*%
G36*
X310605Y607975D02*
X310605Y607975D01*
X307288Y609349D01*
X304749Y611888D01*
X303375Y615205D01*
X303375Y618795D01*
X304749Y622112D01*
X307288Y624651D01*
X308142Y625004D01*
X308167Y625019D01*
X308195Y625028D01*
X308305Y625098D01*
X308418Y625162D01*
X308439Y625183D01*
X308464Y625198D01*
X308553Y625293D01*
X308646Y625383D01*
X308662Y625408D01*
X308682Y625430D01*
X308745Y625544D01*
X308813Y625654D01*
X308821Y625683D01*
X308836Y625708D01*
X308868Y625834D01*
X308906Y625958D01*
X308908Y625988D01*
X308915Y626016D01*
X308925Y626177D01*
X308925Y649178D01*
X308913Y649276D01*
X308910Y649375D01*
X308893Y649433D01*
X308885Y649493D01*
X308849Y649585D01*
X308821Y649680D01*
X308791Y649733D01*
X308768Y649789D01*
X308710Y649869D01*
X308660Y649954D01*
X308594Y650030D01*
X308582Y650046D01*
X308572Y650054D01*
X308554Y650075D01*
X307274Y651354D01*
X307274Y659246D01*
X312854Y664826D01*
X320746Y664826D01*
X326326Y659246D01*
X326326Y651354D01*
X325046Y650075D01*
X324986Y649997D01*
X324918Y649925D01*
X324889Y649872D01*
X324852Y649824D01*
X324812Y649733D01*
X324764Y649646D01*
X324749Y649588D01*
X324725Y649532D01*
X324710Y649434D01*
X324685Y649338D01*
X324679Y649238D01*
X324675Y649218D01*
X324677Y649206D01*
X324675Y649178D01*
X324675Y619834D01*
X323476Y616939D01*
X321379Y614843D01*
X321374Y614835D01*
X321366Y614830D01*
X321276Y614709D01*
X321184Y614591D01*
X321181Y614583D01*
X321175Y614576D01*
X321104Y614431D01*
X320051Y611888D01*
X317512Y609349D01*
X314195Y607975D01*
X310605Y607975D01*
G37*
%LPD*%
%LPC*%
G36*
X1563962Y612722D02*
X1563962Y612722D01*
X1560111Y614317D01*
X1557163Y617265D01*
X1555568Y621116D01*
X1555568Y625284D01*
X1557163Y629135D01*
X1560111Y632083D01*
X1563962Y633678D01*
X1586038Y633678D01*
X1589889Y632083D01*
X1592837Y629135D01*
X1594432Y625284D01*
X1594432Y621116D01*
X1592837Y617265D01*
X1589889Y614317D01*
X1586038Y612722D01*
X1563962Y612722D01*
G37*
%LPD*%
%LPC*%
G36*
X35604Y42627D02*
X35604Y42627D01*
X30213Y44860D01*
X26086Y48987D01*
X23853Y54378D01*
X23853Y60214D01*
X26086Y65605D01*
X30213Y69732D01*
X35604Y71965D01*
X41440Y71965D01*
X46831Y69732D01*
X50958Y65605D01*
X53191Y60214D01*
X53191Y54378D01*
X50958Y48987D01*
X46831Y44860D01*
X41440Y42627D01*
X35604Y42627D01*
G37*
%LPD*%
%LPC*%
G36*
X47874Y601997D02*
X47874Y601997D01*
X42483Y604230D01*
X38356Y608357D01*
X36123Y613748D01*
X36123Y619584D01*
X38356Y624975D01*
X42483Y629102D01*
X47874Y631335D01*
X53710Y631335D01*
X59101Y629102D01*
X63228Y624975D01*
X65461Y619584D01*
X65461Y613748D01*
X63228Y608357D01*
X59101Y604230D01*
X53710Y601997D01*
X47874Y601997D01*
G37*
%LPD*%
%LPC*%
G36*
X47874Y678705D02*
X47874Y678705D01*
X42483Y680938D01*
X38356Y685065D01*
X36123Y690456D01*
X36123Y696292D01*
X38356Y701683D01*
X42483Y705810D01*
X47874Y708043D01*
X53710Y708043D01*
X59101Y705810D01*
X63228Y701683D01*
X65461Y696292D01*
X65461Y690456D01*
X63228Y685065D01*
X59101Y680938D01*
X53710Y678705D01*
X47874Y678705D01*
G37*
%LPD*%
%LPC*%
G36*
X35604Y119335D02*
X35604Y119335D01*
X30213Y121568D01*
X26086Y125695D01*
X23853Y131086D01*
X23853Y136922D01*
X26086Y142313D01*
X30213Y146440D01*
X35604Y148673D01*
X41440Y148673D01*
X46831Y146440D01*
X50958Y142313D01*
X53191Y136922D01*
X53191Y131086D01*
X50958Y125695D01*
X46831Y121568D01*
X41440Y119335D01*
X35604Y119335D01*
G37*
%LPD*%
%LPC*%
G36*
X1340561Y538425D02*
X1340561Y538425D01*
X1335314Y540598D01*
X1331298Y544614D01*
X1329125Y549861D01*
X1329125Y555539D01*
X1331298Y560786D01*
X1335314Y564802D01*
X1340561Y566975D01*
X1346239Y566975D01*
X1351486Y564802D01*
X1355502Y560786D01*
X1357675Y555539D01*
X1357675Y549861D01*
X1355502Y544614D01*
X1351486Y540598D01*
X1346239Y538425D01*
X1340561Y538425D01*
G37*
%LPD*%
%LPC*%
G36*
X1295270Y481575D02*
X1295270Y481575D01*
X1290042Y483741D01*
X1286041Y487742D01*
X1283875Y492970D01*
X1283875Y498630D01*
X1286041Y503858D01*
X1290042Y507859D01*
X1295270Y510025D01*
X1300930Y510025D01*
X1306158Y507859D01*
X1310159Y503858D01*
X1312325Y498630D01*
X1312325Y492970D01*
X1310159Y487742D01*
X1306158Y483741D01*
X1300930Y481575D01*
X1295270Y481575D01*
G37*
%LPD*%
%LPC*%
G36*
X524170Y220075D02*
X524170Y220075D01*
X518942Y222241D01*
X514941Y226242D01*
X512775Y231470D01*
X512775Y237130D01*
X514941Y242358D01*
X518942Y246359D01*
X524170Y248525D01*
X529830Y248525D01*
X535058Y246359D01*
X539059Y242358D01*
X541225Y237130D01*
X541225Y231470D01*
X539059Y226242D01*
X535058Y222241D01*
X529830Y220075D01*
X524170Y220075D01*
G37*
%LPD*%
%LPC*%
G36*
X1485270Y75575D02*
X1485270Y75575D01*
X1480042Y77741D01*
X1476041Y81742D01*
X1473875Y86970D01*
X1473875Y92630D01*
X1476041Y97858D01*
X1480042Y101859D01*
X1485270Y104025D01*
X1490930Y104025D01*
X1496158Y101859D01*
X1500159Y97858D01*
X1502325Y92630D01*
X1502325Y86970D01*
X1500159Y81742D01*
X1496158Y77741D01*
X1490930Y75575D01*
X1485270Y75575D01*
G37*
%LPD*%
%LPC*%
G36*
X1007170Y220075D02*
X1007170Y220075D01*
X1001942Y222241D01*
X997941Y226242D01*
X995775Y231470D01*
X995775Y237130D01*
X997941Y242358D01*
X1001942Y246359D01*
X1007170Y248525D01*
X1012830Y248525D01*
X1018058Y246359D01*
X1022059Y242358D01*
X1024225Y237130D01*
X1024225Y231470D01*
X1022059Y226242D01*
X1018058Y222241D01*
X1012830Y220075D01*
X1007170Y220075D01*
G37*
%LPD*%
%LPC*%
G36*
X524170Y68075D02*
X524170Y68075D01*
X518942Y70241D01*
X514941Y74242D01*
X512775Y79470D01*
X512775Y85130D01*
X514941Y90358D01*
X518942Y94359D01*
X524170Y96525D01*
X529830Y96525D01*
X535058Y94359D01*
X539059Y90358D01*
X541225Y85130D01*
X541225Y79470D01*
X539059Y74242D01*
X535058Y70241D01*
X529830Y68075D01*
X524170Y68075D01*
G37*
%LPD*%
%LPC*%
G36*
X524170Y507075D02*
X524170Y507075D01*
X518942Y509241D01*
X514941Y513242D01*
X512775Y518470D01*
X512775Y524130D01*
X514941Y529358D01*
X518942Y533359D01*
X524170Y535525D01*
X529830Y535525D01*
X535058Y533359D01*
X539059Y529358D01*
X541225Y524130D01*
X541225Y518470D01*
X539059Y513242D01*
X535058Y509241D01*
X529830Y507075D01*
X524170Y507075D01*
G37*
%LPD*%
%LPC*%
G36*
X1295270Y75575D02*
X1295270Y75575D01*
X1290042Y77741D01*
X1286041Y81742D01*
X1283875Y86970D01*
X1283875Y92630D01*
X1286041Y97858D01*
X1290042Y101859D01*
X1295270Y104025D01*
X1300930Y104025D01*
X1306158Y101859D01*
X1310159Y97858D01*
X1312325Y92630D01*
X1312325Y86970D01*
X1310159Y81742D01*
X1306158Y77741D01*
X1300930Y75575D01*
X1295270Y75575D01*
G37*
%LPD*%
%LPC*%
G36*
X524170Y355075D02*
X524170Y355075D01*
X518942Y357241D01*
X514941Y361242D01*
X512775Y366470D01*
X512775Y372130D01*
X514941Y377358D01*
X518942Y381359D01*
X524170Y383525D01*
X529830Y383525D01*
X535058Y381359D01*
X539059Y377358D01*
X541225Y372130D01*
X541225Y366470D01*
X539059Y361242D01*
X535058Y357241D01*
X529830Y355075D01*
X524170Y355075D01*
G37*
%LPD*%
%LPC*%
G36*
X1019777Y735375D02*
X1019777Y735375D01*
X1015853Y737000D01*
X1012850Y740003D01*
X1011225Y743927D01*
X1011225Y748173D01*
X1012850Y752097D01*
X1015853Y755100D01*
X1019777Y756725D01*
X1024023Y756725D01*
X1027947Y755100D01*
X1030950Y752097D01*
X1032575Y748173D01*
X1032575Y743927D01*
X1030950Y740003D01*
X1027947Y737000D01*
X1024023Y735375D01*
X1019777Y735375D01*
G37*
%LPD*%
%LPC*%
G36*
X351677Y494775D02*
X351677Y494775D01*
X347753Y496400D01*
X344750Y499403D01*
X343125Y503327D01*
X343125Y507573D01*
X344750Y511497D01*
X347753Y514500D01*
X351677Y516125D01*
X355923Y516125D01*
X359847Y514500D01*
X362850Y511497D01*
X364475Y507573D01*
X364475Y503327D01*
X362850Y499403D01*
X359847Y496400D01*
X355923Y494775D01*
X351677Y494775D01*
G37*
%LPD*%
%LPC*%
G36*
X170086Y503585D02*
X170086Y503585D01*
X163985Y509686D01*
X163985Y518314D01*
X170086Y524415D01*
X178714Y524415D01*
X184815Y518314D01*
X184815Y509686D01*
X178714Y503585D01*
X170086Y503585D01*
G37*
%LPD*%
%LPC*%
G36*
X144686Y503585D02*
X144686Y503585D01*
X138585Y509686D01*
X138585Y518314D01*
X144686Y524415D01*
X153314Y524415D01*
X159415Y518314D01*
X159415Y509686D01*
X153314Y503585D01*
X144686Y503585D01*
G37*
%LPD*%
%LPC*%
G36*
X937354Y763474D02*
X937354Y763474D01*
X931774Y769054D01*
X931774Y776946D01*
X937354Y782526D01*
X945246Y782526D01*
X950826Y776946D01*
X950826Y769054D01*
X945246Y763474D01*
X937354Y763474D01*
G37*
%LPD*%
%LPC*%
G36*
X799354Y665474D02*
X799354Y665474D01*
X793774Y671054D01*
X793774Y678946D01*
X799354Y684526D01*
X807246Y684526D01*
X812826Y678946D01*
X812826Y671054D01*
X807246Y665474D01*
X799354Y665474D01*
G37*
%LPD*%
%LPC*%
G36*
X962754Y763474D02*
X962754Y763474D01*
X957174Y769054D01*
X957174Y776946D01*
X962754Y782526D01*
X970646Y782526D01*
X976226Y776946D01*
X976226Y769054D01*
X970646Y763474D01*
X962754Y763474D01*
G37*
%LPD*%
%LPC*%
G36*
X824754Y761474D02*
X824754Y761474D01*
X819174Y767054D01*
X819174Y774946D01*
X824754Y780526D01*
X832646Y780526D01*
X838226Y774946D01*
X838226Y767054D01*
X832646Y761474D01*
X824754Y761474D01*
G37*
%LPD*%
%LPC*%
G36*
X799354Y761474D02*
X799354Y761474D01*
X793774Y767054D01*
X793774Y774946D01*
X799354Y780526D01*
X807246Y780526D01*
X812826Y774946D01*
X812826Y767054D01*
X807246Y761474D01*
X799354Y761474D01*
G37*
%LPD*%
%LPC*%
G36*
X555854Y707174D02*
X555854Y707174D01*
X550274Y712754D01*
X550274Y720646D01*
X555854Y726226D01*
X563746Y726226D01*
X569326Y720646D01*
X569326Y712754D01*
X563746Y707174D01*
X555854Y707174D01*
G37*
%LPD*%
%LPC*%
G36*
X937354Y667474D02*
X937354Y667474D01*
X931774Y673054D01*
X931774Y680946D01*
X937354Y686526D01*
X945246Y686526D01*
X950826Y680946D01*
X950826Y673054D01*
X945246Y667474D01*
X937354Y667474D01*
G37*
%LPD*%
%LPC*%
G36*
X286354Y368474D02*
X286354Y368474D01*
X280774Y374054D01*
X280774Y381946D01*
X286354Y387526D01*
X294246Y387526D01*
X299826Y381946D01*
X299826Y374054D01*
X294246Y368474D01*
X286354Y368474D01*
G37*
%LPD*%
%LPC*%
G36*
X193154Y464474D02*
X193154Y464474D01*
X187574Y470054D01*
X187574Y477946D01*
X193154Y483526D01*
X201046Y483526D01*
X206626Y477946D01*
X206626Y470054D01*
X201046Y464474D01*
X193154Y464474D01*
G37*
%LPD*%
%LPC*%
G36*
X365728Y663335D02*
X365728Y663335D01*
X364835Y664228D01*
X364835Y679572D01*
X365728Y680465D01*
X381072Y680465D01*
X381965Y679572D01*
X381965Y664228D01*
X381072Y663335D01*
X365728Y663335D01*
G37*
%LPD*%
%LPC*%
G36*
X696228Y659835D02*
X696228Y659835D01*
X695335Y660728D01*
X695335Y676072D01*
X696228Y676965D01*
X711572Y676965D01*
X712465Y676072D01*
X712465Y660728D01*
X711572Y659835D01*
X696228Y659835D01*
G37*
%LPD*%
%LPC*%
G36*
X400728Y663335D02*
X400728Y663335D01*
X399835Y664228D01*
X399835Y679572D01*
X400728Y680465D01*
X416072Y680465D01*
X416965Y679572D01*
X416965Y664228D01*
X416072Y663335D01*
X400728Y663335D01*
G37*
%LPD*%
%LPC*%
G36*
X145828Y364835D02*
X145828Y364835D01*
X144935Y365728D01*
X144935Y381072D01*
X145828Y381965D01*
X161172Y381965D01*
X162065Y381072D01*
X162065Y365728D01*
X161172Y364835D01*
X145828Y364835D01*
G37*
%LPD*%
%LPC*%
G36*
X402728Y579685D02*
X402728Y579685D01*
X401835Y580578D01*
X401835Y595922D01*
X402728Y596815D01*
X418072Y596815D01*
X418965Y595922D01*
X418965Y580578D01*
X418072Y579685D01*
X402728Y579685D01*
G37*
%LPD*%
%LPC*%
G36*
X187158Y215935D02*
X187158Y215935D01*
X186265Y216828D01*
X186265Y232172D01*
X187158Y233065D01*
X202502Y233065D01*
X203395Y232172D01*
X203395Y216828D01*
X202502Y215935D01*
X187158Y215935D01*
G37*
%LPD*%
%LPC*%
G36*
X276228Y263435D02*
X276228Y263435D01*
X275335Y264328D01*
X275335Y279672D01*
X276228Y280565D01*
X291572Y280565D01*
X292465Y279672D01*
X292465Y264328D01*
X291572Y263435D01*
X276228Y263435D01*
G37*
%LPD*%
%LPC*%
G36*
X187158Y250935D02*
X187158Y250935D01*
X186265Y251828D01*
X186265Y267172D01*
X187158Y268065D01*
X202502Y268065D01*
X203395Y267172D01*
X203395Y251828D01*
X202502Y250935D01*
X187158Y250935D01*
G37*
%LPD*%
%LPC*%
G36*
X1577539Y675739D02*
X1577539Y675739D01*
X1577539Y684694D01*
X1584858Y684694D01*
X1586645Y684411D01*
X1588366Y683852D01*
X1589978Y683031D01*
X1591441Y681967D01*
X1592721Y680688D01*
X1593784Y679224D01*
X1594606Y677612D01*
X1595165Y675892D01*
X1595189Y675739D01*
X1577539Y675739D01*
G37*
%LPD*%
%LPC*%
G36*
X1554811Y675739D02*
X1554811Y675739D01*
X1554835Y675892D01*
X1555394Y677612D01*
X1556216Y679224D01*
X1557279Y680688D01*
X1558559Y681967D01*
X1560022Y683031D01*
X1561634Y683852D01*
X1563355Y684411D01*
X1565142Y684694D01*
X1572461Y684694D01*
X1572461Y675739D01*
X1554811Y675739D01*
G37*
%LPD*%
%LPC*%
G36*
X1577539Y661706D02*
X1577539Y661706D01*
X1577539Y670661D01*
X1595189Y670661D01*
X1595165Y670508D01*
X1594606Y668788D01*
X1593784Y667176D01*
X1592721Y665712D01*
X1591441Y664433D01*
X1589978Y663369D01*
X1588366Y662548D01*
X1586645Y661989D01*
X1584858Y661706D01*
X1577539Y661706D01*
G37*
%LPD*%
%LPC*%
G36*
X1565142Y661706D02*
X1565142Y661706D01*
X1563355Y661989D01*
X1561634Y662548D01*
X1560022Y663369D01*
X1558559Y664433D01*
X1557279Y665712D01*
X1556216Y667176D01*
X1555394Y668788D01*
X1554835Y670508D01*
X1554811Y670661D01*
X1572461Y670661D01*
X1572461Y661706D01*
X1565142Y661706D01*
G37*
%LPD*%
%LPC*%
G36*
X1275939Y672239D02*
X1275939Y672239D01*
X1275939Y684788D01*
X1276390Y684729D01*
X1278326Y684210D01*
X1280177Y683443D01*
X1281913Y682441D01*
X1283503Y681221D01*
X1284921Y679803D01*
X1286141Y678213D01*
X1287143Y676477D01*
X1287910Y674626D01*
X1288429Y672690D01*
X1288488Y672239D01*
X1275939Y672239D01*
G37*
%LPD*%
%LPC*%
G36*
X1258312Y672239D02*
X1258312Y672239D01*
X1258371Y672689D01*
X1258890Y674626D01*
X1259657Y676477D01*
X1260659Y678213D01*
X1261879Y679803D01*
X1263297Y681221D01*
X1264887Y682441D01*
X1266623Y683443D01*
X1268474Y684210D01*
X1270410Y684729D01*
X1270861Y684788D01*
X1270861Y672239D01*
X1258312Y672239D01*
G37*
%LPD*%
%LPC*%
G36*
X1275939Y667161D02*
X1275939Y667161D01*
X1288488Y667161D01*
X1288429Y666710D01*
X1287910Y664774D01*
X1287143Y662923D01*
X1286141Y661187D01*
X1284921Y659597D01*
X1283503Y658179D01*
X1281913Y656959D01*
X1280177Y655957D01*
X1278326Y655190D01*
X1276389Y654671D01*
X1275939Y654612D01*
X1275939Y667161D01*
G37*
%LPD*%
%LPC*%
G36*
X1270411Y654671D02*
X1270411Y654671D01*
X1268474Y655190D01*
X1266623Y655957D01*
X1264887Y656959D01*
X1263297Y658179D01*
X1261879Y659597D01*
X1260659Y661187D01*
X1259657Y662923D01*
X1258890Y664774D01*
X1258371Y666711D01*
X1258312Y667161D01*
X1270861Y667161D01*
X1270861Y654612D01*
X1270411Y654671D01*
G37*
%LPD*%
%LPC*%
G36*
X1574999Y673199D02*
X1574999Y673199D01*
X1574999Y673201D01*
X1575001Y673201D01*
X1575001Y673199D01*
X1574999Y673199D01*
G37*
%LPD*%
%LPC*%
G36*
X1273399Y669699D02*
X1273399Y669699D01*
X1273399Y669701D01*
X1273401Y669701D01*
X1273401Y669699D01*
X1273399Y669699D01*
G37*
%LPD*%
D10*
X353800Y505450D03*
X353800Y467350D03*
X353800Y429250D03*
X353800Y391150D03*
X1021900Y631750D03*
X1021900Y669850D03*
X1021900Y707950D03*
X1021900Y746050D03*
D11*
X273860Y41870D02*
X273860Y26630D01*
X248460Y26630D02*
X248460Y41870D01*
X223060Y41870D02*
X223060Y26630D01*
D12*
X283900Y272000D03*
X358900Y272000D03*
D13*
X296700Y124500D03*
X296700Y175300D03*
D12*
X194830Y259500D03*
X194830Y224500D03*
D14*
X245900Y134500D03*
X245900Y159900D03*
D12*
X703900Y668400D03*
X703900Y743400D03*
D15*
X527000Y521300D03*
X527000Y369300D03*
X527000Y234300D03*
X527000Y82300D03*
X1010000Y521300D03*
X1010000Y369300D03*
X1010000Y234300D03*
X1010000Y82300D03*
X1203100Y89800D03*
X1298100Y89800D03*
X1393100Y89800D03*
X1488100Y89800D03*
X1203100Y495800D03*
X1298100Y495800D03*
X1393100Y495800D03*
X1488100Y495800D03*
D16*
X45070Y418560D02*
X22591Y418560D01*
X22591Y443960D02*
X45070Y443960D01*
X45070Y469360D02*
X22591Y469360D01*
D17*
X146300Y474000D03*
X197100Y474000D03*
D18*
X149000Y514000D03*
X174400Y514000D03*
D12*
X256460Y572900D03*
X256460Y537900D03*
X228500Y373400D03*
X153500Y373400D03*
D19*
X38522Y134004D03*
X38522Y57296D03*
X50792Y693374D03*
X50792Y616666D03*
D20*
X1203400Y552700D03*
X1343400Y552700D03*
X1273400Y669700D03*
D21*
X1093400Y789700D03*
X1453400Y789700D03*
D16*
X477160Y805141D02*
X477160Y827620D01*
X502560Y827620D02*
X502560Y805141D01*
X527960Y805141D02*
X527960Y827620D01*
D22*
X458200Y716700D03*
X458200Y665900D03*
D23*
X505500Y704000D03*
X505500Y678600D03*
D12*
X375400Y588250D03*
X410400Y588250D03*
D13*
X226200Y654300D03*
X226200Y705100D03*
D23*
X271500Y701000D03*
X271500Y675600D03*
D12*
X373400Y671900D03*
X408400Y671900D03*
D10*
X897900Y631550D03*
X897900Y669650D03*
X897900Y707750D03*
X897900Y745850D03*
D22*
X559800Y716700D03*
X559800Y665900D03*
D13*
X316800Y655300D03*
X316800Y706100D03*
X207800Y124500D03*
X207800Y175300D03*
D17*
X146300Y557900D03*
X197100Y557900D03*
D24*
X1566047Y573200D02*
X1583954Y573200D01*
X1583954Y623200D02*
X1566047Y623200D01*
X1566047Y673200D02*
X1583954Y673200D01*
D25*
X314700Y516000D03*
X289300Y516000D03*
D17*
X289300Y470000D03*
X314700Y470000D03*
D25*
X315700Y424000D03*
X290300Y424000D03*
X315700Y378000D03*
X290300Y378000D03*
X829700Y626000D03*
X804300Y626000D03*
X828700Y675000D03*
X803300Y675000D03*
X828700Y723000D03*
X803300Y723000D03*
D17*
X803300Y771000D03*
X828700Y771000D03*
D25*
X966700Y628000D03*
X941300Y628000D03*
X966700Y677000D03*
X941300Y677000D03*
X966700Y726000D03*
X941300Y726000D03*
D17*
X941300Y773000D03*
X966700Y773000D03*
D26*
X219400Y812240D03*
D27*
X244900Y812240D03*
X270400Y812240D03*
D28*
X1440800Y573200D02*
X1575000Y573200D01*
X1440800Y573200D02*
X1392000Y622000D01*
X1273700Y622000D01*
X1204400Y552700D01*
X1203400Y552700D01*
D29*
X353800Y462100D02*
X315700Y424000D01*
D30*
X353800Y462100D02*
X353800Y467350D01*
D29*
X339950Y467350D01*
X291300Y516000D01*
X289300Y516000D01*
D31*
X146300Y474000D02*
X90420Y418120D01*
X34270Y418120D01*
X33830Y418560D01*
X146300Y474000D02*
X228500Y391800D01*
X228500Y373400D01*
X228500Y391800D02*
X228500Y409200D01*
X289300Y470000D01*
D28*
X353800Y277100D02*
X358900Y272000D01*
X353800Y277100D02*
X353800Y391150D01*
D31*
X245900Y134500D02*
X245900Y36810D01*
X248460Y34250D01*
X245900Y134500D02*
X286700Y175300D01*
X296700Y175300D01*
X358900Y237500D01*
X358900Y272000D01*
X245900Y159900D02*
X230500Y175300D01*
X207800Y175300D01*
X223675Y117924D02*
X223060Y117309D01*
X223060Y34250D01*
X223675Y137675D02*
X245900Y159900D01*
X223675Y137675D02*
X223675Y117924D01*
D28*
X1010000Y82300D02*
X1070000Y142300D01*
X1070000Y461300D02*
X1010000Y521300D01*
X1070000Y461300D02*
X1070000Y142300D01*
X1010000Y521300D02*
X645700Y521300D01*
X611000Y556000D01*
X274560Y556000D01*
X256460Y537900D01*
X217100Y537900D02*
X197100Y557900D01*
X217100Y537900D02*
X256460Y537900D01*
D31*
X110030Y540900D02*
X110030Y482060D01*
X71930Y443960D02*
X33830Y443960D01*
X71930Y443960D02*
X110030Y482060D01*
X180100Y540900D02*
X197100Y557900D01*
X180100Y540900D02*
X110030Y540900D01*
X296700Y124500D02*
X296700Y57090D01*
X273860Y34250D01*
X458200Y665900D02*
X458200Y690800D01*
X488100Y720700D02*
X505260Y737860D01*
X488100Y720700D02*
X458200Y690800D01*
X559800Y687600D02*
X559800Y665900D01*
X507800Y750000D02*
X502560Y750000D01*
X505260Y746190D02*
X507800Y746190D01*
X701110Y746190D01*
X703900Y743400D01*
X219400Y766000D02*
X219400Y812240D01*
X219400Y766000D02*
X239400Y746000D01*
X239400Y718300D01*
X226200Y705100D01*
X239400Y746000D02*
X310400Y746000D01*
X316800Y739600D01*
X316800Y706100D01*
X498492Y720700D02*
X498556Y720764D01*
X498492Y720700D02*
X488100Y720700D01*
X526636Y720764D02*
X559800Y687600D01*
X526636Y720764D02*
X498556Y720764D01*
X505260Y737860D02*
X505260Y746190D01*
X507800Y746190D02*
X507800Y750000D01*
X502560Y750000D02*
X502560Y816380D01*
X505500Y704000D02*
X482400Y680900D01*
X482400Y642000D01*
X480400Y640000D01*
X389400Y640000D01*
X375400Y626000D01*
X375400Y588250D01*
D32*
X312400Y617000D03*
D31*
X316800Y621400D01*
X316800Y655300D01*
D28*
X950050Y429250D02*
X1010000Y369300D01*
X950050Y429250D02*
X353800Y429250D01*
D29*
X315700Y401000D02*
X315700Y378000D01*
X343950Y429250D02*
X353800Y429250D01*
X343950Y429250D02*
X315700Y401000D01*
X315700Y398600D02*
X315700Y378000D01*
X315700Y398600D02*
X290300Y424000D01*
D31*
X1337300Y440000D02*
X1393100Y495800D01*
X1337300Y440000D02*
X1203000Y440000D01*
X1062000Y581000D01*
D29*
X897900Y707750D02*
X861650Y744000D01*
X816000Y744000D01*
X803300Y731300D01*
X803300Y723000D01*
D31*
X897900Y707750D02*
X918000Y727850D01*
X918000Y809000D02*
X926000Y817000D01*
X998000Y817000D01*
X1062000Y753000D02*
X1062000Y680000D01*
D32*
X1062000Y680000D03*
X1062000Y581000D03*
D31*
X918000Y727850D02*
X918000Y809000D01*
X998000Y817000D02*
X1062000Y753000D01*
X1391300Y399000D02*
X1488100Y495800D01*
X1391300Y399000D02*
X1195376Y399000D01*
X1041376Y553000D01*
D29*
X847950Y669650D02*
X804300Y626000D01*
X847950Y669650D02*
X897900Y669650D01*
X882050Y669650D01*
X828700Y723000D01*
D31*
X897900Y669650D02*
X918000Y649550D01*
X918000Y601000D01*
X966000Y553000D01*
X1041376Y553000D01*
D29*
X941300Y726000D02*
X957300Y742000D01*
X987850Y742000D02*
X1021900Y707950D01*
X987850Y742000D02*
X957300Y742000D01*
D28*
X1202200Y495800D02*
X1203100Y495800D01*
X1028150Y669850D02*
X1021900Y669850D01*
X1028150Y669850D02*
X1202200Y495800D01*
D29*
X1021900Y669850D02*
X983150Y669850D01*
X941300Y628000D01*
X1021900Y669850D02*
X966700Y725050D01*
X966700Y726000D01*
D31*
X226200Y654300D02*
X193816Y686684D01*
X193816Y831080D01*
X247500Y675600D02*
X226200Y654300D01*
X247500Y675600D02*
X271500Y675600D01*
X322000Y675600D01*
X363100Y716700D02*
X458200Y716700D01*
X363100Y716700D02*
X322000Y675600D01*
X458200Y716700D02*
X462200Y716700D01*
X463700Y718200D01*
X477160Y732560D02*
X477160Y816380D01*
X477160Y732560D02*
X463700Y719100D01*
X463700Y718200D01*
D29*
X966700Y628000D02*
X971450Y632750D01*
X1020900Y632750D02*
X1021900Y631750D01*
X1020900Y632750D02*
X971450Y632750D01*
X897900Y631550D02*
X892350Y626000D01*
X829700Y626000D01*
D31*
X270400Y812240D02*
X270400Y816000D01*
X255320Y831080D01*
X193816Y831080D01*
D28*
X1203100Y89800D02*
X1244300Y131000D01*
X1351900Y131000D01*
X1393100Y89800D01*
M02*
