G04 EAGLE Gerber RS-274X export*
G75*
%MOMM*%
%FSLAX34Y34*%
%LPD*%
%IN*%
%IPPOS*%
%AMOC8*
5,1,8,0,0,1.08239X$1,22.5*%
G01*
%ADD10C,0.254000*%


D10*
X0Y0D02*
X1650000Y0D01*
X1650000Y850000D01*
X0Y850000D01*
X0Y0D01*
X1590000Y209000D02*
X1589974Y207602D01*
X1590069Y206206D01*
X1590286Y204825D01*
X1590623Y203467D01*
X1591076Y202144D01*
X1591644Y200866D01*
X1592320Y199642D01*
X1593101Y198481D01*
X1593979Y197393D01*
X1594949Y196386D01*
X1596004Y195467D01*
X1597134Y194644D01*
X1598332Y193922D01*
X1599588Y193307D01*
X1600893Y192804D01*
X1602237Y192417D01*
X1603609Y192148D01*
X1605000Y192000D01*
X1606398Y191974D01*
X1607794Y192069D01*
X1609175Y192286D01*
X1610533Y192623D01*
X1611856Y193076D01*
X1613134Y193644D01*
X1614358Y194320D01*
X1615519Y195101D01*
X1616607Y195979D01*
X1617614Y196949D01*
X1618533Y198004D01*
X1619356Y199134D01*
X1620078Y200332D01*
X1620693Y201588D01*
X1621196Y202893D01*
X1621583Y204237D01*
X1621852Y205609D01*
X1622000Y207000D01*
X1622000Y257000D01*
X1622026Y258398D01*
X1621931Y259794D01*
X1621714Y261175D01*
X1621377Y262533D01*
X1620924Y263856D01*
X1620356Y265134D01*
X1619680Y266358D01*
X1618900Y267519D01*
X1618021Y268607D01*
X1617051Y269614D01*
X1615996Y270533D01*
X1614866Y271356D01*
X1613668Y272078D01*
X1612412Y272693D01*
X1611107Y273196D01*
X1609763Y273583D01*
X1608391Y273852D01*
X1607000Y274000D01*
X1605602Y274026D01*
X1604206Y273931D01*
X1602825Y273714D01*
X1601467Y273377D01*
X1600144Y272924D01*
X1598866Y272356D01*
X1597642Y271680D01*
X1596481Y270900D01*
X1595393Y270021D01*
X1594386Y269051D01*
X1593467Y267996D01*
X1592644Y266866D01*
X1591922Y265668D01*
X1591307Y264412D01*
X1590804Y263107D01*
X1590417Y261763D01*
X1590148Y260391D01*
X1590000Y259000D01*
X1590000Y209000D01*
X30000Y209000D02*
X29974Y207602D01*
X30069Y206206D01*
X30286Y204825D01*
X30623Y203467D01*
X31076Y202144D01*
X31644Y200866D01*
X32320Y199642D01*
X33101Y198481D01*
X33979Y197393D01*
X34949Y196386D01*
X36004Y195467D01*
X37134Y194644D01*
X38332Y193922D01*
X39588Y193307D01*
X40893Y192804D01*
X42237Y192417D01*
X43609Y192148D01*
X45000Y192000D01*
X46398Y191974D01*
X47794Y192069D01*
X49175Y192286D01*
X50533Y192623D01*
X51856Y193076D01*
X53134Y193644D01*
X54358Y194320D01*
X55519Y195101D01*
X56607Y195979D01*
X57614Y196949D01*
X58533Y198004D01*
X59356Y199134D01*
X60078Y200332D01*
X60693Y201588D01*
X61196Y202893D01*
X61583Y204237D01*
X61852Y205609D01*
X62000Y207000D01*
X62000Y257000D01*
X62026Y258398D01*
X61931Y259794D01*
X61714Y261175D01*
X61377Y262533D01*
X60924Y263856D01*
X60356Y265134D01*
X59680Y266358D01*
X58900Y267519D01*
X58021Y268607D01*
X57051Y269614D01*
X55996Y270533D01*
X54866Y271356D01*
X53668Y272078D01*
X52412Y272693D01*
X51107Y273196D01*
X49763Y273583D01*
X48391Y273852D01*
X47000Y274000D01*
X45602Y274026D01*
X44206Y273931D01*
X42825Y273714D01*
X41467Y273377D01*
X40144Y272924D01*
X38866Y272356D01*
X37642Y271680D01*
X36481Y270900D01*
X35393Y270021D01*
X34386Y269051D01*
X33467Y267996D01*
X32644Y266866D01*
X31922Y265668D01*
X31307Y264412D01*
X30804Y263107D01*
X30417Y261763D01*
X30148Y260391D01*
X30000Y259000D01*
X30000Y209000D01*
X30000Y752500D02*
X29974Y751102D01*
X30069Y749706D01*
X30286Y748325D01*
X30623Y746967D01*
X31076Y745644D01*
X31644Y744366D01*
X32320Y743142D01*
X33101Y741981D01*
X33979Y740893D01*
X34949Y739886D01*
X36004Y738967D01*
X37134Y738144D01*
X38332Y737422D01*
X39588Y736807D01*
X40893Y736304D01*
X42237Y735917D01*
X43609Y735648D01*
X45000Y735500D01*
X46398Y735474D01*
X47794Y735569D01*
X49175Y735786D01*
X50533Y736123D01*
X51856Y736576D01*
X53134Y737144D01*
X54358Y737820D01*
X55519Y738601D01*
X56607Y739479D01*
X57614Y740449D01*
X58533Y741504D01*
X59356Y742634D01*
X60078Y743832D01*
X60693Y745088D01*
X61196Y746393D01*
X61583Y747737D01*
X61852Y749109D01*
X62000Y750500D01*
X62000Y800500D01*
X62026Y801898D01*
X61931Y803294D01*
X61714Y804675D01*
X61377Y806033D01*
X60924Y807356D01*
X60356Y808634D01*
X59680Y809858D01*
X58900Y811019D01*
X58021Y812107D01*
X57051Y813114D01*
X55996Y814033D01*
X54866Y814856D01*
X53668Y815578D01*
X52412Y816193D01*
X51107Y816696D01*
X49763Y817083D01*
X48391Y817352D01*
X47000Y817500D01*
X45602Y817526D01*
X44206Y817431D01*
X42825Y817214D01*
X41467Y816877D01*
X40144Y816424D01*
X38866Y815856D01*
X37642Y815180D01*
X36481Y814400D01*
X35393Y813521D01*
X34386Y812551D01*
X33467Y811496D01*
X32644Y810366D01*
X31922Y809168D01*
X31307Y807912D01*
X30804Y806607D01*
X30417Y805263D01*
X30148Y803891D01*
X30000Y802500D01*
X30000Y752500D01*
M02*
